<svg width="76" height="81" viewBox="0 0 76 81" fill="none" xmlns="http://www.w3.org/2000/svg">
<rect y="3" width="76" height="78" rx="15" fill="#9A9A9A"/>
<rect width="76" height="76" rx="15" fill="#FDFDFD"/>
<path d="M35.3945 37.4766C34.526 37.6654 33.8841 37.722 33.4688 37.6465C32.9779 37.4954 32.7324 37.1556 32.7324 36.627C32.7324 36.0605 32.959 35.7207 33.4121 35.6074C33.7897 35.5319 34.4128 35.6074 35.2812 35.834C38.6419 35.834 41.2852 35.0033 43.2109 33.3418C45.1367 31.7181 46.0996 29.4147 46.0996 26.4316C46.0996 23.8639 45.4577 21.8249 44.1738 20.3145C42.7767 18.6152 40.7754 17.7656 38.1699 17.7656C34.8092 17.7656 32.6569 18.3887 31.7129 19.6348C31.1842 20.3522 31.0332 21.5605 31.2598 23.2598L31.373 24.4492C31.373 25.2799 31.1276 26.0163 30.6367 26.6582C30.1836 27.2246 29.6738 27.5078 29.1074 27.5078C28.39 27.5078 27.7858 27.2812 27.2949 26.8281C26.6908 26.2617 26.3887 25.4499 26.3887 24.3926C26.3887 22.3913 27.3516 20.5977 29.2773 19.0117C31.543 17.237 34.5072 16.3496 38.1699 16.3496C41.8704 16.3496 44.7402 17.237 46.7793 19.0117C48.8184 20.7865 49.8379 23.2598 49.8379 26.4316C49.8379 28.9993 48.9316 31.2083 47.1191 33.0586C45.4577 34.7578 43.3053 35.9661 40.6621 36.6836C43.985 37.2122 46.5716 38.515 48.4219 40.5918C50.0833 42.4421 50.9141 44.6322 50.9141 47.1621C50.9141 50.7871 49.8379 53.7513 47.6855 56.0547C45.1934 58.6979 41.6061 60.0195 36.9238 60.0195C33.0345 60.0195 29.957 59.0944 27.6914 57.2441C25.6146 55.5072 24.5762 53.3548 24.5762 50.7871C24.5762 49.6543 24.8783 48.8047 25.4824 48.2383C25.9733 47.7852 26.5964 47.5586 27.3516 47.5586C27.9935 47.5586 28.5599 47.7852 29.0508 48.2383C29.6549 48.7292 29.957 49.4277 29.957 50.334L29.8438 51.5234C29.6927 53.6758 29.9004 55.2051 30.4668 56.1113C31.4486 57.7728 33.6009 58.6035 36.9238 58.6035C40.2845 58.6035 42.8522 57.4707 44.627 55.2051C46.2507 53.166 47.0625 50.485 47.0625 47.1621C47.0625 44.1413 46.1185 41.7812 44.2305 40.082C42.2292 38.3073 39.265 37.4199 35.3379 37.4199L35.3945 37.4766Z" fill="#383838"/>
</svg>
