<svg width="76" height="81" viewBox="0 0 76 81" fill="none" xmlns="http://www.w3.org/2000/svg">
<rect y="3" width="76" height="78" rx="15" fill="#9A9A9A"/>
<rect width="76" height="76" rx="15" fill="#FDFDFD"/>
<path d="M54.7656 53.6191C51.556 52.7884 48.2803 51.2214 44.9385 48.918C41.6156 46.6146 39.1328 44.3206 37.4902 42.0361C36.1309 44.3018 33.8464 46.5296 30.6367 48.7197C27.446 50.9098 24.0853 52.543 20.5547 53.6191L15.4854 47.2471C20.8285 46.4352 25.1709 44.4906 28.5127 41.4131C31.8545 38.3356 33.5254 35.4281 33.5254 32.6904V31.5293H18.2324L18.1758 24.5625H56.6631V31.5293H41.4834V32.6904C41.4834 35.3525 43.1449 38.2412 46.4678 41.3564C49.7907 44.4528 54.0859 46.4352 59.3535 47.3037L54.7656 53.6191Z" fill="#383838"/>
<path d="M65.3335 17.8662C63.8211 16.6683 62.6868 15.4329 61.9307 14.1602C61.137 15.6426 59.9504 16.8929 58.3706 17.9111L56.3154 15.9346C57.6406 15.2533 58.6663 14.3773 59.3926 13.3066C60.1188 12.236 60.4819 11.1055 60.4819 9.91504V9.10645H58.2583V6.50098H66.5127V9.10645H63.4243V9.91504C63.4243 11.0007 63.8174 12.1312 64.6035 13.3066C65.3896 14.4821 66.363 15.3206 67.5234 15.8223L65.3335 17.8662ZM55.6079 15.8447C54.6421 15.126 54.0356 14.557 53.7886 14.1377C53.0174 15.5527 51.7746 16.8105 50.0601 17.9111L48.0161 15.9346C49.3413 15.2533 50.367 14.3773 51.0933 13.3066C51.8195 12.236 52.1826 11.1055 52.1826 9.91504V9.10645H48.9819V6.50098H57.4497V9.10645H55.125V9.98242C55.125 10.8958 55.3534 11.7119 55.8101 12.4307C56.2668 13.1419 56.8882 13.651 57.6743 13.958L55.6079 15.8447Z" fill="#383838"/>
</svg>
