<svg width="76" height="81" viewBox="0 0 76 81" fill="none" xmlns="http://www.w3.org/2000/svg">
<rect y="3" width="76" height="78" rx="15" fill="#9A9A9A"/>
<rect width="76" height="76" rx="15" fill="#FDFDFD"/>
<path d="M28.541 39.459C29.9004 37.4954 31.4486 35.9661 33.1855 34.8711C35.3379 33.5117 37.679 32.832 40.209 32.832C43.4186 32.832 46.0052 33.9648 47.9688 36.2305C50.0456 38.6471 51.084 41.9889 51.084 46.2559C51.084 50.7116 49.6868 54.1855 46.8926 56.6777C44.5137 58.9056 41.6061 60.0195 38.1699 60.0195C34.0163 60.0195 30.8255 58.5091 28.5977 55.4883C26.1055 52.1654 24.8594 47.1243 24.8594 40.3652C24.8594 33.0775 26.2376 27.2812 28.9941 22.9766C31.8262 18.5208 35.7344 16.293 40.7188 16.293C43.6641 16.293 46.0241 16.916 47.7988 18.1621C49.3092 19.2572 50.0645 20.5221 50.0645 21.957C50.0645 22.901 49.8379 23.6374 49.3848 24.166C48.9694 24.6947 48.3652 24.959 47.5723 24.959C46.7793 24.959 46.1185 24.6947 45.5898 24.166C45.099 23.5996 44.8535 22.8633 44.8535 21.957C44.8535 20.8242 44.3815 19.8991 43.4375 19.1816C42.4557 18.4642 41.0775 18.1055 39.3027 18.1055C36.1309 18.1055 33.5632 19.9557 31.5996 23.6562C29.5605 27.5456 28.541 32.8132 28.541 39.459ZM28.541 42.291C28.541 48.4837 29.5039 52.8828 31.4297 55.4883C32.9779 57.5651 35.2246 58.6035 38.1699 58.6035C41.2285 58.6035 43.5319 57.4707 45.0801 55.2051C46.6283 53.015 47.4023 49.8053 47.4023 45.5762C47.4023 42.291 46.666 39.6667 45.1934 37.7031C43.6452 35.7018 41.5495 34.7012 38.9062 34.7012C36.7539 34.7012 34.6582 35.5319 32.6191 37.1934C30.9577 38.5905 29.5983 40.2897 28.541 42.291Z" fill="#383838"/>
</svg>
