<svg width="76" height="81" viewBox="0 0 76 81" fill="none" xmlns="http://www.w3.org/2000/svg">
<rect y="3" width="76" height="78" rx="15" fill="#9A9A9A"/>
<rect width="76" height="76" rx="15" fill="#FDFDFD"/>
<path d="M38.1133 53.2793C33.7331 53.2793 30.0326 51.8916 27.0117 49.1162C24.0098 46.3408 22.5088 42.8574 22.5088 38.666C22.5088 34.3236 24.0003 30.7835 26.9834 28.0459C29.9854 25.3083 33.6953 23.9395 38.1133 23.9395C42.4935 23.9395 46.1751 25.3177 49.1582 28.0742C52.1602 30.8307 53.6611 34.3613 53.6611 38.666C53.6611 42.8197 52.1413 46.2936 49.1016 49.0879C46.0618 51.8822 42.3991 53.2793 38.1133 53.2793ZM38.1133 30.9346C35.791 30.9346 33.8652 31.6615 32.3359 33.1152C30.8066 34.569 30.042 36.4382 30.042 38.7227C30.042 40.8184 30.8161 42.6025 32.3643 44.0752C33.9124 45.529 35.8288 46.2559 38.1133 46.2559C40.3411 46.2559 42.2292 45.5195 43.7773 44.0469C45.3444 42.5553 46.1279 40.7806 46.1279 38.7227C46.1279 36.5326 45.3538 34.6917 43.8057 33.2002C42.2575 31.6898 40.36 30.9346 38.1133 30.9346Z" fill="#383838"/>
</svg>
