<svg width="76" height="81" viewBox="0 0 76 81" fill="none" xmlns="http://www.w3.org/2000/svg">
<rect y="3" width="76" height="78" rx="15" fill="#9A9A9A"/>
<rect width="76" height="76" rx="15" fill="#FDFDFD"/>
<path d="M56.4932 53.6191C52.6794 50.5983 49.819 47.4831 47.9121 44.2734C45.9108 48.0117 42.9183 51.1647 38.9346 53.7324L33.752 48.748C37.0938 47.0299 39.6803 44.821 41.5117 42.1211C43.3431 39.4212 44.2588 36.5703 44.2588 33.5684V31.5293H38.6514V24.959H59.4668V31.5293H51.6787V33.5684C51.6787 36.306 52.6699 39.1569 54.6523 42.1211C56.6348 45.0853 59.0892 47.1999 62.0156 48.4648L56.4932 53.6191ZM31.9678 48.5215C29.5322 46.709 28.0029 45.2741 27.3799 44.2168C25.4352 47.7852 22.3011 50.957 17.9775 53.7324L12.8232 48.748C16.165 47.0299 18.7516 44.821 20.583 42.1211C22.4144 39.4212 23.3301 36.5703 23.3301 33.5684V31.5293H15.2588V24.959H36.6123V31.5293H30.75V33.7383C30.75 36.0417 31.3258 38.0996 32.4775 39.9121C33.6292 41.7057 35.1963 42.9896 37.1787 43.7637L31.9678 48.5215Z" fill="#383838"/>
<path d="M64.6484 17.8662C63.3757 17.5368 62.0767 16.9154 60.7515 16.002C59.4338 15.0885 58.4492 14.1789 57.7979 13.2729C57.2588 14.1714 56.3529 15.0549 55.0801 15.9233C53.8148 16.7918 52.4821 17.4395 51.082 17.8662L49.0718 15.3394C51.1906 15.0174 52.9126 14.2463 54.2378 13.0259C55.563 11.8055 56.2256 10.6525 56.2256 9.56689V9.10645H50.1611L50.1387 6.34375H65.4009V9.10645H59.3813V9.56689C59.3813 10.6226 60.0402 11.7681 61.3579 13.0034C62.6756 14.2313 64.3789 15.0174 66.4678 15.3618L64.6484 17.8662Z" fill="#383838"/>
</svg>
