<svg width="76" height="81" viewBox="0 0 76 81" fill="none" xmlns="http://www.w3.org/2000/svg">
<rect y="3" width="76" height="78" rx="15" fill="#9A9A9A"/>
<rect width="76" height="76" rx="15" fill="#FDFDFD"/>
<path d="M56.04 53.6191C52.3962 50.7871 49.5358 47.6341 47.459 44.1602C45.2878 47.9928 42.2858 51.1836 38.4531 53.7324L33.1855 48.8613C36.4707 47.3698 39.0479 45.1136 40.917 42.0928C42.805 39.0531 43.749 36.2871 43.749 33.7949V24.0527H51.1123V33.9082C51.1123 36.5892 52.0941 39.3929 54.0576 42.3193C56.0212 45.2458 58.4001 47.2943 61.1943 48.4648L56.04 53.6191ZM31.8545 48.1816C30.2119 47.0677 28.862 45.7272 27.8047 44.1602C25.709 47.8796 22.707 51.0703 18.7988 53.7324L13.5312 48.8613C16.8353 47.3509 19.4124 45.0853 21.2627 42.0645C23.1318 39.0247 24.0664 36.2682 24.0664 33.7949V24.0527H31.458V33.9082C31.458 38.6094 33.3838 41.819 37.2354 43.5371L31.8545 48.1816Z" fill="#383838"/>
<path d="M64.6484 17.4731C63.3083 17.0988 62.0018 16.4699 60.729 15.5864C59.4637 14.6955 58.4941 13.7446 57.8203 12.7339C56.2256 14.965 53.9795 16.5448 51.082 17.4731L49.1504 14.9688C51.2617 14.6393 52.9762 13.8008 54.2939 12.4531C55.6117 11.1055 56.2705 9.88135 56.2705 8.78076V6.1416H59.3364V8.78076C59.3364 9.86637 59.9953 11.083 61.313 12.4307C62.6382 13.7783 64.3415 14.6243 66.4229 14.9688L64.6484 17.4731Z" fill="#383838"/>
</svg>
