<svg width="76" height="81" viewBox="0 0 76 81" fill="none" xmlns="http://www.w3.org/2000/svg">
<rect y="3" width="76" height="78" rx="15" fill="#9A9A9A"/>
<rect width="76" height="76" rx="15" fill="#FDFDFD"/>
<path d="M51.5371 17.3125V19.2949L50.6875 20.5977C46.3828 27.6966 43.362 33.2096 41.625 37.1367C38.6419 43.9336 37.3581 49.9564 37.7734 55.2051C37.8867 56.6777 37.6979 57.8672 37.207 58.7734C36.7539 59.6042 36.1686 60.0195 35.4512 60.0195C34.6582 60.0195 34.0163 59.7174 33.5254 59.1133C32.959 58.3958 32.7324 57.3952 32.8457 56.1113C33.11 51.8444 34.526 46.9733 37.0938 41.498C38.7174 38.0618 41.8327 32.4733 46.4395 24.7324L48.9316 20.5977H33.1289C31.3164 20.5977 29.7116 21.5039 28.3145 23.3164C27.3704 24.5625 26.4642 26.3939 25.5957 28.8105L24.6328 28.4707L27.2949 17.3125H51.5371Z" fill="#383838"/>
</svg>
