<svg width="1456" height="178" viewBox="0 0 1456 178" fill="none" xmlns="http://www.w3.org/2000/svg">
<g filter="url(#filter0_d_2039_10438)">
<rect width="1448" height="158" rx="36" transform="matrix(1 0 0 -1 4 170)" fill="#7E7E7E"/>
<g filter="url(#filter1_i_2039_10438)">
<rect x="4" width="1448" height="158" rx="36" fill="#8E8E8E"/>
</g>
<g filter="url(#filter2_di_2039_10438)">
<rect x="36.7773" y="22.0996" width="118" height="118" rx="27" fill="#D2D2D2"/>
<rect x="36.7773" y="17.0996" width="118" height="118" rx="27" fill="#FDFDFD"/>
<path d="M81.9786 107.188V104.902C86.4903 104.902 89.6251 104.492 91.3829 103.672C93.3165 102.852 94.2833 101.328 94.2833 99.1016V53.6621C94.2833 52.0215 93.7852 50.8496 92.7891 50.1465C91.8516 49.4434 90.4454 49.0918 88.5704 49.0918H80.6602V47.4219C84.7032 46.9531 88.336 46.1328 91.5587 44.9609C94.0782 44.0234 96.8614 42.6465 99.9083 40.8301V99.1016C99.9083 101.328 100.963 102.852 103.072 103.672C104.947 104.492 108.199 104.902 112.828 104.902V107.188H81.9786Z" fill="#383838"/>
</g>
<g filter="url(#filter3_di_2039_10438)">
<rect x="177.18" y="22.0996" width="118" height="118" rx="27" fill="#D2D2D2"/>
<rect x="177.18" y="17.0996" width="118" height="118" rx="27" fill="#FDFDFD"/>
<path d="M257.714 90.5762L253.055 107.363H216.581V104.551C218.221 99.2773 221.298 93.9746 225.809 88.6426C229.97 83.7207 234.54 79.4434 239.52 75.8105C243.973 72.4121 246.991 69.1895 248.573 66.1426C249.921 63.623 250.595 60.4883 250.595 56.7383C250.595 52.1094 249.305 48.6523 246.727 46.3672C244.384 44.3164 241.102 43.291 236.884 43.291C232.899 43.291 229.706 44.0234 227.304 45.4883C224.784 47.0117 223.524 49.2383 223.524 52.168C223.524 53.5156 223.671 54.5996 223.964 55.4199C224.139 55.9473 224.432 56.5332 224.843 57.1777C225.194 57.6465 225.399 58.0273 225.458 58.3203C225.692 58.7305 225.809 59.2578 225.809 59.9023C225.809 61.3086 225.37 62.3633 224.491 63.0664C223.788 63.7109 222.909 64.0332 221.854 64.0332C220.624 64.0332 219.628 63.3301 218.866 61.9238C218.163 60.5762 217.811 58.877 217.811 56.8262C217.811 52.8418 219.364 49.3262 222.47 46.2793C226.161 42.7637 231.112 41.0059 237.323 41.0059C243.886 41.0059 248.749 42.4707 251.913 45.4004C254.96 48.1543 256.483 52.2852 256.483 57.793C256.483 62.3047 255.136 66.4062 252.44 70.0977C249.921 73.6133 245.526 77.5684 239.257 81.9629C234.804 85.0098 231.141 87.9688 228.27 90.8398C224.579 94.4141 221.854 98.2227 220.096 102.266H242.245C245.643 102.266 248.28 101.533 250.155 100.068C252.206 98.252 254.198 94.9414 256.132 90.1367L257.714 90.5762Z" fill="#383838"/>
</g>
<g filter="url(#filter4_di_2039_10438)">
<rect x="317.583" y="22.0996" width="118" height="118" rx="27" fill="#D2D2D2"/>
<rect x="317.583" y="17.0996" width="118" height="118" rx="27" fill="#FDFDFD"/>
<path d="M372.541 73.7012C371.193 73.9941 370.197 74.082 369.552 73.9648C368.791 73.7305 368.41 73.2031 368.41 72.3828C368.41 71.5039 368.761 70.9766 369.464 70.8008C370.05 70.6836 371.017 70.8008 372.365 71.1523C377.58 71.1523 381.681 69.8633 384.669 67.2852C387.658 64.7656 389.152 61.1914 389.152 56.5625C389.152 52.5781 388.156 49.4141 386.164 47.0703C383.996 44.4336 380.89 43.1152 376.847 43.1152C371.632 43.1152 368.292 44.082 366.828 46.0156C366.007 47.1289 365.773 49.0039 366.125 51.6406L366.3 53.4863C366.3 54.7754 365.919 55.918 365.158 56.9141C364.455 57.793 363.664 58.2324 362.785 58.2324C361.671 58.2324 360.734 57.8809 359.972 57.1777C359.035 56.2988 358.566 55.0391 358.566 53.3984C358.566 50.293 360.06 47.5098 363.048 45.0488C366.564 42.2949 371.164 40.918 376.847 40.918C382.589 40.918 387.042 42.2949 390.207 45.0488C393.371 47.8027 394.953 51.6406 394.953 56.5625C394.953 60.5469 393.546 63.9746 390.734 66.8457C388.156 69.4824 384.816 71.3574 380.714 72.4707C385.871 73.291 389.884 75.3125 392.755 78.5352C395.333 81.4062 396.623 84.8047 396.623 88.7305C396.623 94.3555 394.953 98.9551 391.613 102.529C387.746 106.631 382.179 108.682 374.914 108.682C368.878 108.682 364.103 107.246 360.587 104.375C357.365 101.68 355.753 98.3398 355.753 94.3555C355.753 92.5977 356.222 91.2793 357.16 90.4004C357.921 89.6973 358.888 89.3457 360.06 89.3457C361.056 89.3457 361.935 89.6973 362.697 90.4004C363.634 91.1621 364.103 92.2461 364.103 93.6523L363.927 95.498C363.693 98.8379 364.015 101.211 364.894 102.617C366.417 105.195 369.757 106.484 374.914 106.484C380.128 106.484 384.113 104.727 386.867 101.211C389.386 98.0469 390.646 93.8867 390.646 88.7305C390.646 84.043 389.181 80.3809 386.251 77.7441C383.146 74.9902 378.546 73.6133 372.453 73.6133L372.541 73.7012Z" fill="#383838"/>
</g>
<g filter="url(#filter5_di_2039_10438)">
<rect x="457.986" y="22.0996" width="118" height="118" rx="27" fill="#D2D2D2"/>
<rect x="457.986" y="17.0996" width="118" height="118" rx="27" fill="#FDFDFD"/>
<path d="M511.537 107.188V105.166C514.877 105.166 517.162 104.902 518.393 104.375C519.74 103.789 520.414 102.734 520.414 101.211V89.6973H495.453V87.0605L523.315 41.0938H526.039V86.8848H537.729V89.6973H526.039V101.299C526.039 102.822 526.772 103.848 528.237 104.375C529.408 104.844 531.547 105.078 534.653 105.078V107.188H511.537ZM520.414 50.498L498.354 86.8848H520.414V50.498Z" fill="#383838"/>
</g>
<g filter="url(#filter6_di_2039_10438)">
<rect x="598.39" y="22.0996" width="118" height="118" rx="27" fill="#D2D2D2"/>
<rect x="598.39" y="17.0996" width="118" height="118" rx="27" fill="#FDFDFD"/>
<path d="M658.093 47.4219H643.854L642.36 72.2949C644.294 70.1855 646.462 68.6328 648.864 67.6367C651.384 66.6992 654.343 66.2305 657.741 66.2305C664.304 66.2305 669.401 68.3691 673.034 72.6465C676.315 76.4551 677.956 81.2598 677.956 87.0605C677.956 92.5684 676.315 97.3438 673.034 101.387C669.284 106.133 664.186 108.506 657.741 108.506C651.53 108.506 646.52 106.953 642.712 103.848C639.196 101.035 637.438 97.5781 637.438 93.4766C637.438 92.1289 637.819 91.1035 638.581 90.4004C639.343 89.7559 640.28 89.4336 641.393 89.4336C642.507 89.4336 643.444 89.7559 644.206 90.4004C645.026 91.1035 645.436 92.0703 645.436 93.3008L645.261 95.6738C644.968 99.0137 645.29 101.328 646.227 102.617C647.751 104.844 651.237 105.957 656.686 105.957C661.667 105.957 665.563 103.848 668.376 99.6289C670.837 96.0547 672.067 91.8359 672.067 86.9727C672.067 81.8164 670.837 77.5684 668.376 74.2285C665.622 70.4199 661.726 68.5156 656.686 68.5156C653.405 68.5156 650.329 69.4238 647.458 71.2402C645.173 72.6465 643.239 74.4629 641.657 76.6895L639.811 75.8984L641.833 42.4121H675.143L673.737 47.4219H658.093Z" fill="#383838"/>
</g>
<g filter="url(#filter7_di_2039_10438)">
<rect x="738.793" y="22.0996" width="118" height="118" rx="27" fill="#D2D2D2"/>
<rect x="738.793" y="17.0996" width="118" height="118" rx="27" fill="#FDFDFD"/>
<path d="M783.115 76.7773C785.224 73.7305 787.627 71.3574 790.322 69.6582C793.662 67.5488 797.295 66.4941 801.22 66.4941C806.201 66.4941 810.214 68.252 813.261 71.7676C816.484 75.5176 818.095 80.7031 818.095 87.3242C818.095 94.2383 815.927 99.6289 811.591 103.496C807.9 106.953 803.388 108.682 798.056 108.682C791.611 108.682 786.66 106.338 783.203 101.65C779.336 96.4941 777.402 88.6719 777.402 78.1836C777.402 66.875 779.541 57.8809 783.818 51.2012C788.213 44.2871 794.277 40.8301 802.011 40.8301C806.582 40.8301 810.244 41.7969 812.998 43.7305C815.341 45.4297 816.513 47.3926 816.513 49.6191C816.513 51.084 816.162 52.2266 815.459 53.0469C814.814 53.8672 813.877 54.2773 812.646 54.2773C811.416 54.2773 810.39 53.8672 809.57 53.0469C808.808 52.168 808.427 51.0254 808.427 49.6191C808.427 47.8613 807.695 46.4258 806.23 45.3125C804.707 44.1992 802.568 43.6426 799.814 43.6426C794.892 43.6426 790.908 46.5137 787.861 52.2559C784.697 58.291 783.115 66.4648 783.115 76.7773ZM783.115 81.1719C783.115 90.7812 784.609 97.6074 787.597 101.65C790 104.873 793.486 106.484 798.056 106.484C802.802 106.484 806.377 104.727 808.779 101.211C811.181 97.8125 812.382 92.832 812.382 86.2695C812.382 81.1719 811.24 77.0996 808.955 74.0527C806.552 70.9473 803.3 69.3945 799.199 69.3945C795.859 69.3945 792.607 70.6836 789.443 73.2617C786.865 75.4297 784.756 78.0664 783.115 81.1719Z" fill="#383838"/>
</g>
<g filter="url(#filter8_di_2039_10438)">
<rect x="879.196" y="22.0996" width="118" height="118" rx="27" fill="#D2D2D2"/>
<rect x="879.196" y="17.0996" width="118" height="118" rx="27" fill="#FDFDFD"/>
<path d="M959.201 42.4121V45.4883L957.883 47.5098C951.203 58.5254 946.516 67.0801 943.821 73.1738C939.192 83.7207 937.2 93.0664 937.844 101.211C938.02 103.496 937.727 105.342 936.965 106.748C936.262 108.037 935.354 108.682 934.241 108.682C933.01 108.682 932.014 108.213 931.252 107.275C930.373 106.162 930.022 104.609 930.198 102.617C930.608 95.9961 932.805 88.4375 936.789 79.9414C939.309 74.6094 944.143 65.9375 951.291 53.9258L955.159 47.5098H930.637C927.825 47.5098 925.334 48.916 923.166 51.7285C921.701 53.6621 920.295 56.5039 918.948 60.2539L917.453 59.7266L921.584 42.4121H959.201Z" fill="#383838"/>
</g>
<g filter="url(#filter9_di_2039_10438)">
<rect x="1019.6" y="22.0996" width="118" height="118" rx="27" fill="#D2D2D2"/>
<rect x="1019.6" y="17.0996" width="118" height="118" rx="27" fill="#FDFDFD"/>
<path d="M1078.69 40.8301C1083.9 40.8301 1088.03 42.1484 1091.08 44.7852C1094.18 47.4805 1095.74 51.3184 1095.74 56.2988C1095.74 60.2246 1094.57 63.4473 1092.22 65.9668C1090.17 68.252 1087.12 70.0977 1083.08 71.5039C1088.35 73.0273 1092.28 75.3125 1094.86 78.3594C1097.67 81.6406 1099.08 85.9766 1099.08 91.3672C1099.08 96.1133 1097.03 100.186 1092.92 103.584C1088.88 106.982 1084.08 108.682 1078.51 108.682C1072.77 108.682 1068.02 107.217 1064.27 104.287C1060.41 101.182 1058.47 97.168 1058.47 92.2461C1058.47 88.3789 1059.32 85.1562 1061.02 82.5781C1063.13 79.4141 1066.94 76.4844 1072.45 73.7891C1068.93 72.5586 1066.18 70.5078 1064.18 67.6367C1062.13 64.6484 1061.11 61.0156 1061.11 56.7383C1061.11 52.8125 1062.51 49.2969 1065.33 46.1914C1068.61 42.6172 1073.06 40.8301 1078.69 40.8301ZM1063.92 91.9824C1063.92 96.4355 1065.33 99.9805 1068.14 102.617C1070.89 105.195 1074.44 106.484 1078.77 106.484C1083.75 106.484 1087.74 104.99 1090.73 102.002C1093.6 99.248 1095.03 95.7324 1095.03 91.4551C1095.03 87.5293 1093.34 84.1895 1089.94 81.4355C1086.95 78.9746 1082.2 76.7188 1075.7 74.668C1070.84 77.0703 1067.64 79.4434 1066.12 81.7871C1064.65 84.0137 1063.92 87.4121 1063.92 91.9824ZM1078.6 42.7637C1074.5 42.7637 1071.22 43.9062 1068.75 46.1914C1066.12 48.7109 1064.8 52.168 1064.8 56.5625C1064.8 59.7852 1066.21 62.5684 1069.02 64.9121C1071.54 66.9043 1075.41 68.7793 1080.62 70.5371C1084.31 68.8965 1086.98 67.0508 1088.62 65C1090.49 62.7148 1091.43 59.8438 1091.43 56.3867C1091.43 52.168 1090.29 48.8281 1088 46.3672C1085.66 43.9648 1082.52 42.7637 1078.6 42.7637Z" fill="#383838"/>
</g>
<g filter="url(#filter10_di_2039_10438)">
<rect x="1160" y="22.0996" width="118" height="118" rx="27" fill="#D2D2D2"/>
<rect x="1160" y="17.0996" width="118" height="118" rx="27" fill="#FDFDFD"/>
<path d="M1233.59 72.9102C1231.42 75.8984 1229.02 78.2422 1226.38 79.9414C1223.04 82.0508 1219.44 83.1055 1215.57 83.1055C1210.53 83.1055 1206.49 81.3184 1203.45 77.7441C1200.28 73.9355 1198.7 68.6621 1198.7 61.9238C1198.7 55.1855 1200.84 49.8828 1205.11 46.0156C1208.86 42.6172 1213.41 40.918 1218.74 40.918C1225.07 40.918 1229.99 43.2617 1233.5 47.9492C1237.43 53.1055 1239.39 60.957 1239.39 71.5039C1239.39 82.6953 1237.22 91.6602 1232.89 98.3984C1228.49 105.371 1222.49 108.857 1214.87 108.857C1210.24 108.857 1206.55 107.861 1203.8 105.869C1201.45 104.17 1200.28 102.236 1200.28 100.068C1200.28 98.5449 1200.63 97.373 1201.34 96.5527C1201.98 95.791 1202.95 95.4102 1204.24 95.4102C1205.41 95.4102 1206.37 95.791 1207.14 96.5527C1207.96 97.4316 1208.37 98.6035 1208.37 100.068C1208.37 101.768 1209.07 103.174 1210.48 104.287C1212.06 105.459 1214.26 106.045 1217.07 106.045C1221.87 106.045 1225.77 103.145 1228.76 97.3438C1231.98 91.3086 1233.59 83.1641 1233.59 72.9102ZM1233.68 68.5156C1233.68 58.8477 1232.16 51.9629 1229.11 47.8613C1226.71 44.6973 1223.25 43.1152 1218.74 43.1152C1213.93 43.1152 1210.33 44.8438 1207.93 48.3008C1205.58 51.6406 1204.41 56.5332 1204.41 62.9785C1204.41 68.1934 1205.55 72.3535 1207.84 75.459C1210.18 78.623 1213.46 80.2051 1217.68 80.2051C1220.91 80.2051 1224.1 78.916 1227.26 76.3379C1229.9 74.1699 1232.04 71.5625 1233.68 68.5156Z" fill="#383838"/>
</g>
<g filter="url(#filter11_di_2039_10438)">
<rect x="1300.4" y="22.0996" width="118" height="118" rx="27" fill="#D2D2D2"/>
<rect x="1300.4" y="17.0996" width="118" height="118" rx="27" fill="#FDFDFD"/>
<path d="M1359.67 40.8301C1367.17 40.8301 1372.88 44.2578 1376.81 51.1133C1380.26 57.0898 1381.99 64.9707 1381.99 74.7559C1381.99 84.3652 1380.26 92.1582 1376.81 98.1348C1372.88 104.932 1367.17 108.33 1359.67 108.33C1352.11 108.33 1346.37 104.932 1342.44 98.1348C1339.04 92.1582 1337.34 84.3652 1337.34 74.7559C1337.34 64.9707 1339.04 57.0898 1342.44 51.1133C1346.37 44.2578 1352.11 40.8301 1359.67 40.8301ZM1359.67 43.2031C1354.04 43.2031 1349.77 46.3672 1346.84 52.6953C1344.32 58.3203 1343.06 65.6738 1343.06 74.7559C1343.06 83.7207 1344.32 90.957 1346.84 96.4648C1349.77 102.793 1354.04 105.957 1359.67 105.957C1365.23 105.957 1369.48 102.793 1372.41 96.4648C1375.05 90.8984 1376.37 83.6621 1376.37 74.7559C1376.37 65.6738 1375.05 58.3203 1372.41 52.6953C1369.48 46.3672 1365.23 43.2031 1359.67 43.2031Z" fill="#383838"/>
</g>
</g>
<defs>
<filter id="filter0_d_2039_10438" x="0.4" y="0" width="1455.2" height="177.2" filterUnits="userSpaceOnUse" color-interpolation-filters="sRGB">
<feFlood flood-opacity="0" result="BackgroundImageFix"/>
<feColorMatrix in="SourceAlpha" type="matrix" values="0 0 0 0 0 0 0 0 0 0 0 0 0 0 0 0 0 0 127 0" result="hardAlpha"/>
<feOffset dy="3.6"/>
<feGaussianBlur stdDeviation="1.8"/>
<feComposite in2="hardAlpha" operator="out"/>
<feColorMatrix type="matrix" values="0 0 0 0 0 0 0 0 0 0 0 0 0 0 0 0 0 0 0.25 0"/>
<feBlend mode="normal" in2="BackgroundImageFix" result="effect1_dropShadow_2039_10438"/>
<feBlend mode="normal" in="SourceGraphic" in2="effect1_dropShadow_2039_10438" result="shape"/>
</filter>
<filter id="filter1_i_2039_10438" x="4" y="0" width="1448" height="161.6" filterUnits="userSpaceOnUse" color-interpolation-filters="sRGB">
<feFlood flood-opacity="0" result="BackgroundImageFix"/>
<feBlend mode="normal" in="SourceGraphic" in2="BackgroundImageFix" result="shape"/>
<feColorMatrix in="SourceAlpha" type="matrix" values="0 0 0 0 0 0 0 0 0 0 0 0 0 0 0 0 0 0 127 0" result="hardAlpha"/>
<feOffset dy="3.6"/>
<feGaussianBlur stdDeviation="2.7"/>
<feComposite in2="hardAlpha" operator="arithmetic" k2="-1" k3="1"/>
<feColorMatrix type="matrix" values="0 0 0 0 1 0 0 0 0 1 0 0 0 0 1 0 0 0 0.25 0"/>
<feBlend mode="normal" in2="shape" result="effect1_innerShadow_2039_10438"/>
</filter>
<filter id="filter2_di_2039_10438" x="29.5773" y="13.4996" width="132.4" height="137.675" filterUnits="userSpaceOnUse" color-interpolation-filters="sRGB">
<feFlood flood-opacity="0" result="BackgroundImageFix"/>
<feColorMatrix in="SourceAlpha" type="matrix" values="0 0 0 0 0 0 0 0 0 0 0 0 0 0 0 0 0 0 127 0" result="hardAlpha"/>
<feOffset dy="3.6"/>
<feGaussianBlur stdDeviation="3.6"/>
<feComposite in2="hardAlpha" operator="out"/>
<feColorMatrix type="matrix" values="0 0 0 0 0 0 0 0 0 0 0 0 0 0 0 0 0 0 0.25 0"/>
<feBlend mode="normal" in2="BackgroundImageFix" result="effect1_dropShadow_2039_10438"/>
<feBlend mode="normal" in="SourceGraphic" in2="effect1_dropShadow_2039_10438" result="shape"/>
<feColorMatrix in="SourceAlpha" type="matrix" values="0 0 0 0 0 0 0 0 0 0 0 0 0 0 0 0 0 0 127 0" result="hardAlpha"/>
<feOffset dy="3.6"/>
<feGaussianBlur stdDeviation="1.8"/>
<feComposite in2="hardAlpha" operator="arithmetic" k2="-1" k3="1"/>
<feColorMatrix type="matrix" values="0 0 0 0 1 0 0 0 0 1 0 0 0 0 1 0 0 0 0.25 0"/>
<feBlend mode="normal" in2="shape" result="effect2_innerShadow_2039_10438"/>
</filter>
<filter id="filter3_di_2039_10438" x="169.98" y="13.4996" width="132.4" height="137.675" filterUnits="userSpaceOnUse" color-interpolation-filters="sRGB">
<feFlood flood-opacity="0" result="BackgroundImageFix"/>
<feColorMatrix in="SourceAlpha" type="matrix" values="0 0 0 0 0 0 0 0 0 0 0 0 0 0 0 0 0 0 127 0" result="hardAlpha"/>
<feOffset dy="3.6"/>
<feGaussianBlur stdDeviation="3.6"/>
<feComposite in2="hardAlpha" operator="out"/>
<feColorMatrix type="matrix" values="0 0 0 0 0 0 0 0 0 0 0 0 0 0 0 0 0 0 0.25 0"/>
<feBlend mode="normal" in2="BackgroundImageFix" result="effect1_dropShadow_2039_10438"/>
<feBlend mode="normal" in="SourceGraphic" in2="effect1_dropShadow_2039_10438" result="shape"/>
<feColorMatrix in="SourceAlpha" type="matrix" values="0 0 0 0 0 0 0 0 0 0 0 0 0 0 0 0 0 0 127 0" result="hardAlpha"/>
<feOffset dy="3.6"/>
<feGaussianBlur stdDeviation="1.8"/>
<feComposite in2="hardAlpha" operator="arithmetic" k2="-1" k3="1"/>
<feColorMatrix type="matrix" values="0 0 0 0 1 0 0 0 0 1 0 0 0 0 1 0 0 0 0.25 0"/>
<feBlend mode="normal" in2="shape" result="effect2_innerShadow_2039_10438"/>
</filter>
<filter id="filter4_di_2039_10438" x="310.383" y="13.4996" width="132.4" height="137.675" filterUnits="userSpaceOnUse" color-interpolation-filters="sRGB">
<feFlood flood-opacity="0" result="BackgroundImageFix"/>
<feColorMatrix in="SourceAlpha" type="matrix" values="0 0 0 0 0 0 0 0 0 0 0 0 0 0 0 0 0 0 127 0" result="hardAlpha"/>
<feOffset dy="3.6"/>
<feGaussianBlur stdDeviation="3.6"/>
<feComposite in2="hardAlpha" operator="out"/>
<feColorMatrix type="matrix" values="0 0 0 0 0 0 0 0 0 0 0 0 0 0 0 0 0 0 0.25 0"/>
<feBlend mode="normal" in2="BackgroundImageFix" result="effect1_dropShadow_2039_10438"/>
<feBlend mode="normal" in="SourceGraphic" in2="effect1_dropShadow_2039_10438" result="shape"/>
<feColorMatrix in="SourceAlpha" type="matrix" values="0 0 0 0 0 0 0 0 0 0 0 0 0 0 0 0 0 0 127 0" result="hardAlpha"/>
<feOffset dy="3.6"/>
<feGaussianBlur stdDeviation="1.8"/>
<feComposite in2="hardAlpha" operator="arithmetic" k2="-1" k3="1"/>
<feColorMatrix type="matrix" values="0 0 0 0 1 0 0 0 0 1 0 0 0 0 1 0 0 0 0.25 0"/>
<feBlend mode="normal" in2="shape" result="effect2_innerShadow_2039_10438"/>
</filter>
<filter id="filter5_di_2039_10438" x="450.786" y="13.4996" width="132.4" height="137.675" filterUnits="userSpaceOnUse" color-interpolation-filters="sRGB">
<feFlood flood-opacity="0" result="BackgroundImageFix"/>
<feColorMatrix in="SourceAlpha" type="matrix" values="0 0 0 0 0 0 0 0 0 0 0 0 0 0 0 0 0 0 127 0" result="hardAlpha"/>
<feOffset dy="3.6"/>
<feGaussianBlur stdDeviation="3.6"/>
<feComposite in2="hardAlpha" operator="out"/>
<feColorMatrix type="matrix" values="0 0 0 0 0 0 0 0 0 0 0 0 0 0 0 0 0 0 0.25 0"/>
<feBlend mode="normal" in2="BackgroundImageFix" result="effect1_dropShadow_2039_10438"/>
<feBlend mode="normal" in="SourceGraphic" in2="effect1_dropShadow_2039_10438" result="shape"/>
<feColorMatrix in="SourceAlpha" type="matrix" values="0 0 0 0 0 0 0 0 0 0 0 0 0 0 0 0 0 0 127 0" result="hardAlpha"/>
<feOffset dy="3.6"/>
<feGaussianBlur stdDeviation="1.8"/>
<feComposite in2="hardAlpha" operator="arithmetic" k2="-1" k3="1"/>
<feColorMatrix type="matrix" values="0 0 0 0 1 0 0 0 0 1 0 0 0 0 1 0 0 0 0.25 0"/>
<feBlend mode="normal" in2="shape" result="effect2_innerShadow_2039_10438"/>
</filter>
<filter id="filter6_di_2039_10438" x="591.19" y="13.4996" width="132.4" height="137.675" filterUnits="userSpaceOnUse" color-interpolation-filters="sRGB">
<feFlood flood-opacity="0" result="BackgroundImageFix"/>
<feColorMatrix in="SourceAlpha" type="matrix" values="0 0 0 0 0 0 0 0 0 0 0 0 0 0 0 0 0 0 127 0" result="hardAlpha"/>
<feOffset dy="3.6"/>
<feGaussianBlur stdDeviation="3.6"/>
<feComposite in2="hardAlpha" operator="out"/>
<feColorMatrix type="matrix" values="0 0 0 0 0 0 0 0 0 0 0 0 0 0 0 0 0 0 0.25 0"/>
<feBlend mode="normal" in2="BackgroundImageFix" result="effect1_dropShadow_2039_10438"/>
<feBlend mode="normal" in="SourceGraphic" in2="effect1_dropShadow_2039_10438" result="shape"/>
<feColorMatrix in="SourceAlpha" type="matrix" values="0 0 0 0 0 0 0 0 0 0 0 0 0 0 0 0 0 0 127 0" result="hardAlpha"/>
<feOffset dy="3.6"/>
<feGaussianBlur stdDeviation="1.8"/>
<feComposite in2="hardAlpha" operator="arithmetic" k2="-1" k3="1"/>
<feColorMatrix type="matrix" values="0 0 0 0 1 0 0 0 0 1 0 0 0 0 1 0 0 0 0.25 0"/>
<feBlend mode="normal" in2="shape" result="effect2_innerShadow_2039_10438"/>
</filter>
<filter id="filter7_di_2039_10438" x="731.593" y="13.4996" width="132.4" height="137.675" filterUnits="userSpaceOnUse" color-interpolation-filters="sRGB">
<feFlood flood-opacity="0" result="BackgroundImageFix"/>
<feColorMatrix in="SourceAlpha" type="matrix" values="0 0 0 0 0 0 0 0 0 0 0 0 0 0 0 0 0 0 127 0" result="hardAlpha"/>
<feOffset dy="3.6"/>
<feGaussianBlur stdDeviation="3.6"/>
<feComposite in2="hardAlpha" operator="out"/>
<feColorMatrix type="matrix" values="0 0 0 0 0 0 0 0 0 0 0 0 0 0 0 0 0 0 0.25 0"/>
<feBlend mode="normal" in2="BackgroundImageFix" result="effect1_dropShadow_2039_10438"/>
<feBlend mode="normal" in="SourceGraphic" in2="effect1_dropShadow_2039_10438" result="shape"/>
<feColorMatrix in="SourceAlpha" type="matrix" values="0 0 0 0 0 0 0 0 0 0 0 0 0 0 0 0 0 0 127 0" result="hardAlpha"/>
<feOffset dy="3.6"/>
<feGaussianBlur stdDeviation="1.8"/>
<feComposite in2="hardAlpha" operator="arithmetic" k2="-1" k3="1"/>
<feColorMatrix type="matrix" values="0 0 0 0 1 0 0 0 0 1 0 0 0 0 1 0 0 0 0.25 0"/>
<feBlend mode="normal" in2="shape" result="effect2_innerShadow_2039_10438"/>
</filter>
<filter id="filter8_di_2039_10438" x="871.996" y="13.4996" width="132.4" height="137.675" filterUnits="userSpaceOnUse" color-interpolation-filters="sRGB">
<feFlood flood-opacity="0" result="BackgroundImageFix"/>
<feColorMatrix in="SourceAlpha" type="matrix" values="0 0 0 0 0 0 0 0 0 0 0 0 0 0 0 0 0 0 127 0" result="hardAlpha"/>
<feOffset dy="3.6"/>
<feGaussianBlur stdDeviation="3.6"/>
<feComposite in2="hardAlpha" operator="out"/>
<feColorMatrix type="matrix" values="0 0 0 0 0 0 0 0 0 0 0 0 0 0 0 0 0 0 0.25 0"/>
<feBlend mode="normal" in2="BackgroundImageFix" result="effect1_dropShadow_2039_10438"/>
<feBlend mode="normal" in="SourceGraphic" in2="effect1_dropShadow_2039_10438" result="shape"/>
<feColorMatrix in="SourceAlpha" type="matrix" values="0 0 0 0 0 0 0 0 0 0 0 0 0 0 0 0 0 0 127 0" result="hardAlpha"/>
<feOffset dy="3.6"/>
<feGaussianBlur stdDeviation="1.8"/>
<feComposite in2="hardAlpha" operator="arithmetic" k2="-1" k3="1"/>
<feColorMatrix type="matrix" values="0 0 0 0 1 0 0 0 0 1 0 0 0 0 1 0 0 0 0.25 0"/>
<feBlend mode="normal" in2="shape" result="effect2_innerShadow_2039_10438"/>
</filter>
<filter id="filter9_di_2039_10438" x="1012.4" y="13.4996" width="132.4" height="137.675" filterUnits="userSpaceOnUse" color-interpolation-filters="sRGB">
<feFlood flood-opacity="0" result="BackgroundImageFix"/>
<feColorMatrix in="SourceAlpha" type="matrix" values="0 0 0 0 0 0 0 0 0 0 0 0 0 0 0 0 0 0 127 0" result="hardAlpha"/>
<feOffset dy="3.6"/>
<feGaussianBlur stdDeviation="3.6"/>
<feComposite in2="hardAlpha" operator="out"/>
<feColorMatrix type="matrix" values="0 0 0 0 0 0 0 0 0 0 0 0 0 0 0 0 0 0 0.25 0"/>
<feBlend mode="normal" in2="BackgroundImageFix" result="effect1_dropShadow_2039_10438"/>
<feBlend mode="normal" in="SourceGraphic" in2="effect1_dropShadow_2039_10438" result="shape"/>
<feColorMatrix in="SourceAlpha" type="matrix" values="0 0 0 0 0 0 0 0 0 0 0 0 0 0 0 0 0 0 127 0" result="hardAlpha"/>
<feOffset dy="3.6"/>
<feGaussianBlur stdDeviation="1.8"/>
<feComposite in2="hardAlpha" operator="arithmetic" k2="-1" k3="1"/>
<feColorMatrix type="matrix" values="0 0 0 0 1 0 0 0 0 1 0 0 0 0 1 0 0 0 0.25 0"/>
<feBlend mode="normal" in2="shape" result="effect2_innerShadow_2039_10438"/>
</filter>
<filter id="filter10_di_2039_10438" x="1152.8" y="13.4996" width="132.4" height="137.675" filterUnits="userSpaceOnUse" color-interpolation-filters="sRGB">
<feFlood flood-opacity="0" result="BackgroundImageFix"/>
<feColorMatrix in="SourceAlpha" type="matrix" values="0 0 0 0 0 0 0 0 0 0 0 0 0 0 0 0 0 0 127 0" result="hardAlpha"/>
<feOffset dy="3.6"/>
<feGaussianBlur stdDeviation="3.6"/>
<feComposite in2="hardAlpha" operator="out"/>
<feColorMatrix type="matrix" values="0 0 0 0 0 0 0 0 0 0 0 0 0 0 0 0 0 0 0.25 0"/>
<feBlend mode="normal" in2="BackgroundImageFix" result="effect1_dropShadow_2039_10438"/>
<feBlend mode="normal" in="SourceGraphic" in2="effect1_dropShadow_2039_10438" result="shape"/>
<feColorMatrix in="SourceAlpha" type="matrix" values="0 0 0 0 0 0 0 0 0 0 0 0 0 0 0 0 0 0 127 0" result="hardAlpha"/>
<feOffset dy="3.6"/>
<feGaussianBlur stdDeviation="1.8"/>
<feComposite in2="hardAlpha" operator="arithmetic" k2="-1" k3="1"/>
<feColorMatrix type="matrix" values="0 0 0 0 1 0 0 0 0 1 0 0 0 0 1 0 0 0 0.25 0"/>
<feBlend mode="normal" in2="shape" result="effect2_innerShadow_2039_10438"/>
</filter>
<filter id="filter11_di_2039_10438" x="1293.2" y="13.4996" width="132.4" height="137.675" filterUnits="userSpaceOnUse" color-interpolation-filters="sRGB">
<feFlood flood-opacity="0" result="BackgroundImageFix"/>
<feColorMatrix in="SourceAlpha" type="matrix" values="0 0 0 0 0 0 0 0 0 0 0 0 0 0 0 0 0 0 127 0" result="hardAlpha"/>
<feOffset dy="3.6"/>
<feGaussianBlur stdDeviation="3.6"/>
<feComposite in2="hardAlpha" operator="out"/>
<feColorMatrix type="matrix" values="0 0 0 0 0 0 0 0 0 0 0 0 0 0 0 0 0 0 0.25 0"/>
<feBlend mode="normal" in2="BackgroundImageFix" result="effect1_dropShadow_2039_10438"/>
<feBlend mode="normal" in="SourceGraphic" in2="effect1_dropShadow_2039_10438" result="shape"/>
<feColorMatrix in="SourceAlpha" type="matrix" values="0 0 0 0 0 0 0 0 0 0 0 0 0 0 0 0 0 0 127 0" result="hardAlpha"/>
<feOffset dy="3.6"/>
<feGaussianBlur stdDeviation="1.8"/>
<feComposite in2="hardAlpha" operator="arithmetic" k2="-1" k3="1"/>
<feColorMatrix type="matrix" values="0 0 0 0 1 0 0 0 0 1 0 0 0 0 1 0 0 0 0.25 0"/>
<feBlend mode="normal" in2="shape" result="effect2_innerShadow_2039_10438"/>
</filter>
</defs>
</svg>
