<svg width="76" height="81" viewBox="0 0 76 81" fill="none" xmlns="http://www.w3.org/2000/svg">
<rect y="3" width="76" height="78" rx="15" fill="#9A9A9A"/>
<rect width="76" height="76" rx="15" fill="#FDFDFD"/>
<path d="M51.877 48.3516L48.875 59.1699H25.3691V57.3574C26.4264 53.959 28.4089 50.5417 31.3164 47.1055C33.9974 43.9336 36.9427 41.1771 40.1523 38.8359C43.0221 36.6458 44.9668 34.569 45.9863 32.6055C46.8548 30.9818 47.2891 28.9616 47.2891 26.5449C47.2891 23.5618 46.4583 21.334 44.7969 19.8613C43.2865 18.5397 41.1719 17.8789 38.4531 17.8789C35.8854 17.8789 33.8275 18.3509 32.2793 19.2949C30.6556 20.2767 29.8438 21.7116 29.8438 23.5996C29.8438 24.4681 29.9382 25.1667 30.127 25.6953C30.2402 26.0352 30.429 26.4128 30.6934 26.8281C30.9199 27.1302 31.0521 27.3757 31.0898 27.5645C31.2409 27.8288 31.3164 28.1686 31.3164 28.584C31.3164 29.4902 31.0332 30.1699 30.4668 30.623C30.0137 31.0384 29.4473 31.2461 28.7676 31.2461C27.9746 31.2461 27.3327 30.793 26.8418 29.8867C26.3887 29.0182 26.1621 27.9232 26.1621 26.6016C26.1621 24.0339 27.1628 21.7682 29.1641 19.8047C31.543 17.5391 34.7337 16.4062 38.7363 16.4062C42.9655 16.4062 46.0996 17.3503 48.1387 19.2383C50.1022 21.013 51.084 23.6751 51.084 27.2246C51.084 30.1322 50.2155 32.7754 48.4785 35.1543C46.8548 37.4199 44.0228 39.9688 39.9824 42.8008C37.1126 44.7643 34.7526 46.6712 32.9023 48.5215C30.5234 50.8249 28.7676 53.2793 27.6348 55.8848H41.9082C44.0983 55.8848 45.7975 55.4128 47.0059 54.4688C48.3275 53.2982 49.6113 51.1647 50.8574 48.0684L51.877 48.3516Z" fill="#383838"/>
</svg>
