<svg width="76" height="81" viewBox="0 0 76 81" fill="none" xmlns="http://www.w3.org/2000/svg">
<rect y="3" width="76" height="78" rx="15" fill="#9A9A9A"/>
<rect width="76" height="76" rx="15" fill="#FDFDFD"/>
<path d="M54.7656 52.6279C51.3861 51.6839 48.0915 50.098 44.8818 47.8701C41.6911 45.6234 39.2461 43.2256 37.5469 40.6768C33.5254 46.3031 27.8613 50.2868 20.5547 52.6279L15.6836 46.3125C21.0078 45.4818 25.3314 43.3672 28.6543 39.9688C31.9772 36.5703 33.6387 33.4834 33.6387 30.708V24.0527H41.3701V30.708C41.3701 33.4456 43.0316 36.5137 46.3545 39.9121C49.6963 43.3105 53.9915 45.444 59.2402 46.3125L54.7656 52.6279Z" fill="#383838"/>
<path d="M65.1538 17.8662C63.7088 16.7432 62.5745 15.4928 61.751 14.1152C60.89 15.6351 59.6995 16.9004 58.1797 17.9111L56.0908 15.9795C57.3936 15.388 58.4155 14.4933 59.1567 13.2954C59.9054 12.09 60.2798 10.9932 60.2798 10.0049V6.1416H63.1997V10.0498C63.1997 11.113 63.589 12.2248 64.3677 13.3853C65.1463 14.5457 66.0897 15.3581 67.1978 15.8223L65.1538 17.8662ZM55.563 15.71C54.9116 15.2682 54.3763 14.7367 53.957 14.1152C53.126 15.5902 51.9355 16.8555 50.3857 17.9111L48.2969 15.9795C49.6071 15.3805 50.6291 14.4821 51.3628 13.2842C52.104 12.0788 52.4746 10.9857 52.4746 10.0049V6.1416H55.4058V10.0498C55.4058 11.9141 56.1694 13.1868 57.6968 13.8682L55.563 15.71Z" fill="#383838"/>
</svg>
