<svg width="76" height="81" viewBox="0 0 76 81" fill="none" xmlns="http://www.w3.org/2000/svg">
<rect y="3" width="76" height="78" rx="15" fill="#6A6A6A"/>
<rect width="76" height="76" rx="15" fill="#8E8E8E"/>
<mask id="path-3-outside-1_2373_997" maskUnits="userSpaceOnUse" x="17" y="13" width="41" height="51" fill="black">
<rect fill="white" x="17" y="13" width="41" height="51"/>
<path fill-rule="evenodd" clip-rule="evenodd" d="M39.1342 18.8323C38.3361 17.7226 36.6848 17.7226 35.8868 18.8323L22.3798 37.6138C21.4283 38.9369 22.3738 40.7816 24.0035 40.7816H33.6398V56.8036C33.6398 57.9082 34.5352 58.8036 35.6398 58.8036H40.5083C41.6129 58.8036 42.5083 57.9082 42.5083 56.8036V40.7816H51.0174C52.6471 40.7816 53.5927 38.9369 52.6412 37.6138L39.1342 18.8323Z"/>
</mask>
<path d="M35.8868 18.8323L32.2334 16.2049L32.2334 16.2049L35.8868 18.8323ZM39.1342 18.8323L35.4808 21.4596V21.4596L39.1342 18.8323ZM22.3798 37.6138L18.7265 34.9865H18.7265L22.3798 37.6138ZM33.6398 40.7816H38.1398V36.2816H33.6398V40.7816ZM42.5083 40.7816V36.2816H38.0083V40.7816H42.5083ZM52.6412 37.6138L48.9878 40.2412V40.2412L52.6412 37.6138ZM39.5401 21.4596C38.5426 22.8468 36.4784 22.8468 35.4808 21.4596L42.7876 16.2049C40.1939 12.5984 34.8271 12.5984 32.2334 16.2049L39.5401 21.4596ZM26.0332 40.2412L39.5401 21.4596L32.2334 16.2049L18.7265 34.9865L26.0332 40.2412ZM24.0035 36.2816C26.0407 36.2816 27.2226 38.5874 26.0332 40.2412L18.7265 34.9865C15.6341 39.2865 18.707 45.2816 24.0035 45.2816V36.2816ZM33.6398 36.2816H24.0035V45.2816H33.6398V36.2816ZM38.1398 56.8036V40.7816H29.1398V56.8036H38.1398ZM35.6398 54.3036C37.0205 54.3036 38.1398 55.4229 38.1398 56.8036H29.1398C29.1398 60.3934 32.05 63.3036 35.6398 63.3036V54.3036ZM40.5083 54.3036H35.6398V63.3036H40.5083V54.3036ZM38.0083 56.8036C38.0083 55.4229 39.1276 54.3036 40.5083 54.3036V63.3036C44.0981 63.3036 47.0083 60.3934 47.0083 56.8036H38.0083ZM38.0083 40.7816V56.8036H47.0083V40.7816H38.0083ZM51.0174 36.2816H42.5083V45.2816H51.0174V36.2816ZM48.9878 40.2412C47.7984 38.5874 48.9803 36.2816 51.0174 36.2816V45.2816C56.3139 45.2816 59.3869 39.2865 56.2945 34.9865L48.9878 40.2412ZM35.4808 21.4596L48.9878 40.2412L56.2945 34.9865L42.7876 16.2049L35.4808 21.4596Z" fill="white" mask="url(#path-3-outside-1_2373_997)"/>
</svg>
