<svg width="76" height="81" viewBox="0 0 76 81" fill="none" xmlns="http://www.w3.org/2000/svg">
<rect y="3" width="76" height="78" rx="15" fill="#6A6A6A"/>
<rect width="76" height="76" rx="15" fill="#8E8E8E"/>
<path d="M15.6517 30.9922V28.543H24.6517V24.0547H18.9212V13.4727H33.3353V24.0547H27.6048V28.543H36.6283V30.9922H15.6517ZM30.3822 15.8984H21.8627V21.6289H30.3822V15.8984ZM43.6178 21.0781V12.3242H58.1842V14.7969H46.5592V18.6055H58.3248V21.0781H43.6178ZM52.3248 26.1172V34.0859H49.3717V26.1172H40.3717V23.6445H61.3483V26.1172H52.3248Z" fill="white"/>
<path d="M32.1166 55.6758V46.9453H27.3587V44.4492H32.1166V39.5039H34.9994V55.6758H32.1166ZM27.6048 52.6758C25.4642 51.6523 23.7455 50.1094 22.4486 48.0469C22.0033 48.9297 21.2416 49.9336 20.1634 51.0586C19.0931 52.1836 18.1752 52.9492 17.4095 53.3555L15.265 51.3164C16.9134 50.582 18.265 49.5 19.3197 48.0703C20.3822 46.6328 20.9134 45.1914 20.9134 43.7461V40.4648H23.8314V43.6523C23.8314 45.1211 24.3861 46.5039 25.4955 47.8008C26.6048 49.0977 27.933 49.9648 29.4798 50.4023L27.6048 52.6758ZM20.4095 61.3242V53.6133H23.3509V58.8516H35.433V61.3242H20.4095ZM57.0709 52.5352V47.7305H55.3014V52.5352H52.4186V39.9609H55.3014V45.2695H57.0709V39.5039H59.9772V52.5352H57.0709ZM44.0866 47.2266V49.1016C46.9069 49.1016 49.1412 49.0234 50.7897 48.8672L50.9069 51.3398C49.2897 51.4805 46.0514 51.5508 41.192 51.5508V40.5586H50.2858V43.0312H44.0866V44.8594H49.4655V47.2266H44.0866ZM57.0475 62.1094V55.9922H44.9772V53.4961H59.9772V62.1094H57.0475Z" fill="white"/>
</svg>
