<svg width="511" height="486" viewBox="0 0 511 486" fill="none" xmlns="http://www.w3.org/2000/svg">
<g filter="url(#filter0_d_2039_9714)">
<rect x="8" y="25" width="495" height="450" rx="27" fill="#C4CBDD" shape-rendering="crispEdges"/>
<rect x="26" y="43" width="81" height="72" rx="18" fill="white"/>
<path d="M61.7094 80.5594V94.0312H58.1656V66.9047H61.7094V77.5922H65.9141V80.5594H61.7094ZM42.4016 88.0969L39.7578 85.6219C45.8234 82.2938 49.4891 77.8219 50.7547 72.2063H41.3187V69.2391H54.7625C54.0219 77.1891 49.9016 83.475 42.4016 88.0969ZM77.7772 94.0312V82.05H67.1741V79.0547H84.7662C85.0194 75.6328 85.1459 72.9656 85.1459 71.0531H70.9991V68.0859H88.6616C88.6616 71.4047 88.4975 75.0609 88.1694 79.0547H92.3459V82.05H81.3209V94.0312H77.7772Z" fill="#222222"/>
<rect x="120.5" y="43" width="81" height="72" rx="18" fill="white"/>
<path d="M168.423 94.0312V80.475H166.23V93.2297H162.742V67.4531H166.23V77.5078H168.423V66.9047H171.925V94.0312H168.423ZM160.787 69.1828C160.628 73.2328 159.578 76.9078 157.637 80.2078C155.706 83.4984 153.452 86.0813 150.873 87.9563L147.991 85.6781C150.175 84.3375 152.111 82.425 153.798 79.9406C155.486 77.4563 156.545 74.85 156.977 72.1219H149.58V69.1828H160.787Z" fill="#222222"/>
<rect x="215" y="43" width="81" height="72" rx="18" fill="white"/>
<path d="M264.962 78.7734V86.8031H261.419V66.9047H264.962V75.7781H268.97V78.7734H264.962ZM258.536 68.3391C258.536 72.1641 258.372 75.4219 258.044 78.1125L254.598 77.7891C254.805 75.8953 254.936 73.7344 254.992 71.3063H244.572V68.3391H258.536ZM260.533 82.4859C254.945 82.8141 248.945 82.9781 242.533 82.9781L242.181 80.0109C244.703 80.0109 246.681 79.9922 248.116 79.9547V74.5688H251.659V79.9266C255.766 79.8328 258.653 79.725 260.322 79.6031L260.533 82.4859ZM246.555 93.1172V84.4688H250.098V90.15H265.314V93.1172H246.555Z" fill="#222222"/>
<rect x="309.5" y="43" width="81" height="72" rx="18" fill="white"/>
<path d="M356.636 86.8594V84.0188H351.77V81.1641H356.636V66.9047H360.18V86.8594H356.636ZM355.342 79.2656L349.098 79.5469V85.5656H345.611V79.7156C341.936 79.8375 339.325 79.8984 337.778 79.8984L337.286 76.8188C340.802 76.8188 344.711 76.7578 349.014 76.6359C349.164 74.4703 349.239 72.5719 349.239 70.9406H339.845V67.9734H352.755C352.755 71.0578 352.637 73.9078 352.403 76.5234L355.173 76.3547L355.342 79.2656ZM341.519 92.9906V84.2438H345.034V90.0375H360.7V92.9906H341.519Z" fill="#222222"/>
<rect x="404" y="43" width="81" height="72" rx="18" fill="#222222"/>
<path d="M443.964 77.0156V74.2453H451.192V72.2063H443.964V69.4359H451.192V66.9047H454.652V86.3391H451.192V77.0156H443.964ZM448.773 81.3047C446.589 81.7266 441.606 81.9375 433.825 81.9375V67.8891H437.284V79.0547H441.18C443.458 79.0547 445.848 78.8719 448.352 78.5063L448.773 81.3047ZM437.397 92.9906V83.8359H440.884V90.0375H455.228V92.9906H437.397Z" fill="white"/>
<rect x="26" y="130" width="81" height="72" rx="18" fill="white"/>
<path d="M73.9234 181.031V167.475H71.4625V180.23H67.9891V154.453H71.4625V164.508H73.9234V153.905H77.425V181.031H73.9234ZM66.3719 173.03C63.625 173.339 59.7859 173.494 54.8547 173.494V156.211H65.5422V159.178H58.3141V170.527H59.875C62.0781 170.527 64.1594 170.4 66.1187 170.147L66.3719 173.03Z" fill="#222222"/>
<rect x="120.5" y="130" width="81" height="72" rx="18" fill="white"/>
<path d="M152.139 164.93V173.438H148.637V153.905H152.139V161.963H156.287V164.93H152.139ZM131.523 167.981V155.663H144.222V167.981H131.523ZM140.734 158.602H135.039V165.056H140.734V158.602ZM135.18 180.089V170.836H138.723V177.122H152.898V180.089H135.18ZM167.92 168.023V155.438H180.9V157.673H186.089V153.905H189.604V169.57H186.089V165.998H180.9V168.023H167.92ZM177.454 158.391H171.365V165.056H177.454V158.391ZM180.9 163.144H186.089V160.5H180.9V163.144ZM180.9 181.003C178.106 181.003 175.917 180.483 174.332 179.442C172.757 178.402 171.97 177.042 171.97 175.364C171.97 173.695 172.762 172.336 174.347 171.286C175.931 170.236 178.115 169.711 180.9 169.711C183.693 169.711 185.882 170.241 187.467 171.3C189.061 172.35 189.857 173.705 189.857 175.364C189.857 177.033 189.061 178.388 187.467 179.428C185.882 180.478 183.693 181.003 180.9 181.003ZM180.9 172.622C179.09 172.622 177.745 172.88 176.864 173.395C175.982 173.911 175.542 174.567 175.542 175.364C175.542 176.17 175.987 176.827 176.878 177.333C177.768 177.839 179.109 178.092 180.9 178.092C182.681 178.092 184.022 177.844 184.922 177.347C185.831 176.85 186.286 176.189 186.286 175.364C186.286 174.558 185.836 173.902 184.936 173.395C184.045 172.88 182.7 172.622 180.9 172.622Z" fill="#222222"/>
<rect x="215" y="130" width="81" height="72" rx="18" fill="white"/>
<path d="M246.639 164.93V173.438H243.137V153.905H246.639V161.963H250.787V164.93H246.639ZM226.023 167.981V155.663H238.722V167.981H226.023ZM235.234 158.602H229.539V165.056H235.234V158.602ZM229.68 180.089V170.836H233.223V177.122H247.398V180.089H229.68ZM261.464 159.783V156.816H268.143V153.708H271.687V156.816H278.367V159.783H261.464ZM280.729 181.031V153.905H284.273V181.031H280.729ZM279.787 176.686C274.753 176.977 268.279 177.122 260.367 177.122L260.029 174.183L268.143 174.127V171.3C266.484 171.019 265.19 170.414 264.262 169.486C263.334 168.548 262.87 167.414 262.87 166.083C262.87 164.508 263.512 163.223 264.797 162.23C266.09 161.227 267.801 160.725 269.929 160.725C272.114 160.725 273.825 161.208 275.062 162.173C276.309 163.13 276.932 164.395 276.932 165.97C276.932 167.273 276.473 168.413 275.554 169.388C274.645 170.353 273.356 170.981 271.687 171.272V174.042C275.784 173.948 278.404 173.85 279.548 173.747L279.787 176.686ZM269.929 163.636C268.87 163.636 268.017 163.875 267.37 164.353C266.732 164.831 266.414 165.417 266.414 166.111C266.414 166.805 266.728 167.381 267.356 167.841C267.984 168.3 268.842 168.53 269.929 168.53C271.017 168.53 271.87 168.305 272.489 167.855C273.107 167.405 273.417 166.823 273.417 166.111C273.417 165.38 273.107 164.784 272.489 164.325C271.879 163.866 271.026 163.636 269.929 163.636Z" fill="#222222"/>
<rect x="309.5" y="130" width="81" height="72" rx="18" fill="white"/>
<path d="M338.875 168.023V155.438H351.855V157.673H357.044V153.905H360.559V169.57H357.044V165.998H351.855V168.023H338.875ZM348.409 158.391H342.32V165.056H348.409V158.391ZM351.855 163.144H357.044V160.5H351.855V163.144ZM351.855 181.003C349.061 181.003 346.872 180.483 345.287 179.442C343.712 178.402 342.925 177.042 342.925 175.364C342.925 173.695 343.717 172.336 345.302 171.286C346.886 170.236 349.07 169.711 351.855 169.711C354.648 169.711 356.837 170.241 358.422 171.3C360.016 172.35 360.812 173.705 360.812 175.364C360.812 177.033 360.016 178.388 358.422 179.428C356.837 180.478 354.648 181.003 351.855 181.003ZM351.855 172.622C350.045 172.622 348.7 172.88 347.819 173.395C346.937 173.911 346.497 174.567 346.497 175.364C346.497 176.17 346.942 176.827 347.833 177.333C348.723 177.839 350.064 178.092 351.855 178.092C353.636 178.092 354.977 177.844 355.877 177.347C356.786 176.85 357.241 176.189 357.241 175.364C357.241 174.558 356.791 173.902 355.891 173.395C355 172.88 353.655 172.622 351.855 172.622Z" fill="#222222"/>
<rect x="404" y="130" width="81" height="72" rx="18" fill="white"/>
<path d="M433.853 169.542V163.777H431.73V169.542H428.27V154.453H431.73V160.823H433.853V153.905H437.341V169.542H433.853ZM414.855 167.616V155.002H418.342V158.686H422.252V155.002H425.711V167.616H414.855ZM422.252 161.625H418.342V164.677H422.252V161.625ZM433.825 181.031V173.691H419.341V170.695H437.341V181.031H433.825ZM451.42 168.023V155.438H464.4V157.673H469.589V153.905H473.104V169.57H469.589V165.998H464.4V168.023H451.42ZM460.954 158.391H454.865V165.056H460.954V158.391ZM464.4 163.144H469.589V160.5H464.4V163.144ZM464.4 181.003C461.606 181.003 459.417 180.483 457.832 179.442C456.257 178.402 455.47 177.042 455.47 175.364C455.47 173.695 456.262 172.336 457.847 171.286C459.431 170.236 461.615 169.711 464.4 169.711C467.193 169.711 469.382 170.241 470.967 171.3C472.561 172.35 473.357 173.705 473.357 175.364C473.357 177.033 472.561 178.388 470.967 179.428C469.382 180.478 467.193 181.003 464.4 181.003ZM464.4 172.622C462.59 172.622 461.245 172.88 460.364 173.395C459.482 173.911 459.042 174.567 459.042 175.364C459.042 176.17 459.487 176.827 460.378 177.333C461.268 177.839 462.609 178.092 464.4 178.092C466.181 178.092 467.522 177.844 468.422 177.347C469.331 176.85 469.786 176.189 469.786 175.364C469.786 174.558 469.336 173.902 468.436 173.395C467.545 172.88 466.2 172.622 464.4 172.622Z" fill="#222222"/>
<rect x="26" y="217" width="81" height="72" rx="18" fill="white"/>
<path d="M57.6109 252.113V241.566H61.1266V244.153H71.6734V241.566H75.1891V252.113H57.6109ZM71.6734 247.036H61.1266V249.173H71.6734V247.036ZM68.1578 257.288V262.533H64.6141V257.288H53.8141V254.32H78.9859V257.288H68.1578ZM57.5266 267.286V259.186H61.0703V264.319H75.6391V267.286H57.5266Z" fill="#222222"/>
<rect x="120.5" y="217" width="81" height="72" rx="18" fill="white"/>
<path d="M156.167 250.523V256.739H152.637V240.905H156.167V247.556H160.287V250.523H156.167ZM148.658 255.558C145.845 254.217 143.783 252.502 142.47 250.411C141.983 251.386 141.097 252.492 139.812 253.73C138.528 254.967 137.398 255.848 136.423 256.373L133.85 253.842C135.856 252.961 137.487 251.719 138.744 250.116C140 248.513 140.628 246.853 140.628 245.138V241.763H144.158V245.025C144.158 246.75 144.8 248.334 146.084 249.778C147.378 251.222 148.986 252.211 150.908 252.745L148.658 255.558ZM147.561 267.919C144.683 267.919 142.456 267.422 140.881 266.428C139.306 265.444 138.519 264.136 138.519 262.505C138.519 260.883 139.316 259.584 140.909 258.609C142.503 257.634 144.72 257.147 147.561 257.147C150.411 257.147 152.628 257.634 154.212 258.609C155.806 259.575 156.603 260.873 156.603 262.505C156.603 264.145 155.811 265.458 154.227 266.442C152.652 267.427 150.43 267.919 147.561 267.919ZM147.561 260.086C143.97 260.086 142.175 260.892 142.175 262.505C142.175 264.155 143.97 264.98 147.561 264.98C151.17 264.98 152.975 264.155 152.975 262.505C152.975 260.892 151.17 260.086 147.561 260.086ZM183.527 254.292V268.031H180.026V240.905H183.527V251.325H187.774V254.292H183.527ZM176.018 261.323C173.177 259.289 171.143 257.128 169.915 254.841C169.193 256.172 168.241 257.522 167.06 258.891C165.888 260.25 164.815 261.234 163.84 261.844L161.238 259.594C163.001 258.741 164.59 257.288 166.005 255.234C167.421 253.181 168.129 251.142 168.129 249.117V246.15H162.251V243.183H177.396V246.15H171.644V249.033C171.644 250.945 172.324 252.848 173.683 254.742C175.043 256.636 176.599 257.967 178.352 258.736L176.018 261.323Z" fill="#222222"/>
<rect x="215" y="217" width="81" height="72" rx="18" fill="white"/>
<path d="M262.923 268.031V240.905H266.425V268.031H262.923ZM257.439 267.23V252.394H253.53V249.427H257.439V241.453H260.927V267.23H257.439ZM254.05 261.548C252.072 259.908 250.6 258.084 249.634 256.078C249.212 257.081 248.5 258.202 247.497 259.439C246.494 260.677 245.556 261.614 244.684 262.252L242.153 259.973C246.016 257.555 247.947 253.908 247.947 249.033V242.747H251.308V249.117C251.308 253.486 253.047 256.814 256.525 259.102L254.05 261.548Z" fill="#222222"/>
<rect x="309.5" y="217" width="81" height="72" rx="18" fill="white"/>
<path d="M356.523 268.031V240.905H360.039V268.031H356.523ZM352.094 261.295C349.487 259.505 347.411 257.269 345.864 254.588C344.392 257.475 342.311 259.866 339.62 261.759L336.878 259.284C338.987 258.197 340.717 256.598 342.067 254.489C343.427 252.37 344.106 250.205 344.106 247.992V242.719H347.65V247.908C347.65 250.064 348.306 252.155 349.619 254.18C350.941 256.205 352.591 257.644 354.569 258.497L352.094 261.295Z" fill="#222222"/>
<rect x="404" y="217" width="81" height="72" rx="18" fill="white"/>
<path d="M429.044 250.144C428.725 251.888 427.909 253.261 426.597 254.264C425.284 255.267 423.723 255.769 421.914 255.769C419.833 255.769 418.098 255.122 416.711 253.828C415.333 252.534 414.644 250.828 414.644 248.709C414.644 246.591 415.333 244.884 416.711 243.591C418.098 242.297 419.833 241.65 421.914 241.65C423.705 241.65 425.247 242.142 426.541 243.127C427.844 244.102 428.669 245.442 429.016 247.148H433.572V240.905H437.031V256.655H433.572V250.144H429.044ZM421.914 244.589C420.733 244.589 419.805 244.955 419.13 245.686C418.464 246.408 418.131 247.416 418.131 248.709C418.131 250.003 418.469 251.011 419.144 251.733C419.819 252.445 420.742 252.802 421.914 252.802C423.077 252.802 423.995 252.445 424.67 251.733C425.345 251.011 425.683 250.003 425.683 248.709C425.683 247.416 425.345 246.408 424.67 245.686C424.005 244.955 423.086 244.589 421.914 244.589ZM433.516 268.031V260.775H418.947V257.808H437.031V268.031H433.516ZM469.097 261.52V259.566H463.851V256.838H469.097V240.905H472.64V261.52H469.097ZM458.873 251.353C456.782 251.353 455.086 250.898 453.782 249.989C452.489 249.08 451.842 247.875 451.842 246.375C451.842 244.875 452.498 243.675 453.811 242.775C455.132 241.875 456.82 241.425 458.873 241.425C460.982 241.425 462.675 241.87 463.95 242.761C465.234 243.642 465.876 244.847 465.876 246.375C465.876 247.884 465.22 249.094 463.907 250.003C462.604 250.903 460.926 251.353 458.873 251.353ZM458.873 244.153C457.795 244.153 456.937 244.369 456.3 244.8C455.672 245.231 455.357 245.756 455.357 246.375C455.357 247.013 455.667 247.547 456.286 247.978C456.904 248.409 457.767 248.625 458.873 248.625C459.961 248.625 460.818 248.405 461.447 247.964C462.075 247.523 462.389 246.994 462.389 246.375C462.389 245.709 462.084 245.175 461.475 244.772C460.875 244.359 460.007 244.153 458.873 244.153ZM467.747 255.108C465.684 255.248 463.622 255.361 461.559 255.445V261.098H458.128V255.586C455.043 255.708 452.479 255.769 450.436 255.769L449.943 252.717C456.562 252.717 462.417 252.544 467.507 252.197L467.747 255.108ZM453.951 267.173V258.792H457.467V264.206H473.301V267.173H453.951Z" fill="#222222"/>
<rect x="26" y="304" width="81" height="72" rx="18" fill="white"/>
<path d="M73.0516 348.52V346.566H67.8062V343.838H73.0516V327.905H76.5953V348.52H73.0516ZM62.8281 338.353C60.7375 338.353 59.0406 337.898 57.7375 336.989C56.4437 336.08 55.7969 334.875 55.7969 333.375C55.7969 331.875 56.4531 330.675 57.7656 329.775C59.0875 328.875 60.775 328.425 62.8281 328.425C64.9375 328.425 66.6297 328.87 67.9047 329.761C69.1891 330.642 69.8312 331.847 69.8312 333.375C69.8312 334.884 69.175 336.094 67.8625 337.003C66.5594 337.903 64.8812 338.353 62.8281 338.353ZM62.8281 331.153C61.75 331.153 60.8922 331.369 60.2547 331.8C59.6266 332.231 59.3125 332.756 59.3125 333.375C59.3125 334.013 59.6219 334.547 60.2406 334.978C60.8594 335.409 61.7219 335.625 62.8281 335.625C63.9156 335.625 64.7734 335.405 65.4016 334.964C66.0297 334.523 66.3437 333.994 66.3437 333.375C66.3437 332.709 66.0391 332.175 65.4297 331.772C64.8297 331.359 63.9625 331.153 62.8281 331.153ZM71.7016 342.108C69.6391 342.248 67.5766 342.361 65.5141 342.445V348.098H62.0828V342.586C58.9984 342.708 56.4344 342.769 54.3906 342.769L53.8984 339.717C60.5172 339.717 66.3719 339.544 71.4625 339.197L71.7016 342.108ZM57.9062 354.173V345.792H61.4219V351.206H77.2562V354.173H57.9062Z" fill="#222222"/>
<rect x="120.5" y="304" width="81" height="72" rx="18" fill="white"/>
<path d="M167.636 343.838V342.909H162.714V340.519H167.636V327.905H171.152V343.838H167.636ZM157.216 336.23C155.125 336.23 153.442 335.864 152.167 335.133C150.902 334.392 150.269 333.375 150.269 332.081C150.269 330.759 150.897 329.742 152.153 329.03C153.419 328.317 155.106 327.961 157.216 327.961C159.306 327.961 160.98 328.327 162.236 329.058C163.492 329.78 164.12 330.788 164.12 332.081C164.12 333.366 163.469 334.378 162.166 335.119C160.872 335.859 159.222 336.23 157.216 336.23ZM157.216 330.408C156.016 330.408 155.12 330.572 154.53 330.9C153.939 331.228 153.644 331.631 153.644 332.109C153.644 332.588 153.944 332.977 154.544 333.277C155.153 333.577 156.044 333.727 157.216 333.727C159.578 333.727 160.759 333.188 160.759 332.109C160.759 331.631 160.473 331.228 159.902 330.9C159.33 330.572 158.434 330.408 157.216 330.408ZM166.342 339.309C165.217 339.394 162.808 339.53 159.114 339.717V343.767H155.57V339.886C151.97 340.036 149.697 340.111 148.75 340.111L148.202 337.439C152.139 337.439 158.13 337.219 166.173 336.778L166.342 339.309ZM153.067 354.666V348.492H167.608V347.367H153.067V344.639H171.152V350.798H156.611V351.952H171.812V354.666H153.067Z" fill="#222222"/>
<rect x="215" y="304" width="81" height="72" rx="18" fill="white"/>
<path d="M262.136 341.644V327.905H265.595V341.644H262.136ZM250.731 341.264C248.622 341.264 246.911 340.669 245.598 339.478C244.295 338.288 243.644 336.745 243.644 334.852C243.644 332.939 244.3 331.388 245.612 330.197C246.925 328.997 248.631 328.397 250.731 328.397C252.869 328.397 254.594 329.002 255.906 330.211C257.219 331.42 257.875 332.967 257.875 334.852C257.875 336.727 257.214 338.264 255.892 339.464C254.58 340.664 252.859 341.264 250.731 341.264ZM250.731 331.336C249.569 331.336 248.673 331.645 248.045 332.264C247.417 332.883 247.103 333.745 247.103 334.852C247.103 335.902 247.427 336.755 248.073 337.411C248.73 338.058 249.616 338.381 250.731 338.381C251.837 338.381 252.719 338.063 253.375 337.425C254.031 336.778 254.359 335.92 254.359 334.852C254.359 333.82 254.031 332.977 253.375 332.32C252.719 331.664 251.837 331.336 250.731 331.336ZM248.059 354.637V347.283H262.136V345.68H248.059V342.713H265.595V349.941H251.547V351.67H266.284V354.637H248.059Z" fill="#222222"/>
<rect x="309.5" y="304" width="81" height="72" rx="18" fill="white"/>
<path d="M334.544 344.527C333.456 344.105 332.289 343.42 331.042 342.473C329.795 341.527 328.844 340.608 328.187 339.717C327.634 340.673 326.758 341.681 325.558 342.741C324.358 343.791 323.167 344.606 321.986 345.188L319.609 342.825C321.766 341.944 323.42 340.823 324.573 339.464C325.736 338.105 326.317 336.633 326.317 335.048V333.727H320.355V330.844H326.345V327.82H329.889V330.844H335.852V333.727H329.889V335.133C329.889 336.633 330.573 338.039 331.942 339.352C333.32 340.655 334.881 341.494 336.625 341.869L334.544 344.527ZM339.072 347.311V338.508H334.094V335.597H339.072V327.905H342.531V347.311H339.072ZM325.023 354.089V345.131H328.553V351.122H343.052V354.089H325.023ZM356.92 342.023V329.438H369.9V331.673H375.089V327.905H378.604V343.57H375.089V339.998H369.9V342.023H356.92ZM366.454 332.391H360.365V339.056H366.454V332.391ZM369.9 337.144H375.089V334.5H369.9V337.144ZM369.9 355.003C367.106 355.003 364.917 354.483 363.332 353.442C361.757 352.402 360.97 351.042 360.97 349.364C360.97 347.695 361.762 346.336 363.347 345.286C364.931 344.236 367.115 343.711 369.9 343.711C372.693 343.711 374.882 344.241 376.467 345.3C378.061 346.35 378.857 347.705 378.857 349.364C378.857 351.033 378.061 352.388 376.467 353.428C374.882 354.478 372.693 355.003 369.9 355.003ZM369.9 346.622C368.09 346.622 366.745 346.88 365.864 347.395C364.982 347.911 364.542 348.567 364.542 349.364C364.542 350.17 364.987 350.827 365.878 351.333C366.768 351.839 368.109 352.092 369.9 352.092C371.681 352.092 373.022 351.844 373.922 351.347C374.831 350.85 375.286 350.189 375.286 349.364C375.286 348.558 374.836 347.902 373.936 347.395C373.045 346.88 371.7 346.622 369.9 346.622Z" fill="#222222"/>
<rect x="404" y="304" width="81" height="72" rx="18" fill="white"/>
<path d="M432.419 333.783V330.816H439.098V327.708H442.642V330.816H449.322V333.783H432.419ZM451.684 355.031V327.905H455.228V355.031H451.684ZM450.742 350.686C445.708 350.977 439.234 351.122 431.322 351.122L430.984 348.183L439.098 348.127V345.3C437.439 345.019 436.145 344.414 435.217 343.486C434.289 342.548 433.825 341.414 433.825 340.083C433.825 338.508 434.467 337.223 435.752 336.23C437.045 335.227 438.756 334.725 440.884 334.725C443.069 334.725 444.78 335.208 446.017 336.173C447.264 337.13 447.887 338.395 447.887 339.97C447.887 341.273 447.428 342.413 446.509 343.388C445.6 344.353 444.311 344.981 442.642 345.272V348.042C446.739 347.948 449.359 347.85 450.503 347.747L450.742 350.686ZM440.884 337.636C439.825 337.636 438.972 337.875 438.325 338.353C437.687 338.831 437.369 339.417 437.369 340.111C437.369 340.805 437.683 341.381 438.311 341.841C438.939 342.3 439.797 342.53 440.884 342.53C441.972 342.53 442.825 342.305 443.444 341.855C444.062 341.405 444.372 340.823 444.372 340.111C444.372 339.38 444.062 338.784 443.444 338.325C442.834 337.866 441.981 337.636 440.884 337.636Z" fill="#222222"/>
<rect x="26" y="391" width="81" height="72" rx="18" fill="white"/>
<path d="M75.3437 423.044C74.95 421.469 74.275 420.194 73.3187 419.219C72.2312 418.094 70.9187 417.531 69.3812 417.531C67.3937 417.531 65.8281 418.45 64.6844 420.288C63.5781 422.088 63.025 424.441 63.025 427.347C63.025 430.216 63.5969 432.55 64.7406 434.35C65.9031 436.15 67.45 437.05 69.3812 437.05C70.7687 437.05 72.025 436.647 73.15 435.841C74.3687 434.997 75.2031 433.844 75.6531 432.381L76.2156 432.634C75.6719 434.303 74.8 435.578 73.6 436.459C72.4187 437.322 71.0031 437.753 69.3531 437.753C66.8781 437.753 64.8812 436.825 63.3625 434.969C61.825 433.075 61.0562 430.563 61.0562 427.431C61.0562 424.581 61.7594 422.153 63.1656 420.147C64.7031 417.991 66.7 416.913 69.1562 416.913C70.075 416.913 70.8812 417.034 71.575 417.278C72.25 417.503 73.0094 417.906 73.8531 418.488C74.1719 418.731 74.4625 418.797 74.725 418.684C75.0062 418.553 75.2219 418.225 75.3719 417.7H75.9344V423.044H75.3437ZM59.3406 415.197C58.4219 415.197 57.7 415.478 57.175 416.041C56.7062 416.547 56.4719 417.175 56.4719 417.925C56.4719 418.656 56.6969 419.275 57.1469 419.781C57.6719 420.363 58.3562 420.653 59.2 420.653C60.025 420.653 60.7187 420.363 61.2812 419.781C61.8062 419.256 62.0687 418.638 62.0687 417.925C62.0687 417.194 61.8344 416.566 61.3656 416.041C60.8594 415.478 60.1844 415.197 59.3406 415.197ZM59.3687 416.041C59.9125 416.041 60.3625 416.219 60.7187 416.575C61.0562 416.931 61.225 417.372 61.225 417.897C61.225 418.403 61.0281 418.844 60.6344 419.219C60.2406 419.613 59.7719 419.809 59.2281 419.809C58.6844 419.809 58.2344 419.622 57.8781 419.247C57.5406 418.891 57.3719 418.441 57.3719 417.897C57.3719 417.372 57.55 416.931 57.9062 416.575C58.2812 416.219 58.7687 416.041 59.3687 416.041Z" fill="#222222"/>
<rect x="120.5" y="391" width="81" height="72" rx="18" fill="white"/>
<path d="M155.394 434.35C154.625 435.475 153.866 436.319 153.116 436.881C152.103 437.631 150.941 438.006 149.628 438.006C147.884 438.006 146.394 437.331 145.156 435.981C143.919 434.65 143.3 433.056 143.3 431.2C143.3 428.95 144.003 427.094 145.409 425.631C146.759 424.244 148.381 423.55 150.275 423.55C151.287 423.55 152.234 423.766 153.116 424.197C153.941 424.591 154.484 425.059 154.747 425.603C155.009 426.128 155.047 426.588 154.859 426.981C154.672 427.394 154.334 427.6 153.847 427.6C153.472 427.6 153.181 427.478 152.975 427.234C152.862 427.103 152.731 426.85 152.581 426.475L152.384 426.025C152.066 425.425 151.728 425.003 151.372 424.759C150.922 424.459 150.312 424.309 149.544 424.309C148.344 424.309 147.331 424.853 146.506 425.941C145.644 427.122 145.212 428.688 145.212 430.638C145.212 432.494 145.634 433.975 146.478 435.081C147.359 436.244 148.587 436.825 150.162 436.825C151.062 436.825 151.85 436.638 152.525 436.263C153.294 435.85 154.109 435.138 154.972 434.125L155.394 434.35ZM156.794 437.528V436.825C157.507 436.825 158.032 436.694 158.369 436.431C158.688 436.169 158.848 435.756 158.848 435.194V426.756C158.848 426.119 158.688 425.697 158.369 425.491C158.107 425.303 157.619 425.209 156.907 425.209L156.794 424.703L160.563 423.55V426.138C161.388 425.369 162.101 424.797 162.701 424.422C163.694 423.841 164.707 423.55 165.738 423.55C166.451 423.55 167.107 423.756 167.707 424.169C168.363 424.638 168.794 425.275 169.001 426.081C169.769 425.331 170.538 424.75 171.307 424.338C172.263 423.813 173.219 423.55 174.176 423.55C175.151 423.55 175.957 423.888 176.594 424.563C177.194 425.181 177.494 425.913 177.494 426.756V435.194C177.494 435.738 177.663 436.15 178.001 436.431C178.357 436.694 178.872 436.825 179.547 436.825V437.528H173.866V436.825C174.522 436.825 175.001 436.694 175.301 436.431C175.619 436.169 175.779 435.756 175.779 435.194V427.206C175.779 426.55 175.554 425.997 175.104 425.547C174.635 425.059 173.997 424.816 173.191 424.816C172.46 424.816 171.719 425.022 170.969 425.434C170.369 425.753 169.713 426.25 169.001 426.925V435.194C169.001 435.738 169.16 436.15 169.479 436.431C169.798 436.694 170.285 436.825 170.941 436.825V437.528H165.373V436.825C166.048 436.825 166.535 436.694 166.835 436.431C167.135 436.169 167.285 435.756 167.285 435.194V427.15C167.285 426.513 167.06 425.969 166.61 425.519C166.141 425.069 165.56 424.844 164.866 424.844C164.004 424.844 163.216 425.05 162.504 425.463C161.941 425.781 161.294 426.325 160.563 427.094V435.194C160.563 435.756 160.713 436.169 161.013 436.431C161.332 436.694 161.848 436.825 162.56 436.825V437.528H156.794Z" fill="#222222"/>
<rect x="215" y="391" width="81" height="72" rx="18" fill="white"/>
<path d="M254.931 423.55C255.831 423.55 256.637 423.672 257.35 423.916C257.912 424.103 258.381 424.366 258.756 424.703C259.131 424.291 259.534 423.972 259.966 423.747C260.397 423.522 260.809 423.409 261.203 423.409C261.522 423.409 261.812 423.494 262.075 423.663C262.375 423.85 262.525 424.084 262.525 424.366C262.525 424.666 262.422 424.919 262.216 425.125C262.028 425.35 261.794 425.463 261.512 425.463C261.362 425.463 261.212 425.425 261.062 425.35C260.987 425.313 260.875 425.256 260.725 425.181C260.444 425.013 260.228 424.919 260.078 424.9C259.834 424.881 259.562 424.994 259.262 425.238C259.562 425.65 259.806 426.1 259.994 426.588C260.181 427.094 260.275 427.609 260.275 428.134C260.275 429.522 259.75 430.638 258.7 431.481C257.706 432.288 256.45 432.691 254.931 432.691C254.444 432.691 254.087 432.672 253.862 432.634C253.525 432.616 253.159 432.55 252.766 432.438C252.334 432.531 251.987 432.653 251.725 432.803C251.444 432.972 251.303 433.141 251.303 433.309C251.284 433.534 251.341 433.713 251.472 433.844C251.641 434.05 251.959 434.2 252.428 434.294L255.634 434.8L258.222 435.222C259.347 435.409 260.219 435.728 260.837 436.178C261.55 436.703 261.906 437.416 261.906 438.316C261.906 439.478 261.231 440.331 259.881 440.875C258.719 441.344 257.069 441.578 254.931 441.578C252.625 441.578 250.919 441.316 249.812 440.791C248.781 440.284 248.266 439.544 248.266 438.569C248.266 437.931 248.744 437.322 249.7 436.741C250.487 436.272 251.397 435.925 252.428 435.7C251.378 435.494 250.619 435.241 250.15 434.941C249.737 434.678 249.531 434.35 249.531 433.956C249.531 433.563 249.841 433.188 250.459 432.831C250.816 432.625 251.35 432.4 252.062 432.156C251.275 431.781 250.656 431.247 250.206 430.553C249.737 429.822 249.503 429.006 249.503 428.106C249.503 426.681 250.028 425.556 251.078 424.731C252.053 423.944 253.337 423.55 254.931 423.55ZM255.409 440.875C256.797 440.875 257.959 440.669 258.897 440.256C259.834 439.862 260.303 439.384 260.303 438.822C260.303 438.297 260.078 437.847 259.628 437.472C259.141 437.059 258.437 436.788 257.519 436.656L256.844 436.544C256.281 436.45 255.831 436.384 255.494 436.347C254.912 436.253 254.341 436.178 253.778 436.122C252.428 436.403 251.434 436.788 250.797 437.275C250.234 437.687 249.953 438.166 249.953 438.709C249.953 439.347 250.403 439.862 251.303 440.256C252.278 440.669 253.647 440.875 255.409 440.875ZM254.931 424.253C253.75 424.253 252.841 424.656 252.203 425.463C251.641 426.156 251.359 427.038 251.359 428.106C251.359 429.175 251.641 430.056 252.203 430.75C252.841 431.575 253.75 431.988 254.931 431.988C256.075 431.988 256.966 431.575 257.603 430.75C258.166 430.038 258.447 429.156 258.447 428.106C258.447 427.038 258.166 426.156 257.603 425.463C256.966 424.656 256.075 424.253 254.931 424.253Z" fill="#222222"/>
<rect x="309.5" y="391" width="81" height="72" rx="18" fill="white"/>
<path d="M334.956 437.528V436.797C335.612 436.797 336.091 436.666 336.391 436.403C336.709 436.141 336.869 435.709 336.869 435.109V419.641C336.869 419.116 336.709 418.75 336.391 418.544C336.128 418.375 335.697 418.291 335.097 418.291L334.956 417.897L338.556 416.547V431.228L344.716 425.941C345.184 425.472 345.259 425.106 344.941 424.844C344.641 424.6 344.069 424.478 343.225 424.478V423.747H348.962V424.478C348.344 424.478 347.8 424.591 347.331 424.816C346.881 425.134 346.45 425.481 346.037 425.856L342.381 429.006L343.281 430.159L347.162 435.503C347.5 435.934 347.875 436.253 348.287 436.459C348.719 436.684 349.253 436.797 349.891 436.797V437.528H343.478V436.797C344.247 436.797 344.772 436.684 345.053 436.459C345.391 436.216 345.391 435.85 345.053 435.363L341.228 430.047L338.556 432.325V435.109C338.556 435.728 338.716 436.159 339.034 436.403C339.334 436.666 339.831 436.797 340.525 436.797V437.528H334.956ZM356.972 423.55C357.872 423.55 358.679 423.672 359.391 423.916C359.954 424.103 360.422 424.366 360.797 424.703C361.172 424.291 361.576 423.972 362.007 423.747C362.438 423.522 362.851 423.409 363.244 423.409C363.563 423.409 363.854 423.494 364.116 423.663C364.416 423.85 364.566 424.084 364.566 424.366C364.566 424.666 364.463 424.919 364.257 425.125C364.069 425.35 363.835 425.463 363.554 425.463C363.404 425.463 363.254 425.425 363.104 425.35C363.029 425.313 362.916 425.256 362.766 425.181C362.485 425.013 362.269 424.919 362.119 424.9C361.876 424.881 361.604 424.994 361.304 425.238C361.604 425.65 361.847 426.1 362.035 426.588C362.222 427.094 362.316 427.609 362.316 428.134C362.316 429.522 361.791 430.638 360.741 431.481C359.747 432.288 358.491 432.691 356.972 432.691C356.485 432.691 356.129 432.672 355.904 432.634C355.566 432.616 355.201 432.55 354.807 432.438C354.376 432.531 354.029 432.653 353.766 432.803C353.485 432.972 353.344 433.141 353.344 433.309C353.326 433.534 353.382 433.713 353.513 433.844C353.682 434.05 354.001 434.2 354.469 434.294L357.676 434.8L360.263 435.222C361.388 435.409 362.26 435.728 362.879 436.178C363.591 436.703 363.947 437.416 363.947 438.316C363.947 439.478 363.272 440.331 361.922 440.875C360.76 441.344 359.11 441.578 356.972 441.578C354.666 441.578 352.96 441.316 351.854 440.791C350.822 440.284 350.307 439.544 350.307 438.569C350.307 437.931 350.785 437.322 351.741 436.741C352.529 436.272 353.438 435.925 354.469 435.7C353.419 435.494 352.66 435.241 352.191 434.941C351.779 434.678 351.572 434.35 351.572 433.956C351.572 433.563 351.882 433.188 352.501 432.831C352.857 432.625 353.391 432.4 354.104 432.156C353.316 431.781 352.697 431.247 352.247 430.553C351.779 429.822 351.544 429.006 351.544 428.106C351.544 426.681 352.069 425.556 353.119 424.731C354.094 423.944 355.379 423.55 356.972 423.55ZM357.451 440.875C358.838 440.875 360.001 440.669 360.938 440.256C361.876 439.862 362.344 439.384 362.344 438.822C362.344 438.297 362.119 437.847 361.669 437.472C361.182 437.059 360.479 436.788 359.56 436.656L358.885 436.544C358.322 436.45 357.872 436.384 357.535 436.347C356.954 436.253 356.382 436.178 355.819 436.122C354.469 436.403 353.476 436.788 352.838 437.275C352.276 437.687 351.994 438.166 351.994 438.709C351.994 439.347 352.444 439.862 353.344 440.256C354.319 440.669 355.688 440.875 357.451 440.875ZM356.972 424.253C355.791 424.253 354.882 424.656 354.244 425.463C353.682 426.156 353.401 427.038 353.401 428.106C353.401 429.175 353.682 430.056 354.244 430.75C354.882 431.575 355.791 431.988 356.972 431.988C358.116 431.988 359.007 431.575 359.644 430.75C360.207 430.038 360.488 429.156 360.488 428.106C360.488 427.038 360.207 426.156 359.644 425.463C359.007 424.656 358.116 424.253 356.972 424.253Z" fill="#222222"/>
<rect x="404" y="391" width="81" height="72" rx="18" fill="#222222"/>
<path d="M421.625 437.528V436.825C422.337 436.825 422.862 436.694 423.2 436.431C423.519 436.169 423.678 435.756 423.678 435.194V426.756C423.678 426.119 423.519 425.697 423.2 425.491C422.937 425.303 422.45 425.209 421.737 425.209L421.625 424.703L425.394 423.55V426.138C426.219 425.369 426.931 424.797 427.531 424.422C428.525 423.841 429.537 423.55 430.569 423.55C431.281 423.55 431.937 423.756 432.537 424.169C433.194 424.638 433.625 425.275 433.831 426.081C434.6 425.331 435.369 424.75 436.137 424.338C437.094 423.813 438.05 423.55 439.006 423.55C439.981 423.55 440.787 423.888 441.425 424.563C442.025 425.181 442.325 425.913 442.325 426.756V435.194C442.325 435.738 442.494 436.15 442.831 436.431C443.187 436.694 443.703 436.825 444.378 436.825V437.528H438.697V436.825C439.353 436.825 439.831 436.694 440.131 436.431C440.45 436.169 440.609 435.756 440.609 435.194V427.206C440.609 426.55 440.384 425.997 439.934 425.547C439.466 425.059 438.828 424.816 438.022 424.816C437.291 424.816 436.55 425.022 435.8 425.434C435.2 425.753 434.544 426.25 433.831 426.925V435.194C433.831 435.738 433.991 436.15 434.309 436.431C434.628 436.694 435.116 436.825 435.772 436.825V437.528H430.203V436.825C430.878 436.825 431.366 436.694 431.666 436.431C431.966 436.169 432.116 435.756 432.116 435.194V427.15C432.116 426.513 431.891 425.969 431.441 425.519C430.972 425.069 430.391 424.844 429.697 424.844C428.834 424.844 428.047 425.05 427.334 425.463C426.772 425.781 426.125 426.325 425.394 427.094V435.194C425.394 435.756 425.544 436.169 425.844 436.431C426.162 436.694 426.678 436.825 427.391 436.825V437.528H421.625ZM444.541 437.528V436.825C445.254 436.825 445.779 436.694 446.116 436.431C446.435 436.169 446.594 435.756 446.594 435.194V426.756C446.594 426.119 446.435 425.697 446.116 425.491C445.854 425.303 445.366 425.209 444.654 425.209L444.541 424.703L448.31 423.55V426.138C449.135 425.369 449.847 424.797 450.447 424.422C451.441 423.841 452.454 423.55 453.485 423.55C454.197 423.55 454.854 423.756 455.454 424.169C456.11 424.638 456.541 425.275 456.747 426.081C457.516 425.331 458.285 424.75 459.054 424.338C460.01 423.813 460.966 423.55 461.922 423.55C462.897 423.55 463.704 423.888 464.341 424.563C464.941 425.181 465.241 425.913 465.241 426.756V435.194C465.241 435.738 465.41 436.15 465.747 436.431C466.104 436.694 466.619 436.825 467.294 436.825V437.528H461.613V436.825C462.269 436.825 462.747 436.694 463.047 436.431C463.366 436.169 463.526 435.756 463.526 435.194V427.206C463.526 426.55 463.301 425.997 462.851 425.547C462.382 425.059 461.744 424.816 460.938 424.816C460.207 424.816 459.466 425.022 458.716 425.434C458.116 425.753 457.46 426.25 456.747 426.925V435.194C456.747 435.738 456.907 436.15 457.226 436.431C457.544 436.694 458.032 436.825 458.688 436.825V437.528H453.119V436.825C453.794 436.825 454.282 436.694 454.582 436.431C454.882 436.169 455.032 435.756 455.032 435.194V427.15C455.032 426.513 454.807 425.969 454.357 425.519C453.888 425.069 453.307 424.844 452.613 424.844C451.751 424.844 450.963 425.05 450.251 425.463C449.688 425.781 449.041 426.325 448.31 427.094V435.194C448.31 435.756 448.46 436.169 448.76 436.431C449.079 436.694 449.594 436.825 450.307 436.825V437.528H444.541Z" fill="white"/>
<path d="M76.582 5.18198C74.8246 3.42462 71.9754 3.42462 70.218 5.18198L50 25.4H96.8L76.582 5.18198Z" fill="#C4CBDD"/>
</g>
<defs>
<filter id="filter0_d_2039_9714" x="0.8" y="0.264014" width="509.4" height="485.536" filterUnits="userSpaceOnUse" color-interpolation-filters="sRGB">
<feFlood flood-opacity="0" result="BackgroundImageFix"/>
<feColorMatrix in="SourceAlpha" type="matrix" values="0 0 0 0 0 0 0 0 0 0 0 0 0 0 0 0 0 0 127 0" result="hardAlpha"/>
<feOffset dy="3.6"/>
<feGaussianBlur stdDeviation="3.6"/>
<feComposite in2="hardAlpha" operator="out"/>
<feColorMatrix type="matrix" values="0 0 0 0 0 0 0 0 0 0 0 0 0 0 0 0 0 0 0.25 0"/>
<feBlend mode="normal" in2="BackgroundImageFix" result="effect1_dropShadow_2039_9714"/>
<feBlend mode="normal" in="SourceGraphic" in2="effect1_dropShadow_2039_9714" result="shape"/>
</filter>
</defs>
</svg>
