<svg width="76" height="81" viewBox="0 0 76 81" fill="none" xmlns="http://www.w3.org/2000/svg">
<rect y="3" width="76" height="78" rx="15" fill="#9A9A9A"/>
<rect width="76" height="76" rx="15" fill="#FDFDFD"/>
<path d="M38.0566 16.293C41.4173 16.293 44.0794 17.1426 46.043 18.8418C48.0443 20.5788 49.0449 23.0521 49.0449 26.2617C49.0449 28.7917 48.2897 30.8685 46.7793 32.4922C45.4577 33.9648 43.4941 35.1543 40.8887 36.0605C44.2871 37.0423 46.8171 38.515 48.4785 40.4785C50.291 42.5931 51.1973 45.3874 51.1973 48.8613C51.1973 51.9199 49.8757 54.5443 47.2324 56.7344C44.627 58.9245 41.5306 60.0195 37.9434 60.0195C34.2428 60.0195 31.1842 59.0755 28.7676 57.1875C26.2754 55.1862 25.0293 52.5996 25.0293 49.4277C25.0293 46.9355 25.5768 44.8587 26.6719 43.1973C28.0312 41.1582 30.4857 39.2702 34.0352 37.5332C31.7695 36.7402 29.9948 35.4186 28.7109 33.5684C27.3893 31.6426 26.7285 29.3014 26.7285 26.5449C26.7285 24.015 27.6348 21.7493 29.4473 19.748C31.5618 17.4447 34.4316 16.293 38.0566 16.293ZM28.541 49.2578C28.541 52.1276 29.4473 54.4121 31.2598 56.1113C33.0345 57.7728 35.319 58.6035 38.1133 58.6035C41.3229 58.6035 43.8906 57.6406 45.8164 55.7148C47.6667 53.9401 48.5918 51.6745 48.5918 48.918C48.5918 46.388 47.4967 44.2357 45.3066 42.4609C43.3809 40.875 40.3223 39.4212 36.1309 38.0996C32.9967 39.6478 30.9388 41.1771 29.957 42.6875C29.013 44.1224 28.541 46.3125 28.541 49.2578ZM38 17.5391C35.3568 17.5391 33.2422 18.2754 31.6562 19.748C29.957 21.3717 29.1074 23.5996 29.1074 26.4316C29.1074 28.5085 30.0137 30.3021 31.8262 31.8125C33.4499 33.0964 35.9421 34.3047 39.3027 35.4375C41.6816 34.3802 43.3997 33.1908 44.457 31.8691C45.6654 30.3965 46.2695 28.5462 46.2695 26.3184C46.2695 23.5996 45.5332 21.4473 44.0605 19.8613C42.5501 18.3132 40.5299 17.5391 38 17.5391Z" fill="#383838"/>
</svg>
