<svg width="76" height="81" viewBox="0 0 76 81" fill="none" xmlns="http://www.w3.org/2000/svg">
<rect y="3" width="76" height="78" rx="15" fill="#9A9A9A"/>
<rect width="76" height="76" rx="15" fill="#FDFDFD"/>
<path d="M47.4023 36.9668C46.0052 38.8926 44.457 40.403 42.7578 41.498C40.6055 42.8574 38.2832 43.5371 35.791 43.5371C32.5436 43.5371 29.9382 42.3854 27.9746 40.082C25.9355 37.6276 24.916 34.2292 24.916 29.8867C24.916 25.5443 26.2943 22.127 29.0508 19.6348C31.4674 17.4447 34.3939 16.3496 37.8301 16.3496C41.9082 16.3496 45.0801 17.86 47.3457 20.8809C49.8757 24.2038 51.1406 29.2637 51.1406 36.0605C51.1406 43.2728 49.7435 49.0501 46.9492 53.3926C44.1172 57.8861 40.2467 60.1328 35.3379 60.1328C32.3548 60.1328 29.9759 59.4909 28.2012 58.207C26.6908 57.112 25.9355 55.8659 25.9355 54.4688C25.9355 53.487 26.1621 52.7318 26.6152 52.2031C27.0306 51.7122 27.6536 51.4668 28.4844 51.4668C29.2396 51.4668 29.8626 51.7122 30.3535 52.2031C30.8822 52.7695 31.1465 53.5247 31.1465 54.4688C31.1465 55.5638 31.5996 56.4701 32.5059 57.1875C33.5254 57.9427 34.9414 58.3203 36.7539 58.3203C39.8503 58.3203 42.3613 56.4512 44.2871 52.7129C46.3639 48.8236 47.4023 43.5749 47.4023 36.9668ZM47.459 34.1348C47.459 27.9043 46.4772 23.4674 44.5137 20.8242C42.9655 18.7852 40.7376 17.7656 37.8301 17.7656C34.7337 17.7656 32.4115 18.8796 30.8633 21.1074C29.3529 23.2598 28.5977 26.4128 28.5977 30.5664C28.5977 33.9271 29.334 36.6081 30.8066 38.6094C32.3171 40.6484 34.4316 41.668 37.1504 41.668C39.2272 41.668 41.2852 40.8372 43.3242 39.1758C45.0234 37.7786 46.4017 36.0983 47.459 34.1348Z" fill="#383838"/>
</svg>
