<svg width="1128" height="671" viewBox="0 0 1128 671" fill="none" xmlns="http://www.w3.org/2000/svg">
<path d="M10.875 612.682C6.024 607.831 3 601.122 3 593.751V29.775C3 15.033 15.0645 3 29.775 3H226.209V512.89L10.875 612.682Z" fill="#DEDEEF"/>
<path d="M226.241 512.891H1119.14V593.783C1119.14 608.525 1107.08 620.558 1092.36 620.558H29.4601C22.0891 620.558 15.4111 617.534 10.5601 612.683L226.241 512.891Z" fill="#BBBCDE"/>
<path d="M226.24 486.084H1119.17" stroke="#727171" stroke-width="0.945" stroke-miterlimit="10" stroke-dasharray="1.57 1.57"/>
<path d="M226.24 459.309H1119.17" stroke="#727171" stroke-width="0.945" stroke-miterlimit="10" stroke-dasharray="1.57 1.57"/>
<path d="M226.24 432.503H1119.17" stroke="#727171" stroke-width="0.945" stroke-miterlimit="10" stroke-dasharray="1.57 1.57"/>
<path d="M226.24 405.729H1119.17" stroke="#727171" stroke-width="0.945" stroke-miterlimit="10" stroke-dasharray="1.57 1.57"/>
<path d="M226.24 378.953H1119.17" stroke="#9FA0A0" stroke-width="1.575" stroke-miterlimit="10"/>
<path d="M226.24 352.146H1119.17" stroke="#727171" stroke-width="0.945" stroke-miterlimit="10" stroke-dasharray="1.57 1.57"/>
<path d="M226.24 325.371H1119.17" stroke="#727171" stroke-width="0.945" stroke-miterlimit="10" stroke-dasharray="1.57 1.57"/>
<path d="M226.24 298.564H1119.17" stroke="#727171" stroke-width="0.945" stroke-miterlimit="10" stroke-dasharray="1.57 1.57"/>
<path d="M226.24 271.79H1119.17" stroke="#727171" stroke-width="0.945" stroke-miterlimit="10" stroke-dasharray="1.57 1.57"/>
<path d="M226.24 245.016H1119.17" stroke="#9FA0A0" stroke-width="1.575" stroke-miterlimit="10"/>
<path d="M226.24 218.207H1119.17" stroke="#727171" stroke-width="0.945" stroke-miterlimit="10" stroke-dasharray="1.57 1.57"/>
<path d="M226.24 191.433H1119.17" stroke="#727171" stroke-width="0.945" stroke-miterlimit="10" stroke-dasharray="1.57 1.57"/>
<path d="M226.24 164.627H1119.17" stroke="#727171" stroke-width="0.945" stroke-miterlimit="10" stroke-dasharray="1.57 1.57"/>
<path d="M226.24 137.852H1119.17" stroke="#727171" stroke-width="0.945" stroke-miterlimit="10" stroke-dasharray="1.57 1.57"/>
<path d="M226.24 84.2695H1119.17" stroke="#727171" stroke-width="0.945" stroke-miterlimit="10" stroke-dasharray="1.57 1.57"/>
<path d="M226.24 30.6895H1119.17" stroke="#727171" stroke-width="0.945" stroke-miterlimit="10" stroke-dasharray="1.57 1.57"/>
<path d="M226.24 57.4941H1119.17" stroke="#727171" stroke-width="0.945" stroke-miterlimit="10" stroke-dasharray="1.57 1.57"/>
<path d="M226.24 111.076H1119.17" stroke="#9FA0A0" stroke-width="1.575" stroke-miterlimit="10"/>
<path opacity="0.7" d="M304.635 445.104H260V512.86H304.635V445.104Z" fill="#FEDD78" stroke="#F5A21B" stroke-width="2.3625"/>
<path opacity="0.7" d="M416.635 384.087H372V512.859H416.635V384.087Z" fill="#F5B1A2" stroke="#EC7069" stroke-width="2.3625"/>
<path d="M182.682 365.464H177.2L176.625 375.04C177.37 374.228 178.204 373.63 179.129 373.246C180.099 372.885 181.238 372.705 182.547 372.705C185.073 372.705 187.036 373.528 188.435 375.175C189.698 376.641 190.329 378.491 190.329 380.724C190.329 382.845 189.698 384.683 188.435 386.24C186.991 388.067 185.028 388.981 182.547 388.981C180.156 388.981 178.227 388.383 176.76 387.187C175.407 386.105 174.73 384.774 174.73 383.195C174.73 382.676 174.877 382.281 175.17 382.01C175.463 381.762 175.824 381.638 176.253 381.638C176.681 381.638 177.042 381.762 177.336 382.01C177.652 382.281 177.809 382.653 177.809 383.127L177.742 384.041C177.629 385.326 177.753 386.217 178.114 386.714C178.7 387.571 180.043 388 182.141 388C184.058 388 185.558 387.187 186.641 385.563C187.589 384.187 188.062 382.563 188.062 380.691C188.062 378.705 187.589 377.07 186.641 375.784C185.581 374.318 184.081 373.585 182.141 373.585C180.877 373.585 179.693 373.934 178.588 374.634C177.708 375.175 176.963 375.874 176.354 376.732L175.644 376.427L176.422 363.535H189.247L188.705 365.464H182.682ZM203.154 362.926C206.042 362.926 208.241 364.245 209.752 366.885C211.083 369.186 211.749 372.22 211.749 375.987C211.749 379.687 211.083 382.687 209.752 384.988C208.241 387.605 206.042 388.913 203.154 388.913C200.244 388.913 198.033 387.605 196.522 384.988C195.213 382.687 194.559 379.687 194.559 375.987C194.559 372.22 195.213 369.186 196.522 366.885C198.033 364.245 200.244 362.926 203.154 362.926ZM203.154 363.839C200.988 363.839 199.342 365.057 198.214 367.494C197.244 369.659 196.759 372.491 196.759 375.987C196.759 379.439 197.244 382.225 198.214 384.345C199.342 386.781 200.988 388 203.154 388C205.297 388 206.933 386.781 208.06 384.345C209.076 382.202 209.583 379.416 209.583 375.987C209.583 372.491 209.076 369.659 208.06 367.494C206.933 365.057 205.297 363.839 203.154 363.839Z" fill="black"/>
<path d="M158.008 253.502V252.622C159.745 252.622 160.952 252.464 161.629 252.148C162.373 251.832 162.745 251.246 162.745 250.389V232.894C162.745 232.263 162.554 231.812 162.17 231.541C161.809 231.27 161.268 231.135 160.546 231.135H157.5V230.492C159.057 230.311 160.456 229.996 161.696 229.544C162.666 229.183 163.738 228.653 164.911 227.954V250.389C164.911 251.246 165.317 251.832 166.129 252.148C166.851 252.464 168.103 252.622 169.885 252.622V253.502H158.008ZM184.063 227.954C186.951 227.954 189.15 229.274 190.662 231.913C191.993 234.214 192.658 237.248 192.658 241.015C192.658 244.715 191.993 247.715 190.662 250.016C189.15 252.633 186.951 253.942 184.063 253.942C181.153 253.942 178.942 252.633 177.431 250.016C176.123 247.715 175.468 244.715 175.468 241.015C175.468 237.248 176.123 234.214 177.431 231.913C178.942 229.274 181.153 227.954 184.063 227.954ZM184.063 228.868C181.898 228.868 180.251 230.086 179.123 232.522C178.153 234.688 177.668 237.519 177.668 241.015C177.668 244.467 178.153 247.253 179.123 249.373C180.251 251.81 181.898 253.028 184.063 253.028C186.206 253.028 187.842 251.81 188.97 249.373C189.985 247.23 190.492 244.444 190.492 241.015C190.492 237.519 189.985 234.688 188.97 232.522C187.842 230.086 186.206 228.868 184.063 228.868ZM204.704 227.954C207.592 227.954 209.791 229.274 211.303 231.913C212.634 234.214 213.299 237.248 213.299 241.015C213.299 244.715 212.634 247.715 211.303 250.016C209.791 252.633 207.592 253.942 204.704 253.942C201.794 253.942 199.583 252.633 198.072 250.016C196.764 247.715 196.109 244.715 196.109 241.015C196.109 237.248 196.764 234.214 198.072 231.913C199.583 229.274 201.794 227.954 204.704 227.954ZM204.704 228.868C202.539 228.868 200.892 230.086 199.764 232.522C198.794 234.688 198.309 237.519 198.309 241.015C198.309 244.467 198.794 247.253 199.764 249.373C200.892 251.81 202.539 253.028 204.704 253.028C206.847 253.028 208.483 251.81 209.611 249.373C210.626 247.23 211.133 244.444 211.133 241.015C211.133 237.519 210.626 234.688 209.611 232.522C208.483 230.086 206.847 228.868 204.704 228.868Z" fill="black"/>
<path d="M158.008 120.034V119.154C159.745 119.154 160.952 118.996 161.629 118.68C162.373 118.365 162.745 117.778 162.745 116.921V99.4266C162.745 98.7949 162.554 98.3438 162.17 98.073C161.809 97.8023 161.268 97.667 160.546 97.667H157.5V97.0241C159.057 96.8436 160.456 96.5278 161.696 96.0766C162.666 95.7157 163.738 95.1855 164.911 94.4862V116.921C164.911 117.778 165.317 118.365 166.129 118.68C166.851 118.996 168.103 119.154 169.885 119.154V120.034H158.008ZM184.232 97.0241H178.751L178.175 106.6C178.92 105.788 179.754 105.19 180.679 104.807C181.649 104.446 182.789 104.265 184.097 104.265C186.624 104.265 188.586 105.089 189.985 106.736C191.248 108.202 191.88 110.052 191.88 112.285C191.88 114.405 191.248 116.244 189.985 117.801C188.541 119.628 186.578 120.541 184.097 120.541C181.706 120.541 179.777 119.944 178.311 118.748C176.957 117.665 176.28 116.334 176.28 114.755C176.28 114.236 176.427 113.842 176.72 113.571C177.014 113.323 177.375 113.199 177.803 113.199C178.232 113.199 178.593 113.323 178.886 113.571C179.202 113.842 179.36 114.214 179.36 114.687L179.292 115.601C179.179 116.887 179.303 117.778 179.664 118.274C180.251 119.131 181.593 119.56 183.691 119.56C185.608 119.56 187.109 118.748 188.191 117.124C189.139 115.748 189.613 114.123 189.613 112.251C189.613 110.266 189.139 108.63 188.191 107.345C187.131 105.878 185.631 105.145 183.691 105.145C182.428 105.145 181.243 105.495 180.138 106.194C179.258 106.736 178.514 107.435 177.905 108.292L177.194 107.988L177.972 95.0953H190.797L190.256 97.0241H184.232ZM204.704 94.4862C207.592 94.4862 209.791 95.8059 211.303 98.4453C212.634 100.746 213.299 103.78 213.299 107.548C213.299 111.247 212.634 114.248 211.303 116.549C209.791 119.165 207.592 120.474 204.704 120.474C201.794 120.474 199.583 119.165 198.072 116.549C196.764 114.248 196.109 111.247 196.109 107.548C196.109 103.78 196.764 100.746 198.072 98.4453C199.583 95.8059 201.794 94.4862 204.704 94.4862ZM204.704 95.3999C202.539 95.3999 200.892 96.618 199.764 99.0543C198.794 101.22 198.309 104.051 198.309 107.548C198.309 110.999 198.794 113.785 199.764 115.906C200.892 118.342 202.539 119.56 204.704 119.56C206.847 119.56 208.483 118.342 209.611 115.906C210.626 113.763 211.133 110.977 211.133 107.548C211.133 104.051 210.626 101.22 209.611 99.0543C208.483 96.618 206.847 95.3999 204.704 95.3999Z" fill="black"/>
<path d="M201.605 476.896C204.493 476.896 206.692 478.216 208.204 480.855C209.535 483.156 210.2 486.191 210.2 489.958C210.2 493.657 209.535 496.658 208.204 498.959C206.692 501.575 204.493 502.884 201.605 502.884C198.695 502.884 196.484 501.575 194.973 498.959C193.665 496.658 193.01 493.657 193.01 489.958C193.01 486.191 193.665 483.156 194.973 480.855C196.484 478.216 198.695 476.896 201.605 476.896ZM201.605 477.81C199.44 477.81 197.793 479.028 196.665 481.465C195.695 483.63 195.21 486.461 195.21 489.958C195.21 493.409 195.695 496.195 196.665 498.316C197.793 500.752 199.44 501.97 201.605 501.97C203.748 501.97 205.384 500.752 206.512 498.316C207.527 496.173 208.034 493.387 208.034 489.958C208.034 486.461 207.527 483.63 206.512 481.465C205.384 479.028 203.748 477.81 201.605 477.81Z" fill="black"/>
<path d="M449.481 620.558V3.91406" stroke="#9FA0A0" stroke-width="1.575" stroke-miterlimit="10"/>
<path d="M226.24 620.558V3.91406" stroke="#9FA0A0" stroke-width="1.575" stroke-miterlimit="10"/>
<path d="M672.69 620.558V3.91406" stroke="#9FA0A0" stroke-width="1.575" stroke-miterlimit="10"/>
<path d="M895.93 620.558V3.91406" stroke="#9FA0A0" stroke-width="1.575" stroke-miterlimit="10"/>
<path d="M1119.17 512.859H3" stroke="#9FA0A0" stroke-width="1.575" stroke-miterlimit="10"/>
<path d="M226.241 512.891L10.875 612.683" stroke="#9FA0A0" stroke-width="1.575" stroke-miterlimit="10"/>
<path d="M1119.17 593.782C1119.17 608.524 1107.11 620.557 1092.4 620.557H29.8065C15.0645 620.557 3.03149 608.493 3.03149 593.782V29.775C3.03149 15.033 15.096 3 29.8065 3H1092.36C1107.11 3 1119.14 15.0645 1119.14 29.775V593.782H1119.17Z" stroke="#BBBCDE" stroke-width="5.355"/>
<path d="M273.748 570.357V568.327H310.252V570.357H273.748ZM301.905 576.735H282.095V585.472H301.905V576.735ZM279.757 587.481V574.726H304.243V587.481H279.757ZM292 551.49C290.414 551.49 288.999 551.62 287.755 551.88C286.524 552.14 285.479 552.509 284.617 552.987C283.77 553.466 283.12 554.047 282.669 554.73C282.218 555.4 281.992 556.159 281.992 557.007C281.992 557.854 282.218 558.62 282.669 559.304C283.12 559.974 283.77 560.548 284.617 561.026C285.479 561.505 286.524 561.874 287.755 562.134C288.999 562.394 290.414 562.523 292 562.523C293.572 562.523 294.98 562.394 296.225 562.134C297.469 561.874 298.515 561.505 299.362 561.026C300.224 560.548 300.88 559.974 301.331 559.304C301.782 558.62 302.008 557.854 302.008 557.007C302.008 556.159 301.782 555.4 301.331 554.73C300.88 554.047 300.224 553.466 299.362 552.987C298.515 552.509 297.469 552.14 296.225 551.88C294.98 551.62 293.572 551.49 292 551.49ZM292 564.472C290.236 564.472 288.596 564.314 287.078 564C285.574 563.686 284.269 563.221 283.161 562.605C282.054 561.977 281.186 561.197 280.557 560.268C279.941 559.338 279.634 558.251 279.634 557.007C279.634 555.776 279.948 554.696 280.577 553.767C281.206 552.837 282.074 552.058 283.182 551.429C284.289 550.8 285.595 550.328 287.099 550.014C288.603 549.699 290.236 549.542 292 549.542C293.75 549.542 295.377 549.706 296.881 550.034C298.398 550.349 299.711 550.82 300.818 551.449C301.926 552.064 302.794 552.837 303.423 553.767C304.052 554.696 304.366 555.776 304.366 557.007C304.366 558.251 304.052 559.338 303.423 560.268C302.794 561.197 301.926 561.977 300.818 562.605C299.725 563.221 298.419 563.686 296.901 564C295.397 564.314 293.764 564.472 292 564.472ZM343.548 572.572V549.132H345.927V572.572H343.548ZM343.548 588.691V576.715H320.293V574.644H345.927V588.691H343.548ZM334.956 569.476C334.053 568.997 333.13 568.409 332.187 567.712C331.244 567.015 330.348 566.242 329.501 565.395C328.667 564.547 327.908 563.645 327.224 562.688C326.554 561.73 326.021 560.753 325.625 559.755C325.255 560.808 324.743 561.86 324.087 562.913C323.43 563.952 322.685 564.95 321.851 565.907C321.017 566.851 320.115 567.726 319.144 568.532C318.187 569.339 317.216 570.029 316.232 570.604L314.407 568.86C315.719 568.204 316.977 567.363 318.18 566.338C319.383 565.299 320.443 564.15 321.359 562.893C322.289 561.621 323.027 560.268 323.574 558.832C324.134 557.396 324.415 555.934 324.415 554.443V550.444H326.753V554.259C326.753 555.722 327.026 557.137 327.573 558.504C328.133 559.871 328.872 561.143 329.788 562.318C330.704 563.48 331.756 564.52 332.946 565.436C334.135 566.338 335.366 567.062 336.637 567.609L334.956 569.476ZM359.639 562.072V549.911H383.92V562.072H359.639ZM390.052 566.317V568.307H373.01V573.188H384.043V581.637H361.895V586.251H385.11V588.24H359.516V579.688H381.664V575.177H359.516V573.188H370.59V568.307H353.548V566.317H390.052ZM381.582 551.88H361.977V560.104H381.582V551.88Z" fill="black"/>
<path d="M522.748 570.357V568.286H539.811V562.482H542.189V568.286H559.252V570.357H522.748ZM541 576.12C538.881 576.12 537.145 576.291 535.791 576.633C534.451 576.975 533.392 577.405 532.612 577.925C531.833 578.431 531.293 578.984 530.992 579.586C530.705 580.188 530.562 580.748 530.562 581.268C530.562 581.637 530.623 582.02 530.746 582.416C530.869 582.812 531.081 583.202 531.382 583.585C531.696 583.968 532.106 584.33 532.612 584.672C533.118 585.014 533.754 585.314 534.52 585.574C535.299 585.834 536.222 586.039 537.288 586.189C538.354 586.34 539.592 586.415 541 586.415C543.105 586.415 544.835 586.251 546.188 585.923C547.542 585.595 548.608 585.178 549.388 584.672C550.167 584.166 550.7 583.612 550.987 583.011C551.288 582.396 551.438 581.814 551.438 581.268C551.438 580.926 551.377 580.557 551.254 580.16C551.131 579.764 550.912 579.381 550.598 579.012C550.297 578.629 549.894 578.267 549.388 577.925C548.882 577.569 548.239 577.262 547.46 577.002C546.694 576.729 545.778 576.517 544.712 576.366C543.646 576.202 542.408 576.12 541 576.12ZM541 588.363C538.717 588.363 536.762 588.172 535.135 587.789C533.521 587.406 532.195 586.887 531.156 586.23C530.131 585.588 529.379 584.836 528.9 583.975C528.422 583.113 528.183 582.211 528.183 581.268C528.183 580.324 528.422 579.422 528.9 578.561C529.379 577.699 530.131 576.947 531.156 576.305C532.195 575.648 533.521 575.129 535.135 574.746C536.762 574.363 538.717 574.172 541 574.172C543.283 574.172 545.231 574.363 546.845 574.746C548.472 575.129 549.798 575.648 550.823 576.305C551.862 576.947 552.621 577.699 553.1 578.561C553.578 579.422 553.817 580.324 553.817 581.268C553.817 582.211 553.578 583.113 553.1 583.975C552.621 584.836 551.862 585.588 550.823 586.23C549.798 586.887 548.472 587.406 546.845 587.789C545.231 588.172 543.283 588.363 541 588.363ZM556.032 563.303C554.638 563.152 553.195 562.852 551.705 562.4C550.215 561.949 548.786 561.375 547.419 560.678C546.052 559.967 544.801 559.146 543.666 558.217C542.545 557.273 541.649 556.241 540.979 555.12C540.569 555.858 540.043 556.562 539.4 557.232C538.758 557.889 538.04 558.504 537.247 559.078C536.454 559.652 535.6 560.179 534.684 560.657C533.768 561.122 532.831 561.539 531.874 561.908C530.917 562.264 529.953 562.564 528.982 562.811C528.012 563.043 527.082 563.207 526.193 563.303L524.86 561.354C525.872 561.286 526.904 561.149 527.957 560.944C529.01 560.726 530.049 560.438 531.074 560.083C532.1 559.714 533.077 559.283 534.007 558.791C534.95 558.285 535.805 557.718 536.57 557.089C537.35 556.446 538.02 555.735 538.58 554.956C539.141 554.163 539.558 553.309 539.831 552.393H526.747V550.321H555.253V552.393H542.21C542.442 553.295 542.846 554.136 543.42 554.915C543.994 555.681 544.678 556.392 545.471 557.048C546.264 557.69 547.139 558.265 548.096 558.771C549.066 559.276 550.064 559.714 551.09 560.083C552.115 560.438 553.147 560.726 554.187 560.944C555.239 561.149 556.237 561.279 557.181 561.334L556.032 563.303ZM593.082 588.691V549.132H595.461V588.691H593.082ZM574.912 553.726C573.599 553.726 572.464 554.033 571.507 554.648C570.55 555.25 569.764 556.077 569.149 557.13C568.534 558.169 568.076 559.379 567.775 560.76C567.488 562.141 567.344 563.597 567.344 565.128C567.344 566.646 567.488 568.095 567.775 569.476C568.076 570.843 568.534 572.053 569.149 573.105C569.764 574.145 570.55 574.979 571.507 575.607C572.464 576.223 573.599 576.53 574.912 576.53C576.238 576.53 577.373 576.223 578.316 575.607C579.273 574.979 580.059 574.138 580.674 573.085C581.29 572.032 581.741 570.822 582.028 569.455C582.329 568.074 582.479 566.632 582.479 565.128C582.479 563.528 582.336 562.038 582.048 560.657C581.761 559.263 581.31 558.053 580.695 557.027C580.08 556.002 579.294 555.195 578.337 554.607C577.379 554.02 576.238 553.726 574.912 553.726ZM574.912 578.54C573.244 578.54 571.788 578.198 570.544 577.515C569.313 576.831 568.288 575.895 567.467 574.705C566.647 573.502 566.032 572.087 565.622 570.46C565.212 568.819 565.006 567.042 565.006 565.128C565.006 563.214 565.212 561.437 565.622 559.796C566.032 558.155 566.647 556.74 567.467 555.551C568.288 554.348 569.313 553.411 570.544 552.741C571.788 552.058 573.244 551.716 574.912 551.716C576.552 551.716 577.995 552.058 579.239 552.741C580.483 553.411 581.515 554.348 582.336 555.551C583.17 556.754 583.792 558.176 584.202 559.816C584.626 561.443 584.838 563.214 584.838 565.128C584.838 567.042 584.626 568.819 584.202 570.46C583.792 572.087 583.17 573.502 582.336 574.705C581.515 575.908 580.483 576.852 579.239 577.535C577.995 578.205 576.552 578.54 574.912 578.54Z" fill="black"/>
<path d="M796.776 577.412V564.615H791.403V576.551H789.045V549.952H791.403V562.564H796.776V549.132H799.155V577.412H796.776ZM783.795 551.777C783.604 556.467 782.229 560.623 779.673 564.246C777.13 567.869 773.479 570.904 768.722 573.352L766.958 571.588C769.61 570.344 771.948 568.874 773.972 567.179C776.009 565.47 777.663 563.487 778.935 561.231L767.635 562.298L766.794 560.268L779.857 559.345C780.213 558.483 780.514 557.595 780.76 556.679C781.02 555.763 781.218 554.799 781.354 553.787H768.353V551.777H783.795ZM774.546 587.112V575.115H776.925V585.041H800.406V587.112H774.546Z" fill="black"/>
<path d="M934.157 552.023V550.034H961.843V552.023H934.157ZM933.645 562.646V560.657H939.653L939.223 554.218H941.581L942.012 560.657H953.988L954.419 554.218H956.777L956.347 560.657H962.355V562.646H933.645ZM929.748 568.799V566.81H966.252V568.799H929.748ZM935.716 587.707V579.258H957.864V574.869H935.716V572.88H960.243V581.206H938.095V585.718H961.31V587.707H935.716ZM1000.23 568.143V588.691H997.846V549.132H1000.23V566.071H1007.05V568.143H1000.23ZM972.232 565.046H987.039V554.812H972.232V552.782H989.418V567.035H974.611V577.617C979.382 577.617 983.299 577.549 986.362 577.412C989.438 577.262 991.735 577.043 993.253 576.756L993.519 578.766C992.548 578.916 991.386 579.053 990.033 579.176C988.693 579.285 987.148 579.374 985.398 579.442C983.648 579.511 981.679 579.565 979.492 579.606C977.304 579.634 974.884 579.647 972.232 579.647V565.046ZM1046.05 581.883H1009.55V579.812H1046.05V581.883ZM1027.78 558.422C1027.25 559.639 1026.47 560.849 1025.44 562.052C1024.42 563.241 1023.23 564.349 1021.89 565.374C1020.57 566.399 1019.13 567.309 1017.57 568.102C1016.02 568.895 1014.46 569.496 1012.89 569.906L1011.31 568.04C1012.54 567.808 1013.77 567.452 1015 566.974C1016.23 566.481 1017.41 565.894 1018.53 565.21C1019.67 564.526 1020.72 563.768 1021.69 562.934C1022.67 562.086 1023.52 561.19 1024.23 560.247C1024.96 559.29 1025.52 558.306 1025.93 557.294C1026.34 556.269 1026.55 555.243 1026.55 554.218V552.372H1029.03V554.177C1029.03 555.202 1029.24 556.228 1029.67 557.253C1030.1 558.278 1030.69 559.27 1031.43 560.227C1032.17 561.17 1033.04 562.065 1034.03 562.913C1035.03 563.761 1036.1 564.526 1037.23 565.21C1038.37 565.894 1039.54 566.481 1040.74 566.974C1041.94 567.452 1043.13 567.808 1044.31 568.04L1042.69 569.865C1041.68 569.592 1040.66 569.236 1039.63 568.799C1038.61 568.361 1037.6 567.855 1036.62 567.281C1035.65 566.693 1034.7 566.058 1033.79 565.374C1032.89 564.69 1032.05 563.973 1031.27 563.221C1030.5 562.455 1029.82 561.669 1029.22 560.862C1028.63 560.056 1028.15 559.242 1027.78 558.422ZM1079.84 588.691V576.92H1056.58V574.849H1082.22V588.691H1079.84ZM1079.84 549.132H1082.22V572.798H1079.84V549.132ZM1074.45 569.619C1071.95 569.783 1068.99 569.906 1065.59 569.988C1062.18 570.07 1058.3 570.111 1053.94 570.111V550.937H1072.64V552.946H1056.32V559.324H1070.53V561.272H1056.32V568.102C1060.6 568.102 1064.21 568.067 1067.17 567.999C1070.12 567.917 1072.5 567.801 1074.3 567.65L1074.45 569.619Z" fill="black"/>
<path d="M32.6133 546.064C32.0938 546.156 31.5013 546.224 30.8359 546.27C30.1706 546.306 29.4232 546.324 28.5938 546.324H18.5312V544.943H21.8535L21.5254 533.254H23.084L23.3848 544.943H27.5137L27.7734 533.254H29.3457L28.9766 544.943C29.806 544.943 30.4987 544.925 31.0547 544.889C31.6198 544.852 32.0938 544.798 32.4766 544.725L32.6133 546.064ZM34.8418 541.471H31.2188V540.172H34.8418V535.66H31.2188V534.361H34.8418V527.635H36.4141V552.49H34.8418V541.471ZM39.6133 553.461V527.088H41.1992V553.461H39.6133ZM19.3105 530.875V529.494H31.5742V530.875H19.3105ZM65.352 553.461V527.088H66.9379V553.461H65.352ZM59.4184 529.508C59.3363 531.495 58.9991 533.35 58.4066 535.072C57.8233 536.786 57.0212 538.376 56.0004 539.844C54.9887 541.302 53.781 542.642 52.3773 543.863C50.9737 545.076 49.4151 546.169 47.7016 547.145L46.3754 545.928C47.8611 545.208 49.2556 544.351 50.559 543.357C51.8624 542.355 53.0154 541.225 54.018 539.967C55.0297 538.7 55.8591 537.31 56.5063 535.797C57.1625 534.284 57.5818 532.643 57.7641 530.875H47.3188V529.508H59.4184ZM76.0926 535.715V527.607H92.2801V535.715H76.0926ZM96.368 538.545V539.871H85.0066V543.125H92.3621V548.758H77.5965V551.834H93.073V553.16H76.0105V547.459H90.7762V544.451H76.0105V543.125H83.3934V539.871H72.032V538.545H96.368ZM90.7215 528.92H77.6512V534.402H90.7215V528.92ZM119.167 538.559V543.002H117.581V527.088H119.167V531.422H123.105V532.762H119.167V537.232H123.105V538.559H119.167ZM114.204 540.473C113.858 540.546 113.484 540.609 113.083 540.664C112.691 540.719 112.29 540.769 111.88 540.814C111.47 540.851 111.064 540.883 110.663 540.91C110.262 540.928 109.884 540.942 109.529 540.951C109.155 540.96 108.699 540.969 108.161 540.979C107.633 540.988 106.99 540.997 106.234 541.006C105.486 541.015 104.616 541.024 103.622 541.033C102.629 541.033 101.485 541.033 100.191 541.033V533.924H110.185V529.645H100.191V528.305H111.771V535.236H101.777V539.693C103.9 539.693 105.678 539.689 107.109 539.68C108.54 539.661 109.611 539.634 110.321 539.598C110.95 539.57 111.593 539.525 112.249 539.461C112.915 539.388 113.489 539.297 113.972 539.188L114.204 540.473ZM110.991 545.039C109.907 545.039 108.927 545.112 108.052 545.258C107.186 545.404 106.448 545.618 105.837 545.9C105.236 546.174 104.771 546.52 104.443 546.939C104.114 547.359 103.95 547.842 103.95 548.389C103.95 548.936 104.114 549.419 104.443 549.838C104.771 550.257 105.24 550.608 105.851 550.891C106.461 551.164 107.2 551.374 108.066 551.52C108.932 551.665 109.907 551.738 110.991 551.738C112.076 551.738 113.051 551.665 113.917 551.52C114.792 551.374 115.53 551.164 116.132 550.891C116.743 550.608 117.212 550.257 117.54 549.838C117.868 549.419 118.032 548.936 118.032 548.389C118.032 547.842 117.868 547.359 117.54 546.939C117.212 546.52 116.743 546.174 116.132 545.9C115.53 545.618 114.792 545.404 113.917 545.258C113.051 545.112 112.076 545.039 110.991 545.039ZM110.991 553.064C109.56 553.064 108.303 552.955 107.218 552.736C106.142 552.518 105.245 552.203 104.525 551.793C103.805 551.383 103.262 550.891 102.898 550.316C102.542 549.742 102.364 549.1 102.364 548.389C102.364 547.678 102.542 547.035 102.898 546.461C103.262 545.887 103.805 545.395 104.525 544.984C105.245 544.574 106.142 544.26 107.218 544.041C108.303 543.822 109.56 543.713 110.991 543.713C112.422 543.713 113.676 543.822 114.751 544.041C115.836 544.26 116.738 544.574 117.458 544.984C118.178 545.395 118.716 545.887 119.071 546.461C119.436 547.035 119.618 547.678 119.618 548.389C119.618 549.1 119.436 549.742 119.071 550.316C118.716 550.891 118.178 551.383 117.458 551.793C116.738 552.203 115.836 552.518 114.751 552.736C113.676 552.955 112.422 553.064 110.991 553.064Z" fill="black"/>
<path d="M160.832 590.238V588.857H172.207V584.988H173.793V588.857H185.168V590.238H160.832ZM173 594.08C171.587 594.08 170.43 594.194 169.527 594.422C168.634 594.65 167.928 594.937 167.408 595.283C166.889 595.62 166.529 595.99 166.328 596.391C166.137 596.792 166.041 597.165 166.041 597.512C166.041 597.758 166.082 598.013 166.164 598.277C166.246 598.542 166.387 598.801 166.588 599.057C166.798 599.312 167.071 599.553 167.408 599.781C167.745 600.009 168.169 600.21 168.68 600.383C169.199 600.556 169.814 600.693 170.525 600.793C171.236 600.893 172.061 600.943 173 600.943C174.404 600.943 175.557 600.834 176.459 600.615C177.361 600.396 178.072 600.118 178.592 599.781C179.111 599.444 179.467 599.075 179.658 598.674C179.859 598.264 179.959 597.876 179.959 597.512C179.959 597.284 179.918 597.038 179.836 596.773C179.754 596.509 179.608 596.254 179.398 596.008C179.198 595.753 178.929 595.511 178.592 595.283C178.255 595.046 177.826 594.841 177.307 594.668C176.796 594.486 176.186 594.344 175.475 594.244C174.764 594.135 173.939 594.08 173 594.08ZM173 602.242C171.478 602.242 170.174 602.115 169.09 601.859C168.014 601.604 167.13 601.258 166.438 600.82C165.754 600.392 165.253 599.891 164.934 599.316C164.615 598.742 164.455 598.141 164.455 597.512C164.455 596.883 164.615 596.281 164.934 595.707C165.253 595.133 165.754 594.632 166.438 594.203C167.13 593.766 168.014 593.419 169.09 593.164C170.174 592.909 171.478 592.781 173 592.781C174.522 592.781 175.821 592.909 176.896 593.164C177.981 593.419 178.865 593.766 179.549 594.203C180.242 594.632 180.747 595.133 181.066 595.707C181.385 596.281 181.545 596.883 181.545 597.512C181.545 598.141 181.385 598.742 181.066 599.316C180.747 599.891 180.242 600.392 179.549 600.82C178.865 601.258 177.981 601.604 176.896 601.859C175.821 602.115 174.522 602.242 173 602.242ZM183.021 585.535C182.092 585.435 181.13 585.234 180.137 584.934C179.143 584.633 178.191 584.25 177.279 583.785C176.368 583.311 175.534 582.764 174.777 582.145C174.03 581.516 173.433 580.827 172.986 580.08C172.713 580.572 172.362 581.042 171.934 581.488C171.505 581.926 171.027 582.336 170.498 582.719C169.969 583.102 169.4 583.452 168.789 583.771C168.178 584.081 167.554 584.359 166.916 584.605C166.278 584.842 165.635 585.043 164.988 585.207C164.341 585.362 163.721 585.471 163.129 585.535L162.24 584.236C162.915 584.191 163.603 584.1 164.305 583.963C165.007 583.817 165.699 583.626 166.383 583.389C167.066 583.143 167.718 582.855 168.338 582.527C168.967 582.19 169.536 581.812 170.047 581.393C170.566 580.964 171.013 580.49 171.387 579.971C171.76 579.442 172.038 578.872 172.221 578.262H163.498V576.881H182.502V578.262H173.807C173.962 578.863 174.23 579.424 174.613 579.943C174.996 580.454 175.452 580.928 175.98 581.365C176.509 581.794 177.092 582.176 177.73 582.514C178.378 582.851 179.043 583.143 179.727 583.389C180.41 583.626 181.098 583.817 181.791 583.963C182.493 584.1 183.158 584.186 183.787 584.223L183.021 585.535ZM194.049 602.434V592.959H187.432V591.578H211.768V592.945H205.123V602.434H203.538V592.945H195.635V602.434H194.049ZM191.438 588.105V581.734H206.176V578.262H191.438V576.908H207.762V583.047H193.024V586.752H208.391V588.105H191.438Z" fill="black"/>
<path d="M26.3975 27.2368C24.5312 28.7339 23.0752 30.6206 22.0293 32.897C20.9424 35.2759 20.3989 37.8599 20.3989 40.6489C20.3989 43.4585 20.9424 46.0425 22.0293 48.4009C23.0342 50.5952 24.4902 52.4922 26.3975 54.0918V54.6147C23.6904 53.1177 21.6807 51.1489 20.3682 48.7085C19.1377 46.4116 18.5225 43.7251 18.5225 40.6489C18.5225 37.6138 19.1377 34.9478 20.3682 32.6509C21.7012 30.2105 23.7109 28.2212 26.3975 26.6831V27.2368ZM43.0119 53.6304V44.5864H44.796V52.0769H61.8073V53.6304H43.0119ZM60.9613 36.0039V46.6628H59.1771V25.0989H60.9613V34.4351H65.391V36.0039H60.9613ZM51.0561 28.498H41.2584V39.1724H51.0561V28.498ZM39.505 40.6951V26.9753H52.8095V40.6951H39.505ZM75.0686 43.7251V42.2332H87.8809V38.0957H79.6675V26.3447H97.8477V27.8367H81.4517V31.3435H97.4786V32.8047H81.4517V36.6038H98.1553V38.0957H89.6651V42.2332H102.447V43.7251H75.0686ZM79.5445 53.738V46.1399H81.3287V52.2461H98.586V53.738H79.5445ZM114.031 27.2368V26.6831C116.697 28.2212 118.697 30.2105 120.03 32.6509C121.281 34.9478 121.906 37.6138 121.906 40.6489C121.906 43.7251 121.281 46.4116 120.03 48.7085C118.717 51.1489 116.718 53.1177 114.031 54.6147V54.0918C115.918 52.4922 117.364 50.5952 118.369 48.4009C119.476 46.0425 120.03 43.4585 120.03 40.6489C120.03 37.8599 119.476 35.2759 118.369 32.897C117.323 30.6206 115.877 28.7339 114.031 27.2368Z" fill="black"/>
</svg>
