<svg width="1184" height="103" viewBox="0 0 1184 103" fill="none" xmlns="http://www.w3.org/2000/svg">
<path d="M570.023 77.4452C567.948 77.964 566.068 76.0844 566.587 74.0093L569.449 62.5628L581.47 74.5836L570.023 77.4452Z" fill="#DFE3ED"/>
<path d="M583.473 72.5801L611.522 44.5315L599.501 32.5107L571.452 60.5593L583.473 72.5801Z" fill="#DFE3ED"/>
<path d="M613.525 42.5281L601.504 30.5073L607.515 24.4969C608.621 23.3904 610.415 23.3904 611.522 24.4969L619.536 32.5107C620.642 33.6172 620.642 35.4112 619.536 36.5177L613.525 42.5281Z" fill="#DFE3ED"/>
<path d="M21 30C15.4305 30 10.089 32.2652 6.15076 36.2972C2.21249 40.3292 0 45.7978 0 51.5C0 57.2022 2.21249 62.6708 6.15076 66.7028C10.089 70.7348 15.4305 73 21 73V30Z" fill="#BBBCDE"/>
<path d="M1163 30C1168.57 30 1173.91 32.2652 1177.85 36.2972C1181.79 40.3292 1184 45.7978 1184 51.5C1184 57.2022 1181.79 62.6708 1177.85 66.7028C1173.91 70.7348 1168.57 73 1163 73V30Z" fill="#BBBCDE"/>
<rect x="34" y="2" width="1117" height="99" rx="10" stroke="#A1C8EB" stroke-width="3"/>
</svg>
