<svg width="193" height="52" viewBox="0 0 193 52" fill="none" xmlns="http://www.w3.org/2000/svg">
<path opacity="0.7" d="M40.9689 6.69922H1.67578V45.9923H40.9689V6.69922Z" fill="#AFDCDE" stroke="#5DC2D0" stroke-width="2.59875"/>
<path d="M73.4413 34.8332L71.1995 42.912H53.6461V41.5585C54.4357 39.0207 55.9161 36.4687 58.0873 33.9027C60.0894 31.5341 62.2889 29.4756 64.6857 27.7273C66.8288 26.0918 68.281 24.5409 69.0424 23.0746C69.6909 21.8621 70.0152 20.3534 70.0152 18.5488C70.0152 16.3211 69.3948 14.6574 68.1541 13.5577C67.0262 12.5707 65.4471 12.0773 63.4168 12.0773C61.4993 12.0773 59.9625 12.4297 58.8064 13.1347C57.5939 13.8679 56.9876 14.9394 56.9876 16.3493C56.9876 16.9979 57.0581 17.5195 57.1991 17.9143C57.2837 18.1681 57.4247 18.4501 57.6221 18.7602C57.7913 18.9858 57.89 19.1691 57.9182 19.3101C58.0309 19.5075 58.0873 19.7613 58.0873 20.0715C58.0873 20.7482 57.8759 21.2558 57.4529 21.5942C57.1145 21.9044 56.6915 22.0594 56.184 22.0594C55.5918 22.0594 55.1124 21.7211 54.7459 21.0443C54.4075 20.3957 54.2383 19.578 54.2383 18.5911C54.2383 16.6736 54.9855 14.9817 56.48 13.5154C58.2565 11.8235 60.6393 10.9775 63.6283 10.9775C66.7865 10.9775 69.127 11.6825 70.6497 13.0924C72.116 14.4177 72.8491 16.4057 72.8491 19.0563C72.8491 21.2276 72.2006 23.2015 70.9034 24.978C69.6909 26.6699 67.5761 28.5732 64.5588 30.6881C62.4158 32.1544 60.6534 33.5784 59.2717 34.9601C57.4952 36.6802 56.184 38.5131 55.338 40.4588H65.997C67.6325 40.4588 68.9014 40.1063 69.8037 39.4014C70.7907 38.5272 71.7494 36.934 72.6799 34.6218L73.4413 34.8332ZM89.0067 10.8929C92.6161 10.8929 95.3654 12.5425 97.2547 15.8417C98.9184 18.718 99.7503 22.5106 99.7503 27.2197C99.7503 31.8442 98.9184 35.5946 97.2547 38.4708C95.3654 41.7418 92.6161 43.3773 89.0067 43.3773C85.3692 43.3773 82.6057 41.7418 80.7164 38.4708C79.0809 35.5946 78.2632 31.8442 78.2632 27.2197C78.2632 22.5106 79.0809 18.718 80.7164 15.8417C82.6057 12.5425 85.3692 10.8929 89.0067 10.8929ZM89.0067 12.035C86.2997 12.035 84.2412 13.5577 82.8313 16.6031C81.6188 19.3101 81.0125 22.849 81.0125 27.2197C81.0125 31.5341 81.6188 35.0165 82.8313 37.6672C84.2412 40.7126 86.2997 42.2353 89.0067 42.2353C91.6856 42.2353 93.7299 40.7126 95.1398 37.6672C96.4088 34.9883 97.0432 31.5059 97.0432 27.2197C97.0432 22.849 96.4088 19.3101 95.1398 16.6031C93.7299 13.5577 91.6856 12.035 89.0067 12.035ZM125.044 34.8332L122.802 42.912H105.249V41.5585C106.038 39.0207 107.519 36.4687 109.69 33.9027C111.692 31.5341 113.892 29.4756 116.289 27.7273C118.432 26.0918 119.884 24.5409 120.645 23.0746C121.294 21.8621 121.618 20.3534 121.618 18.5488C121.618 16.3211 120.998 14.6574 119.757 13.5577C118.629 12.5707 117.05 12.0773 115.02 12.0773C113.102 12.0773 111.565 12.4297 110.409 13.1347C109.197 13.8679 108.59 14.9394 108.59 16.3493C108.59 16.9979 108.661 17.5195 108.802 17.9143C108.886 18.1681 109.027 18.4501 109.225 18.7602C109.394 18.9858 109.493 19.1691 109.521 19.3101C109.634 19.5075 109.69 19.7613 109.69 20.0715C109.69 20.7482 109.479 21.2558 109.056 21.5942C108.717 21.9044 108.294 22.0594 107.787 22.0594C107.195 22.0594 106.715 21.7211 106.349 21.0443C106.01 20.3957 105.841 19.578 105.841 18.5911C105.841 16.6736 106.588 14.9817 108.083 13.5154C109.859 11.8235 112.242 10.9775 115.231 10.9775C118.389 10.9775 120.73 11.6825 122.252 13.0924C123.719 14.4177 124.452 16.4057 124.452 19.0563C124.452 21.2276 123.803 23.2015 122.506 24.978C121.294 26.6699 119.179 28.5732 116.162 30.6881C114.019 32.1544 112.256 33.5784 110.874 34.9601C109.098 36.6802 107.787 38.5131 106.941 40.4588H117.6C119.235 40.4588 120.504 40.1063 121.407 39.4014C122.393 38.5272 123.352 36.934 124.283 34.6218L125.044 34.8332ZM150.845 34.8332L148.604 42.912H131.05V41.5585C131.84 39.0207 133.32 36.4687 135.492 33.9027C137.494 31.5341 139.693 29.4756 142.09 27.7273C144.233 26.0918 145.685 24.5409 146.447 23.0746C147.095 21.8621 147.419 20.3534 147.419 18.5488C147.419 16.3211 146.799 14.6574 145.558 13.5577C144.43 12.5707 142.851 12.0773 140.821 12.0773C138.904 12.0773 137.367 12.4297 136.211 13.1347C134.998 13.8679 134.392 14.9394 134.392 16.3493C134.392 16.9979 134.462 17.5195 134.603 17.9143C134.688 18.1681 134.829 18.4501 135.026 18.7602C135.195 18.9858 135.294 19.1691 135.322 19.3101C135.435 19.5075 135.492 19.7613 135.492 20.0715C135.492 20.7482 135.28 21.2558 134.857 21.5942C134.519 21.9044 134.096 22.0594 133.588 22.0594C132.996 22.0594 132.517 21.7211 132.15 21.0443C131.812 20.3957 131.642 19.578 131.642 18.5911C131.642 16.6736 132.39 14.9817 133.884 13.5154C135.661 11.8235 138.043 10.9775 141.032 10.9775C144.191 10.9775 146.531 11.6825 148.054 13.0924C149.52 14.4177 150.253 16.4057 150.253 19.0563C150.253 21.2276 149.605 23.2015 148.308 24.978C147.095 26.6699 144.98 28.5732 141.963 30.6881C139.82 32.1544 138.058 33.5784 136.676 34.9601C134.899 36.6802 133.588 38.5131 132.742 40.4588H143.401C145.037 40.4588 146.306 40.1063 147.208 39.4014C148.195 38.5272 149.154 36.934 150.084 34.6218L150.845 34.8332ZM182.491 36.5691V23.6532H172.459V21.8852H182.491V17.1952H172.459V15.4272H182.491V10.2348H184.65V36.5691H182.491ZM162.987 44.9254V34.3172H165.145V43.0457H186.027V44.9254H162.987ZM178.731 29.6459C178.061 29.7824 177.168 29.9065 176.051 30.0181C174.947 30.1174 173.601 30.2042 172.013 30.2787C170.425 30.3407 168.582 30.3903 166.485 30.4276C164.401 30.4648 162.05 30.4834 159.432 30.4834V12.4123H161.591V28.6409C163.774 28.6409 165.747 28.6285 167.509 28.6037C169.271 28.5789 170.84 28.5355 172.218 28.4734C173.607 28.4114 174.817 28.3369 175.847 28.2501C176.876 28.1508 177.757 28.033 178.489 27.8965L178.731 29.6459Z" fill="black"/>
</svg>
