<svg width="194" height="52" viewBox="0 0 194 52" fill="none" xmlns="http://www.w3.org/2000/svg">
<path opacity="0.7" d="M41.2296 6.69922H1.93652V45.9923H41.2296V6.69922Z" fill="#FEDD78" stroke="#F5A21B" stroke-width="2.59875"/>
<path d="M74.9613 34.8332L72.7195 42.912H55.1661V41.5585C55.9557 39.0207 57.4361 36.4687 59.6074 33.9027C61.6094 31.5341 63.8089 29.4756 66.2058 27.7273C68.3488 26.0918 69.801 24.5409 70.5624 23.0746C71.2109 21.8621 71.5352 20.3534 71.5352 18.5488C71.5352 16.3211 70.9149 14.6574 69.6741 13.5577C68.5462 12.5707 66.9671 12.0773 64.9368 12.0773C63.0194 12.0773 61.4825 12.4297 60.3264 13.1347C59.1139 13.8679 58.5076 14.9394 58.5076 16.3493C58.5076 16.9979 58.5781 17.5195 58.7191 17.9143C58.8037 18.1681 58.9447 18.4501 59.1421 18.7602C59.3113 18.9858 59.41 19.1691 59.4382 19.3101C59.551 19.5075 59.6074 19.7613 59.6074 20.0715C59.6074 20.7482 59.3959 21.2558 58.9729 21.5942C58.6345 21.9044 58.2115 22.0594 57.704 22.0594C57.1118 22.0594 56.6324 21.7211 56.2659 21.0443C55.9275 20.3957 55.7583 19.578 55.7583 18.5911C55.7583 16.6736 56.5056 14.9817 58.0001 13.5154C59.7766 11.8235 62.1593 10.9775 65.1483 10.9775C68.3065 10.9775 70.647 11.6825 72.1697 13.0924C73.636 14.4177 74.3691 16.4057 74.3691 19.0563C74.3691 21.2276 73.7206 23.2015 72.4235 24.978C71.2109 26.6699 69.0961 28.5732 66.0789 30.6881C63.9358 32.1544 62.1734 33.5784 60.7917 34.9601C59.0152 36.6802 57.704 38.5131 56.858 40.4588H67.517C69.1525 40.4588 70.4214 40.1063 71.3237 39.4014C72.3107 38.5272 73.2694 36.934 74.2 34.6218L74.9613 34.8332ZM90.5267 10.8929C94.1361 10.8929 96.8854 12.5425 98.7747 15.8417C100.438 18.718 101.27 22.5106 101.27 27.2197C101.27 31.8442 100.438 35.5946 98.7747 38.4708C96.8854 41.7418 94.1361 43.3773 90.5267 43.3773C86.8892 43.3773 84.1257 41.7418 82.2365 38.4708C80.601 35.5946 79.7832 31.8442 79.7832 27.2197C79.7832 22.5106 80.601 18.718 82.2365 15.8417C84.1257 12.5425 86.8892 10.8929 90.5267 10.8929ZM90.5267 12.035C87.8197 12.035 85.7612 13.5577 84.3513 16.6031C83.1388 19.3101 82.5325 22.849 82.5325 27.2197C82.5325 31.5341 83.1388 35.0165 84.3513 37.6672C85.7612 40.7126 87.8197 42.2353 90.5267 42.2353C93.2056 42.2353 95.25 40.7126 96.6599 37.6672C97.9288 34.9883 98.5632 31.5059 98.5632 27.2197C98.5632 22.849 97.9288 19.3101 96.6599 16.6031C95.25 13.5577 93.2056 12.035 90.5267 12.035ZM126.564 34.8332L124.322 42.912H106.769V41.5585C107.558 39.0207 109.039 36.4687 111.21 33.9027C113.212 31.5341 115.412 29.4756 117.809 27.7273C119.952 26.0918 121.404 24.5409 122.165 23.0746C122.814 21.8621 123.138 20.3534 123.138 18.5488C123.138 16.3211 122.518 14.6574 121.277 13.5577C120.149 12.5707 118.57 12.0773 116.54 12.0773C114.622 12.0773 113.085 12.4297 111.929 13.1347C110.717 13.8679 110.11 14.9394 110.11 16.3493C110.11 16.9979 110.181 17.5195 110.322 17.9143C110.407 18.1681 110.548 18.4501 110.745 18.7602C110.914 18.9858 111.013 19.1691 111.041 19.3101C111.154 19.5075 111.21 19.7613 111.21 20.0715C111.21 20.7482 110.999 21.2558 110.576 21.5942C110.237 21.9044 109.814 22.0594 109.307 22.0594C108.715 22.0594 108.235 21.7211 107.869 21.0443C107.53 20.3957 107.361 19.578 107.361 18.5911C107.361 16.6736 108.108 14.9817 109.603 13.5154C111.379 11.8235 113.762 10.9775 116.751 10.9775C119.909 10.9775 122.25 11.6825 123.772 13.0924C125.239 14.4177 125.972 16.4057 125.972 19.0563C125.972 21.2276 125.323 23.2015 124.026 24.978C122.814 26.6699 120.699 28.5732 117.682 30.6881C115.539 32.1544 113.776 33.5784 112.394 34.9601C110.618 36.6802 109.307 38.5131 108.461 40.4588H119.12C120.755 40.4588 122.024 40.1063 122.927 39.4014C123.913 38.5272 124.872 36.934 125.803 34.6218L126.564 34.8332ZM140.057 26.7122C139.408 26.8531 138.929 26.8954 138.619 26.839C138.252 26.7263 138.069 26.4725 138.069 26.0777C138.069 25.6547 138.238 25.4009 138.577 25.3163C138.859 25.2599 139.324 25.3163 139.972 25.4855C142.482 25.4855 144.456 24.8652 145.894 23.6244C147.332 22.4119 148.051 20.6918 148.051 18.4642C148.051 16.5467 147.572 15.024 146.613 13.896C145.57 12.6271 144.075 11.9927 142.13 11.9927C139.62 11.9927 138.013 12.4579 137.308 13.3885C136.913 13.9242 136.8 14.8266 136.969 16.0955L137.054 16.9838C137.054 17.6041 136.871 18.154 136.504 18.6334C136.166 19.0563 135.785 19.2678 135.362 19.2678C134.826 19.2678 134.375 19.0986 134.008 18.7602C133.557 18.3373 133.332 17.731 133.332 16.9415C133.332 15.447 134.051 14.1075 135.489 12.9232C137.181 11.5979 139.394 10.9352 142.13 10.9352C144.893 10.9352 147.036 11.5979 148.559 12.9232C150.081 14.2485 150.843 16.0955 150.843 18.4642C150.843 20.3816 150.166 22.0312 148.813 23.413C147.572 24.6819 145.965 25.5842 143.991 26.12C146.472 26.5148 148.404 27.4876 149.785 29.0385C151.026 30.4202 151.646 32.0557 151.646 33.945C151.646 36.652 150.843 38.8656 149.236 40.5857C147.374 42.5596 144.696 43.5465 141.199 43.5465C138.295 43.5465 135.996 42.8557 134.305 41.4739C132.754 40.1768 131.978 38.5695 131.978 36.652C131.978 35.8061 132.204 35.1716 132.655 34.7487C133.022 34.4103 133.487 34.2411 134.051 34.2411C134.53 34.2411 134.953 34.4103 135.32 34.7487C135.771 35.1152 135.996 35.6369 135.996 36.3137L135.912 37.2019C135.799 38.8092 135.954 39.9512 136.377 40.628C137.11 41.8687 138.718 42.4891 141.199 42.4891C143.709 42.4891 145.626 41.6431 146.951 39.9512C148.164 38.4285 148.77 36.4265 148.77 33.945C148.77 31.6891 148.065 29.9268 146.655 28.6578C145.161 27.3325 142.947 26.6699 140.015 26.6699L140.057 26.7122ZM184.011 36.5691V23.6532H173.979V21.8852H184.011V17.1952H173.979V15.4272H184.011V10.2348H186.17V36.5691H184.011ZM164.507 44.9254V34.3172H166.665V43.0457H187.547V44.9254H164.507ZM180.251 29.6459C179.581 29.7824 178.688 29.9065 177.571 30.0181C176.467 30.1174 175.121 30.2042 173.533 30.2787C171.945 30.3407 170.102 30.3903 168.005 30.4276C165.921 30.4648 163.57 30.4834 160.952 30.4834V12.4123H163.111V28.6409C165.294 28.6409 167.267 28.6285 169.029 28.6037C170.791 28.5789 172.36 28.5355 173.738 28.4734C175.127 28.4114 176.337 28.3369 177.367 28.2501C178.396 28.1508 179.277 28.033 180.009 27.8965L180.251 29.6459Z" fill="black"/>
</svg>
