<svg width="178" height="46" viewBox="0 0 178 46" fill="none" xmlns="http://www.w3.org/2000/svg">
<path opacity="0.7" d="M41.5538 2.91406H2.26074V42.2072H41.5538V2.91406Z" fill="#F5B1A2" stroke="#EC7069" stroke-width="2.59875"/>
<path d="M72.8228 31.0602L70.8663 38.1107H55.547V36.9295C56.236 34.7146 57.528 32.4875 59.4229 30.248C61.1702 28.1809 63.0897 26.3844 65.1815 24.8586C67.0519 23.4313 68.3192 22.0777 68.9837 20.798C69.5497 19.7398 69.8327 18.4232 69.8327 16.8482C69.8327 14.9041 69.2913 13.4521 68.2085 12.4924C67.2241 11.6311 65.846 11.2004 64.0741 11.2004C62.4007 11.2004 61.0595 11.508 60.0505 12.1232C58.9923 12.7631 58.4632 13.6982 58.4632 14.9287C58.4632 15.4947 58.5247 15.95 58.6478 16.2945C58.7216 16.516 58.8446 16.7621 59.0169 17.0328C59.1646 17.2297 59.2507 17.3896 59.2753 17.5127C59.3737 17.685 59.4229 17.9064 59.4229 18.1771C59.4229 18.7678 59.2384 19.2107 58.8692 19.5061C58.5739 19.7768 58.2048 19.9121 57.7618 19.9121C57.245 19.9121 56.8267 19.6168 56.5067 19.0262C56.2114 18.4602 56.0638 17.7465 56.0638 16.8852C56.0638 15.2117 56.7159 13.7352 58.0202 12.4555C59.5706 10.9789 61.6501 10.2406 64.2587 10.2406C67.0149 10.2406 69.0575 10.8559 70.3864 12.0863C71.6661 13.243 72.306 14.9779 72.306 17.2912C72.306 19.1861 71.7399 20.9088 70.6079 22.4592C69.5497 23.9357 67.704 25.5969 65.0708 27.4426C63.2005 28.7223 61.6624 29.965 60.4565 31.1709C58.9062 32.6721 57.7618 34.2717 57.0235 35.9697H66.3259C67.7532 35.9697 68.8606 35.6621 69.6481 35.0469C70.5095 34.284 71.3462 32.8936 72.1583 30.8756L72.8228 31.0602ZM86.4071 10.1668C89.5571 10.1668 91.9565 11.6064 93.6054 14.4857C95.0573 16.9959 95.7833 20.3059 95.7833 24.4156C95.7833 28.4516 95.0573 31.7246 93.6054 34.2348C91.9565 37.0895 89.5571 38.5168 86.4071 38.5168C83.2325 38.5168 80.8208 37.0895 79.172 34.2348C77.7446 31.7246 77.031 28.4516 77.031 24.4156C77.031 20.3059 77.7446 16.9959 79.172 14.4857C80.8208 11.6064 83.2325 10.1668 86.4071 10.1668ZM86.4071 11.1635C84.0446 11.1635 82.2481 12.4924 81.0177 15.1502C79.9595 17.5127 79.4304 20.6012 79.4304 24.4156C79.4304 28.1809 79.9595 31.2201 81.0177 33.5334C82.2481 36.1912 84.0446 37.5201 86.4071 37.5201C88.745 37.5201 90.5292 36.1912 91.7597 33.5334C92.8671 31.1955 93.4208 28.1563 93.4208 24.4156C93.4208 20.6012 92.8671 17.5127 91.7597 15.1502C90.5292 12.4924 88.745 11.1635 86.4071 11.1635ZM117.858 31.0602L115.901 38.1107H100.582V36.9295C101.271 34.7146 102.563 32.4875 104.458 30.248C106.205 28.1809 108.125 26.3844 110.217 24.8586C112.087 23.4313 113.354 22.0777 114.019 20.798C114.585 19.7398 114.868 18.4232 114.868 16.8482C114.868 14.9041 114.326 13.4521 113.244 12.4924C112.259 11.6311 110.881 11.2004 109.109 11.2004C107.436 11.2004 106.095 11.508 105.086 12.1232C104.027 12.7631 103.498 13.6982 103.498 14.9287C103.498 15.4947 103.56 15.95 103.683 16.2945C103.757 16.516 103.88 16.7621 104.052 17.0328C104.2 17.2297 104.286 17.3896 104.31 17.5127C104.409 17.685 104.458 17.9064 104.458 18.1771C104.458 18.7678 104.274 19.2107 103.904 19.5061C103.609 19.7768 103.24 19.9121 102.797 19.9121C102.28 19.9121 101.862 19.6168 101.542 19.0262C101.247 18.4602 101.099 17.7465 101.099 16.8852C101.099 15.2117 101.751 13.7352 103.055 12.4555C104.606 10.9789 106.685 10.2406 109.294 10.2406C112.05 10.2406 114.093 10.8559 115.422 12.0863C116.701 13.243 117.341 14.9779 117.341 17.2912C117.341 19.1861 116.775 20.9088 115.643 22.4592C114.585 23.9357 112.739 25.5969 110.106 27.4426C108.236 28.7223 106.698 29.965 105.492 31.1709C103.941 32.6721 102.797 34.2717 102.059 35.9697H111.361C112.788 35.9697 113.896 35.6621 114.683 35.0469C115.545 34.284 116.381 32.8936 117.193 30.8756L117.858 31.0602ZM125.536 38.0369V37.0771C127.431 37.0771 128.748 36.9049 129.486 36.5604C130.298 36.2158 130.704 35.576 130.704 34.6408V15.5563C130.704 14.8672 130.495 14.375 130.076 14.0797C129.683 13.7844 129.092 13.6367 128.305 13.6367H124.982V12.9354C126.68 12.7385 128.206 12.3939 129.56 11.9018C130.618 11.508 131.787 10.9297 133.067 10.1668V34.6408C133.067 35.576 133.509 36.2158 134.395 36.5604C135.183 36.9049 136.549 37.0771 138.493 37.0771V38.0369H125.536ZM169.052 32.3491V20.6073H159.932V19H169.052V14.7364H159.932V13.1291H169.052V8.40876H171.014V32.3491H169.052ZM151.321 39.9457V30.3019H153.283V38.2369H172.266V39.9457H151.321ZM165.634 26.0552C165.025 26.1793 164.213 26.2921 163.198 26.3936C162.194 26.4838 160.97 26.5628 159.526 26.6305C158.082 26.6869 156.407 26.732 154.501 26.7658C152.606 26.7997 150.469 26.8166 148.089 26.8166V10.3883H150.052V25.1416C152.037 25.1416 153.83 25.1303 155.432 25.1078C157.033 25.0852 158.46 25.0457 159.712 24.9893C160.976 24.9329 162.075 24.8653 163.011 24.7863C163.948 24.6961 164.749 24.5889 165.414 24.4648L165.634 26.0552Z" fill="black"/>
</svg>
