<svg width="176" height="46" viewBox="0 0 176 46" fill="none" xmlns="http://www.w3.org/2000/svg">
<path opacity="0.7" d="M41.2931 2.91406H2V42.2072H41.2931V2.91406Z" fill="#FEDD78" stroke="#F5A21B" stroke-width="2.59875"/>
<path d="M71.3027 31.0602L69.3463 38.1107H54.027V36.9295C54.716 34.7146 56.008 32.4875 57.9029 30.248C59.6502 28.1809 61.5697 26.3844 63.6615 24.8586C65.5318 23.4313 66.7992 22.0777 67.4637 20.798C68.0297 19.7398 68.3127 18.4232 68.3127 16.8482C68.3127 14.9041 67.7713 13.4521 66.6885 12.4924C65.7041 11.6311 64.326 11.2004 62.5541 11.2004C60.8807 11.2004 59.5395 11.508 58.5305 12.1232C57.4723 12.7631 56.9432 13.6982 56.9432 14.9287C56.9432 15.4947 57.0047 15.95 57.1277 16.2945C57.2016 16.516 57.3246 16.7621 57.4969 17.0328C57.6445 17.2297 57.7307 17.3896 57.7553 17.5127C57.8537 17.685 57.9029 17.9064 57.9029 18.1771C57.9029 18.7678 57.7184 19.2107 57.3492 19.5061C57.0539 19.7768 56.6848 19.9121 56.2418 19.9121C55.725 19.9121 55.3066 19.6168 54.9867 19.0262C54.6914 18.4602 54.5437 17.7465 54.5437 16.8852C54.5437 15.2117 55.1959 13.7352 56.5002 12.4555C58.0506 10.9789 60.1301 10.2406 62.7387 10.2406C65.4949 10.2406 67.5375 10.8559 68.8664 12.0863C70.1461 13.243 70.7859 14.9779 70.7859 17.2912C70.7859 19.1861 70.2199 20.9088 69.0879 22.4592C68.0297 23.9357 66.184 25.5969 63.5508 27.4426C61.6805 28.7223 60.1424 29.965 58.9365 31.1709C57.3861 32.6721 56.2418 34.2717 55.5035 35.9697H64.8059C66.2332 35.9697 67.3406 35.6621 68.1281 35.0469C68.9895 34.284 69.8262 32.8936 70.6383 30.8756L71.3027 31.0602ZM84.8871 10.1668C88.0371 10.1668 90.4365 11.6064 92.0854 14.4857C93.5373 16.9959 94.2633 20.3059 94.2633 24.4156C94.2633 28.4516 93.5373 31.7246 92.0854 34.2348C90.4365 37.0895 88.0371 38.5168 84.8871 38.5168C81.7125 38.5168 79.3008 37.0895 77.652 34.2348C76.2246 31.7246 75.5109 28.4516 75.5109 24.4156C75.5109 20.3059 76.2246 16.9959 77.652 14.4857C79.3008 11.6064 81.7125 10.1668 84.8871 10.1668ZM84.8871 11.1635C82.5246 11.1635 80.7281 12.4924 79.4977 15.1502C78.4395 17.5127 77.9104 20.6012 77.9104 24.4156C77.9104 28.1809 78.4395 31.2201 79.4977 33.5334C80.7281 36.1912 82.5246 37.5201 84.8871 37.5201C87.225 37.5201 89.0092 36.1912 90.2396 33.5334C91.3471 31.1955 91.9008 28.1563 91.9008 24.4156C91.9008 20.6012 91.3471 17.5127 90.2396 15.1502C89.0092 12.4924 87.225 11.1635 84.8871 11.1635ZM116.338 31.0602L114.381 38.1107H99.0621V36.9295C99.7512 34.7146 101.043 32.4875 102.938 30.248C104.685 28.1809 106.605 26.3844 108.697 24.8586C110.567 23.4313 111.834 22.0777 112.499 20.798C113.065 19.7398 113.348 18.4232 113.348 16.8482C113.348 14.9041 112.806 13.4521 111.724 12.4924C110.739 11.6311 109.361 11.2004 107.589 11.2004C105.916 11.2004 104.575 11.508 103.566 12.1232C102.507 12.7631 101.978 13.6982 101.978 14.9287C101.978 15.4947 102.04 15.95 102.163 16.2945C102.237 16.516 102.36 16.7621 102.532 17.0328C102.68 17.2297 102.766 17.3896 102.79 17.5127C102.889 17.685 102.938 17.9064 102.938 18.1771C102.938 18.7678 102.754 19.2107 102.384 19.5061C102.089 19.7768 101.72 19.9121 101.277 19.9121C100.76 19.9121 100.342 19.6168 100.022 19.0262C99.7266 18.4602 99.5789 17.7465 99.5789 16.8852C99.5789 15.2117 100.231 13.7352 101.535 12.4555C103.086 10.9789 105.165 10.2406 107.774 10.2406C110.53 10.2406 112.573 10.8559 113.902 12.0863C115.181 13.243 115.821 14.9779 115.821 17.2912C115.821 19.1861 115.255 20.9088 114.123 22.4592C113.065 23.9357 111.219 25.5969 108.586 27.4426C106.716 28.7223 105.178 29.965 103.972 31.1709C102.421 32.6721 101.277 34.2717 100.539 35.9697H109.841C111.268 35.9697 112.376 35.6621 113.163 35.0469C114.025 34.284 114.861 32.8936 115.673 30.8756L116.338 31.0602ZM129.922 10.1668C133.072 10.1668 135.472 11.6064 137.121 14.4857C138.572 16.9959 139.298 20.3059 139.298 24.4156C139.298 28.4516 138.572 31.7246 137.121 34.2348C135.472 37.0895 133.072 38.5168 129.922 38.5168C126.748 38.5168 124.336 37.0895 122.687 34.2348C121.26 31.7246 120.546 28.4516 120.546 24.4156C120.546 20.3059 121.26 16.9959 122.687 14.4857C124.336 11.6064 126.748 10.1668 129.922 10.1668ZM129.922 11.1635C127.56 11.1635 125.763 12.4924 124.533 15.1502C123.475 17.5127 122.946 20.6012 122.946 24.4156C122.946 28.1809 123.475 31.2201 124.533 33.5334C125.763 36.1912 127.56 37.5201 129.922 37.5201C132.26 37.5201 134.044 36.1912 135.275 33.5334C136.382 31.1955 136.936 28.1563 136.936 24.4156C136.936 20.6012 136.382 17.5127 135.275 15.1502C134.044 12.4924 132.26 11.1635 129.922 11.1635ZM167.532 32.3491V20.6073H158.412V19H167.532V14.7364H158.412V13.1291H167.532V8.40876H169.494V32.3491H167.532ZM149.8 39.9457V30.3019H151.763V38.2369H170.746V39.9457H149.8ZM164.114 26.0552C163.505 26.1793 162.693 26.2921 161.678 26.3936C160.674 26.4838 159.45 26.5628 158.006 26.6305C156.562 26.6869 154.887 26.732 152.981 26.7658C151.086 26.7997 148.949 26.8166 146.569 26.8166V10.3883H148.532V25.1416C150.517 25.1416 152.31 25.1303 153.912 25.1078C155.513 25.0852 156.94 25.0457 158.192 24.9893C159.456 24.9329 160.555 24.8653 161.491 24.7863C162.428 24.6961 163.228 24.5889 163.894 24.4648L164.114 26.0552Z" fill="black"/>
</svg>
