<svg width="76" height="81" viewBox="0 0 76 81" fill="none" xmlns="http://www.w3.org/2000/svg">
<rect y="3" width="76" height="78" rx="15" fill="#9A9A9A"/>
<rect width="76" height="76" rx="15" fill="#FDFDFD"/>
<path d="M29.1074 59.0566V57.584C32.015 57.584 34.0352 57.3197 35.168 56.791C36.4141 56.2624 37.0371 55.2806 37.0371 53.8457V24.5625C37.0371 23.5052 36.7161 22.75 36.0742 22.2969C35.4701 21.8438 34.5638 21.6172 33.3555 21.6172H28.2578V20.541C30.8633 20.2389 33.2044 19.7103 35.2812 18.9551C36.9049 18.3509 38.6986 17.4635 40.6621 16.293V53.8457C40.6621 55.2806 41.3418 56.2624 42.7012 56.791C43.9095 57.3197 46.0052 57.584 48.9883 57.584V59.0566H29.1074Z" fill="#383838"/>
</svg>
