<svg width="80" height="76" viewBox="0 0 80 76" fill="none" xmlns="http://www.w3.org/2000/svg">
<g filter="url(#filter0_d_1664_63861)">
<path d="M74.9997 33.9901C74.9997 14.6846 61.5785 1 42.3403 1C26.0404 1 6.30574 13.4333 5.07481 30.1568C3.64534 49.4225 22.9432 67 42.3403 67C44.255 66.9916 46.1664 66.8389 48.0582 66.5432L73.729 43.8215C74.5863 40.6152 75.0136 37.3091 74.9997 33.9901Z" fill="#B1CFED" stroke="#408BCA" stroke-width="2" stroke-linecap="round" stroke-linejoin="round"/>
<path d="M53.9749 47.2581C47.4033 53.0179 45.1797 61.3796 48.0188 66.5436L73.7294 43.822C69.0042 40.2668 60.5267 41.4982 53.9749 47.2581Z" fill="#408BCA" stroke="#408BCA" stroke-width="2" stroke-linecap="round" stroke-linejoin="round"/>
<path d="M35.7691 18.8954C38.2157 18.8927 40.6584 18.7001 43.0752 18.3195C45.0726 18.1334 47.0045 17.5095 48.7336 16.4922L50.7189 22.4507C48.2571 24.2382 43.6708 25.132 36.9603 25.132C34.7286 25.1621 32.4981 25.016 30.2894 24.695L30.488 18.5578C32.2399 18.7775 34.0035 18.8902 35.7691 18.8954ZM34.8558 48.4495C33.2705 48.1666 31.7375 47.6442 30.3093 46.9003L31.7983 40.6836C33.0082 41.267 34.29 41.6878 35.6102 41.9349C36.9493 42.2684 38.3207 42.4549 39.7001 42.491C41.2675 42.6131 42.8329 42.2303 44.1672 41.3986C44.6259 41.0568 44.9954 40.6093 45.2443 40.0941C45.4932 39.5789 45.614 39.0112 45.5967 38.4392C45.6106 37.9853 45.5295 37.5335 45.3585 37.1127C45.1875 36.692 44.9305 36.3117 44.604 35.9963C43.7675 35.3148 42.7015 34.9807 41.6259 35.0628C40.6338 35.0993 39.6573 35.3216 38.7471 35.7182C37.8721 36.0204 37.124 36.608 36.6228 37.3866L31.0836 36.2743V24.0992H38.0522L37.7544 30.5343C39.3852 29.5887 41.2514 29.1272 43.1348 29.2036C44.9329 29.154 46.7147 29.5569 48.3166 30.3754C49.7494 31.1398 50.9135 32.3251 51.6521 33.7718C52.4139 35.2717 52.7957 36.9358 52.7639 38.618C52.8089 40.5582 52.3066 42.4718 51.3145 44.1395C50.2705 45.7125 48.7856 46.9423 47.046 47.6749C44.9221 48.6128 42.6165 49.0673 40.2957 49.0056C38.455 49.0069 36.619 48.8205 34.8161 48.4495H34.8558Z" fill="#231F20"/>
</g>
<defs>
<filter id="filter0_d_1664_63861" x="-0.00012207" y="0" width="80.0001" height="76" filterUnits="userSpaceOnUse" color-interpolation-filters="sRGB">
<feFlood flood-opacity="0" result="BackgroundImageFix"/>
<feColorMatrix in="SourceAlpha" type="matrix" values="0 0 0 0 0 0 0 0 0 0 0 0 0 0 0 0 0 0 127 0" result="hardAlpha"/>
<feOffset dy="4"/>
<feGaussianBlur stdDeviation="2"/>
<feComposite in2="hardAlpha" operator="out"/>
<feColorMatrix type="matrix" values="0 0 0 0 0 0 0 0 0 0 0 0 0 0 0 0 0 0 0.2 0"/>
<feBlend mode="normal" in2="BackgroundImageFix" result="effect1_dropShadow_1664_63861"/>
<feBlend mode="normal" in="SourceGraphic" in2="effect1_dropShadow_1664_63861" result="shape"/>
</filter>
</defs>
</svg>
