<svg width="80" height="76" viewBox="0 0 80 76" fill="none" xmlns="http://www.w3.org/2000/svg">
<g filter="url(#filter0_d_1664_63575)">
<path d="M74.9997 33.9901C74.9997 14.6846 61.5785 1 42.3403 1C26.0404 1 6.30574 13.4333 5.07481 30.1568C3.64534 49.4225 22.9432 67 42.3403 67C44.255 66.9916 46.1664 66.8389 48.0582 66.5432L73.729 43.8215C74.5863 40.6152 75.0136 37.3091 74.9997 33.9901Z" fill="#84CEBD" stroke="#35BDA5" stroke-width="2" stroke-linecap="round" stroke-linejoin="round"/>
<path d="M53.9748 47.2581C47.4032 53.0179 45.1796 61.3796 48.0187 66.5436L73.7293 43.822C69.0041 40.2668 60.5265 41.4982 53.9748 47.2581Z" fill="#35BDA5" stroke="#35BDA5" stroke-width="2" stroke-linecap="round" stroke-linejoin="round"/>
<path d="M42.1611 25.0699C41.4047 24.5722 40.5011 24.3479 39.5999 24.4343C38.138 24.4676 36.6851 24.6743 35.2718 25.05C33.8842 25.3253 32.5457 25.8073 31.3011 26.4801L29.5341 20.6606C31.1105 19.7004 32.8448 19.0279 34.6563 18.6745C36.6098 18.2226 38.6075 17.9894 40.6125 17.9793C43.2456 17.798 45.8644 18.4966 48.0576 19.9655C48.9307 20.6605 49.623 21.5561 50.0758 22.5762C50.5286 23.5963 50.7285 24.7107 50.6585 25.8246C50.6691 27.1403 50.4125 28.4445 49.904 29.6579C49.4205 30.8253 48.6568 31.8554 47.6804 32.657C48.9569 33.2803 50.0173 34.2719 50.7251 35.5039C51.4329 36.7359 51.7554 38.1517 51.6511 39.5689C51.6511 45.7657 47.6804 48.8442 39.7389 48.8442C37.6471 48.8234 35.5637 48.577 33.5247 48.1093C31.6917 47.8103 29.9408 47.134 28.3826 46.1232L30.6657 40.1647C31.9825 40.8985 33.3913 41.4529 34.8549 41.8132C36.3374 42.2168 37.8651 42.4303 39.4014 42.4488C40.6896 42.5699 41.983 42.2777 43.0942 41.6146C43.4345 41.326 43.7031 40.9623 43.8788 40.5522C44.0545 40.142 44.1325 39.6966 44.1067 39.2511C44.1339 38.8179 44.0452 38.3854 43.8498 37.9979C43.6544 37.6104 43.3593 37.282 42.9949 37.0464C41.8976 36.5107 40.6794 36.2711 39.461 36.3513H33.5048V30.1346H38.7462C39.8887 30.2056 41.0236 29.9061 41.9824 29.2806C42.3548 29.0278 42.6501 28.677 42.8358 28.267C43.0215 27.8569 43.0903 27.4035 43.0346 26.9568C43.0265 26.5991 42.9448 26.2469 42.7945 25.9222C42.6442 25.5976 42.4285 25.3074 42.1611 25.0699Z" fill="#231F20"/>
</g>
<defs>
<filter id="filter0_d_1664_63575" x="0" y="0" width="80" height="76" filterUnits="userSpaceOnUse" color-interpolation-filters="sRGB">
<feFlood flood-opacity="0" result="BackgroundImageFix"/>
<feColorMatrix in="SourceAlpha" type="matrix" values="0 0 0 0 0 0 0 0 0 0 0 0 0 0 0 0 0 0 127 0" result="hardAlpha"/>
<feOffset dy="4"/>
<feGaussianBlur stdDeviation="2"/>
<feComposite in2="hardAlpha" operator="out"/>
<feColorMatrix type="matrix" values="0 0 0 0 0 0 0 0 0 0 0 0 0 0 0 0 0 0 0.2 0"/>
<feBlend mode="normal" in2="BackgroundImageFix" result="effect1_dropShadow_1664_63575"/>
<feBlend mode="normal" in="SourceGraphic" in2="effect1_dropShadow_1664_63575" result="shape"/>
</filter>
</defs>
</svg>
