<svg width="1354" height="685" viewBox="0 0 1354 685" fill="none" xmlns="http://www.w3.org/2000/svg">
<path d="M13.4968 672.547C7.64676 666.701 4 658.616 4 649.733V36.3029C4 18.5378 18.5491 4.03711 36.2891 4.03711H273.177V552.518L13.4968 672.547Z" fill="#ECF3CB"/>
<path d="M273.215 552.48H1349.96V649.733C1349.96 667.499 1335.41 681.999 1317.67 681.999H35.909C27.02 681.999 18.9667 678.355 13.1167 672.509L273.215 552.48Z" fill="#D8E58F"/>
<path d="M273.177 520.519H1349.96" stroke="#727171" stroke-width="1.188" stroke-miterlimit="10" stroke-dasharray="1.98 1.98"/>
<path d="M273.177 488.214H1349.96" stroke="#727171" stroke-width="1.188" stroke-miterlimit="10" stroke-dasharray="1.98 1.98"/>
<path d="M273.177 455.948H1349.96" stroke="#727171" stroke-width="1.188" stroke-miterlimit="10" stroke-dasharray="1.98 1.98"/>
<path d="M273.177 423.682H1349.96" stroke="#727171" stroke-width="1.188" stroke-miterlimit="10" stroke-dasharray="1.98 1.98"/>
<path d="M273 391H1350" stroke="#9FA0A0" stroke-width="1.98" stroke-miterlimit="10"/>
<path d="M273.177 359.113H1349.96" stroke="#727171" stroke-width="1.188" stroke-miterlimit="10" stroke-dasharray="1.98 1.98"/>
<path d="M273.177 326.811H1349.96" stroke="#727171" stroke-width="1.188" stroke-miterlimit="10" stroke-dasharray="1.98 1.98"/>
<path d="M273.177 294.544H1349.96" stroke="#727171" stroke-width="1.188" stroke-miterlimit="10" stroke-dasharray="1.98 1.98"/>
<path d="M273.177 262.279H1349.96" stroke="#727171" stroke-width="1.188" stroke-miterlimit="10" stroke-dasharray="1.98 1.98"/>
<path d="M273 230H1350" stroke="#9FA0A0" stroke-width="1.98" stroke-miterlimit="10"/>
<path d="M273.177 197.708H1349.96" stroke="#727171" stroke-width="1.188" stroke-miterlimit="10" stroke-dasharray="1.98 1.98"/>
<path d="M273.177 165.405H1349.96" stroke="#727171" stroke-width="1.188" stroke-miterlimit="10" stroke-dasharray="1.98 1.98"/>
<path d="M273.177 133.14H1349.96" stroke="#727171" stroke-width="1.188" stroke-miterlimit="10" stroke-dasharray="1.98 1.98"/>
<path d="M273.177 100.874H1349.96" stroke="#727171" stroke-width="1.188" stroke-miterlimit="10" stroke-dasharray="1.98 1.98"/>
<path d="M273 68H1350" stroke="#9FA0A0" stroke-width="1.98" stroke-miterlimit="10"/>
<path d="M273.177 36.3032H1349.96" stroke="#727171" stroke-width="1.188" stroke-miterlimit="10" stroke-dasharray="1.98 1.98"/>
<path d="M250.102 505.926C253.732 505.926 256.497 507.585 258.397 510.903C260.07 513.795 260.907 517.61 260.907 522.346C260.907 526.997 260.07 530.768 258.397 533.661C256.497 536.951 253.732 538.596 250.102 538.596C246.444 538.596 243.664 536.951 241.764 533.661C240.12 530.768 239.297 526.997 239.297 522.346C239.297 517.61 240.12 513.795 241.764 510.903C243.664 507.585 246.444 505.926 250.102 505.926ZM250.102 507.074C247.38 507.074 245.309 508.606 243.891 511.668C242.672 514.391 242.062 517.95 242.062 522.346C242.062 526.685 242.672 530.187 243.891 532.853C245.309 535.916 247.38 537.447 250.102 537.447C252.796 537.447 254.852 535.916 256.27 532.853C257.546 530.159 258.184 526.656 258.184 522.346C258.184 517.95 257.546 514.391 256.27 511.668C254.852 508.606 252.796 507.074 250.102 507.074Z" fill="black"/>
<path d="M452.703 682V4" stroke="#9FA0A0" stroke-width="1.98" stroke-miterlimit="10"/>
<path d="M273.214 682V4" stroke="#9FA0A0" stroke-width="1.98" stroke-miterlimit="10"/>
<path d="M632.155 682V4" stroke="#9FA0A0" stroke-width="1.98" stroke-miterlimit="10"/>
<path d="M811.645 682V4" stroke="#9FA0A0" stroke-width="1.98" stroke-miterlimit="10"/>
<path d="M991.096 682V4" stroke="#9FA0A0" stroke-width="1.98" stroke-miterlimit="10"/>
<path d="M1170.55 682V4" stroke="#9FA0A0" stroke-width="1.98" stroke-miterlimit="10"/>
<path d="M1349.96 552.784H4.03711" stroke="#9FA0A0" stroke-width="1.98" stroke-miterlimit="10"/>
<path d="M273.214 552.48L13.5337 672.13" stroke="#9FA0A0" stroke-width="1.98" stroke-miterlimit="10"/>
<path d="M1350 649.354C1350 667.119 1335.45 681.619 1317.71 681.619H36.3271C18.5491 681.619 4 667.081 4 649.354V36.3029C4 18.5378 18.5491 4.03711 36.3271 4.03711H1317.67C1335.45 4.03711 1349.96 18.5757 1349.96 36.3029V649.354H1350Z" stroke="#D8E58F" stroke-width="6.732"/>
<rect x="288.785" y="575.785" width="148.23" height="83.43" rx="19.035" fill="white"/>
<rect x="288.785" y="575.785" width="148.23" height="83.43" rx="19.035" stroke="#A1C8EB" stroke-width="2.43"/>
<path d="M344.675 638.217C342.945 638.649 341.378 637.082 341.81 635.352L344.197 625.807L354.22 635.83L344.675 638.217Z" fill="#DFE3ED"/>
<path d="M355.89 634.16L379.278 610.772L369.255 600.749L345.867 624.137L355.89 634.16Z" fill="#DFE3ED"/>
<path d="M380.948 609.102L370.925 599.079L375.937 594.067C376.859 593.144 378.355 593.144 379.278 594.067L385.96 600.749C386.883 601.672 386.883 603.168 385.96 604.09L380.948 609.102Z" fill="#DFE3ED"/>
<rect x="468.785" y="575.785" width="148.23" height="83.43" rx="19.035" fill="white"/>
<rect x="468.785" y="575.785" width="148.23" height="83.43" rx="19.035" stroke="#A1C8EB" stroke-width="2.43"/>
<path d="M524.675 638.217C522.945 638.649 521.378 637.082 521.81 635.352L524.197 625.807L534.22 635.83L524.675 638.217Z" fill="#DFE3ED"/>
<path d="M535.89 634.16L559.278 610.772L549.255 600.749L525.867 624.137L535.89 634.16Z" fill="#DFE3ED"/>
<path d="M560.948 609.102L550.925 599.079L555.937 594.067C556.859 593.144 558.355 593.144 559.278 594.067L565.96 600.749C566.883 601.672 566.883 603.168 565.96 604.09L560.948 609.102Z" fill="#DFE3ED"/>
<rect x="647.785" y="574.785" width="148.23" height="83.43" rx="19.035" fill="white"/>
<rect x="647.785" y="574.785" width="148.23" height="83.43" rx="19.035" stroke="#A1C8EB" stroke-width="2.43"/>
<path d="M703.675 637.217C701.945 637.649 700.378 636.082 700.81 634.352L703.197 624.807L713.22 634.83L703.675 637.217Z" fill="#DFE3ED"/>
<path d="M714.89 633.16L738.278 609.772L728.255 599.749L704.867 623.137L714.89 633.16Z" fill="#DFE3ED"/>
<path d="M739.948 608.102L729.925 598.079L734.937 593.067C735.859 592.144 737.355 592.144 738.278 593.067L744.96 599.749C745.883 600.672 745.883 602.168 744.96 603.09L739.948 608.102Z" fill="#DFE3ED"/>
<rect x="827.785" y="574.785" width="148.23" height="83.43" rx="19.035" fill="white"/>
<rect x="827.785" y="574.785" width="148.23" height="83.43" rx="19.035" stroke="#A1C8EB" stroke-width="2.43"/>
<path d="M883.675 637.217C881.945 637.649 880.378 636.082 880.81 634.352L883.197 624.807L893.22 634.83L883.675 637.217Z" fill="#DFE3ED"/>
<path d="M894.89 633.16L918.278 609.772L908.255 599.749L884.867 623.137L894.89 633.16Z" fill="#DFE3ED"/>
<path d="M919.948 608.102L909.925 598.079L914.937 593.067C915.859 592.144 917.355 592.144 918.278 593.067L924.96 599.749C925.883 600.672 925.883 602.168 924.96 603.09L919.948 608.102Z" fill="#DFE3ED"/>
<rect x="1006.79" y="575.785" width="148.23" height="83.43" rx="19.035" fill="white"/>
<rect x="1006.79" y="575.785" width="148.23" height="83.43" rx="19.035" stroke="#A1C8EB" stroke-width="2.43"/>
<path d="M1062.68 638.217C1060.95 638.649 1059.38 637.082 1059.81 635.352L1062.2 625.807L1072.22 635.83L1062.68 638.217Z" fill="#DFE3ED"/>
<path d="M1073.89 634.16L1097.28 610.772L1087.25 600.749L1063.87 624.137L1073.89 634.16Z" fill="#DFE3ED"/>
<path d="M1098.95 609.102L1088.93 599.079L1093.94 594.067C1094.86 593.144 1096.36 593.144 1097.28 594.067L1103.96 600.749C1104.88 601.672 1104.88 603.168 1103.96 604.09L1098.95 609.102Z" fill="#DFE3ED"/>
<rect x="1186.79" y="575.785" width="148.23" height="83.43" rx="19.035" fill="white"/>
<rect x="1186.79" y="575.785" width="148.23" height="83.43" rx="19.035" stroke="#A1C8EB" stroke-width="2.43"/>
<path d="M1242.68 638.217C1240.95 638.649 1239.38 637.082 1239.81 635.352L1242.2 625.807L1252.22 635.83L1242.68 638.217Z" fill="#DFE3ED"/>
<path d="M1253.89 634.16L1277.28 610.772L1267.25 600.749L1243.87 624.137L1253.89 634.16Z" fill="#DFE3ED"/>
<path d="M1278.95 609.102L1268.93 599.079L1273.94 594.067C1274.86 593.144 1276.36 593.144 1277.28 594.067L1283.96 600.749C1284.88 601.672 1284.88 603.168 1283.96 604.09L1278.95 609.102Z" fill="#DFE3ED"/>
<rect x="149.5" y="37.5" width="110" height="60" rx="16.5" fill="white"/>
<rect x="149.5" y="37.5" width="110" height="60" rx="16.5" stroke="#FFB6D2" stroke-width="3"/>
<path d="M190.747 83.5018C189.401 83.8382 188.182 82.6192 188.518 81.2735L190.374 73.8501L198.17 81.6459L190.747 83.5018Z" fill="#DFE3ED"/>
<path d="M199.469 80.3466L217.66 62.1563L209.864 54.3604L191.674 72.5507L199.469 80.3466Z" fill="#DFE3ED"/>
<path d="M218.959 60.857L211.163 53.0611L215.061 49.1632C215.779 48.4456 216.942 48.4456 217.66 49.1632L222.857 54.3604C223.575 55.078 223.575 56.2415 222.857 56.959L218.959 60.857Z" fill="#DFE3ED"/>
<rect x="150.5" y="200.5" width="110" height="60" rx="16.5" fill="white"/>
<rect x="150.5" y="200.5" width="110" height="60" rx="16.5" stroke="#FFB6D2" stroke-width="3"/>
<path d="M191.747 246.502C190.401 246.838 189.182 245.619 189.518 244.273L191.374 236.85L199.17 244.646L191.747 246.502Z" fill="#DFE3ED"/>
<path d="M200.469 243.347L218.66 225.156L210.864 217.36L192.674 235.551L200.469 243.347Z" fill="#DFE3ED"/>
<path d="M219.959 223.857L212.163 216.061L216.061 212.163C216.779 211.446 217.942 211.446 218.66 212.163L223.857 217.36C224.575 218.078 224.575 219.241 223.857 219.959L219.959 223.857Z" fill="#DFE3ED"/>
<rect x="150.5" y="360.5" width="110" height="60" rx="16.5" fill="white"/>
<rect x="150.5" y="360.5" width="110" height="60" rx="16.5" stroke="#FFB6D2" stroke-width="3"/>
<path d="M191.747 406.502C190.401 406.838 189.182 405.619 189.518 404.273L191.374 396.85L199.17 404.646L191.747 406.502Z" fill="#DFE3ED"/>
<path d="M200.469 403.347L218.66 385.156L210.864 377.36L192.674 395.551L200.469 403.347Z" fill="#DFE3ED"/>
<path d="M219.959 383.857L212.163 376.061L216.061 372.163C216.779 371.446 217.942 371.446 218.66 372.163L223.857 377.36C224.575 378.078 224.575 379.241 223.857 379.959L219.959 383.857Z" fill="#DFE3ED"/>
<rect x="23.5" y="558.5" width="110" height="60" rx="16.5" fill="white"/>
<rect x="23.5" y="558.5" width="110" height="60" rx="16.5" stroke="#A1C8EB" stroke-width="3"/>
<path d="M64.7467 604.502C63.401 604.838 62.182 603.619 62.5184 602.273L64.3743 594.85L72.1702 602.646L64.7467 604.502Z" fill="#DFE3ED"/>
<path d="M73.4695 601.347L91.6598 583.156L83.8639 575.36L65.6736 593.551L73.4695 601.347Z" fill="#DFE3ED"/>
<path d="M92.9591 581.857L85.1632 574.061L89.0612 570.163C89.7788 569.446 90.9422 569.446 91.6598 570.163L96.857 575.36C97.5746 576.078 97.5746 577.241 96.857 577.959L92.9591 581.857Z" fill="#DFE3ED"/>
<rect x="150.5" y="613.5" width="110" height="60" rx="16.5" fill="white"/>
<rect x="150.5" y="613.5" width="110" height="60" rx="16.5" stroke="#A1C8EB" stroke-width="3"/>
<path d="M191.747 659.502C190.401 659.838 189.182 658.619 189.518 657.273L191.374 649.85L199.17 657.646L191.747 659.502Z" fill="#DFE3ED"/>
<path d="M200.469 656.347L218.66 638.156L210.864 630.36L192.674 648.551L200.469 656.347Z" fill="#DFE3ED"/>
<path d="M219.959 636.857L212.163 629.061L216.061 625.163C216.779 624.446 217.942 624.446 218.66 625.163L223.857 630.36C224.575 631.078 224.575 632.241 223.857 632.959L219.959 636.857Z" fill="#DFE3ED"/>
<path d="M26.9614 28.8938C24.9939 30.472 23.4589 32.4611 22.3563 34.8609C21.2104 37.3688 20.6375 40.093 20.6375 43.0333C20.6375 45.9952 21.2104 48.7194 22.3563 51.2057C23.4157 53.519 24.9507 55.5189 26.9614 57.2052V57.7566C24.1075 56.1783 21.9888 54.1028 20.6051 51.53C19.3079 49.1085 18.6593 46.2763 18.6593 43.0333C18.6593 39.8335 19.3079 37.0229 20.6051 34.6015C22.0104 32.0287 24.1291 29.9315 26.9614 28.31V28.8938ZM123.603 28.8938V28.31C126.414 29.9315 128.522 32.0287 129.927 34.6015C131.246 37.0229 131.905 39.8335 131.905 43.0333C131.905 46.2763 131.246 49.1085 129.927 51.53C128.543 54.1028 126.435 56.1783 123.603 57.7566V57.2052C125.592 55.5189 127.116 53.519 128.176 51.2057C129.343 48.7194 129.927 45.9952 129.927 43.0333C129.927 40.093 129.343 37.3688 128.176 34.8609C127.073 32.4611 125.549 30.472 123.603 28.8938Z" fill="black"/>
</svg>
