<svg width="80" height="76" viewBox="0 0 80 76" fill="none" xmlns="http://www.w3.org/2000/svg">
<g filter="url(#filter0_d_1664_63685)">
<path d="M74.9972 33.9901C74.9972 14.6846 61.5761 1 42.3378 1C26.0379 1 6.3033 13.4333 5.07237 30.1568C3.6429 49.4225 22.9407 67 42.3378 67C44.2526 66.9916 46.1639 66.8389 48.0557 66.5432L73.7266 43.8215C74.5839 40.6152 75.0112 37.3091 74.9972 33.9901Z" fill="#CCA5CD" stroke="#AA65A9" stroke-width="2" stroke-linecap="round" stroke-linejoin="round"/>
<path d="M53.9724 47.2581C47.4008 53.0179 45.1772 61.3796 48.0162 66.5436L73.7268 43.822C69.0016 40.2668 60.5241 41.4982 53.9724 47.2581Z" fill="#AA65A9" stroke="#AA65A9" stroke-width="2" stroke-linecap="round" stroke-linejoin="round"/>
<path d="M35.0518 34.7219C35.8303 35.3932 36.7525 35.8766 37.7473 36.1349C38.7421 36.3931 39.7829 36.4194 40.7895 36.2115V17.6211H47.9765V34.5432C49.2335 34.0619 50.46 33.5047 51.6495 32.8748L53.8334 38.9326C51.9682 40.0726 49.9672 40.9734 47.8773 41.6139V47.8703H40.7895V43.1035C39.9755 43.1035 39.1416 43.2227 38.3078 43.2227C35.29 43.2227 27.3882 41.8125 27.0706 35.9533C28.0458 30.0574 29.4324 24.237 31.22 18.5347L37.9306 20.9578C36.6661 25.4767 35.7044 30.075 35.0518 34.7219Z" fill="#231F20"/>
</g>
<defs>
<filter id="filter0_d_1664_63685" x="-0.00256348" y="0" width="80.0001" height="76" filterUnits="userSpaceOnUse" color-interpolation-filters="sRGB">
<feFlood flood-opacity="0" result="BackgroundImageFix"/>
<feColorMatrix in="SourceAlpha" type="matrix" values="0 0 0 0 0 0 0 0 0 0 0 0 0 0 0 0 0 0 127 0" result="hardAlpha"/>
<feOffset dy="4"/>
<feGaussianBlur stdDeviation="2"/>
<feComposite in2="hardAlpha" operator="out"/>
<feColorMatrix type="matrix" values="0 0 0 0 0 0 0 0 0 0 0 0 0 0 0 0 0 0 0.2 0"/>
<feBlend mode="normal" in2="BackgroundImageFix" result="effect1_dropShadow_1664_63685"/>
<feBlend mode="normal" in="SourceGraphic" in2="effect1_dropShadow_1664_63685" result="shape"/>
</filter>
</defs>
</svg>
