<svg width="76" height="81" viewBox="0 0 76 81" fill="none" xmlns="http://www.w3.org/2000/svg">
<rect y="3" width="76" height="78" rx="15" fill="#6A6A6A"/>
<rect width="76" height="76" rx="15" fill="#8E8E8E"/>
<path d="M21.375 42H20.6875C20.6042 39.7708 20.4688 37.7708 20.2812 36C20.1771 34.9583 20.0208 33.7292 19.8125 32.3125C19.6875 31.4792 19.6042 30.875 19.5625 30.5C19.5 29.8958 19.4688 29.3229 19.4688 28.7812C19.4688 27.6771 19.5938 26.8438 19.8438 26.2812C20.1146 25.7188 20.5104 25.4375 21.0312 25.4375C21.5521 25.4375 21.9479 25.7188 22.2188 26.2812C22.4896 26.8438 22.625 27.6771 22.625 28.7812C22.625 29.3229 22.5833 29.9062 22.5 30.5312C22.4583 30.9062 22.375 31.5208 22.25 32.375C22.0208 33.7917 21.8542 35.0104 21.75 36.0312C21.5625 37.8021 21.4375 39.7917 21.375 42ZM21.0312 46.0312C20.5729 46.0312 20.1979 46.1979 19.9062 46.5312C19.6562 46.8438 19.5312 47.2188 19.5312 47.6562C19.5312 48.0729 19.6562 48.4375 19.9062 48.75C20.1771 49.1042 20.5521 49.2812 21.0312 49.2812C21.5312 49.2812 21.9271 49.1042 22.2188 48.75C22.4896 48.4583 22.625 48.0938 22.625 47.6562C22.625 47.2188 22.4896 46.8438 22.2188 46.5312C21.9062 46.1979 21.5104 46.0312 21.0312 46.0312ZM33.9375 34.5625L32.5 40.375H38.0312L39.5 34.5625H33.9375ZM34.2812 26.0625H36.0938L34.2812 33.1562H39.875L41.625 26.0625H43.4062L41.625 33.1562H45.5L45.0625 34.5625H41.2812L39.8125 40.375H43.7812L43.375 41.7812H39.4688L37.7188 48.8125H35.9062L37.6875 41.7812H32.125L30.375 48.8125H28.5938L30.3438 41.7812H26.5625L26.9375 40.3438L30.7188 40.375L32.1562 34.5625H28.2188L28.5625 33.1562H32.5312L34.2812 26.0625ZM50.5625 49.0312V48.2188C52.1667 48.2188 53.2812 48.0729 53.9062 47.7812C54.5938 47.4896 54.9375 46.9479 54.9375 46.1562V30C54.9375 29.4167 54.7604 29 54.4062 28.75C54.0729 28.5 53.5729 28.375 52.9062 28.375H50.0938V27.7812C51.5312 27.6146 52.8229 27.3229 53.9688 26.9062C54.8646 26.5729 55.8542 26.0833 56.9375 25.4375V46.1562C56.9375 46.9479 57.3125 47.4896 58.0625 47.7812C58.7292 48.0729 59.8854 48.2188 61.5312 48.2188V49.0312H50.5625Z" fill="white"/>
</svg>
