<svg width="1233" height="625" viewBox="0 0 1233 625" fill="none" xmlns="http://www.w3.org/2000/svg">
<path d="M248.564 353.59H1229.82" stroke="#9FA0A0" stroke-width="1.7325" stroke-miterlimit="10"/>
<path d="M248.564 403.658H1229.82" stroke="#727171" stroke-width="1.0395" stroke-miterlimit="10" stroke-dasharray="1.73 1.73"/>
<path d="M248.564 453.728H1229.82" stroke="#9FA0A0" stroke-width="1.7325" stroke-miterlimit="10"/>
<path d="M248.564 53.208H1229.82" stroke="#9FA0A0" stroke-width="1.7325" stroke-miterlimit="10"/>
<path d="M248.564 303.52H1229.82" stroke="#727171" stroke-width="1.0395" stroke-miterlimit="10" stroke-dasharray="1.73 1.73"/>
<path d="M248.564 153.347H1229.82" stroke="#9FA0A0" stroke-width="1.7325" stroke-miterlimit="10"/>
<path d="M248.564 103.276H1229.82" stroke="#727171" stroke-width="1.0395" stroke-miterlimit="10" stroke-dasharray="1.73 1.73"/>
<path d="M248.564 203.415H1230.75" stroke="#727171" stroke-width="1.0395" stroke-miterlimit="10" stroke-dasharray="1.73 1.73"/>
<path d="M1229.82 504.039V592.431C1229.82 608.647 1216.55 621.884 1200.37 621.884H32.4872C16.271 621.884 3.03467 608.613 3.03467 592.431V504.039H1229.82Z" fill="#F7C7C8"/>
<path d="M248.564 253.449H1229.82" stroke="#9FA0A0" stroke-width="1.7325" stroke-miterlimit="10"/>
<path d="M32.4872 3C16.271 3 3.03467 16.271 3.03467 32.4525V592.709C3.03467 602.237 7.64313 610.727 14.7117 616.132L248.599 504.039V3H32.4872Z" fill="#FCE5E4"/>
<path d="M141.265 465.001V464.18C142.886 464.18 144.013 464.033 144.644 463.738C145.339 463.443 145.686 462.896 145.686 462.096V445.768C145.686 445.178 145.507 444.757 145.15 444.505C144.813 444.252 144.307 444.126 143.634 444.126H140.791V443.526C142.244 443.357 143.549 443.062 144.707 442.641C145.613 442.304 146.613 441.81 147.708 441.157V462.096C147.708 462.896 148.087 463.443 148.845 463.738C149.518 464.033 150.687 464.18 152.35 464.18V465.001H141.265ZM165.583 441.157C168.278 441.157 170.331 442.389 171.742 444.852C172.984 447 173.605 449.831 173.605 453.348C173.605 456.801 172.984 459.601 171.742 461.748C170.331 464.191 168.278 465.412 165.583 465.412C162.867 465.412 160.804 464.191 159.393 461.748C158.172 459.601 157.561 456.801 157.561 453.348C157.561 449.831 158.172 447 159.393 444.852C160.804 442.389 162.867 441.157 165.583 441.157ZM165.583 442.01C163.562 442.01 162.025 443.147 160.972 445.42C160.067 447.442 159.614 450.084 159.614 453.348C159.614 456.569 160.067 459.169 160.972 461.148C162.025 463.422 163.562 464.559 165.583 464.559C167.583 464.559 169.11 463.422 170.163 461.148C171.11 459.148 171.584 456.548 171.584 453.348C171.584 450.084 171.11 447.442 170.163 445.42C169.11 443.147 167.583 442.01 165.583 442.01ZM184.848 441.157C187.543 441.157 189.596 442.389 191.007 444.852C192.249 447 192.87 449.831 192.87 453.348C192.87 456.801 192.249 459.601 191.007 461.748C189.596 464.191 187.543 465.412 184.848 465.412C182.132 465.412 180.069 464.191 178.658 461.748C177.437 459.601 176.826 456.801 176.826 453.348C176.826 449.831 177.437 447 178.658 444.852C180.069 442.389 182.132 441.157 184.848 441.157ZM184.848 442.01C182.827 442.01 181.29 443.147 180.237 445.42C179.332 447.442 178.879 450.084 178.879 453.348C178.879 456.569 179.332 459.169 180.237 461.148C181.29 463.422 182.827 464.559 184.848 464.559C186.848 464.559 188.375 463.422 189.428 461.148C190.375 459.148 190.849 456.548 190.849 453.348C190.849 450.084 190.375 447.442 189.428 445.42C188.375 443.147 186.848 442.01 184.848 442.01ZM204.113 441.157C206.808 441.157 208.861 442.389 210.272 444.852C211.514 447 212.135 449.831 212.135 453.348C212.135 456.801 211.514 459.601 210.272 461.748C208.861 464.191 206.808 465.412 204.113 465.412C201.397 465.412 199.334 464.191 197.923 461.748C196.702 459.601 196.091 456.801 196.091 453.348C196.091 449.831 196.702 447 197.923 444.852C199.334 442.389 201.397 441.157 204.113 441.157ZM204.113 442.01C202.092 442.01 200.555 443.147 199.502 445.42C198.597 447.442 198.144 450.084 198.144 453.348C198.144 456.569 198.597 459.169 199.502 461.148C200.555 463.422 202.092 464.559 204.113 464.559C206.113 464.559 207.64 463.422 208.693 461.148C209.64 459.148 210.114 456.548 210.114 453.348C210.114 450.084 209.64 447.442 208.693 445.42C207.64 443.147 206.113 442.01 204.113 442.01ZM223.378 441.157C226.073 441.157 228.126 442.389 229.537 444.852C230.779 447 231.4 449.831 231.4 453.348C231.4 456.801 230.779 459.601 229.537 461.748C228.126 464.191 226.073 465.412 223.378 465.412C220.662 465.412 218.599 464.191 217.188 461.748C215.967 459.601 215.356 456.801 215.356 453.348C215.356 449.831 215.967 447 217.188 444.852C218.599 442.389 220.662 441.157 223.378 441.157ZM223.378 442.01C221.357 442.01 219.82 443.147 218.767 445.42C217.862 447.442 217.409 450.084 217.409 453.348C217.409 456.569 217.862 459.169 218.767 461.148C219.82 463.422 221.357 464.559 223.378 464.559C225.378 464.559 226.905 463.422 227.958 461.148C228.905 459.148 229.379 456.548 229.379 453.348C229.379 450.084 228.905 447.442 227.958 445.42C226.905 443.147 225.378 442.01 223.378 442.01Z" fill="black"/>
<path d="M223.703 473.497C226.398 473.497 228.451 474.728 229.861 477.192C231.104 479.339 231.725 482.171 231.725 485.687C231.725 489.14 231.104 491.941 229.861 494.088C228.451 496.531 226.398 497.752 223.703 497.752C220.987 497.752 218.923 496.531 217.513 494.088C216.292 491.941 215.681 489.14 215.681 485.687C215.681 482.171 216.292 479.339 217.513 477.192C218.923 474.728 220.987 473.497 223.703 473.497ZM223.703 474.349C221.682 474.349 220.145 475.486 219.092 477.76C218.187 479.782 217.734 482.424 217.734 485.687C217.734 488.909 218.187 491.509 219.092 493.488C220.145 495.762 221.682 496.899 223.703 496.899C225.703 496.899 227.23 495.762 228.282 493.488C229.23 491.488 229.703 488.888 229.703 485.687C229.703 482.424 229.23 479.782 228.282 477.76C227.23 475.486 225.703 474.349 223.703 474.349Z" fill="black"/>
<path d="M144.771 353.638C144.286 353.744 143.928 353.775 143.697 353.733C143.423 353.649 143.286 353.46 143.286 353.165C143.286 352.849 143.413 352.659 143.665 352.596C143.876 352.554 144.223 352.596 144.707 352.723C146.581 352.723 148.055 352.259 149.129 351.333C150.203 350.428 150.74 349.143 150.74 347.48C150.74 346.048 150.382 344.911 149.666 344.069C148.887 343.122 147.771 342.648 146.318 342.648C144.444 342.648 143.244 342.995 142.718 343.69C142.423 344.09 142.339 344.764 142.465 345.711L142.528 346.375C142.528 346.838 142.391 347.248 142.118 347.606C141.865 347.922 141.581 348.08 141.265 348.08C140.865 348.08 140.528 347.954 140.254 347.701C139.917 347.385 139.749 346.933 139.749 346.343C139.749 345.227 140.286 344.227 141.36 343.343C142.623 342.353 144.276 341.858 146.318 341.858C148.381 341.858 149.982 342.353 151.119 343.343C152.256 344.332 152.824 345.711 152.824 347.48C152.824 348.912 152.319 350.143 151.308 351.175C150.382 352.123 149.182 352.796 147.708 353.196C149.561 353.491 151.003 354.217 152.034 355.375C152.961 356.407 153.424 357.628 153.424 359.039C153.424 361.06 152.824 362.713 151.624 363.997C150.234 365.471 148.234 366.208 145.623 366.208C143.455 366.208 141.739 365.692 140.475 364.661C139.317 363.692 138.738 362.492 138.738 361.06C138.738 360.429 138.907 359.955 139.244 359.639C139.517 359.386 139.865 359.26 140.286 359.26C140.644 359.26 140.96 359.386 141.233 359.639C141.57 359.913 141.739 360.302 141.739 360.808L141.676 361.471C141.591 362.671 141.707 363.524 142.023 364.029C142.57 364.955 143.77 365.419 145.623 365.419C147.497 365.419 148.929 364.787 149.918 363.524C150.824 362.387 151.276 360.892 151.276 359.039C151.276 357.355 150.75 356.039 149.697 355.091C148.581 354.102 146.929 353.607 144.739 353.607L144.771 353.638ZM165.583 341.827C168.278 341.827 170.331 343.058 171.742 345.522C172.984 347.669 173.605 350.501 173.605 354.017C173.605 357.47 172.984 360.271 171.742 362.418C170.331 364.861 168.278 366.082 165.583 366.082C162.867 366.082 160.804 364.861 159.393 362.418C158.172 360.271 157.561 357.47 157.561 354.017C157.561 350.501 158.172 347.669 159.393 345.522C160.804 343.058 162.867 341.827 165.583 341.827ZM165.583 342.68C163.562 342.68 162.025 343.816 160.972 346.09C160.067 348.112 159.614 350.754 159.614 354.017C159.614 357.239 160.067 359.839 160.972 361.818C162.025 364.092 163.562 365.229 165.583 365.229C167.583 365.229 169.11 364.092 170.163 361.818C171.11 359.818 171.584 357.218 171.584 354.017C171.584 350.754 171.11 348.112 170.163 346.09C169.11 343.816 167.583 342.68 165.583 342.68ZM184.848 341.827C187.543 341.827 189.596 343.058 191.007 345.522C192.249 347.669 192.87 350.501 192.87 354.017C192.87 357.47 192.249 360.271 191.007 362.418C189.596 364.861 187.543 366.082 184.848 366.082C182.132 366.082 180.069 364.861 178.658 362.418C177.437 360.271 176.826 357.47 176.826 354.017C176.826 350.501 177.437 347.669 178.658 345.522C180.069 343.058 182.132 341.827 184.848 341.827ZM184.848 342.68C182.827 342.68 181.29 343.816 180.237 346.09C179.332 348.112 178.879 350.754 178.879 354.017C178.879 357.239 179.332 359.839 180.237 361.818C181.29 364.092 182.827 365.229 184.848 365.229C186.848 365.229 188.375 364.092 189.428 361.818C190.375 359.818 190.849 357.218 190.849 354.017C190.849 350.754 190.375 348.112 189.428 346.09C188.375 343.816 186.848 342.68 184.848 342.68ZM204.113 341.827C206.808 341.827 208.861 343.058 210.272 345.522C211.514 347.669 212.135 350.501 212.135 354.017C212.135 357.47 211.514 360.271 210.272 362.418C208.861 364.861 206.808 366.082 204.113 366.082C201.397 366.082 199.334 364.861 197.923 362.418C196.702 360.271 196.091 357.47 196.091 354.017C196.091 350.501 196.702 347.669 197.923 345.522C199.334 343.058 201.397 341.827 204.113 341.827ZM204.113 342.68C202.092 342.68 200.555 343.816 199.502 346.09C198.597 348.112 198.144 350.754 198.144 354.017C198.144 357.239 198.597 359.839 199.502 361.818C200.555 364.092 202.092 365.229 204.113 365.229C206.113 365.229 207.64 364.092 208.693 361.818C209.64 359.818 210.114 357.218 210.114 354.017C210.114 350.754 209.64 348.112 208.693 346.09C207.64 343.816 206.113 342.68 204.113 342.68ZM223.378 341.827C226.073 341.827 228.126 343.058 229.537 345.522C230.779 347.669 231.4 350.501 231.4 354.017C231.4 357.47 230.779 360.271 229.537 362.418C228.126 364.861 226.073 366.082 223.378 366.082C220.662 366.082 218.599 364.861 217.188 362.418C215.967 360.271 215.356 357.47 215.356 354.017C215.356 350.501 215.967 347.669 217.188 345.522C218.599 343.058 220.662 341.827 223.378 341.827ZM223.378 342.68C221.357 342.68 219.82 343.816 218.767 346.09C217.862 348.112 217.409 350.754 217.409 354.017C217.409 357.239 217.862 359.839 218.767 361.818C219.82 364.092 221.357 365.229 223.378 365.229C225.378 365.229 226.905 364.092 227.958 361.818C228.905 359.818 229.379 357.218 229.379 354.017C229.379 350.754 228.905 348.112 227.958 346.09C226.905 343.816 225.378 342.68 223.378 342.68Z" fill="black"/>
<path d="M146.476 243.711H141.36L140.823 252.649C141.518 251.891 142.297 251.333 143.16 250.975C144.065 250.638 145.128 250.47 146.35 250.47C148.708 250.47 150.54 251.238 151.845 252.775C153.024 254.144 153.614 255.87 153.614 257.955C153.614 259.934 153.024 261.65 151.845 263.102C150.497 264.808 148.666 265.661 146.35 265.661C144.118 265.661 142.318 265.103 140.949 263.987C139.686 262.976 139.054 261.734 139.054 260.26C139.054 259.776 139.191 259.407 139.465 259.155C139.738 258.923 140.075 258.807 140.475 258.807C140.875 258.807 141.212 258.923 141.486 259.155C141.781 259.407 141.928 259.755 141.928 260.197L141.865 261.05C141.76 262.25 141.876 263.081 142.212 263.545C142.76 264.345 144.013 264.745 145.971 264.745C147.76 264.745 149.16 263.987 150.171 262.471C151.055 261.186 151.498 259.671 151.498 257.923C151.498 256.07 151.055 254.544 150.171 253.344C149.182 251.975 147.781 251.291 145.971 251.291C144.792 251.291 143.686 251.617 142.655 252.27C141.833 252.775 141.139 253.428 140.57 254.228L139.907 253.944L140.633 241.911H152.603L152.098 243.711H146.476ZM165.583 241.342C168.278 241.342 170.331 242.574 171.742 245.038C172.984 247.185 173.605 250.017 173.605 253.533C173.605 256.986 172.984 259.786 171.742 261.934C170.331 264.376 168.278 265.597 165.583 265.597C162.867 265.597 160.804 264.376 159.393 261.934C158.172 259.786 157.561 256.986 157.561 253.533C157.561 250.017 158.172 247.185 159.393 245.038C160.804 242.574 162.867 241.342 165.583 241.342ZM165.583 242.195C163.562 242.195 162.025 243.332 160.972 245.606C160.067 247.627 159.614 250.27 159.614 253.533C159.614 256.754 160.067 259.355 160.972 261.334C162.025 263.608 163.562 264.745 165.583 264.745C167.583 264.745 169.11 263.608 170.163 261.334C171.11 259.334 171.584 256.733 171.584 253.533C171.584 250.27 171.11 247.627 170.163 245.606C169.11 243.332 167.583 242.195 165.583 242.195ZM184.848 241.342C187.543 241.342 189.596 242.574 191.007 245.038C192.249 247.185 192.87 250.017 192.87 253.533C192.87 256.986 192.249 259.786 191.007 261.934C189.596 264.376 187.543 265.597 184.848 265.597C182.132 265.597 180.069 264.376 178.658 261.934C177.437 259.786 176.826 256.986 176.826 253.533C176.826 250.017 177.437 247.185 178.658 245.038C180.069 242.574 182.132 241.342 184.848 241.342ZM184.848 242.195C182.827 242.195 181.29 243.332 180.237 245.606C179.332 247.627 178.879 250.27 178.879 253.533C178.879 256.754 179.332 259.355 180.237 261.334C181.29 263.608 182.827 264.745 184.848 264.745C186.848 264.745 188.375 263.608 189.428 261.334C190.375 259.334 190.849 256.733 190.849 253.533C190.849 250.27 190.375 247.627 189.428 245.606C188.375 243.332 186.848 242.195 184.848 242.195ZM204.113 241.342C206.808 241.342 208.861 242.574 210.272 245.038C211.514 247.185 212.135 250.017 212.135 253.533C212.135 256.986 211.514 259.786 210.272 261.934C208.861 264.376 206.808 265.597 204.113 265.597C201.397 265.597 199.334 264.376 197.923 261.934C196.702 259.786 196.091 256.986 196.091 253.533C196.091 250.017 196.702 247.185 197.923 245.038C199.334 242.574 201.397 241.342 204.113 241.342ZM204.113 242.195C202.092 242.195 200.555 243.332 199.502 245.606C198.597 247.627 198.144 250.27 198.144 253.533C198.144 256.754 198.597 259.355 199.502 261.334C200.555 263.608 202.092 264.745 204.113 264.745C206.113 264.745 207.64 263.608 208.693 261.334C209.64 259.334 210.114 256.733 210.114 253.533C210.114 250.27 209.64 247.627 208.693 245.606C207.64 243.332 206.113 242.195 204.113 242.195ZM223.378 241.342C226.073 241.342 228.126 242.574 229.537 245.038C230.779 247.185 231.4 250.017 231.4 253.533C231.4 256.986 230.779 259.786 229.537 261.934C228.126 264.376 226.073 265.597 223.378 265.597C220.662 265.597 218.599 264.376 217.188 261.934C215.967 259.786 215.356 256.986 215.356 253.533C215.356 250.017 215.967 247.185 217.188 245.038C218.599 242.574 220.662 241.342 223.378 241.342ZM223.378 242.195C221.357 242.195 219.82 243.332 218.767 245.606C217.862 247.627 217.409 250.27 217.409 253.533C217.409 256.754 217.862 259.355 218.767 261.334C219.82 263.608 221.357 264.745 223.378 264.745C225.378 264.745 226.905 263.608 227.958 261.334C228.905 259.334 229.379 256.733 229.379 253.533C229.379 250.27 228.905 247.627 227.958 245.606C226.905 243.332 225.378 242.195 223.378 242.195Z" fill="black"/>
<path d="M153.771 141.426V142.531L153.298 143.257C150.897 147.216 149.213 150.29 148.245 152.479C146.581 156.269 145.865 159.627 146.097 162.554C146.16 163.375 146.055 164.038 145.781 164.544C145.529 165.007 145.202 165.238 144.802 165.238C144.36 165.238 144.002 165.07 143.728 164.733C143.413 164.333 143.286 163.775 143.349 163.059C143.497 160.68 144.286 157.964 145.718 154.911C146.623 152.995 148.36 149.879 150.929 145.563L152.319 143.257H143.507C142.497 143.257 141.602 143.763 140.823 144.773C140.296 145.468 139.791 146.489 139.307 147.837L138.77 147.647L140.254 141.426H153.771ZM165.583 140.857C168.278 140.857 170.331 142.089 171.742 144.552C172.984 146.7 173.605 149.532 173.605 153.048C173.605 156.501 172.984 159.301 171.742 161.449C170.331 163.891 168.278 165.112 165.583 165.112C162.867 165.112 160.804 163.891 159.393 161.449C158.172 159.301 157.561 156.501 157.561 153.048C157.561 149.532 158.172 146.7 159.393 144.552C160.804 142.089 162.867 140.857 165.583 140.857ZM165.583 141.71C163.562 141.71 162.025 142.847 160.972 145.121C160.067 147.142 159.614 149.784 159.614 153.048C159.614 156.269 160.067 158.869 160.972 160.848C162.025 163.122 163.562 164.259 165.583 164.259C167.583 164.259 169.11 163.122 170.163 160.848C171.11 158.848 171.584 156.248 171.584 153.048C171.584 149.784 171.11 147.142 170.163 145.121C169.11 142.847 167.583 141.71 165.583 141.71ZM184.848 140.857C187.543 140.857 189.596 142.089 191.007 144.552C192.249 146.7 192.87 149.532 192.87 153.048C192.87 156.501 192.249 159.301 191.007 161.449C189.596 163.891 187.543 165.112 184.848 165.112C182.132 165.112 180.069 163.891 178.658 161.449C177.437 159.301 176.826 156.501 176.826 153.048C176.826 149.532 177.437 146.7 178.658 144.552C180.069 142.089 182.132 140.857 184.848 140.857ZM184.848 141.71C182.827 141.71 181.29 142.847 180.237 145.121C179.332 147.142 178.879 149.784 178.879 153.048C178.879 156.269 179.332 158.869 180.237 160.848C181.29 163.122 182.827 164.259 184.848 164.259C186.848 164.259 188.375 163.122 189.428 160.848C190.375 158.848 190.849 156.248 190.849 153.048C190.849 149.784 190.375 147.142 189.428 145.121C188.375 142.847 186.848 141.71 184.848 141.71ZM204.113 140.857C206.808 140.857 208.861 142.089 210.272 144.552C211.514 146.7 212.135 149.532 212.135 153.048C212.135 156.501 211.514 159.301 210.272 161.449C208.861 163.891 206.808 165.112 204.113 165.112C201.397 165.112 199.334 163.891 197.923 161.449C196.702 159.301 196.091 156.501 196.091 153.048C196.091 149.532 196.702 146.7 197.923 144.552C199.334 142.089 201.397 140.857 204.113 140.857ZM204.113 141.71C202.092 141.71 200.555 142.847 199.502 145.121C198.597 147.142 198.144 149.784 198.144 153.048C198.144 156.269 198.597 158.869 199.502 160.848C200.555 163.122 202.092 164.259 204.113 164.259C206.113 164.259 207.64 163.122 208.693 160.848C209.64 158.848 210.114 156.248 210.114 153.048C210.114 149.784 209.64 147.142 208.693 145.121C207.64 142.847 206.113 141.71 204.113 141.71ZM223.378 140.857C226.073 140.857 228.126 142.089 229.537 144.552C230.779 146.7 231.4 149.532 231.4 153.048C231.4 156.501 230.779 159.301 229.537 161.449C228.126 163.891 226.073 165.112 223.378 165.112C220.662 165.112 218.599 163.891 217.188 161.449C215.967 159.301 215.356 156.501 215.356 153.048C215.356 149.532 215.967 146.7 217.188 144.552C218.599 142.089 220.662 140.857 223.378 140.857ZM223.378 141.71C221.357 141.71 219.82 142.847 218.767 145.121C217.862 147.142 217.409 149.784 217.409 153.048C217.409 156.269 217.862 158.869 218.767 160.848C219.82 163.122 221.357 164.259 223.378 164.259C225.378 164.259 226.905 163.122 227.958 160.848C228.905 158.848 229.379 156.248 229.379 153.048C229.379 149.784 228.905 147.142 227.958 145.121C226.905 142.847 225.378 141.71 223.378 141.71Z" fill="black"/>
<path d="M151.466 51.8992C150.687 52.9729 149.824 53.8151 148.876 54.4257C147.676 55.1837 146.381 55.5627 144.992 55.5627C143.181 55.5627 141.728 54.9205 140.633 53.6362C139.496 52.2676 138.928 50.3727 138.928 47.9514C138.928 45.5301 139.696 43.6247 141.233 42.2351C142.581 41.0139 144.213 40.4033 146.129 40.4033C148.403 40.4033 150.171 41.2455 151.434 42.9299C152.845 44.7827 153.55 47.604 153.55 51.3938C153.55 55.4153 152.771 58.6367 151.213 61.0579C149.634 63.5635 147.476 64.8162 144.739 64.8162C143.076 64.8162 141.749 64.4583 140.76 63.7424C139.917 63.1318 139.496 62.437 139.496 61.658C139.496 61.1106 139.623 60.6895 139.875 60.3947C140.107 60.121 140.454 59.9842 140.918 59.9842C141.339 59.9842 141.686 60.121 141.96 60.3947C142.255 60.7105 142.402 61.1316 142.402 61.658C142.402 62.2686 142.655 62.7739 143.16 63.1739C143.728 63.595 144.518 63.8056 145.529 63.8056C147.255 63.8056 148.655 62.7634 149.729 60.679C150.887 58.5103 151.466 55.5837 151.466 51.8992ZM151.498 50.3201C151.498 46.846 150.95 44.3721 149.855 42.8983C148.992 41.7613 147.75 41.1928 146.129 41.1928C144.402 41.1928 143.107 41.814 142.244 43.0562C141.402 44.2563 140.981 46.0144 140.981 48.3304C140.981 50.2043 141.391 51.6991 142.212 52.815C143.055 53.952 144.234 54.5205 145.75 54.5205C146.908 54.5205 148.055 54.0573 149.192 53.1309C150.14 52.3518 150.908 51.4149 151.498 50.3201ZM165.583 40.3717C168.278 40.3717 170.331 41.6034 171.742 44.0668C172.984 46.2144 173.605 49.0462 173.605 52.5624C173.605 56.0153 172.984 58.8156 171.742 60.9632C170.331 63.4055 168.278 64.6267 165.583 64.6267C162.867 64.6267 160.804 63.4055 159.393 60.9632C158.172 58.8156 157.561 56.0153 157.561 52.5624C157.561 49.0462 158.172 46.2144 159.393 44.0668C160.804 41.6034 162.867 40.3717 165.583 40.3717ZM165.583 41.2244C163.562 41.2244 162.025 42.3614 160.972 44.6353C160.067 46.6565 159.614 49.2989 159.614 52.5624C159.614 55.7837 160.067 58.384 160.972 60.3631C162.025 62.6371 163.562 63.774 165.583 63.774C167.583 63.774 169.11 62.6371 170.163 60.3631C171.11 58.3629 171.584 55.7627 171.584 52.5624C171.584 49.2989 171.11 46.6565 170.163 44.6353C169.11 42.3614 167.583 41.2244 165.583 41.2244ZM184.848 40.3717C187.543 40.3717 189.596 41.6034 191.007 44.0668C192.249 46.2144 192.87 49.0462 192.87 52.5624C192.87 56.0153 192.249 58.8156 191.007 60.9632C189.596 63.4055 187.543 64.6267 184.848 64.6267C182.132 64.6267 180.069 63.4055 178.658 60.9632C177.437 58.8156 176.826 56.0153 176.826 52.5624C176.826 49.0462 177.437 46.2144 178.658 44.0668C180.069 41.6034 182.132 40.3717 184.848 40.3717ZM184.848 41.2244C182.827 41.2244 181.29 42.3614 180.237 44.6353C179.332 46.6565 178.879 49.2989 178.879 52.5624C178.879 55.7837 179.332 58.384 180.237 60.3631C181.29 62.6371 182.827 63.774 184.848 63.774C186.848 63.774 188.375 62.6371 189.428 60.3631C190.375 58.3629 190.849 55.7627 190.849 52.5624C190.849 49.2989 190.375 46.6565 189.428 44.6353C188.375 42.3614 186.848 41.2244 184.848 41.2244ZM204.113 40.3717C206.808 40.3717 208.861 41.6034 210.272 44.0668C211.514 46.2144 212.135 49.0462 212.135 52.5624C212.135 56.0153 211.514 58.8156 210.272 60.9632C208.861 63.4055 206.808 64.6267 204.113 64.6267C201.397 64.6267 199.334 63.4055 197.923 60.9632C196.702 58.8156 196.091 56.0153 196.091 52.5624C196.091 49.0462 196.702 46.2144 197.923 44.0668C199.334 41.6034 201.397 40.3717 204.113 40.3717ZM204.113 41.2244C202.092 41.2244 200.555 42.3614 199.502 44.6353C198.597 46.6565 198.144 49.2989 198.144 52.5624C198.144 55.7837 198.597 58.384 199.502 60.3631C200.555 62.6371 202.092 63.774 204.113 63.774C206.113 63.774 207.64 62.6371 208.693 60.3631C209.64 58.3629 210.114 55.7627 210.114 52.5624C210.114 49.2989 209.64 46.6565 208.693 44.6353C207.64 42.3614 206.113 41.2244 204.113 41.2244ZM223.378 40.3717C226.073 40.3717 228.126 41.6034 229.537 44.0668C230.779 46.2144 231.4 49.0462 231.4 52.5624C231.4 56.0153 230.779 58.8156 229.537 60.9632C228.126 63.4055 226.073 64.6267 223.378 64.6267C220.662 64.6267 218.599 63.4055 217.188 60.9632C215.967 58.8156 215.356 56.0153 215.356 52.5624C215.356 49.0462 215.967 46.2144 217.188 44.0668C218.599 41.6034 220.662 40.3717 223.378 40.3717ZM223.378 41.2244C221.357 41.2244 219.82 42.3614 218.767 44.6353C217.862 46.6565 217.409 49.2989 217.409 52.5624C217.409 55.7837 217.862 58.384 218.767 60.3631C219.82 62.6371 221.357 63.774 223.378 63.774C225.378 63.774 226.905 62.6371 227.958 60.3631C228.905 58.3629 229.379 55.7627 229.379 52.5624C229.379 49.2989 228.905 46.6565 227.958 44.6353C226.905 42.3614 225.378 41.2244 223.378 41.2244Z" fill="black"/>
<path d="M444.822 621.919V3" stroke="#9FA0A0" stroke-width="1.7325" stroke-miterlimit="10"/>
<path d="M248.564 621.919V3" stroke="#9FA0A0" stroke-width="1.7325" stroke-miterlimit="10"/>
<path d="M641.045 621.919V3" stroke="#9FA0A0" stroke-width="1.7325" stroke-miterlimit="10"/>
<path d="M837.303 621.919V3" stroke="#9FA0A0" stroke-width="1.7325" stroke-miterlimit="10"/>
<path d="M1033.56 621.919V3" stroke="#9FA0A0" stroke-width="1.7325" stroke-miterlimit="10"/>
<path d="M190.138 590.959C189.864 591.033 189.506 591.101 189.064 591.165C188.633 591.228 188.169 591.286 187.675 591.338C187.19 591.391 186.696 591.438 186.19 591.48C185.695 591.512 185.253 591.533 184.864 591.544C184.432 591.565 183.89 591.586 183.237 591.607C182.585 591.617 181.79 591.628 180.853 591.638C179.926 591.638 178.837 591.644 177.584 591.654C176.331 591.654 174.889 591.654 173.257 591.654V573.147H175.089V590.059H181.611C183.632 590.059 185.327 590.001 186.696 589.885C188.064 589.77 189.122 589.622 189.87 589.443L190.138 590.959ZM194.591 584.706V601.018H192.759V570.557H194.591V583.127H199.834V584.706H194.591ZM225.314 585.196V601.018H223.482V570.557H225.314V583.601H230.572V585.196H225.314ZM203.759 582.811H215.16V574.931H203.759V573.368H216.992V584.343H205.591V592.491C209.265 592.491 212.281 592.438 214.639 592.333C217.008 592.217 218.777 592.049 219.945 591.828L220.15 593.375C219.403 593.491 218.508 593.596 217.466 593.691C216.434 593.775 215.245 593.844 213.897 593.896C212.55 593.949 211.034 593.991 209.349 594.023C207.665 594.044 205.802 594.054 203.759 594.054V582.811Z" fill="black"/>
<path d="M17.2491 541.134V532.354H19.0808V539.539H36.9563V541.134H17.2491ZM26.1552 535.354V528.991H12.8118V527.427H40.9198V528.991H27.987V535.354H26.1552ZM34.3981 514.336H19.3335V521.79H34.3981V514.336ZM17.5333 523.337V512.789H36.1983V523.337H17.5333ZM42.9663 535.339C44.177 535.339 45.5561 535.339 47.1036 535.339C48.6616 535.328 50.4565 535.302 52.4883 535.26V530.712C51.5935 530.638 50.7513 530.449 49.9618 530.143C49.1827 529.838 48.5037 529.438 47.9247 528.943C47.3457 528.448 46.8878 527.869 46.5509 527.206C46.214 526.532 46.0456 525.79 46.0456 524.98C46.0456 524.074 46.2403 523.264 46.6298 522.548C47.0299 521.832 47.5615 521.232 48.2247 520.748C48.8985 520.253 49.6828 519.879 50.5776 519.626C51.483 519.363 52.4409 519.232 53.4516 519.232C54.4517 519.232 55.3991 519.363 56.294 519.626C57.1888 519.89 57.9731 520.269 58.6468 520.763C59.3206 521.248 59.8522 521.848 60.2417 522.564C60.6417 523.279 60.8418 524.085 60.8418 524.98C60.8418 525.801 60.6733 526.548 60.3365 527.222C59.9996 527.885 59.5364 528.464 58.9468 528.959C58.3573 529.454 57.6678 529.854 56.8782 530.159C56.0887 530.454 55.236 530.638 54.3201 530.712V535.212C56.6782 535.16 58.6784 535.107 60.3207 535.054C61.9629 534.991 63.2104 534.923 64.0631 534.849L64.1737 536.444C63.7631 536.475 63.2367 536.507 62.5946 536.539C61.9524 536.57 61.2102 536.602 60.368 536.633C59.5258 536.665 58.5889 536.697 57.5572 536.728C56.5256 536.76 55.4149 536.791 54.2253 536.823C51.804 536.886 49.6828 536.928 47.8615 536.949C46.0403 536.96 44.4665 536.965 43.14 536.965L42.9663 535.339ZM53.4516 520.748C52.6199 520.748 51.8567 520.858 51.1619 521.079C50.4776 521.29 49.8881 521.585 49.3933 521.964C48.8985 522.343 48.5142 522.79 48.2405 523.306C47.9668 523.822 47.83 524.38 47.83 524.98C47.83 525.601 47.9616 526.174 48.2247 526.701C48.4985 527.217 48.8827 527.664 49.3775 528.043C49.8723 528.412 50.4618 528.701 51.1461 528.912C51.8409 529.122 52.6094 529.227 53.4516 529.227C54.2832 529.227 55.0412 529.122 55.7255 528.912C56.4098 528.701 56.9993 528.412 57.4941 528.043C57.9889 527.664 58.3731 527.217 58.6468 526.701C58.9205 526.174 59.0574 525.601 59.0574 524.98C59.0574 524.39 58.9205 523.837 58.6468 523.322C58.3731 522.806 57.9836 522.358 57.4783 521.979C56.9835 521.6 56.394 521.3 55.7097 521.079C55.0254 520.858 54.2727 520.748 53.4516 520.748ZM65.9581 542.113V511.652H67.7898V525.295H72.464V526.875H67.7898V542.113H65.9581ZM52.5199 511.699H54.3517V515.726H62.484V517.289H44.4191V515.726H52.5199V511.699ZM81.8691 542.081V530.601H74.2578V529.006H102.366V530.601H94.7546V542.081H92.9228V530.601H83.7009V542.081H81.8691ZM88.3118 513.673C86.9854 513.673 85.8221 513.805 84.822 514.068C83.8324 514.321 83.0008 514.668 82.327 515.11C81.6533 515.552 81.148 516.073 80.8111 516.674C80.4742 517.263 80.3058 517.9 80.3058 518.584C80.3058 519.269 80.4742 519.905 80.8111 520.495C81.148 521.085 81.6533 521.6 82.327 522.043C83.0008 522.474 83.8377 522.816 84.8378 523.069C85.8379 523.322 86.9959 523.448 88.3118 523.448C89.6277 523.448 90.7858 523.322 91.7859 523.069C92.7965 522.816 93.6387 522.474 94.3124 522.043C94.9967 521.6 95.5125 521.085 95.8599 520.495C96.2073 519.905 96.381 519.269 96.381 518.584C96.381 517.911 96.2073 517.274 95.8599 516.674C95.5231 516.073 95.0125 515.552 94.3282 515.11C93.6545 514.668 92.8123 514.321 91.8016 514.068C90.8015 513.805 89.6383 513.673 88.3118 513.673ZM88.3118 524.964C86.9433 524.964 85.6642 524.827 84.4746 524.553C83.285 524.28 82.2481 523.874 81.3638 523.337C80.4795 522.8 79.7794 522.137 79.2636 521.348C78.7583 520.548 78.5056 519.626 78.5056 518.584C78.5056 517.532 78.7635 516.605 79.2794 515.805C79.7952 515.005 80.4953 514.336 81.3796 513.8C82.2639 513.252 83.3008 512.842 84.4904 512.568C85.68 512.294 86.9538 512.157 88.3118 512.157C89.6909 512.157 90.9805 512.299 92.1806 512.584C93.3807 512.857 94.423 513.268 95.3073 513.815C96.2021 514.352 96.9021 515.021 97.4075 515.821C97.9233 516.621 98.1812 517.542 98.1812 518.584C98.1812 519.637 97.9233 520.563 97.4075 521.363C96.8916 522.153 96.1863 522.816 95.2915 523.353C94.4072 523.89 93.365 524.295 92.1648 524.569C90.9647 524.832 89.6804 524.964 88.3118 524.964ZM110.397 541.023V531.691H112.276V539.397H129.757V541.023H110.397ZM128.715 522.848V533.665H126.883V511.652H128.715V521.269H133.278V522.848H128.715ZM120.946 528.217C120.251 527.848 119.54 527.396 118.814 526.859C118.087 526.322 117.398 525.727 116.745 525.074C116.103 524.422 115.519 523.727 114.992 522.99C114.477 522.253 114.066 521.5 113.761 520.732C113.476 521.542 113.082 522.353 112.576 523.164C112.071 523.964 111.497 524.732 110.855 525.469C110.213 526.196 109.518 526.869 108.771 527.49C108.034 528.112 107.286 528.643 106.528 529.085L105.123 527.743C106.134 527.238 107.102 526.59 108.029 525.801C108.955 525.001 109.771 524.116 110.476 523.148C111.192 522.169 111.76 521.127 112.182 520.021C112.613 518.916 112.829 517.789 112.829 516.642V512.884H114.629V516.5C114.629 517.626 114.84 518.716 115.261 519.769C115.692 520.821 116.261 521.8 116.966 522.706C117.672 523.601 118.482 524.401 119.398 525.106C120.314 525.801 121.261 526.359 122.24 526.78L120.946 528.217ZM158.137 529.749V542.113H156.305V529.749H143.182V528.154H171.29V529.749H158.137ZM168.922 523.858C168.185 523.785 167.422 523.643 166.632 523.432C165.853 523.211 165.079 522.937 164.311 522.611C163.553 522.285 162.811 521.911 162.084 521.49C161.358 521.058 160.684 520.595 160.063 520.1C159.442 519.605 158.884 519.084 158.389 518.537C157.894 517.989 157.5 517.426 157.205 516.847C156.889 517.426 156.489 517.989 156.005 518.537C155.521 519.074 154.973 519.584 154.363 520.069C153.762 520.553 153.11 521.011 152.404 521.442C151.699 521.864 150.967 522.243 150.209 522.579C149.462 522.916 148.699 523.211 147.92 523.464C147.141 523.716 146.378 523.911 145.63 524.048L144.54 522.548C145.288 522.474 146.093 522.321 146.957 522.09C147.83 521.858 148.704 521.558 149.578 521.19C150.452 520.811 151.294 520.369 152.104 519.863C152.915 519.348 153.631 518.774 154.252 518.142C154.873 517.51 155.368 516.831 155.736 516.105C156.115 515.368 156.305 514.584 156.305 513.752V512.631H158.137V513.736C158.137 514.558 158.321 515.337 158.689 516.073C159.058 516.8 159.547 517.479 160.158 518.111C160.779 518.732 161.49 519.3 162.29 519.816C163.1 520.321 163.942 520.758 164.816 521.127C165.7 521.495 166.579 521.79 167.453 522.011C168.338 522.232 169.169 522.364 169.948 522.406L168.922 523.858Z" fill="black"/>
<path d="M321.703 579.822V572.36H339.603V568.469H321.703V566.828H341.566V573.968H323.666V578.18H342.479V579.822H321.703ZM339.603 548.014H341.566V565.119H339.603V548.014ZM325.324 550.213C324.432 550.213 323.609 550.354 322.853 550.636C322.098 550.918 321.438 551.313 320.874 551.821C320.321 552.328 319.887 552.943 319.571 553.665C319.255 554.387 319.097 555.188 319.097 556.067C319.097 556.97 319.25 557.782 319.554 558.504C319.87 559.226 320.304 559.84 320.857 560.348C321.421 560.855 322.081 561.245 322.836 561.515C323.592 561.786 324.421 561.921 325.324 561.921C326.215 561.921 327.044 561.786 327.811 561.515C328.578 561.245 329.237 560.855 329.79 560.348C330.343 559.84 330.777 559.226 331.093 558.504C331.409 557.782 331.567 556.97 331.567 556.067C331.567 555.188 331.409 554.387 331.093 553.665C330.777 552.943 330.337 552.328 329.773 551.821C329.221 551.313 328.561 550.918 327.794 550.636C327.038 550.354 326.215 550.213 325.324 550.213ZM325.324 563.545C324.173 563.545 323.102 563.365 322.109 563.004C321.116 562.643 320.248 562.136 319.503 561.481C318.77 560.827 318.195 560.043 317.778 559.13C317.36 558.205 317.152 557.184 317.152 556.067C317.152 554.917 317.36 553.885 317.778 552.971C318.206 552.046 318.787 551.262 319.52 550.619C320.254 549.976 321.116 549.48 322.109 549.131C323.113 548.781 324.184 548.606 325.324 548.606C326.463 548.606 327.529 548.781 328.521 549.131C329.525 549.469 330.394 549.965 331.127 550.619C331.871 551.262 332.452 552.046 332.869 552.971C333.298 553.885 333.512 554.917 333.512 556.067C333.512 557.184 333.298 558.205 332.869 559.13C332.452 560.043 331.871 560.827 331.127 561.481C330.394 562.136 329.525 562.643 328.521 563.004C327.529 563.365 326.463 563.545 325.324 563.545ZM352.556 579.483V570.482H354.519V577.774H373.502V579.483H352.556ZM370.693 554.917H354.688V559.637H370.693V554.917ZM347.633 567.792V566.083H361.709V561.295H352.759V548.961H354.688V553.259H370.693V548.961H372.622V561.295H363.672V566.083H377.749V567.792H347.633Z" fill="black"/>
<path d="M535.701 580.617V547.98H537.663V580.617H535.701ZM526.514 552.599H515.06V569.179H526.514V552.599ZM513.131 570.854V550.924H528.443V570.854H513.131ZM569.346 549.215C569.346 550.264 569.335 551.341 569.312 552.447C569.301 553.541 569.278 554.601 569.244 555.627C569.222 556.654 569.188 557.618 569.143 558.521C569.098 559.412 569.041 560.179 568.974 560.822H573.999V562.53H559.922V568.943H569.041V580.617H567.079V570.651H548.13V568.943H557.959V562.53H543.883V560.822H567.096C567.141 560.212 567.18 559.507 567.214 558.707C567.248 557.906 567.276 557.066 567.299 556.186C567.321 555.306 567.338 554.415 567.349 553.513C567.361 552.599 567.366 551.736 567.366 550.924H548.975V549.215H569.346Z" fill="black"/>
<path d="M723.271 559.671V564.375H737.331V566.083H707.215V564.375H721.308V559.671H712.274V548.775H732.272V550.484H714.236V557.962H732.61V559.671H723.271ZM730.411 580.617V571.887H711.462V570.178H732.373V580.617H730.411ZM747.12 579.822V572.36H765.02V568.469H747.12V566.828H766.983V573.968H749.083V578.18H767.896V579.822H747.12ZM765.02 548.014H766.983V565.119H765.02V548.014ZM750.741 550.213C749.85 550.213 749.026 550.354 748.27 550.636C747.515 550.918 746.855 551.313 746.291 551.821C745.738 552.328 745.304 552.943 744.988 553.665C744.672 554.387 744.514 555.188 744.514 556.067C744.514 556.97 744.667 557.782 744.971 558.504C745.287 559.226 745.721 559.84 746.274 560.348C746.838 560.855 747.498 561.245 748.253 561.515C749.009 561.786 749.838 561.921 750.741 561.921C751.632 561.921 752.461 561.786 753.228 561.515C753.995 561.245 754.654 560.855 755.207 560.348C755.76 559.84 756.194 559.226 756.51 558.504C756.826 557.782 756.984 556.97 756.984 556.067C756.984 555.188 756.826 554.387 756.51 553.665C756.194 552.943 755.754 552.328 755.19 551.821C754.638 551.313 753.978 550.918 753.211 550.636C752.455 550.354 751.632 550.213 750.741 550.213ZM750.741 563.545C749.59 563.545 748.519 563.365 747.526 563.004C746.533 562.643 745.665 562.136 744.92 561.481C744.187 560.827 743.612 560.043 743.195 559.13C742.777 558.205 742.569 557.184 742.569 556.067C742.569 554.917 742.777 553.885 743.195 552.971C743.623 552.046 744.204 551.262 744.937 550.619C745.671 549.976 746.533 549.48 747.526 549.131C748.53 548.781 749.601 548.606 750.741 548.606C751.88 548.606 752.946 548.781 753.938 549.131C754.942 549.469 755.811 549.965 756.544 550.619C757.288 551.262 757.869 552.046 758.286 552.971C758.715 553.885 758.929 554.917 758.929 556.067C758.929 557.184 758.715 558.205 758.286 559.13C757.869 560.043 757.288 560.827 756.544 561.481C755.811 562.136 754.942 562.643 753.938 563.004C752.946 563.365 751.88 563.545 750.741 563.545Z" fill="black"/>
<path d="M918.52 580.346C916.637 580.346 915.024 580.188 913.681 579.872C912.351 579.556 911.256 579.128 910.399 578.586C909.553 578.056 908.933 577.436 908.538 576.725C908.143 576.015 907.946 575.27 907.946 574.492C907.946 573.748 908.126 573.037 908.487 572.36C908.848 571.672 909.412 571.069 910.179 570.55C910.958 570.02 911.95 569.586 913.157 569.247C914.375 568.909 915.836 568.711 917.539 568.655V564.51H903.462V562.801H933.578V564.51H919.502V568.655C921.205 568.711 922.66 568.909 923.867 569.247C925.085 569.586 926.077 570.02 926.844 570.55C927.623 571.069 928.192 571.672 928.553 572.36C928.914 573.037 929.095 573.748 929.095 574.492C929.095 575.27 928.897 576.015 928.502 576.725C928.108 577.436 927.482 578.056 926.624 578.586C925.779 579.128 924.684 579.556 923.342 579.872C922.011 580.188 920.404 580.346 918.52 580.346ZM918.52 570.245C916.772 570.245 915.34 570.386 914.223 570.668C913.118 570.95 912.243 571.306 911.6 571.734C910.958 572.152 910.512 572.608 910.264 573.105C910.027 573.601 909.909 574.063 909.909 574.492C909.909 574.797 909.959 575.112 910.061 575.44C910.162 575.767 910.337 576.088 910.585 576.404C910.845 576.72 911.183 577.019 911.6 577.301C912.018 577.583 912.542 577.831 913.174 578.045C913.817 578.259 914.578 578.429 915.458 578.553C916.338 578.677 917.359 578.739 918.52 578.739C920.257 578.739 921.684 578.603 922.801 578.333C923.917 578.062 924.797 577.718 925.44 577.301C926.083 576.883 926.523 576.426 926.76 575.93C927.008 575.423 927.132 574.943 927.132 574.492C927.132 574.21 927.081 573.906 926.98 573.578C926.878 573.251 926.698 572.935 926.438 572.631C926.19 572.315 925.858 572.016 925.44 571.734C925.023 571.441 924.493 571.187 923.85 570.973C923.218 570.747 922.462 570.572 921.583 570.448C920.703 570.313 919.682 570.245 918.52 570.245ZM930.922 559.671C929.771 559.547 928.581 559.299 927.352 558.927C926.123 558.554 924.944 558.081 923.816 557.505C922.688 556.919 921.656 556.242 920.72 555.475C919.795 554.697 919.056 553.845 918.503 552.92C918.165 553.529 917.731 554.11 917.201 554.663C916.671 555.204 916.078 555.712 915.424 556.186C914.77 556.659 914.065 557.094 913.309 557.488C912.554 557.872 911.781 558.216 910.991 558.521C910.202 558.814 909.407 559.062 908.606 559.265C907.805 559.457 907.038 559.592 906.305 559.671L905.205 558.064C906.04 558.007 906.891 557.895 907.76 557.725C908.628 557.545 909.486 557.308 910.332 557.015C911.177 556.71 911.984 556.355 912.751 555.949C913.529 555.532 914.234 555.063 914.866 554.545C915.509 554.014 916.061 553.428 916.524 552.785C916.986 552.131 917.33 551.426 917.556 550.67H906.762V548.961H930.279V550.67H919.519C919.71 551.415 920.043 552.108 920.517 552.751C920.99 553.383 921.554 553.969 922.209 554.511C922.863 555.041 923.585 555.515 924.374 555.932C925.175 556.349 925.998 556.71 926.844 557.015C927.69 557.308 928.542 557.545 929.399 557.725C930.268 557.895 931.091 558.002 931.869 558.047L930.922 559.671ZM961.843 549.215C961.843 550.264 961.832 551.341 961.809 552.447C961.798 553.541 961.775 554.601 961.741 555.627C961.719 556.654 961.685 557.618 961.64 558.521C961.595 559.412 961.538 560.179 961.471 560.822H966.496V562.53H952.419V568.943H961.538V580.617H959.576V570.651H940.627V568.943H950.457V562.53H936.38V560.822H959.593C959.638 560.212 959.677 559.507 959.711 558.707C959.745 557.906 959.773 557.066 959.796 556.186C959.818 555.306 959.835 554.415 959.847 553.513C959.858 552.599 959.863 551.736 959.863 550.924H941.473V549.215H961.843Z" fill="black"/>
<path d="M1110.17 564.493C1109.01 564.493 1107.93 564.301 1106.94 563.918C1105.94 563.523 1105.08 562.982 1104.35 562.293C1103.62 561.605 1103.04 560.788 1102.62 559.84C1102.21 558.893 1102 557.861 1102 556.744C1102 555.594 1102.21 554.545 1102.62 553.597C1103.04 552.65 1103.62 551.838 1104.35 551.161C1105.08 550.484 1105.94 549.96 1106.94 549.587C1107.93 549.204 1109.01 549.012 1110.17 549.012C1111.65 549.012 1112.98 549.305 1114.18 549.892C1115.37 550.478 1116.33 551.296 1117.05 552.345H1124.53V547.98H1126.5V567.555H1124.53V561.397H1116.89C1116.15 562.378 1115.2 563.139 1114.04 563.681C1112.89 564.222 1111.6 564.493 1110.17 564.493ZM1116.6 580.177C1114.83 580.177 1113.27 580.025 1111.93 579.72C1110.6 579.415 1109.49 578.987 1108.59 578.434C1107.7 577.881 1107.03 577.233 1106.58 576.488C1106.14 575.733 1105.92 574.904 1105.92 574.001C1105.92 573.11 1106.14 572.287 1106.58 571.531C1107.03 570.776 1107.7 570.121 1108.59 569.569C1109.49 569.016 1110.6 568.587 1111.93 568.283C1113.27 567.978 1114.83 567.826 1116.6 567.826C1118.37 567.826 1119.92 567.978 1121.25 568.283C1122.59 568.587 1123.71 569.016 1124.6 569.569C1125.49 570.121 1126.16 570.776 1126.6 571.531C1127.05 572.287 1127.27 573.11 1127.27 574.001C1127.27 574.904 1127.05 575.733 1126.6 576.488C1126.16 577.233 1125.49 577.881 1124.6 578.434C1123.71 578.987 1122.59 579.415 1121.25 579.72C1119.92 580.025 1118.37 580.177 1116.6 580.177ZM1116.6 569.467C1115.26 569.467 1114.04 569.574 1112.96 569.789C1111.89 569.992 1110.97 570.291 1110.22 570.685C1109.47 571.069 1108.9 571.543 1108.49 572.106C1108.09 572.659 1107.88 573.291 1107.88 574.001C1107.88 574.712 1108.09 575.349 1108.49 575.913C1108.9 576.477 1109.48 576.957 1110.24 577.351C1110.99 577.735 1111.91 578.028 1112.98 578.231C1114.05 578.434 1115.26 578.536 1116.6 578.536C1117.94 578.536 1119.15 578.434 1120.22 578.231C1121.3 578.028 1122.21 577.735 1122.96 577.351C1123.71 576.957 1124.3 576.477 1124.7 575.913C1125.11 575.349 1125.31 574.712 1125.31 574.001C1125.31 573.291 1125.11 572.659 1124.7 572.106C1124.3 571.543 1123.71 571.069 1122.96 570.685C1122.21 570.291 1121.3 569.992 1120.22 569.789C1119.15 569.574 1117.94 569.467 1116.6 569.467ZM1110.17 550.636C1109.27 550.636 1108.43 550.789 1107.66 551.093C1106.91 551.398 1106.25 551.826 1105.7 552.379C1105.15 552.92 1104.71 553.563 1104.4 554.308C1104.09 555.052 1103.94 555.864 1103.94 556.744C1103.94 557.646 1104.09 558.475 1104.4 559.231C1104.71 559.976 1105.15 560.619 1105.7 561.16C1106.25 561.69 1106.91 562.107 1107.66 562.412C1108.43 562.705 1109.27 562.852 1110.17 562.852C1111.07 562.852 1111.91 562.705 1112.67 562.412C1113.44 562.107 1114.1 561.69 1114.65 561.16C1115.22 560.619 1115.66 559.976 1115.97 559.231C1116.29 558.475 1116.45 557.646 1116.45 556.744C1116.45 555.864 1116.29 555.052 1115.97 554.308C1115.66 553.563 1115.22 552.92 1114.65 552.379C1114.09 551.826 1113.42 551.398 1112.66 551.093C1111.89 550.789 1111.06 550.636 1110.17 550.636ZM1117.92 554.003C1118.06 554.421 1118.18 554.86 1118.26 555.323C1118.35 555.785 1118.39 556.259 1118.39 556.744C1118.39 557.816 1118.2 558.814 1117.82 559.739H1124.53V554.003H1117.92ZM1158.09 549.215C1158.09 550.264 1158.08 551.341 1158.06 552.447C1158.05 553.541 1158.03 554.601 1157.99 555.627C1157.97 556.654 1157.94 557.618 1157.89 558.521C1157.84 559.412 1157.79 560.179 1157.72 560.822H1162.75V562.53H1148.67V568.943H1157.79V580.617H1155.83V570.651H1136.88V568.943H1146.71V562.53H1132.63V560.822H1155.84C1155.89 560.212 1155.93 559.507 1155.96 558.707C1156 557.906 1156.02 557.066 1156.05 556.186C1156.07 555.306 1156.09 554.415 1156.1 553.513C1156.11 552.599 1156.11 551.736 1156.11 550.924H1137.72V549.215H1158.09Z" fill="black"/>
<path d="M248.564 504.039L14.6768 616.132" stroke="#9FA0A0" stroke-width="1.7325" stroke-miterlimit="10"/>
<path d="M3 504.039H1229.82" stroke="#9FA0A0" stroke-width="1.7325" stroke-miterlimit="10"/>
<path d="M1229.82 592.466C1229.82 608.682 1216.55 621.919 1200.37 621.919H32.4872C16.271 621.919 3.03467 608.648 3.03467 592.466V32.4525C3.03467 16.2363 16.3056 3 32.4872 3H1200.33C1216.55 3 1229.78 16.271 1229.78 32.4525V592.466H1229.82Z" stroke="#F7C7C8" stroke-width="5.8905"/>
<path d="M26.1189 21.2585C24.066 22.9053 22.4644 24.9807 21.3139 27.4847C20.1183 30.1015 19.5205 32.9439 19.5205 36.0119C19.5205 39.1024 20.1183 41.9448 21.3139 44.539C22.4192 46.9528 24.0209 49.0395 26.1189 50.799V51.3743C23.1411 49.7275 20.9304 47.5619 19.4866 44.8774C18.1331 42.3508 17.4563 39.3957 17.4563 36.0119C17.4563 32.6732 18.1331 29.7406 19.4866 27.214C20.9529 24.5295 23.1637 22.3414 26.1189 20.6495V21.2585ZM74.1856 37.5176V28.2968H66.4367V26.5711H74.1856V18.9068H76.1482V37.5176H74.1856ZM74.2194 40.8845H58.028V48.9549H74.2194V40.8845ZM56.0992 50.6129V39.2265H76.1482V50.6129H56.0992ZM66.9612 35.5043C66.2055 35.1434 65.4329 34.6809 64.6433 34.1169C63.865 33.5417 63.1262 32.9044 62.4269 32.2051C61.7389 31.5058 61.1185 30.767 60.5658 29.9887C60.0131 29.2104 59.5845 28.4378 59.28 27.6708C58.9867 28.5055 58.5638 29.3514 58.0111 30.2087C57.4584 31.0546 56.8267 31.8667 56.1161 32.645C55.4168 33.4233 54.6668 34.1395 53.8659 34.7937C53.0651 35.4479 52.2755 36.0006 51.4973 36.4518L49.9746 35.0644C51.0687 34.5117 52.1176 33.8293 53.1215 33.0172C54.1254 32.1938 55.0108 31.2746 55.7778 30.2594C56.556 29.233 57.1708 28.122 57.6219 26.9264C58.0844 25.7308 58.3156 24.4788 58.3156 23.1704V22.1552H50.9389V20.4464H67.5872V22.1552H60.2105V23.1704C60.2105 24.4111 60.4361 25.5898 60.8873 26.7064C61.3497 27.8118 61.9532 28.8326 62.6976 29.7688C63.4533 30.6937 64.3218 31.5171 65.3031 32.2389C66.2844 32.9608 67.2996 33.5473 68.3485 33.9985L66.9612 35.5043ZM103.134 21.2585V20.6495C106.067 22.3414 108.266 24.5295 109.732 27.214C111.108 29.7406 111.796 32.6732 111.796 36.0119C111.796 39.3957 111.108 42.3508 109.732 44.8774C108.289 47.5619 106.089 49.7275 103.134 51.3743V50.799C105.209 49.0395 106.8 46.9528 107.905 44.539C109.123 41.9448 109.732 39.1024 109.732 36.0119C109.732 32.9439 109.123 30.1015 107.905 27.4847C106.755 24.9807 105.164 22.9053 103.134 21.2585Z" fill="black"/>
<rect opacity="0.7" x="273" y="33" width="50" height="470" fill="#AFDCDE" stroke="#5DC2D0" stroke-width="2.6"/>
<rect opacity="0.7" x="371" y="26" width="50" height="477" fill="#FEDD78" stroke="#F5A21B" stroke-width="2.6"/>
</svg>
