<svg width="109" height="30" viewBox="0 0 109 30" fill="none" xmlns="http://www.w3.org/2000/svg">
<path d="M8.96137 0.893769C6.99395 2.47203 5.45892 4.46108 4.3563 6.86091C3.21044 9.36883 2.6375 12.093 2.6375 15.0333C2.6375 17.9952 3.21044 20.7194 4.3563 23.2057C5.41568 25.519 6.95071 27.5189 8.96137 29.2052V29.7566C6.10753 28.1783 3.98876 26.1028 2.60507 23.53C1.30787 21.1085 0.659268 18.2763 0.659268 15.0333C0.659268 11.8335 1.30787 9.02291 2.60507 6.60147C4.01038 4.02868 6.12915 1.93153 8.96137 0.310027V0.893769ZM100.674 0.893769V0.310027C103.484 1.93153 105.592 4.02868 106.998 6.60147C108.316 9.02291 108.976 11.8335 108.976 15.0333C108.976 18.2763 108.316 21.1085 106.998 23.53C105.614 26.1028 103.506 28.1783 100.674 29.7566V29.2052C102.663 27.5189 104.187 25.519 105.246 23.2057C106.414 20.7194 106.998 17.9952 106.998 15.0333C106.998 12.093 106.414 9.36883 105.246 6.86091C104.144 4.46108 102.62 2.47203 100.674 0.893769Z" fill="black"/>
</svg>
