<svg width="1920" height="280" viewBox="0 0 1920 280" fill="none" xmlns="http://www.w3.org/2000/svg">
<rect x="177" y="112" width="1566" height="116" rx="58" fill="white"/>
<rect x="177" y="112" width="1566" height="116" rx="58" stroke="#8F3100" stroke-width="4"/>
<path d="M470.219 161.938V171.992H467.727V148.424H470.219V159.789H476.407V161.938H470.219ZM467.727 189.867V176.332H443.707V174.162H470.219V189.867H467.727ZM458.789 150.658C458.56 153.337 457.937 155.771 456.92 157.963C455.918 160.154 454.6 162.131 452.967 163.893C451.349 165.64 449.458 167.187 447.295 168.533C445.133 169.88 442.784 171.033 440.248 171.992L438.53 170.059C440.649 169.357 442.676 168.483 444.61 167.438C446.558 166.392 448.305 165.153 449.852 163.721C451.413 162.288 452.724 160.67 453.784 158.865C454.858 157.046 455.588 155.027 455.975 152.807H440.764V150.658H458.789ZM510.764 151.023C510.535 153.702 509.919 156.173 508.917 158.436C507.928 160.699 506.625 162.761 505.007 164.623C503.388 166.471 501.49 168.118 499.313 169.564C497.151 170.997 494.787 172.214 492.223 173.217L490.44 171.326C491.887 170.839 493.305 170.252 494.694 169.564C496.083 168.863 497.401 168.075 498.647 167.201C499.893 166.313 501.053 165.339 502.128 164.279C503.202 163.205 504.147 162.045 504.964 160.799L491.966 161.895L491.192 159.703L506.145 158.779C506.575 157.92 506.94 157.025 507.241 156.094C507.556 155.163 507.792 154.189 507.95 153.172H492.739V151.023H510.764ZM522.194 164.129V178.609H519.702V148.424H522.194V161.98H528.382V164.129H522.194ZM497.143 188.191V175.709H499.636V186.021H523.376V188.191H497.143ZM564.037 189.867V148.424H566.529V189.867H564.037ZM531.682 179.748C533.544 179.748 535.728 179.741 538.234 179.727C540.755 179.698 543.684 179.648 547.021 179.576C550.287 179.505 553.059 179.433 555.336 179.361C557.613 179.275 559.332 179.182 560.492 179.082L560.643 181.273C560.084 181.316 559.368 181.359 558.494 181.402C557.62 181.445 556.611 181.488 555.465 181.531C554.319 181.574 553.044 181.617 551.641 181.66C550.237 181.689 548.726 181.725 547.107 181.768C543.799 181.854 540.891 181.918 538.385 181.961C535.893 181.99 533.737 182.004 531.918 182.004L531.682 179.748ZM545.582 153.688C544.45 153.688 543.376 153.874 542.359 154.246C541.342 154.604 540.447 155.12 539.674 155.793C538.915 156.466 538.306 157.275 537.848 158.221C537.404 159.166 537.182 160.219 537.182 161.379C537.182 162.611 537.404 163.706 537.848 164.666C538.306 165.611 538.915 166.413 539.674 167.072C540.447 167.731 541.342 168.232 542.359 168.576C543.376 168.906 544.45 169.07 545.582 169.07C546.714 169.07 547.788 168.906 548.805 168.576C549.822 168.232 550.71 167.731 551.469 167.072C552.242 166.413 552.851 165.611 553.295 164.666C553.753 163.706 553.982 162.611 553.982 161.379C553.982 160.219 553.753 159.166 553.295 158.221C552.851 157.275 552.242 156.466 551.469 155.793C550.71 155.12 549.822 154.604 548.805 154.246C547.788 153.874 546.714 153.688 545.582 153.688ZM545.582 171.154C544.049 171.154 542.624 170.911 541.307 170.424C539.989 169.937 538.843 169.264 537.869 168.404C536.895 167.545 536.129 166.521 535.57 165.332C535.012 164.129 534.732 162.811 534.732 161.379C534.732 159.947 535.012 158.636 535.57 157.447C536.143 156.244 536.917 155.213 537.891 154.354C538.879 153.48 540.032 152.807 541.35 152.334C542.667 151.847 544.078 151.604 545.582 151.604C547.1 151.604 548.518 151.847 549.836 152.334C551.168 152.807 552.321 153.48 553.295 154.354C554.269 155.213 555.035 156.244 555.594 157.447C556.152 158.636 556.432 159.947 556.432 161.379C556.432 162.811 556.152 164.129 555.594 165.332C555.035 166.521 554.269 167.552 553.295 168.426C552.321 169.285 551.168 169.958 549.836 170.445C548.518 170.918 547.1 171.154 545.582 171.154ZM612.274 172.98C611.214 173.052 609.61 173.124 607.461 173.195C605.313 173.267 602.627 173.346 599.405 173.432C596.125 173.532 593.253 173.604 590.789 173.646C588.326 173.689 586.206 173.711 584.43 173.711L584.172 171.52C585.805 171.52 587.689 171.505 589.823 171.477C591.957 171.448 594.363 171.405 597.041 171.348V166.234C595.681 166.134 594.442 165.862 593.325 165.418C592.222 164.96 591.269 164.372 590.467 163.656C589.665 162.94 589.042 162.109 588.598 161.164C588.168 160.219 587.953 159.202 587.953 158.113C587.953 156.939 588.204 155.85 588.705 154.848C589.207 153.845 589.909 152.979 590.811 152.248C591.728 151.518 592.816 150.952 594.077 150.551C595.351 150.135 596.748 149.928 598.266 149.928C599.784 149.928 601.181 150.135 602.455 150.551C603.73 150.952 604.826 151.518 605.743 152.248C606.674 152.979 607.39 153.845 607.891 154.848C608.407 155.85 608.664 156.939 608.664 158.113C608.664 159.202 608.442 160.219 607.998 161.164C607.554 162.095 606.931 162.919 606.129 163.635C605.342 164.351 604.382 164.938 603.25 165.396C602.133 165.84 600.901 166.12 599.555 166.234V171.326C602.477 171.255 605.019 171.183 607.182 171.111C609.359 171.04 611.035 170.968 612.209 170.896L612.274 172.98ZM598.266 151.926C596.934 151.926 595.774 152.112 594.786 152.484C593.797 152.842 592.974 153.315 592.315 153.902C591.67 154.475 591.183 155.134 590.854 155.879C590.539 156.624 590.381 157.368 590.381 158.113C590.381 158.858 590.539 159.596 590.854 160.326C591.183 161.057 591.677 161.715 592.336 162.303C592.995 162.876 593.812 163.341 594.786 163.699C595.774 164.057 596.934 164.236 598.266 164.236C599.598 164.236 600.765 164.064 601.768 163.721C602.771 163.363 603.601 162.897 604.26 162.324C604.919 161.751 605.413 161.1 605.743 160.369C606.072 159.624 606.237 158.872 606.237 158.113C606.237 157.34 606.072 156.588 605.743 155.857C605.413 155.113 604.919 154.454 604.26 153.881C603.601 153.294 602.771 152.821 601.768 152.463C600.78 152.105 599.612 151.926 598.266 151.926ZM591.627 188.814V177.17H594.12V186.645H618.612V188.814H591.627ZM615.088 179.512V148.424H617.537V179.512H615.088ZM654.933 189.867V177.943H630.871V175.773H657.425V189.867H654.933ZM625.478 170.746V168.576H643.353V163.527H645.845V168.576H663.72V170.746H625.478ZM642.988 161.68C642.415 161.436 641.821 161.114 641.205 160.713C640.603 160.298 640.03 159.839 639.486 159.338C638.942 158.822 638.455 158.285 638.025 157.727C637.595 157.154 637.273 156.588 637.058 156.029C636.786 156.688 636.364 157.361 635.791 158.049C635.232 158.736 634.587 159.388 633.857 160.004C633.127 160.605 632.346 161.157 631.515 161.658C630.699 162.145 629.904 162.518 629.13 162.775L627.648 160.971C628.622 160.713 629.61 160.29 630.613 159.703C631.615 159.102 632.525 158.393 633.341 157.576C634.158 156.76 634.824 155.857 635.339 154.869C635.855 153.867 636.113 152.821 636.113 151.732H628.98V149.605H660.218V151.732H653.107C653.107 152.807 653.336 153.838 653.794 154.826C654.253 155.814 654.854 156.717 655.599 157.533C656.358 158.35 657.218 159.059 658.177 159.66C659.151 160.247 660.147 160.684 661.164 160.971L659.767 162.732C659.008 162.503 658.227 162.152 657.425 161.68C656.638 161.207 655.893 160.67 655.191 160.068C654.489 159.467 653.866 158.837 653.322 158.178C652.778 157.519 652.384 156.889 652.14 156.287C651.968 156.86 651.682 157.469 651.281 158.113C650.88 158.743 650.414 159.359 649.884 159.961C649.354 160.548 648.774 161.092 648.144 161.594C647.528 162.081 646.905 162.475 646.275 162.775L644.621 161.121C645.537 160.72 646.375 160.212 647.134 159.596C647.908 158.965 648.567 158.249 649.111 157.447C649.669 156.645 650.099 155.764 650.4 154.805C650.701 153.831 650.851 152.807 650.851 151.732H638.347C638.347 152.778 638.519 153.752 638.863 154.654C639.207 155.542 639.658 156.337 640.216 157.039C640.789 157.741 641.441 158.342 642.171 158.844C642.916 159.331 643.69 159.689 644.492 159.918L642.988 161.68ZM667.407 191.607H665.366L668.395 180.994H671.124L667.407 191.607ZM690.443 161.68C690.443 159.99 690.815 158.507 691.56 157.232C692.319 155.958 693.336 154.898 694.611 154.053C695.885 153.193 697.361 152.549 699.036 152.119C700.712 151.689 702.467 151.475 704.3 151.475C706.133 151.475 707.881 151.689 709.542 152.119C711.218 152.549 712.686 153.193 713.946 154.053C715.221 154.912 716.231 155.979 716.976 157.254C717.735 158.529 718.114 160.004 718.114 161.68C718.114 163.255 717.778 164.666 717.105 165.912C716.431 167.144 715.522 168.197 714.376 169.07C713.23 169.93 711.891 170.61 710.359 171.111C708.84 171.598 707.236 171.892 705.546 171.992V181.037H723.421V183.207H685.179V181.037H703.054V171.992C701.321 171.892 699.688 171.598 698.155 171.111C696.637 170.61 695.305 169.93 694.159 169.07C693.014 168.197 692.104 167.144 691.431 165.912C690.772 164.666 690.443 163.255 690.443 161.68ZM692.892 161.68C692.892 162.883 693.157 163.993 693.687 165.01C694.217 166.027 694.976 166.908 695.964 167.652C696.952 168.383 698.148 168.956 699.552 169.371C700.956 169.772 702.538 169.973 704.3 169.973C706.047 169.973 707.623 169.765 709.027 169.35C710.43 168.934 711.619 168.361 712.593 167.631C713.581 166.9 714.34 166.027 714.87 165.01C715.4 163.993 715.665 162.883 715.665 161.68C715.665 160.491 715.4 159.402 714.87 158.414C714.34 157.411 713.581 156.552 712.593 155.836C711.605 155.105 710.409 154.54 709.005 154.139C707.601 153.738 706.033 153.537 704.3 153.537C702.553 153.537 700.977 153.738 699.573 154.139C698.17 154.525 696.974 155.084 695.986 155.814C694.997 156.531 694.231 157.39 693.687 158.393C693.157 159.381 692.892 160.477 692.892 161.68ZM733.274 189.115V178.223H735.766V187.031H759.828V189.115H733.274ZM733.403 166.943V157.254H756.305V151.883H733.403V149.799H758.797V159.295H735.895V164.859H759.786V166.943H733.403ZM765.221 172.594V174.678H726.979V172.594H765.221ZM798.234 189.867V177.943H774.171V175.773H800.726V189.867H798.234ZM768.779 170.746V168.576H786.654V163.527H789.146V168.576H807.021V170.746H768.779ZM786.289 161.68C785.716 161.436 785.121 161.114 784.505 160.713C783.904 160.298 783.331 159.839 782.787 159.338C782.242 158.822 781.755 158.285 781.326 157.727C780.896 157.154 780.574 156.588 780.359 156.029C780.087 156.688 779.664 157.361 779.091 158.049C778.533 158.736 777.888 159.388 777.158 160.004C776.427 160.605 775.647 161.157 774.816 161.658C774 162.145 773.205 162.518 772.431 162.775L770.949 160.971C771.923 160.713 772.911 160.29 773.914 159.703C774.916 159.102 775.826 158.393 776.642 157.576C777.459 156.76 778.125 155.857 778.64 154.869C779.156 153.867 779.414 152.821 779.414 151.732H772.281V149.605H803.519V151.732H796.408C796.408 152.807 796.637 153.838 797.095 154.826C797.554 155.814 798.155 156.717 798.9 157.533C799.659 158.35 800.518 159.059 801.478 159.66C802.452 160.247 803.447 160.684 804.464 160.971L803.068 162.732C802.309 162.503 801.528 162.152 800.726 161.68C799.938 161.207 799.194 160.67 798.492 160.068C797.79 159.467 797.167 158.837 796.623 158.178C796.078 157.519 795.684 156.889 795.441 156.287C795.269 156.86 794.983 157.469 794.582 158.113C794.181 158.743 793.715 159.359 793.185 159.961C792.655 160.548 792.075 161.092 791.445 161.594C790.829 162.081 790.206 162.475 789.576 162.775L787.921 161.121C788.838 160.72 789.676 160.212 790.435 159.596C791.209 158.965 791.867 158.249 792.412 157.447C792.97 156.645 793.4 155.764 793.701 154.805C794.002 153.831 794.152 152.807 794.152 151.732H781.648C781.648 152.778 781.82 153.752 782.164 154.654C782.507 155.542 782.959 156.337 783.517 157.039C784.09 157.741 784.742 158.342 785.472 158.844C786.217 159.331 786.99 159.689 787.793 159.918L786.289 161.68ZM810.579 169.092V167.029H848.821V169.092H810.579ZM816.745 189.416V180.414H840.12V175.666H816.745V173.604H842.612V182.326H819.237V187.354H843.729V189.416H816.745ZM829.7 150.701C828.038 150.701 826.549 150.816 825.231 151.045C823.913 151.274 822.789 151.604 821.858 152.033C820.941 152.463 820.233 152.993 819.731 153.623C819.244 154.253 819.001 154.969 819.001 155.771C819.001 156.574 819.244 157.29 819.731 157.92C820.233 158.55 820.941 159.08 821.858 159.51C822.789 159.939 823.913 160.269 825.231 160.498C826.549 160.727 828.038 160.842 829.7 160.842C831.347 160.842 832.83 160.727 834.147 160.498C835.479 160.269 836.604 159.939 837.52 159.51C838.451 159.08 839.16 158.55 839.647 157.92C840.149 157.29 840.399 156.574 840.399 155.771C840.399 154.969 840.149 154.253 839.647 153.623C839.16 152.993 838.451 152.463 837.52 152.033C836.604 151.604 835.479 151.274 834.147 151.045C832.83 150.816 831.347 150.701 829.7 150.701ZM829.7 162.883C827.852 162.883 826.126 162.747 824.522 162.475C822.918 162.188 821.522 161.751 820.333 161.164C819.158 160.577 818.227 159.839 817.54 158.951C816.867 158.063 816.53 157.003 816.53 155.771C816.53 154.554 816.867 153.501 817.54 152.613C818.227 151.725 819.165 150.988 820.354 150.4C821.543 149.813 822.932 149.376 824.522 149.09C826.126 148.803 827.852 148.66 829.7 148.66C831.533 148.66 833.252 148.803 834.856 149.09C836.46 149.376 837.857 149.813 839.046 150.4C840.234 150.988 841.165 151.725 841.839 152.613C842.526 153.501 842.87 154.554 842.87 155.771C842.87 157.003 842.526 158.063 841.839 158.951C841.165 159.839 840.234 160.577 839.046 161.164C837.871 161.751 836.482 162.188 834.878 162.475C833.274 162.747 831.548 162.883 829.7 162.883ZM862.554 182.498V180.328H900.796V182.498H862.554ZM894.329 154.547H871.513V168.533H895.017V170.703H869.021V152.377H894.329V154.547ZM937.075 189.889V168.941H930.952V188.578H928.502V149.283H930.952V166.771H937.118V148.424H939.588V189.889H937.075ZM906.782 165.031H919.78V154.375H906.782V152.248H922.272V167.115H909.274V178.266C911.608 178.266 913.606 178.251 915.268 178.223C916.929 178.18 918.362 178.13 919.565 178.072C920.768 178.001 921.799 177.915 922.659 177.814C923.518 177.7 924.327 177.571 925.086 177.428L925.43 179.469C924.871 179.583 924.277 179.684 923.647 179.77C923.031 179.855 922.336 179.934 921.563 180.006C920.804 180.063 919.952 180.12 919.006 180.178C918.075 180.221 917.008 180.264 915.805 180.307C914.616 180.335 913.277 180.357 911.787 180.371C910.298 180.385 908.629 180.393 906.782 180.393V165.031ZM946.154 181.531V179.361H974.341C974.642 177.027 974.871 174.671 975.029 172.293C975.201 169.901 975.287 167.48 975.287 165.031V154.611H951.933V152.441H977.8V163.742C977.8 165.891 977.722 168.247 977.564 170.811C977.406 173.36 977.149 176.21 976.791 179.361H984.396V181.531H946.154ZM988.405 157.361V155.191H999.384V148.424H1001.88V155.191H1012.88V157.361H988.405ZM1000.63 163.398C999.57 163.398 998.567 163.563 997.622 163.893C996.677 164.208 995.846 164.666 995.13 165.268C994.413 165.869 993.841 166.6 993.411 167.459C992.996 168.318 992.788 169.292 992.788 170.381C992.788 171.498 992.996 172.493 993.411 173.367C993.841 174.227 994.413 174.95 995.13 175.537C995.86 176.11 996.698 176.547 997.643 176.848C998.589 177.148 999.584 177.299 1000.63 177.299C1001.66 177.299 1002.65 177.148 1003.59 176.848C1004.55 176.547 1005.39 176.103 1006.11 175.516C1006.84 174.928 1007.42 174.205 1007.85 173.346C1008.28 172.486 1008.49 171.498 1008.49 170.381C1008.49 169.292 1008.28 168.318 1007.85 167.459C1007.43 166.585 1006.87 165.848 1006.15 165.246C1005.43 164.645 1004.6 164.186 1003.64 163.871C1002.69 163.556 1001.69 163.398 1000.63 163.398ZM1000.63 179.383C999.255 179.383 997.944 179.175 996.698 178.76C995.466 178.33 994.378 177.721 993.432 176.934C992.487 176.146 991.735 175.201 991.177 174.098C990.618 172.995 990.339 171.756 990.339 170.381C990.339 168.949 990.618 167.674 991.177 166.557C991.735 165.425 992.48 164.473 993.411 163.699C994.356 162.926 995.452 162.339 996.698 161.938C997.944 161.522 999.255 161.314 1000.63 161.314C1002.02 161.314 1003.34 161.515 1004.58 161.916C1005.83 162.317 1006.92 162.904 1007.87 163.678C1008.82 164.451 1009.56 165.404 1010.1 166.535C1010.66 167.667 1010.94 168.963 1010.94 170.424C1010.94 171.785 1010.66 173.016 1010.1 174.119C1009.55 175.222 1008.79 176.167 1007.85 176.955C1006.9 177.729 1005.81 178.33 1004.56 178.76C1003.32 179.175 1002 179.383 1000.63 179.383ZM1019.99 169.07V189.867H1017.49V148.424H1019.99V166.879H1027.12V169.07H1019.99ZM1042.37 179.232C1040.62 179.232 1039.09 178.874 1037.79 178.158C1036.5 177.442 1035.43 176.461 1034.57 175.215C1033.71 173.954 1033.06 172.472 1032.63 170.768C1032.2 169.049 1031.99 167.187 1031.99 165.182C1031.99 163.176 1032.2 161.314 1032.63 159.596C1033.06 157.877 1033.71 156.395 1034.57 155.148C1035.43 153.888 1036.5 152.907 1037.79 152.205C1039.09 151.489 1040.62 151.131 1042.37 151.131C1043.43 151.131 1044.41 151.274 1045.31 151.561C1046.21 151.833 1047.03 152.227 1047.76 152.742C1048.5 153.258 1049.16 153.881 1049.73 154.611C1050.31 155.342 1050.8 156.158 1051.22 157.061H1061.21V148.424H1063.7V189.867H1061.21V173.561H1051.09C1050.26 175.308 1049.11 176.69 1047.65 177.707C1046.2 178.724 1044.44 179.232 1042.37 179.232ZM1042.37 153.236C1040.99 153.236 1039.8 153.559 1038.8 154.203C1037.8 154.833 1036.97 155.7 1036.33 156.803C1035.68 157.891 1035.2 159.159 1034.89 160.605C1034.59 162.052 1034.44 163.577 1034.44 165.182C1034.44 166.771 1034.59 168.29 1034.89 169.736C1035.2 171.169 1035.68 172.436 1036.33 173.539C1036.97 174.628 1037.8 175.501 1038.8 176.16C1039.8 176.805 1040.99 177.127 1042.37 177.127C1043.75 177.127 1044.94 176.805 1045.93 176.16C1046.93 175.501 1047.76 174.62 1048.4 173.518C1049.05 172.415 1049.52 171.147 1049.82 169.715C1050.14 168.268 1050.29 166.757 1050.29 165.182C1050.29 163.506 1050.14 161.945 1049.84 160.498C1049.54 159.037 1049.07 157.77 1048.42 156.695C1047.78 155.621 1046.96 154.776 1045.95 154.16C1044.95 153.544 1043.75 153.236 1042.37 153.236ZM1051.99 159.166C1052.51 160.971 1052.76 162.976 1052.76 165.182C1052.76 166.327 1052.69 167.423 1052.55 168.469C1052.41 169.514 1052.19 170.51 1051.9 171.455H1061.21V159.166H1051.99ZM1114 161.766V172.551H1111.51V148.424H1114V159.574H1120.19V161.766H1114ZM1111.51 189.889V176.955H1087.53V174.785H1114V189.889H1111.51ZM1100.03 152.441H1086.48V166.771H1100.03V152.441ZM1084.03 168.898V150.314H1102.48V168.898H1084.03ZM1144.18 177.922C1142.16 178.122 1139.63 178.273 1136.61 178.373C1133.61 178.459 1130.21 178.502 1126.43 178.502V152.162H1142.16V154.332H1128.92V176.354H1132.79C1133.59 176.354 1134.51 176.339 1135.54 176.311C1136.57 176.282 1137.6 176.246 1138.63 176.203C1139.68 176.16 1140.67 176.11 1141.62 176.053C1142.56 175.981 1143.36 175.91 1144 175.838L1144.18 177.922ZM1156.14 189.867V167.91H1149.98V188.557H1147.51V149.283H1149.98V165.762H1156.14V148.424H1158.63V189.867H1156.14ZM1165.33 181.531V179.361H1193.52C1193.82 177.027 1194.05 174.671 1194.2 172.293C1194.38 169.901 1194.46 167.48 1194.46 165.031V154.611H1171.11V152.441H1196.98V163.742C1196.98 165.891 1196.9 168.247 1196.74 170.811C1196.58 173.36 1196.32 176.21 1195.97 179.361H1203.57V181.531H1165.33ZM1239.85 189.889V168.941H1233.73V188.578H1231.28V149.283H1233.73V166.771H1239.89V148.424H1242.36V189.889H1239.85ZM1209.56 165.031H1222.55V154.375H1209.56V152.248H1225.05V167.115H1212.05V178.266C1214.38 178.266 1216.38 178.251 1218.04 178.223C1219.7 178.18 1221.14 178.13 1222.34 178.072C1223.54 178.001 1224.57 177.915 1225.43 177.814C1226.29 177.7 1227.1 177.571 1227.86 177.428L1228.21 179.469C1227.65 179.583 1227.05 179.684 1226.42 179.77C1225.81 179.855 1225.11 179.934 1224.34 180.006C1223.58 180.063 1222.73 180.12 1221.78 180.178C1220.85 180.221 1219.78 180.264 1218.58 180.307C1217.39 180.335 1216.05 180.357 1214.56 180.371C1213.07 180.385 1211.4 180.393 1209.56 180.393V165.031ZM1252.9 152.441H1283.2V154.611H1252.9V152.441ZM1276.67 169.393H1283.71V171.562H1252.39V169.393H1259.33L1258.79 157.469H1261.24L1261.8 169.393H1274.24L1274.95 157.469H1277.37L1276.67 169.393ZM1248.93 183.143V180.973H1287.17V183.143H1248.93ZM1290.73 169.994V167.953H1328.97V169.994H1290.73ZM1322.81 174.42V182.799H1299.34V187.354H1323.92V189.395H1296.85V180.844H1320.31V176.461H1296.85V174.42H1322.81ZM1297.02 163.699V155.299H1320.18V151.174H1297.02V149.133H1322.68V157.254H1299.52V161.658H1323.66V163.699H1297.02ZM1369.9 172.852C1368.64 172.938 1366.89 173.023 1364.64 173.109C1362.39 173.181 1359.71 173.26 1356.6 173.346C1353.61 173.417 1350.99 173.475 1348.74 173.518C1346.51 173.561 1344.63 173.582 1343.11 173.582L1342.88 171.455C1347.2 171.455 1351.19 171.412 1354.84 171.326V166.234C1353.48 166.134 1352.24 165.862 1351.13 165.418C1350.01 164.96 1349.05 164.372 1348.25 163.656C1347.44 162.94 1346.82 162.117 1346.38 161.186C1345.95 160.24 1345.73 159.216 1345.73 158.113C1345.73 156.939 1345.98 155.85 1346.49 154.848C1346.99 153.845 1347.69 152.979 1348.59 152.248C1349.51 151.518 1350.6 150.952 1351.86 150.551C1353.13 150.135 1354.53 149.928 1356.05 149.928C1357.56 149.928 1358.96 150.135 1360.24 150.551C1361.51 150.952 1362.61 151.518 1363.52 152.248C1364.45 152.979 1365.17 153.845 1365.67 154.848C1366.19 155.85 1366.44 156.939 1366.44 158.113C1366.44 159.202 1366.22 160.219 1365.78 161.164C1365.35 162.095 1364.73 162.919 1363.93 163.635C1363.13 164.337 1362.17 164.917 1361.05 165.375C1359.93 165.833 1358.7 166.12 1357.36 166.234V171.219C1358.56 171.19 1359.78 171.161 1361.01 171.133C1362.25 171.09 1363.44 171.054 1364.55 171.025C1365.67 170.982 1366.68 170.947 1367.58 170.918C1368.49 170.875 1369.21 170.839 1369.75 170.811L1369.9 172.852ZM1356.05 151.926C1354.71 151.926 1353.55 152.112 1352.57 152.484C1351.58 152.842 1350.75 153.315 1350.09 153.902C1349.45 154.475 1348.96 155.134 1348.63 155.879C1348.32 156.624 1348.16 157.368 1348.16 158.113C1348.16 158.858 1348.32 159.596 1348.63 160.326C1348.96 161.057 1349.46 161.715 1350.12 162.303C1350.77 162.876 1351.59 163.341 1352.57 163.699C1353.55 164.057 1354.71 164.236 1356.05 164.236C1357.38 164.236 1358.55 164.064 1359.55 163.721C1360.55 163.363 1361.38 162.897 1362.04 162.324C1362.7 161.751 1363.19 161.1 1363.52 160.369C1363.85 159.624 1364.02 158.872 1364.02 158.113C1364.02 157.34 1363.85 156.588 1363.52 155.857C1363.19 155.113 1362.7 154.454 1362.04 153.881C1361.38 153.294 1360.55 152.821 1359.55 152.463C1358.56 152.105 1357.39 151.926 1356.05 151.926ZM1375.53 165.332V179.297H1373.04V148.424H1375.53V163.184H1381.91V165.332H1375.53ZM1349.79 188.814V177.385H1352.29V186.645H1376.63V188.814H1349.79ZM1415.74 172.572V159.295H1406.57V157.168H1415.74V148.424H1418.23V172.572H1415.74ZM1405.58 175.688C1403.88 175.688 1402.34 175.824 1400.96 176.096C1399.6 176.354 1398.44 176.733 1397.48 177.234C1396.54 177.721 1395.8 178.323 1395.29 179.039C1394.77 179.741 1394.52 180.543 1394.52 181.445C1394.52 182.348 1394.77 183.157 1395.29 183.873C1395.8 184.589 1396.54 185.198 1397.5 185.699C1398.46 186.186 1399.62 186.559 1400.98 186.816C1402.34 187.074 1403.88 187.203 1405.58 187.203C1407.28 187.203 1408.82 187.074 1410.18 186.816C1411.55 186.559 1412.71 186.186 1413.66 185.699C1414.62 185.198 1415.36 184.589 1415.87 183.873C1416.39 183.157 1416.64 182.348 1416.64 181.445C1416.64 180.543 1416.39 179.741 1415.87 179.039C1415.36 178.323 1414.62 177.721 1413.66 177.234C1412.71 176.733 1411.55 176.354 1410.18 176.096C1408.82 175.824 1407.28 175.688 1405.58 175.688ZM1405.58 189.287C1403.33 189.287 1401.35 189.094 1399.65 188.707C1397.96 188.32 1396.55 187.776 1395.42 187.074C1394.29 186.372 1393.43 185.549 1392.86 184.604C1392.3 183.644 1392.02 182.591 1392.02 181.445C1392.02 180.314 1392.3 179.268 1392.86 178.309C1393.43 177.349 1394.29 176.518 1395.42 175.816C1396.55 175.115 1397.96 174.57 1399.65 174.184C1401.35 173.797 1403.33 173.604 1405.58 173.604C1407.83 173.604 1409.8 173.797 1411.49 174.184C1413.19 174.57 1414.61 175.115 1415.74 175.816C1416.87 176.518 1417.72 177.349 1418.28 178.309C1418.85 179.268 1419.14 180.314 1419.14 181.445C1419.14 182.591 1418.85 183.644 1418.28 184.604C1417.72 185.549 1416.87 186.372 1415.74 187.074C1414.61 187.776 1413.19 188.32 1411.49 188.707C1409.8 189.094 1407.83 189.287 1405.58 189.287ZM1406.83 169.736C1405.88 169.235 1404.91 168.619 1403.93 167.889C1402.94 167.158 1402 166.349 1401.11 165.461C1400.24 164.573 1399.44 163.628 1398.73 162.625C1398.02 161.622 1397.47 160.598 1397.05 159.553C1396.66 160.656 1396.13 161.758 1395.44 162.861C1394.75 163.95 1393.97 164.995 1393.1 165.998C1392.22 166.986 1391.28 167.903 1390.26 168.748C1389.26 169.593 1388.24 170.316 1387.21 170.918L1385.3 169.092C1386.67 168.404 1387.99 167.523 1389.25 166.449C1390.51 165.361 1391.62 164.158 1392.58 162.84C1393.56 161.508 1394.33 160.09 1394.9 158.586C1395.49 157.082 1395.78 155.549 1395.78 153.988V149.799H1398.23V153.795C1398.23 155.327 1398.52 156.81 1399.09 158.242C1399.68 159.674 1400.45 161.007 1401.41 162.238C1402.37 163.456 1403.47 164.544 1404.72 165.504C1405.97 166.449 1407.26 167.208 1408.59 167.781L1406.83 169.736ZM1426.54 158.178V156.051H1435.86V149.498H1438.38V156.051H1447.7V158.178H1426.54ZM1437.24 163.871C1436.29 163.871 1435.41 164.036 1434.58 164.365C1433.76 164.68 1433.05 165.139 1432.45 165.74C1431.85 166.342 1431.37 167.065 1431.03 167.91C1430.69 168.755 1430.51 169.693 1430.51 170.725C1430.51 171.785 1430.69 172.737 1431.03 173.582C1431.37 174.427 1431.85 175.15 1432.45 175.752C1433.06 176.339 1433.78 176.798 1434.6 177.127C1435.41 177.442 1436.29 177.6 1437.24 177.6C1438.18 177.6 1439.07 177.442 1439.88 177.127C1440.7 176.798 1441.4 176.339 1441.99 175.752C1442.59 175.15 1443.05 174.427 1443.38 173.582C1443.73 172.737 1443.9 171.785 1443.9 170.725C1443.9 169.693 1443.73 168.762 1443.38 167.932C1443.04 167.087 1442.57 166.363 1441.97 165.762C1441.36 165.16 1440.66 164.695 1439.84 164.365C1439.04 164.036 1438.17 163.871 1437.24 163.871ZM1437.24 179.684C1436.01 179.684 1434.84 179.476 1433.74 179.061C1432.63 178.645 1431.67 178.051 1430.84 177.277C1430.01 176.504 1429.35 175.566 1428.86 174.463C1428.39 173.36 1428.15 172.114 1428.15 170.725C1428.15 169.335 1428.4 168.089 1428.88 166.986C1429.37 165.869 1430.03 164.931 1430.86 164.172C1431.69 163.398 1432.65 162.811 1433.74 162.41C1434.84 161.995 1436.01 161.787 1437.24 161.787C1438.46 161.787 1439.61 161.995 1440.7 162.41C1441.8 162.811 1442.76 163.398 1443.58 164.172C1444.41 164.931 1445.06 165.869 1445.53 166.986C1446.02 168.089 1446.26 169.335 1446.26 170.725C1446.26 172.114 1446.03 173.367 1445.55 174.484C1445.08 175.587 1444.44 176.525 1443.62 177.299C1442.8 178.072 1441.84 178.667 1440.74 179.082C1439.65 179.483 1438.49 179.684 1437.24 179.684ZM1459.3 189.867V169.199H1453.65V188.557H1451.18V149.283H1453.65V167.051H1459.3V148.424H1461.8V189.867H1459.3ZM1473.37 161.68C1473.37 159.99 1473.74 158.507 1474.48 157.232C1475.24 155.958 1476.26 154.898 1477.54 154.053C1478.81 153.193 1480.29 152.549 1481.96 152.119C1483.64 151.689 1485.39 151.475 1487.22 151.475C1489.06 151.475 1490.81 151.689 1492.47 152.119C1494.14 152.549 1495.61 153.193 1496.87 154.053C1498.15 154.912 1499.16 155.979 1499.9 157.254C1500.66 158.529 1501.04 160.004 1501.04 161.68C1501.04 163.47 1500.61 165.038 1499.75 166.385C1498.91 167.731 1497.77 168.841 1496.36 169.715V180.994H1506.35V183.164H1468.1V180.994H1478.09V169.758C1476.65 168.884 1475.49 167.774 1474.64 166.428C1473.79 165.067 1473.37 163.484 1473.37 161.68ZM1475.82 161.68C1475.82 162.883 1476.08 163.993 1476.61 165.01C1477.14 166.027 1477.9 166.908 1478.89 167.652C1479.88 168.383 1481.07 168.956 1482.48 169.371C1483.88 169.772 1485.46 169.973 1487.22 169.973C1488.97 169.973 1490.55 169.765 1491.95 169.35C1493.36 168.934 1494.54 168.361 1495.52 167.631C1496.51 166.9 1497.27 166.027 1497.8 165.01C1498.33 163.993 1498.59 162.883 1498.59 161.68C1498.59 160.491 1498.33 159.402 1497.8 158.414C1497.27 157.411 1496.51 156.552 1495.52 155.836C1494.53 155.105 1493.33 154.54 1491.93 154.139C1490.53 153.738 1488.96 153.537 1487.22 153.537C1485.48 153.537 1483.9 153.738 1482.5 154.139C1481.09 154.525 1479.9 155.084 1478.91 155.814C1477.92 156.531 1477.16 157.39 1476.61 158.393C1476.08 159.381 1475.82 160.477 1475.82 161.68ZM1493.86 180.994V170.918C1491.83 171.663 1489.62 172.035 1487.22 172.035C1486.02 172.035 1484.86 171.949 1483.74 171.777C1482.63 171.591 1481.57 171.312 1480.59 170.939V180.994H1493.86ZM1511.99 186.451C1511.41 186.451 1510.93 186.243 1510.53 185.828C1510.14 185.398 1509.95 184.919 1509.95 184.389C1509.95 183.816 1510.14 183.336 1510.53 182.949C1510.91 182.562 1511.4 182.369 1511.99 182.369C1512.56 182.369 1513.04 182.562 1513.43 182.949C1513.83 183.336 1514.03 183.816 1514.03 184.389C1514.03 184.962 1513.83 185.449 1513.43 185.85C1513.04 186.251 1512.56 186.451 1511.99 186.451Z" fill="#3C1400"/>
<g clip-path="url(#clip0_2042_40901)">
<g clip-path="url(#clip1_2042_40901)">
<path d="M187.05 204.45C185.94 204.446 184.833 204.567 183.75 204.81V163.5H168.45V220.26H202.83C202.834 218.185 202.429 216.13 201.638 214.212C200.846 212.294 199.685 210.551 198.219 209.082C196.753 207.614 195.012 206.449 193.096 205.654C191.179 204.859 189.125 204.45 187.05 204.45Z" fill="#F3A9C9"/>
<path d="M142.83 161.58L128.73 200.4C127.789 199.797 126.783 199.304 125.73 198.93C121.791 197.5 117.446 197.692 113.649 199.464C109.852 201.236 106.914 204.443 105.48 208.38L123.48 214.89L135.18 219.18L137.85 220.14L157.26 166.83L142.83 161.58Z" fill="#F3A9C9"/>
<path d="M134.43 53.5197L90.5098 174C89.9764 175.41 89.8265 176.936 90.0756 178.423C90.3247 179.909 90.9638 181.303 91.9276 182.462C92.8915 183.621 94.1456 184.504 95.562 185.02C96.9783 185.536 98.5063 185.667 99.9898 185.4L226.38 163.11C227.85 162.854 229.228 162.214 230.372 161.256C231.517 160.298 232.389 159.055 232.9 157.653C233.411 156.25 233.544 154.737 233.284 153.267C233.024 151.797 232.381 150.422 231.42 149.28L148.92 50.9997C147.962 49.8559 146.721 48.9845 145.319 48.4733C143.918 47.962 142.407 47.829 140.938 48.0875C139.469 48.346 138.094 48.987 136.951 49.9459C135.809 50.9048 134.939 52.1478 134.43 53.5497" fill="#F3A9C9"/>
<path d="M118.41 114C118.078 112.096 118.318 110.136 119.099 108.367C119.88 106.599 121.168 105.102 122.8 104.065C124.432 103.029 126.334 102.499 128.267 102.543C130.199 102.586 132.076 103.202 133.659 104.312C135.242 105.422 136.46 106.976 137.161 108.778C137.861 110.58 138.011 112.549 137.593 114.436C137.175 116.323 136.206 118.045 134.811 119.382C133.415 120.719 131.654 121.613 129.75 121.95C128.483 122.175 127.185 122.147 125.929 121.868C124.673 121.59 123.484 121.067 122.431 120.328C121.377 119.59 120.48 118.651 119.79 117.565C119.1 116.479 118.631 115.268 118.41 114Z" fill="white"/>
<path d="M166.05 105.66C165.717 103.754 165.956 101.792 166.738 100.022C167.52 98.2526 168.809 96.7546 170.442 95.7177C172.075 94.6807 173.98 94.1515 175.914 94.197C177.848 94.2425 179.725 94.8607 181.308 95.9732C182.891 97.0858 184.108 98.6428 184.806 100.447C185.503 102.252 185.65 104.223 185.228 106.111C184.805 107.999 183.832 109.719 182.431 111.054C181.031 112.389 179.266 113.278 177.36 113.61C176.095 113.834 174.798 113.806 173.544 113.527C172.29 113.248 171.104 112.724 170.053 111.986C169.002 111.247 168.107 110.308 167.42 109.222C166.733 108.136 166.268 106.926 166.05 105.66Z" fill="white"/>
<path d="M122.43 34.2896C124.77 40.7396 134.43 46.9196 139.29 50.4896C139.581 50.702 139.921 50.8392 140.278 50.889C140.635 50.9387 140.999 50.8995 141.337 50.7749C141.675 50.6502 141.978 50.444 142.217 50.1744C142.457 49.9048 142.626 49.5803 142.71 49.2296C144.18 43.2296 147.66 32.6696 145.23 25.9796C144.684 24.4825 143.849 23.1076 142.772 21.9333C141.695 20.759 140.397 19.8083 138.953 19.1355C136.036 17.7768 132.698 17.6326 129.675 18.7346C126.651 19.8365 124.19 22.0945 122.831 25.0116C121.472 27.9287 121.328 31.2661 122.43 34.2896Z" fill="#231815"/>
<path d="M98.76 220.14C98.0634 220.086 97.3633 220.177 96.7035 220.407C96.0437 220.637 95.4384 221 94.9258 221.475C94.4132 221.949 94.0041 222.525 93.7244 223.165C93.4447 223.805 93.3003 224.496 93.3003 225.195C93.3003 225.894 93.4447 226.585 93.7244 227.225C94.0041 227.865 94.4132 228.441 94.9258 228.915C95.4384 229.39 96.0437 229.753 96.7035 229.983C97.3633 230.213 98.0634 230.304 98.76 230.25H206.46C207.157 230.304 207.857 230.213 208.517 229.983C209.176 229.753 209.782 229.39 210.294 228.915C210.807 228.441 211.216 227.865 211.496 227.225C211.775 226.585 211.92 225.894 211.92 225.195C211.92 224.496 211.775 223.805 211.496 223.165C211.216 222.525 210.807 221.949 210.294 221.475C209.782 221 209.176 220.637 208.517 220.407C207.857 220.177 207.157 220.086 206.46 220.14H98.76Z" fill="#FFE329"/>
<path d="M135.84 101.19C135.655 100.157 135.783 99.0918 136.207 98.1313C136.63 97.1708 137.33 96.3583 138.218 95.7976C139.105 95.237 140.14 94.9536 141.189 94.9836C142.238 95.0137 143.255 95.3558 144.109 95.9664C144.963 96.5769 145.615 97.4282 145.983 98.4114C146.351 99.3946 146.417 100.465 146.174 101.486C145.93 102.507 145.388 103.433 144.616 104.144C143.844 104.855 142.878 105.321 141.84 105.48C140.477 105.698 139.083 105.369 137.96 104.566C136.837 103.763 136.075 102.55 135.84 101.19Z" fill="#231815"/>
<path d="M153.81 98.0397C153.625 97.0064 153.753 95.9414 154.176 94.9809C154.6 94.0204 155.3 93.2079 156.188 92.6472C157.075 92.0866 158.109 91.8032 159.159 91.8332C160.208 91.8633 161.225 92.2054 162.079 92.816C162.932 93.4265 163.585 94.2778 163.953 95.261C164.321 96.2442 164.387 97.3147 164.144 98.3358C163.9 99.3569 163.358 100.282 162.586 100.994C161.814 101.705 160.847 102.17 159.81 102.33C158.448 102.539 157.058 102.208 155.937 101.406C154.815 100.605 154.052 99.3964 153.81 98.0397Z" fill="#231815"/>
<path d="M147.48 117.51C143.087 117.691 138.74 116.552 135 114.24C134.659 113.956 134.441 113.551 134.389 113.111C134.336 112.67 134.455 112.226 134.719 111.869C134.984 111.513 135.374 111.271 135.811 111.193C136.248 111.115 136.698 111.207 137.07 111.45C141.791 114.107 147.343 114.879 152.61 113.61C158.003 113.006 162.966 110.379 166.5 106.26C166.754 105.863 167.157 105.582 167.618 105.481C168.079 105.38 168.562 105.466 168.96 105.72C169.358 105.975 169.638 106.377 169.739 106.839C169.841 107.3 169.754 107.783 169.5 108.18C169.32 108.45 164.91 114.96 153.33 117C151.428 117.333 149.501 117.504 147.57 117.51" fill="#231815"/>
<path d="M155.76 105.9C155.61 105.04 155.208 104.244 154.605 103.612C154.002 102.981 153.226 102.543 152.374 102.353C151.522 102.164 150.632 102.231 149.819 102.547C149.005 102.864 148.304 103.414 147.803 104.129C147.302 104.844 147.025 105.692 147.007 106.564C146.988 107.437 147.229 108.296 147.699 109.031C148.169 109.767 148.846 110.347 149.646 110.697C150.445 111.048 151.331 111.153 152.19 111C153.339 110.795 154.36 110.143 155.029 109.187C155.698 108.231 155.961 107.049 155.76 105.9Z" fill="#EA5504"/>
</g>
</g>
<defs>
<clipPath id="clip0_2042_40901">
<rect width="150" height="220" fill="white" transform="translate(87 10)"/>
</clipPath>
<clipPath id="clip1_2042_40901">
<rect width="143.43" height="212.25" fill="white" transform="translate(90 18)"/>
</clipPath>
</defs>
</svg>
