<svg width="1267" height="103" viewBox="0 0 1267 103" fill="none" xmlns="http://www.w3.org/2000/svg">
<path d="M611.023 77.4452C608.948 77.964 607.068 76.0844 607.587 74.0093L610.449 62.5628L622.47 74.5836L611.023 77.4452Z" fill="#DFE3ED"/>
<path d="M624.473 72.5801L652.522 44.5315L640.501 32.5107L612.452 60.5593L624.473 72.5801Z" fill="#DFE3ED"/>
<path d="M654.525 42.5281L642.504 30.5073L648.515 24.4969C649.621 23.3904 651.415 23.3904 652.522 24.4969L660.536 32.5107C661.642 33.6172 661.642 35.4112 660.536 36.5177L654.525 42.5281Z" fill="#DFE3ED"/>
<rect x="35" y="2" width="1197" height="99" rx="10" stroke="#A1C8EB" stroke-width="3"/>
<path d="M1246 30C1251.57 30 1256.91 32.2652 1260.85 36.2972C1264.79 40.3292 1267 45.7978 1267 51.5C1267 57.2022 1264.79 62.6708 1260.85 66.7028C1256.91 70.7348 1251.57 73 1246 73V30Z" fill="#F7C7C8"/>
<path d="M21 30C15.4305 30 10.089 32.2652 6.15076 36.2972C2.21249 40.3292 0 45.7978 0 51.5C0 57.2022 2.21249 62.6708 6.15076 66.7028C10.089 70.7348 15.4305 73 21 73V30Z" fill="#F7C7C8"/>
</svg>
