<svg width="1652" height="541" viewBox="0 0 1652 541" fill="none" xmlns="http://www.w3.org/2000/svg">
<path d="M1648.04 400.84V502.88C1648.04 521.6 1632.72 536.88 1614.04 536.88H38C19.28 536.88 4 521.56 4 502.88V400.84" fill="#D8E58F"/>
<path d="M38 4.00049C19.28 4.00049 4 19.3205 4 38.0005V502.88C4 513.88 9.32 523.68 17.48 529.92L287.48 400.521V4.00049H38Z" fill="#ECF3CB"/>
<path d="M287.4 344.16H1648.04" stroke="#727171" stroke-width="1.2" stroke-miterlimit="10" stroke-dasharray="2 2"/>
<path d="M287.4 287.48H1648.04" stroke="#727171" stroke-width="1.2" stroke-miterlimit="10" stroke-dasharray="2 2"/>
<path d="M287.4 230.8H1648.04" stroke="#727171" stroke-width="1.2" stroke-miterlimit="10" stroke-dasharray="2 2"/>
<path d="M287.4 174.08H1648.04" stroke="#727171" stroke-width="1.2" stroke-miterlimit="10" stroke-dasharray="2 2"/>
<path d="M287.4 117.4H1648.04" stroke="#9FA0A0" stroke-width="2" stroke-miterlimit="10"/>
<path d="M287.4 60.7202H1648.04" stroke="#727171" stroke-width="1.2" stroke-miterlimit="10" stroke-dasharray="2 2"/>
<path d="M515 538.92V6" stroke="#9FA0A0" stroke-width="2" stroke-miterlimit="10"/>
<path d="M287.4 536.92V4" stroke="#9FA0A0" stroke-width="2" stroke-miterlimit="10"/>
<path d="M743 538.5V5.57983" stroke="#9FA0A0" stroke-width="2" stroke-miterlimit="10"/>
<path d="M743 538.5V5.58008" stroke="#9FA0A0" stroke-width="2" stroke-miterlimit="10"/>
<path d="M742 538.5V5.58008" stroke="#9FA0A0" stroke-width="2" stroke-miterlimit="10"/>
<path d="M969 539.92V7" stroke="#9FA0A0" stroke-width="2" stroke-miterlimit="10"/>
<path d="M1423 536.92V4" stroke="#9FA0A0" stroke-width="2" stroke-miterlimit="10"/>
<path d="M1196 538.92V6" stroke="#9FA0A0" stroke-width="2" stroke-miterlimit="10"/>
<path d="M5.2002 400.84H1648.04" stroke="#9FA0A0" stroke-width="2" stroke-miterlimit="10"/>
<path d="M287.44 400.84L17.48 529.92" stroke="#9FA0A0" stroke-width="2" stroke-miterlimit="10"/>
<path d="M1648.04 38.04V502.92C1648.04 521.64 1632.72 536.92 1614.04 536.92H38.04C19.32 536.92 4.04004 521.6 4.04004 502.92V38.04" stroke="#D8E58F" stroke-width="6.8"/>
<path d="M4 38.0405C4 19.3205 19.32 4.04053 38 4.04053H1614C1632.72 4.04053 1648 19.3605 1648 38.0405" stroke="#D8E58F" stroke-width="6.8"/>
</svg>
