<svg width="248" height="118" viewBox="0 0 248 118" fill="none" xmlns="http://www.w3.org/2000/svg">
<g filter="url(#filter0_dii_2039_11061)">
<rect x="4" width="240" height="110" rx="40" fill="#809A3A" fill-opacity="0.1" shape-rendering="crispEdges"/>
<path d="M62.4473 34.6631V40.7861H58.7559V24.3799H62.4473V31.5869H66.7246V34.6631H62.4473ZM40.8994 38.457V25.7568H54.127V38.457H40.8994ZM50.4941 28.8184H44.5615V35.3955H50.4941V28.8184ZM58.7852 52.6367V45.0781H43.9023V41.9873H62.4473V52.6367H58.7852ZM89.0869 52.6367V38.5156H86.5234V51.8018H82.9053V24.9512H86.5234V35.4248H89.0869V24.3799H92.7344V52.6367H89.0869ZM81.2207 44.3018C78.3594 44.624 74.3604 44.7852 69.2236 44.7852V26.7822H80.3564V29.873H72.8271V41.6943H74.4531C76.748 41.6943 78.916 41.5625 80.957 41.2988L81.2207 44.3018ZM122.86 47.8027C120.38 47.832 118.388 47.8467 116.884 47.8467H113.368L96.6396 47.8027V44.7852H114.394C114.833 41.9531 115.053 38.6621 115.053 34.9121V30.1367H100.155V27.1045H118.744V33.8867C118.744 37.2363 118.505 40.8691 118.026 44.7852H122.86V47.8027ZM146.087 52.6367V39.2041H143.802V51.8018H140.198V24.9512H143.802V36.1133H146.087V24.3799H149.705V52.6367H146.087ZM138.997 45.415C137.093 45.7471 134.432 45.9131 131.014 45.9131H126.224V34.165H133.782V29.3896H126.224V26.2988H137.444V37.1826H129.886V42.8369H132.493C135.384 42.8369 137.444 42.7051 138.675 42.4414L138.997 45.415ZM156.247 29.873V26.8408H177.253V29.873H156.247ZM156.042 41.0645V38.0322H160.056L159.733 31.1328H163.396L163.63 38.0322H169.841L170.104 31.1328H173.767L173.356 38.0322H177.458V41.0645H156.042ZM153.64 48.7988V45.7373H179.86V48.7988H153.64ZM182.14 48.8281V45.7666H193.419V41.8115H185.86V32.7148H200.831V29.873H185.919V26.8408H204.522V35.6592H189.552V38.7793H205.27V41.8115H197.081V45.7666H208.36V48.8281H182.14ZM57.4404 74.2666V88.6367H53.7783V60.3799H57.4404V71.1758H61.9961V74.2666H57.4404ZM52.5771 79.7891C50.6826 80.248 47.0205 80.4775 41.5908 80.4775H36.7422V62.6064H40.3896V77.3574L44.96 77.3867C47.792 77.4062 50.1797 77.1865 52.123 76.7275L52.5771 79.7891ZM86.0869 74.1787V88.6367H82.4248V60.3799H86.0869V71.0879H90.8037V74.1787H86.0869ZM68.7139 73.1533V77.7822H70.1641C74.8906 77.7822 78.2695 77.6406 80.3008 77.3574L80.623 80.3896C78.4453 80.6924 74.7783 80.8438 69.6221 80.8438H65.0518V62.7822H78.8213V65.873H68.7139V70.1943H77.8105V73.1533H68.7139ZM112.756 88.6367V74.5156H110.178V87.8018H106.545V60.9512H110.178V71.4248H112.756V60.3799H116.418V88.6367H112.756ZM105.461 79.7598C104.084 80.0039 102.727 80.1602 101.389 80.2285C100.061 80.2969 97.5117 80.3311 93.7422 80.3311V62.6064H97.3604V77.2402C100.319 77.2402 102.893 77.0791 105.08 76.7568L105.461 79.7598ZM124.601 71V61.7861H128.292V67.8799H143.233V71H124.601ZM120.616 77.0645V73.9736H146.837V77.0645H120.616ZM124.454 87.4355V79.0713H128.146V84.3447H143.351V87.4355H124.454ZM180.927 70.3994V76.874H177.25V60.3799H180.927V67.3086H185.219V70.3994H180.927ZM159.394 74.8379V61.6104H163.056V65.4775H169.237V61.6104H172.87V74.8379H159.394ZM169.237 68.5684H163.056V71.7764H169.237V68.5684ZM171.962 88.5195C168.964 88.5195 166.645 88.002 165.004 86.9668C163.363 85.9414 162.543 84.5791 162.543 82.8799C162.543 81.1904 163.373 79.8379 165.033 78.8223C166.693 77.8066 169.003 77.2988 171.962 77.2988C174.931 77.2988 177.24 77.8066 178.891 78.8223C180.551 79.8281 181.381 81.1807 181.381 82.8799C181.381 84.5889 180.556 85.9561 178.905 86.9814C177.265 88.0068 174.95 88.5195 171.962 88.5195ZM171.962 80.3604C168.222 80.3604 166.352 81.2002 166.352 82.8799C166.352 84.5986 168.222 85.458 171.962 85.458C175.722 85.458 177.602 84.5986 177.602 82.8799C177.602 81.2002 175.722 80.3604 171.962 80.3604ZM188.128 74.0908V61.3027H191.731V65.0967H198.089V61.3027H201.722V66.2832H207.215V60.3799H210.818V75.6143H207.215V69.4033H201.722V74.0908H188.128ZM198.089 68.1729H191.731V71.0293H198.089V68.1729ZM192.698 88.0361V76.8154H196.287V79.6426H207.215V76.8154H210.789V88.0361H192.698ZM207.215 82.7041H196.287V85.0332H207.215V82.7041Z" fill="#3C5300" fill-opacity="0.4"/>
</g>
<defs>
<filter id="filter0_dii_2039_11061" x="0" y="-4" width="248" height="122" filterUnits="userSpaceOnUse" color-interpolation-filters="sRGB">
<feFlood flood-opacity="0" result="BackgroundImageFix"/>
<feColorMatrix in="SourceAlpha" type="matrix" values="0 0 0 0 0 0 0 0 0 0 0 0 0 0 0 0 0 0 127 0" result="hardAlpha"/>
<feOffset dy="4"/>
<feGaussianBlur stdDeviation="2"/>
<feComposite in2="hardAlpha" operator="out"/>
<feColorMatrix type="matrix" values="0 0 0 0 1 0 0 0 0 1 0 0 0 0 1 0 0 0 0.4 0"/>
<feBlend mode="normal" in2="BackgroundImageFix" result="effect1_dropShadow_2039_11061"/>
<feBlend mode="normal" in="SourceGraphic" in2="effect1_dropShadow_2039_11061" result="shape"/>
<feColorMatrix in="SourceAlpha" type="matrix" values="0 0 0 0 0 0 0 0 0 0 0 0 0 0 0 0 0 0 127 0" result="hardAlpha"/>
<feOffset dy="-4"/>
<feGaussianBlur stdDeviation="2"/>
<feComposite in2="hardAlpha" operator="arithmetic" k2="-1" k3="1"/>
<feColorMatrix type="matrix" values="0 0 0 0 1 0 0 0 0 1 0 0 0 0 1 0 0 0 0.2 0"/>
<feBlend mode="normal" in2="shape" result="effect2_innerShadow_2039_11061"/>
<feColorMatrix in="SourceAlpha" type="matrix" values="0 0 0 0 0 0 0 0 0 0 0 0 0 0 0 0 0 0 127 0" result="hardAlpha"/>
<feOffset dy="4"/>
<feGaussianBlur stdDeviation="2"/>
<feComposite in2="hardAlpha" operator="arithmetic" k2="-1" k3="1"/>
<feColorMatrix type="matrix" values="0 0 0 0 0.283372 0 0 0 0 0.370833 0 0 0 0 0.0478993 0 0 0 0.1 0"/>
<feBlend mode="normal" in2="effect2_innerShadow_2039_11061" result="effect3_innerShadow_2039_11061"/>
</filter>
</defs>
</svg>
