<svg width="76" height="81" viewBox="0 0 76 81" fill="none" xmlns="http://www.w3.org/2000/svg">
<rect y="3" width="76" height="78" rx="15" fill="#9A9A9A"/>
<rect width="76" height="76" rx="15" fill="#FDFDFD"/>
<path d="M55.332 53.7891C52.2168 52.9583 49.0449 51.514 45.8164 49.4561C42.6068 47.3792 40.0391 45.0947 38.1133 42.6025C34.1673 47.5869 28.5033 51.3158 21.1211 53.7891L16.0801 47.2471C20.9323 46.3975 25.0387 44.5755 28.3994 41.7812C31.779 38.987 33.5915 36.3626 33.8369 33.9082L33.8936 32.9736H18.7422L18.6855 25.8369H34.29V18.8701H41.9932V25.8369H57.541V32.9736H42.1631L42.248 33.8516C42.4746 36.1738 44.2682 38.7793 47.6289 41.668C51.0085 44.5378 55.1055 46.3786 59.9199 47.1904L55.332 53.7891Z" fill="#383838"/>
</svg>
