<svg width="76" height="81" viewBox="0 0 76 81" fill="none" xmlns="http://www.w3.org/2000/svg">
<rect y="3" width="76" height="78" rx="15" fill="#9A9A9A"/>
<rect width="76" height="76" rx="15" fill="#FDFDFD"/>
<path d="M38.1699 16.293C43.0033 16.293 46.6849 18.502 49.2148 22.9199C51.4427 26.7715 52.5566 31.8503 52.5566 38.1562C52.5566 44.349 51.4427 49.3711 49.2148 53.2227C46.6849 57.6029 43.0033 59.793 38.1699 59.793C33.2988 59.793 29.5983 57.6029 27.0684 53.2227C24.8783 49.3711 23.7832 44.349 23.7832 38.1562C23.7832 31.8503 24.8783 26.7715 27.0684 22.9199C29.5983 18.502 33.2988 16.293 38.1699 16.293ZM38.1699 17.8223C34.5449 17.8223 31.7884 19.8613 29.9004 23.9395C28.2767 27.5645 27.4648 32.3034 27.4648 38.1562C27.4648 43.9336 28.2767 48.597 29.9004 52.1465C31.7884 56.2246 34.5449 58.2637 38.1699 58.2637C41.7572 58.2637 44.4948 56.2246 46.3828 52.1465C48.082 48.5592 48.9316 43.8958 48.9316 38.1562C48.9316 32.3034 48.082 27.5645 46.3828 23.9395C44.4948 19.8613 41.7572 17.8223 38.1699 17.8223Z" fill="#383838"/>
</svg>
