<svg width="1920" height="280" viewBox="0 0 1920 280" fill="none" xmlns="http://www.w3.org/2000/svg">
<rect x="177" y="112" width="1566" height="116" rx="58" fill="white"/>
<rect x="177" y="112" width="1566" height="116" rx="58" stroke="#8F3100" stroke-width="4"/>
<path d="M571.827 157H540V188.827H571.827V157Z" fill="#FEE7A1" stroke="#F8BE60" stroke-width="2.10499"/>
<path d="M784.827 157H753V188.827H784.827V157Z" fill="#F8C9BE" stroke="#F29B96" stroke-width="2.10499"/>
<path d="M259.728 184.531V182.361H287.916C288.216 180.027 288.446 177.671 288.603 175.293C288.775 172.901 288.861 170.48 288.861 168.031V157.611H265.507V155.441H291.375V166.742C291.375 168.891 291.296 171.247 291.138 173.811C290.981 176.36 290.723 179.21 290.365 182.361H297.97V184.531H259.728ZM334.249 192.889V171.941H328.126V191.578H325.677V152.283H328.126V169.771H334.292V151.424H336.763V192.889H334.249ZM303.956 168.031H316.954V157.375H303.956V155.248H319.446V170.115H306.448V181.266C308.783 181.266 310.781 181.251 312.442 181.223C314.104 181.18 315.536 181.13 316.739 181.072C317.942 181.001 318.973 180.915 319.833 180.814C320.692 180.7 321.501 180.571 322.261 180.428L322.604 182.469C322.046 182.583 321.451 182.684 320.821 182.77C320.205 182.855 319.511 182.934 318.737 183.006C317.978 183.063 317.126 183.12 316.18 183.178C315.25 183.221 314.182 183.264 312.979 183.307C311.791 183.335 310.451 183.357 308.962 183.371C307.472 183.385 305.804 183.393 303.956 183.393V168.031ZM347.303 155.441H377.596V157.611H347.303V155.441ZM371.064 172.393H378.111V174.562H346.787V172.393H353.727L353.189 160.469H355.639L356.197 172.393H368.637L369.346 160.469H371.773L371.064 172.393ZM343.328 186.143V183.973H381.57V186.143H343.328ZM427.379 170.674V192.867H424.887V151.424H427.379V168.482H434.34V170.674H427.379ZM407.442 156.236C406.067 156.236 404.878 156.559 403.875 157.203C402.873 157.833 402.049 158.7 401.405 159.803C400.76 160.891 400.28 162.159 399.965 163.605C399.664 165.052 399.514 166.577 399.514 168.182C399.514 169.771 399.664 171.29 399.965 172.736C400.28 174.169 400.76 175.436 401.405 176.539C402.049 177.628 402.873 178.501 403.875 179.16C404.878 179.805 406.067 180.127 407.442 180.127C408.831 180.127 410.02 179.805 411.008 179.16C412.011 178.501 412.834 177.62 413.479 176.518C414.123 175.415 414.596 174.147 414.897 172.715C415.212 171.268 415.37 169.757 415.37 168.182C415.37 166.506 415.219 164.945 414.918 163.498C414.618 162.037 414.145 160.77 413.5 159.695C412.856 158.621 412.032 157.776 411.03 157.16C410.027 156.544 408.831 156.236 407.442 156.236ZM407.442 182.232C405.694 182.232 404.169 181.874 402.866 181.158C401.577 180.442 400.502 179.461 399.643 178.215C398.784 176.954 398.139 175.472 397.709 173.768C397.28 172.049 397.065 170.187 397.065 168.182C397.065 166.176 397.28 164.314 397.709 162.596C398.139 160.877 398.784 159.395 399.643 158.148C400.502 156.888 401.577 155.907 402.866 155.205C404.169 154.489 405.694 154.131 407.442 154.131C409.161 154.131 410.672 154.489 411.975 155.205C413.278 155.907 414.36 156.888 415.219 158.148C416.093 159.409 416.745 160.898 417.174 162.617C417.618 164.322 417.84 166.176 417.84 168.182C417.84 170.187 417.618 172.049 417.174 173.768C416.745 175.472 416.093 176.954 415.219 178.215C414.36 179.475 413.278 180.464 411.975 181.18C410.672 181.882 409.161 182.232 407.442 182.232ZM469.824 192.889V171.941H463.701V191.578H461.252V152.283H463.701V169.771H469.867V151.424H472.338V192.889H469.824ZM439.531 168.031H452.529V157.375H439.531V155.248H455.021V170.115H442.023V181.266C444.358 181.266 446.356 181.251 448.017 181.223C449.679 181.18 451.111 181.13 452.314 181.072C453.517 181.001 454.548 180.915 455.408 180.814C456.267 180.7 457.076 180.571 457.836 180.428L458.179 182.469C457.621 182.583 457.026 182.684 456.396 182.77C455.78 182.855 455.086 182.934 454.312 183.006C453.553 183.063 452.701 183.12 451.755 183.178C450.825 183.221 449.757 183.264 448.554 183.307C447.366 183.335 446.026 183.357 444.537 183.371C443.047 183.385 441.379 183.393 439.531 183.393V168.031ZM511.237 192.867V151.424H513.729V192.867H511.237ZM478.882 182.748C480.744 182.748 482.928 182.741 485.434 182.727C487.955 182.698 490.884 182.648 494.222 182.576C497.487 182.505 500.259 182.433 502.536 182.361C504.813 182.275 506.532 182.182 507.692 182.082L507.843 184.273C507.284 184.316 506.568 184.359 505.694 184.402C504.82 184.445 503.811 184.488 502.665 184.531C501.519 184.574 500.244 184.617 498.841 184.66C497.437 184.689 495.926 184.725 494.307 184.768C490.999 184.854 488.091 184.918 485.585 184.961C483.093 184.99 480.937 185.004 479.118 185.004L478.882 182.748ZM492.782 156.688C491.651 156.688 490.576 156.874 489.559 157.246C488.542 157.604 487.647 158.12 486.874 158.793C486.115 159.466 485.506 160.275 485.048 161.221C484.604 162.166 484.382 163.219 484.382 164.379C484.382 165.611 484.604 166.706 485.048 167.666C485.506 168.611 486.115 169.413 486.874 170.072C487.647 170.731 488.542 171.232 489.559 171.576C490.576 171.906 491.651 172.07 492.782 172.07C493.914 172.07 494.988 171.906 496.005 171.576C497.022 171.232 497.91 170.731 498.669 170.072C499.442 169.413 500.051 168.611 500.495 167.666C500.953 166.706 501.182 165.611 501.182 164.379C501.182 163.219 500.953 162.166 500.495 161.221C500.051 160.275 499.442 159.466 498.669 158.793C497.91 158.12 497.022 157.604 496.005 157.246C494.988 156.874 493.914 156.688 492.782 156.688ZM492.782 174.154C491.25 174.154 489.824 173.911 488.507 173.424C487.189 172.937 486.043 172.264 485.069 171.404C484.095 170.545 483.329 169.521 482.77 168.332C482.212 167.129 481.932 165.811 481.932 164.379C481.932 162.947 482.212 161.636 482.77 160.447C483.343 159.244 484.117 158.213 485.091 157.354C486.079 156.48 487.232 155.807 488.55 155.334C489.867 154.847 491.278 154.604 492.782 154.604C494.3 154.604 495.718 154.847 497.036 155.334C498.368 155.807 499.521 156.48 500.495 157.354C501.469 158.213 502.235 159.244 502.794 160.447C503.352 161.636 503.632 162.947 503.632 164.379C503.632 165.811 503.352 167.129 502.794 168.332C502.235 169.521 501.469 170.552 500.495 171.426C499.521 172.285 498.368 172.958 497.036 173.445C495.718 173.918 494.3 174.154 492.782 174.154ZM607.801 180.922L605.523 189.129H587.691V187.754C588.494 185.176 589.997 182.583 592.203 179.977C594.237 177.57 596.471 175.479 598.906 173.703C601.083 172.042 602.559 170.466 603.332 168.977C603.991 167.745 604.32 166.212 604.32 164.379C604.32 162.116 603.69 160.426 602.43 159.309C601.284 158.306 599.68 157.805 597.617 157.805C595.669 157.805 594.108 158.163 592.934 158.879C591.702 159.624 591.086 160.712 591.086 162.145C591.086 162.803 591.158 163.333 591.301 163.734C591.387 163.992 591.53 164.279 591.73 164.594C591.902 164.823 592.003 165.009 592.031 165.152C592.146 165.353 592.203 165.611 592.203 165.926C592.203 166.613 591.988 167.129 591.559 167.473C591.215 167.788 590.785 167.945 590.27 167.945C589.668 167.945 589.181 167.602 588.809 166.914C588.465 166.255 588.293 165.424 588.293 164.422C588.293 162.474 589.052 160.755 590.57 159.266C592.375 157.547 594.796 156.688 597.832 156.688C601.04 156.688 603.418 157.404 604.965 158.836C606.454 160.182 607.199 162.202 607.199 164.895C607.199 167.1 606.54 169.105 605.223 170.91C603.991 172.629 601.842 174.562 598.777 176.711C596.6 178.201 594.81 179.647 593.406 181.051C591.602 182.798 590.27 184.66 589.41 186.637H600.238C601.9 186.637 603.189 186.279 604.105 185.562C605.108 184.674 606.082 183.056 607.027 180.707L607.801 180.922ZM621.413 156.602C625.08 156.602 627.873 158.277 629.792 161.629C631.482 164.551 632.327 168.404 632.327 173.188C632.327 177.885 631.482 181.695 629.792 184.617C627.873 187.94 625.08 189.602 621.413 189.602C617.718 189.602 614.911 187.94 612.991 184.617C611.33 181.695 610.499 177.885 610.499 173.188C610.499 168.404 611.33 164.551 612.991 161.629C614.911 158.277 617.718 156.602 621.413 156.602ZM621.413 157.762C618.663 157.762 616.572 159.309 615.14 162.402C613.908 165.152 613.292 168.747 613.292 173.188C613.292 177.57 613.908 181.108 615.14 183.801C616.572 186.895 618.663 188.441 621.413 188.441C624.135 188.441 626.211 186.895 627.644 183.801C628.933 181.079 629.577 177.542 629.577 173.188C629.577 168.747 628.933 165.152 627.644 162.402C626.211 159.309 624.135 157.762 621.413 157.762ZM655.823 180.922L653.545 189.129H635.713V187.754C636.515 185.176 638.019 182.583 640.225 179.977C642.259 177.57 644.493 175.479 646.928 173.703C649.105 172.042 650.581 170.466 651.354 168.977C652.013 167.745 652.342 166.212 652.342 164.379C652.342 162.116 651.712 160.426 650.452 159.309C649.306 158.306 647.702 157.805 645.639 157.805C643.691 157.805 642.13 158.163 640.956 158.879C639.724 159.624 639.108 160.712 639.108 162.145C639.108 162.803 639.179 163.333 639.323 163.734C639.409 163.992 639.552 164.279 639.752 164.594C639.924 164.823 640.025 165.009 640.053 165.152C640.168 165.353 640.225 165.611 640.225 165.926C640.225 166.613 640.01 167.129 639.581 167.473C639.237 167.788 638.807 167.945 638.291 167.945C637.69 167.945 637.203 167.602 636.831 166.914C636.487 166.255 636.315 165.424 636.315 164.422C636.315 162.474 637.074 160.755 638.592 159.266C640.397 157.547 642.817 156.688 645.854 156.688C649.062 156.688 651.44 157.404 652.987 158.836C654.476 160.182 655.221 162.202 655.221 164.895C655.221 167.1 654.562 169.105 653.245 170.91C652.013 172.629 649.864 174.562 646.799 176.711C644.622 178.201 642.832 179.647 641.428 181.051C639.623 182.798 638.291 184.66 637.432 186.637H648.26C649.922 186.637 651.211 186.279 652.127 185.562C653.13 184.674 654.104 183.056 655.049 180.707L655.823 180.922ZM669.435 156.602C673.102 156.602 675.895 158.277 677.814 161.629C679.504 164.551 680.349 168.404 680.349 173.188C680.349 177.885 679.504 181.695 677.814 184.617C675.895 187.94 673.102 189.602 669.435 189.602C665.74 189.602 662.933 187.94 661.013 184.617C659.352 181.695 658.521 177.885 658.521 173.188C658.521 168.404 659.352 164.551 661.013 161.629C662.933 158.277 665.74 156.602 669.435 156.602ZM669.435 157.762C666.685 157.762 664.594 159.309 663.162 162.402C661.93 165.152 661.314 168.747 661.314 173.188C661.314 177.57 661.93 181.108 663.162 183.801C664.594 186.895 666.685 188.441 669.435 188.441C672.157 188.441 674.233 186.895 675.666 183.801C676.955 181.079 677.599 177.542 677.599 173.188C677.599 168.747 676.955 165.152 675.666 162.402C674.233 159.309 672.157 157.762 669.435 157.762ZM713.813 181.824V166.914H702.233V164.873H713.813V159.459H702.233V157.418H713.813V151.424H716.305V181.824H713.813ZM691.298 191.471V179.225H693.79V189.301H717.895V191.471H691.298ZM709.473 173.832C708.7 173.99 707.669 174.133 706.38 174.262C705.105 174.376 703.551 174.477 701.718 174.562C699.884 174.634 697.757 174.691 695.337 174.734C692.93 174.777 690.216 174.799 687.194 174.799V153.938H689.686V172.672C692.207 172.672 694.485 172.658 696.518 172.629C698.552 172.6 700.364 172.55 701.954 172.479C703.558 172.407 704.955 172.321 706.143 172.221C707.332 172.106 708.349 171.97 709.194 171.812L709.473 173.832ZM725.02 194.607H722.979L726.008 183.994H728.736L725.02 194.607ZM819.714 180.922L817.437 189.129H799.605V187.754C800.407 185.176 801.911 182.583 804.116 179.977C806.15 177.57 808.385 175.479 810.82 173.703C812.997 172.042 814.472 170.466 815.245 168.977C815.904 167.745 816.234 166.212 816.234 164.379C816.234 162.116 815.603 160.426 814.343 159.309C813.197 158.306 811.593 157.805 809.531 157.805C807.583 157.805 806.021 158.163 804.847 158.879C803.615 159.624 802.999 160.712 802.999 162.145C802.999 162.803 803.071 163.333 803.214 163.734C803.3 163.992 803.443 164.279 803.644 164.594C803.816 164.823 803.916 165.009 803.945 165.152C804.059 165.353 804.116 165.611 804.116 165.926C804.116 166.613 803.902 167.129 803.472 167.473C803.128 167.788 802.698 167.945 802.183 167.945C801.581 167.945 801.094 167.602 800.722 166.914C800.378 166.255 800.206 165.424 800.206 164.422C800.206 162.474 800.965 160.755 802.484 159.266C804.288 157.547 806.709 156.688 809.745 156.688C812.954 156.688 815.331 157.404 816.878 158.836C818.368 160.182 819.113 162.202 819.113 164.895C819.113 167.1 818.454 169.105 817.136 170.91C815.904 172.629 813.756 174.562 810.691 176.711C808.514 178.201 806.723 179.647 805.32 181.051C803.515 182.798 802.183 184.66 801.323 186.637H812.152C813.813 186.637 815.102 186.279 816.019 185.562C817.021 184.674 817.995 183.056 818.941 180.707L819.714 180.922ZM833.327 156.602C836.993 156.602 839.786 158.277 841.706 161.629C843.396 164.551 844.241 168.404 844.241 173.188C844.241 177.885 843.396 181.695 841.706 184.617C839.786 187.94 836.993 189.602 833.327 189.602C829.631 189.602 826.824 187.94 824.905 184.617C823.243 181.695 822.413 177.885 822.413 173.188C822.413 168.404 823.243 164.551 824.905 161.629C826.824 158.277 829.631 156.602 833.327 156.602ZM833.327 157.762C830.577 157.762 828.485 159.309 827.053 162.402C825.821 165.152 825.206 168.747 825.206 173.188C825.206 177.57 825.821 181.108 827.053 183.801C828.485 186.895 830.577 188.441 833.327 188.441C836.048 188.441 838.125 186.895 839.557 183.801C840.846 181.079 841.491 177.542 841.491 173.188C841.491 168.747 840.846 165.152 839.557 162.402C838.125 159.309 836.048 157.762 833.327 157.762ZM867.736 180.922L865.459 189.129H847.627V187.754C848.429 185.176 849.933 182.583 852.138 179.977C854.172 177.57 856.407 175.479 858.841 173.703C861.019 172.042 862.494 170.466 863.267 168.977C863.926 167.745 864.255 166.212 864.255 164.379C864.255 162.116 863.625 160.426 862.365 159.309C861.219 158.306 859.615 157.805 857.552 157.805C855.604 157.805 854.043 158.163 852.869 158.879C851.637 159.624 851.021 160.712 851.021 162.145C851.021 162.803 851.093 163.333 851.236 163.734C851.322 163.992 851.465 164.279 851.666 164.594C851.838 164.823 851.938 165.009 851.966 165.152C852.081 165.353 852.138 165.611 852.138 165.926C852.138 166.613 851.923 167.129 851.494 167.473C851.15 167.788 850.72 167.945 850.205 167.945C849.603 167.945 849.116 167.602 848.744 166.914C848.4 166.255 848.228 165.424 848.228 164.422C848.228 162.474 848.987 160.755 850.505 159.266C852.31 157.547 854.731 156.688 857.767 156.688C860.976 156.688 863.353 157.404 864.9 158.836C866.39 160.182 867.134 162.202 867.134 164.895C867.134 167.1 866.476 169.105 865.158 170.91C863.926 172.629 861.778 174.562 858.713 176.711C856.535 178.201 854.745 179.647 853.341 181.051C851.537 182.798 850.205 184.66 849.345 186.637H860.173C861.835 186.637 863.124 186.279 864.041 185.562C865.043 184.674 866.017 183.056 866.963 180.707L867.736 180.922ZM874.473 189.043V187.926C876.679 187.926 878.212 187.725 879.071 187.324C880.016 186.923 880.489 186.178 880.489 185.09V162.875C880.489 162.073 880.246 161.5 879.759 161.156C879.3 160.812 878.613 160.641 877.696 160.641H873.829V159.824C875.805 159.595 877.582 159.194 879.157 158.621C880.389 158.163 881.749 157.49 883.239 156.602V185.09C883.239 186.178 883.755 186.923 884.786 187.324C885.703 187.725 887.292 187.926 889.555 187.926V189.043H874.473ZM925.727 181.824V166.914H914.146V164.873H925.727V159.459H914.146V157.418H925.727V151.424H928.219V181.824H925.727ZM903.211 191.471V179.225H905.703V189.301H929.809V191.471H903.211ZM921.387 173.832C920.613 173.99 919.582 174.133 918.293 174.262C917.018 174.376 915.464 174.477 913.631 174.562C911.798 174.634 909.671 174.691 907.25 174.734C904.844 174.777 902.13 174.799 899.107 174.799V153.938H901.6V172.672C904.12 172.672 906.398 172.658 908.432 172.629C910.465 172.6 912.277 172.55 913.867 172.479C915.471 172.407 916.868 172.321 918.057 172.221C919.245 172.106 920.262 171.97 921.107 171.812L921.387 173.832ZM936.804 172.092V170.029H975.046V172.092H936.804ZM942.97 192.416V183.414H966.345V178.666H942.97V176.604H968.837V185.326H945.462V190.354H969.954V192.416H942.97ZM955.925 153.701C954.264 153.701 952.774 153.816 951.456 154.045C950.139 154.274 949.014 154.604 948.083 155.033C947.167 155.463 946.458 155.993 945.956 156.623C945.469 157.253 945.226 157.969 945.226 158.771C945.226 159.574 945.469 160.29 945.956 160.92C946.458 161.55 947.167 162.08 948.083 162.51C949.014 162.939 950.139 163.269 951.456 163.498C952.774 163.727 954.264 163.842 955.925 163.842C957.572 163.842 959.055 163.727 960.372 163.498C961.704 163.269 962.829 162.939 963.745 162.51C964.676 162.08 965.385 161.55 965.872 160.92C966.374 160.29 966.624 159.574 966.624 158.771C966.624 157.969 966.374 157.253 965.872 156.623C965.385 155.993 964.676 155.463 963.745 155.033C962.829 154.604 961.704 154.274 960.372 154.045C959.055 153.816 957.572 153.701 955.925 153.701ZM955.925 165.883C954.077 165.883 952.351 165.747 950.747 165.475C949.143 165.188 947.747 164.751 946.558 164.164C945.383 163.577 944.452 162.839 943.765 161.951C943.092 161.063 942.755 160.003 942.755 158.771C942.755 157.554 943.092 156.501 943.765 155.613C944.452 154.725 945.391 153.988 946.579 153.4C947.768 152.813 949.157 152.376 950.747 152.09C952.351 151.803 954.077 151.66 955.925 151.66C957.758 151.66 959.477 151.803 961.081 152.09C962.685 152.376 964.082 152.813 965.271 153.4C966.46 153.988 967.391 154.725 968.064 155.613C968.751 156.501 969.095 157.554 969.095 158.771C969.095 160.003 968.751 161.063 968.064 161.951C967.391 162.839 966.46 163.577 965.271 164.164C964.096 164.751 962.707 165.188 961.103 165.475C959.499 165.747 957.773 165.883 955.925 165.883ZM1021.07 164.938V174.992H1018.58V151.424H1021.07V162.789H1027.26V164.938H1021.07ZM1018.58 192.867V179.332H994.558V177.162H1021.07V192.867H1018.58ZM1009.64 153.658C1009.41 156.337 1008.79 158.771 1007.77 160.963C1006.77 163.154 1005.45 165.131 1003.82 166.893C1002.2 168.64 1000.31 170.187 998.146 171.533C995.983 172.88 993.634 174.033 991.099 174.992L989.38 173.059C991.5 172.357 993.527 171.483 995.461 170.438C997.408 169.392 999.156 168.153 1000.7 166.721C1002.26 165.288 1003.57 163.67 1004.63 161.865C1005.71 160.046 1006.44 158.027 1006.83 155.807H991.615V153.658H1009.64ZM1062.87 164.938V174.992H1060.38V151.424H1062.87V162.789H1069.06V164.938H1062.87ZM1060.38 192.867V179.332H1036.36V177.162H1062.87V192.867H1060.38ZM1051.44 153.658C1051.21 156.337 1050.59 158.771 1049.57 160.963C1048.57 163.154 1047.25 165.131 1045.62 166.893C1044 168.64 1042.11 170.187 1039.95 171.533C1037.78 172.88 1035.43 174.033 1032.9 174.992L1031.18 173.059C1033.3 172.357 1035.33 171.483 1037.26 170.438C1039.21 169.392 1040.96 168.153 1042.5 166.721C1044.06 165.288 1045.37 163.67 1046.43 161.865C1047.51 160.046 1048.24 158.027 1048.63 155.807H1033.41V153.658H1051.44ZM1090.95 191.578V178.859H1093.45V189.408H1117.47V191.578H1090.95ZM1113.86 181.631V163.197H1104.64V161.07H1113.86V151.424H1116.35V181.631H1113.86ZM1104.88 173.961C1103.93 173.46 1102.96 172.844 1101.98 172.113C1100.99 171.383 1100.05 170.574 1099.16 169.686C1098.29 168.798 1097.49 167.852 1096.78 166.85C1096.07 165.847 1095.52 164.823 1095.1 163.777C1094.71 164.88 1094.18 165.983 1093.49 167.086C1092.8 168.174 1092.02 169.22 1091.15 170.223C1090.27 171.211 1089.33 172.128 1088.31 172.973C1087.31 173.818 1086.29 174.541 1085.26 175.143L1083.35 173.316C1084.72 172.629 1086.04 171.748 1087.3 170.674C1088.56 169.585 1089.67 168.382 1090.63 167.064C1091.61 165.732 1092.38 164.314 1092.95 162.811C1093.54 161.307 1093.83 159.774 1093.83 158.213V153.1H1096.28V158.02C1096.28 159.552 1096.57 161.035 1097.14 162.467C1097.73 163.899 1098.5 165.231 1099.46 166.463C1100.42 167.68 1101.52 168.769 1102.77 169.729C1104.02 170.674 1105.31 171.433 1106.64 172.006L1104.88 173.961ZM1144.83 172.586C1142.79 172.743 1140.33 172.851 1137.44 172.908C1134.54 172.965 1131.21 172.994 1127.45 172.994V153.873H1143.35V155.979H1129.94V162.338H1141.5V164.4H1129.94V170.889C1131.6 170.889 1133.17 170.882 1134.64 170.867C1136.12 170.853 1137.48 170.831 1138.73 170.803C1139.97 170.774 1141.09 170.738 1142.08 170.695C1143.08 170.652 1143.94 170.595 1144.66 170.523L1144.83 172.586ZM1156.88 175.895V164.83H1151.21V175.895H1148.74V152.283H1151.21V162.703H1156.88V151.424H1159.37V175.895H1156.88ZM1156.88 192.867V180.17H1132.37V178.064H1159.37V192.867H1156.88ZM1166.39 161.178V159.051H1175.71V152.498H1178.23V159.051H1187.55V161.178H1166.39ZM1177.09 166.871C1176.14 166.871 1175.26 167.036 1174.43 167.365C1173.61 167.68 1172.9 168.139 1172.3 168.74C1171.7 169.342 1171.22 170.065 1170.88 170.91C1170.54 171.755 1170.36 172.693 1170.36 173.725C1170.36 174.785 1170.54 175.737 1170.88 176.582C1171.22 177.427 1171.7 178.15 1172.3 178.752C1172.91 179.339 1173.63 179.798 1174.45 180.127C1175.26 180.442 1176.14 180.6 1177.09 180.6C1178.03 180.6 1178.92 180.442 1179.73 180.127C1180.55 179.798 1181.25 179.339 1181.84 178.752C1182.44 178.15 1182.9 177.427 1183.23 176.582C1183.58 175.737 1183.75 174.785 1183.75 173.725C1183.75 172.693 1183.58 171.762 1183.23 170.932C1182.89 170.087 1182.42 169.363 1181.82 168.762C1181.21 168.16 1180.51 167.695 1179.69 167.365C1178.89 167.036 1178.02 166.871 1177.09 166.871ZM1177.09 182.684C1175.86 182.684 1174.69 182.476 1173.59 182.061C1172.48 181.645 1171.52 181.051 1170.69 180.277C1169.86 179.504 1169.2 178.566 1168.71 177.463C1168.24 176.36 1168 175.114 1168 173.725C1168 172.335 1168.25 171.089 1168.73 169.986C1169.22 168.869 1169.88 167.931 1170.71 167.172C1171.54 166.398 1172.5 165.811 1173.59 165.41C1174.69 164.995 1175.86 164.787 1177.09 164.787C1178.31 164.787 1179.46 164.995 1180.55 165.41C1181.65 165.811 1182.61 166.398 1183.43 167.172C1184.26 167.931 1184.91 168.869 1185.38 169.986C1185.87 171.089 1186.11 172.335 1186.11 173.725C1186.11 175.114 1185.88 176.367 1185.4 177.484C1184.93 178.587 1184.29 179.525 1183.47 180.299C1182.65 181.072 1181.69 181.667 1180.59 182.082C1179.5 182.483 1178.34 182.684 1177.09 182.684ZM1199.15 192.867V172.199H1193.5V191.557H1191.03V152.283H1193.5V170.051H1199.15V151.424H1201.65V192.867H1199.15ZM1239.82 192.867V167.344H1229.91V165.195H1239.82V151.424H1242.31V192.867H1239.82ZM1231.11 182.018C1230 181.23 1228.88 180.292 1227.76 179.203C1226.66 178.115 1225.63 176.947 1224.67 175.701C1223.72 174.441 1222.89 173.137 1222.16 171.791C1221.42 170.445 1220.87 169.127 1220.5 167.838C1220.17 169.156 1219.66 170.509 1218.95 171.898C1218.27 173.273 1217.46 174.613 1216.53 175.916C1215.61 177.219 1214.6 178.451 1213.5 179.611C1212.41 180.757 1211.3 181.753 1210.17 182.598L1208.08 180.922C1209.54 179.934 1210.95 178.73 1212.29 177.312C1213.64 175.895 1214.83 174.326 1215.86 172.607C1216.89 170.889 1217.71 169.055 1218.33 167.107C1218.95 165.145 1219.25 163.126 1219.25 161.049V154.346H1221.79V160.898C1221.79 162.947 1222.09 164.923 1222.69 166.828C1223.31 168.733 1224.12 170.516 1225.14 172.178C1226.17 173.839 1227.36 175.35 1228.71 176.711C1230.07 178.072 1231.49 179.217 1232.98 180.148L1231.11 182.018ZM1292.2 164.766V175.551H1289.71V151.424H1292.2V162.574H1298.39V164.766H1292.2ZM1289.71 192.889V179.955H1265.73V177.785H1292.2V192.889H1289.71ZM1278.23 155.441H1264.68V169.771H1278.23V155.441ZM1262.23 171.898V153.314H1280.68V171.898H1262.23ZM1322.38 180.922C1320.36 181.122 1317.84 181.273 1314.81 181.373C1311.81 181.459 1308.41 181.502 1304.63 181.502V155.162H1320.36V157.332H1307.12V179.354H1310.99C1311.79 179.354 1312.71 179.339 1313.74 179.311C1314.77 179.282 1315.8 179.246 1316.83 179.203C1317.88 179.16 1318.87 179.11 1319.82 179.053C1320.76 178.981 1321.56 178.91 1322.2 178.838L1322.38 180.922ZM1334.34 192.867V170.91H1328.18V191.557H1325.71V152.283H1328.18V168.762H1334.34V151.424H1336.83V192.867H1334.34ZM1343.53 184.531V182.361H1371.72C1372.02 180.027 1372.25 177.671 1372.4 175.293C1372.58 172.901 1372.66 170.48 1372.66 168.031V157.611H1349.31V155.441H1375.18V166.742C1375.18 168.891 1375.1 171.247 1374.94 173.811C1374.78 176.36 1374.52 179.21 1374.17 182.361H1381.77V184.531H1343.53ZM1418.05 192.889V171.941H1411.93V191.578H1409.48V152.283H1411.93V169.771H1418.09V151.424H1420.56V192.889H1418.05ZM1387.76 168.031H1400.75V157.375H1387.76V155.248H1403.25V170.115H1390.25V181.266C1392.58 181.266 1394.58 181.251 1396.24 181.223C1397.9 181.18 1399.34 181.13 1400.54 181.072C1401.74 181.001 1402.77 180.915 1403.63 180.814C1404.49 180.7 1405.3 180.571 1406.06 180.428L1406.41 182.469C1405.85 182.583 1405.25 182.684 1404.62 182.77C1404.01 182.855 1403.31 182.934 1402.54 183.006C1401.78 183.063 1400.93 183.12 1399.98 183.178C1399.05 183.221 1397.98 183.264 1396.78 183.307C1395.59 183.335 1394.25 183.357 1392.76 183.371C1391.27 183.385 1389.6 183.393 1387.76 183.393V168.031ZM1431.1 155.441H1461.4V157.611H1431.1V155.441ZM1454.87 172.393H1461.91V174.562H1430.59V172.393H1437.53L1436.99 160.469H1439.44L1440 172.393H1452.44L1453.15 160.469H1455.57L1454.87 172.393ZM1427.13 186.143V183.973H1465.37V186.143H1427.13ZM1468.93 172.994V170.953H1507.17V172.994H1468.93ZM1501.01 177.42V185.799H1477.54V190.354H1502.12V192.395H1475.05V183.844H1498.51V179.461H1475.05V177.42H1501.01ZM1475.22 166.699V158.299H1498.38V154.174H1475.22V152.133H1500.88V160.254H1477.72V164.658H1501.86V166.699H1475.22ZM1548.1 175.852C1546.84 175.938 1545.09 176.023 1542.84 176.109C1540.59 176.181 1537.91 176.26 1534.8 176.346C1531.81 176.417 1529.19 176.475 1526.94 176.518C1524.71 176.561 1522.83 176.582 1521.31 176.582L1521.08 174.455C1525.4 174.455 1529.39 174.412 1533.04 174.326V169.234C1531.68 169.134 1530.44 168.862 1529.33 168.418C1528.21 167.96 1527.25 167.372 1526.45 166.656C1525.64 165.94 1525.02 165.117 1524.58 164.186C1524.15 163.24 1523.93 162.216 1523.93 161.113C1523.93 159.939 1524.18 158.85 1524.69 157.848C1525.19 156.845 1525.89 155.979 1526.79 155.248C1527.71 154.518 1528.8 153.952 1530.06 153.551C1531.33 153.135 1532.73 152.928 1534.25 152.928C1535.76 152.928 1537.16 153.135 1538.44 153.551C1539.71 153.952 1540.81 154.518 1541.72 155.248C1542.65 155.979 1543.37 156.845 1543.87 157.848C1544.39 158.85 1544.64 159.939 1544.64 161.113C1544.64 162.202 1544.42 163.219 1543.98 164.164C1543.55 165.095 1542.93 165.919 1542.13 166.635C1541.33 167.337 1540.37 167.917 1539.25 168.375C1538.13 168.833 1536.9 169.12 1535.56 169.234V174.219C1536.76 174.19 1537.98 174.161 1539.21 174.133C1540.45 174.09 1541.64 174.054 1542.75 174.025C1543.87 173.982 1544.88 173.947 1545.78 173.918C1546.69 173.875 1547.41 173.839 1547.95 173.811L1548.1 175.852ZM1534.25 154.926C1532.91 154.926 1531.75 155.112 1530.77 155.484C1529.78 155.842 1528.95 156.315 1528.29 156.902C1527.65 157.475 1527.16 158.134 1526.83 158.879C1526.52 159.624 1526.36 160.368 1526.36 161.113C1526.36 161.858 1526.52 162.596 1526.83 163.326C1527.16 164.057 1527.66 164.715 1528.32 165.303C1528.97 165.876 1529.79 166.341 1530.77 166.699C1531.75 167.057 1532.91 167.236 1534.25 167.236C1535.58 167.236 1536.75 167.064 1537.75 166.721C1538.75 166.363 1539.58 165.897 1540.24 165.324C1540.9 164.751 1541.39 164.1 1541.72 163.369C1542.05 162.624 1542.22 161.872 1542.22 161.113C1542.22 160.34 1542.05 159.588 1541.72 158.857C1541.39 158.113 1540.9 157.454 1540.24 156.881C1539.58 156.294 1538.75 155.821 1537.75 155.463C1536.76 155.105 1535.59 154.926 1534.25 154.926ZM1553.73 168.332V182.297H1551.24V151.424H1553.73V166.184H1560.11V168.332H1553.73ZM1527.99 191.814V180.385H1530.49V189.645H1554.83V191.814H1527.99ZM1593.94 175.572V162.295H1584.77V160.168H1593.94V151.424H1596.43V175.572H1593.94ZM1583.78 178.688C1582.08 178.688 1580.54 178.824 1579.16 179.096C1577.8 179.354 1576.64 179.733 1575.68 180.234C1574.74 180.721 1574 181.323 1573.49 182.039C1572.97 182.741 1572.72 183.543 1572.72 184.445C1572.72 185.348 1572.97 186.157 1573.49 186.873C1574 187.589 1574.74 188.198 1575.7 188.699C1576.66 189.186 1577.82 189.559 1579.18 189.816C1580.54 190.074 1582.08 190.203 1583.78 190.203C1585.48 190.203 1587.02 190.074 1588.38 189.816C1589.75 189.559 1590.91 189.186 1591.86 188.699C1592.82 188.198 1593.56 187.589 1594.07 186.873C1594.59 186.157 1594.84 185.348 1594.84 184.445C1594.84 183.543 1594.59 182.741 1594.07 182.039C1593.56 181.323 1592.82 180.721 1591.86 180.234C1590.91 179.733 1589.75 179.354 1588.38 179.096C1587.02 178.824 1585.48 178.688 1583.78 178.688ZM1583.78 192.287C1581.53 192.287 1579.55 192.094 1577.85 191.707C1576.16 191.32 1574.75 190.776 1573.62 190.074C1572.49 189.372 1571.63 188.549 1571.06 187.604C1570.5 186.644 1570.22 185.591 1570.22 184.445C1570.22 183.314 1570.5 182.268 1571.06 181.309C1571.63 180.349 1572.49 179.518 1573.62 178.816C1574.75 178.115 1576.16 177.57 1577.85 177.184C1579.55 176.797 1581.53 176.604 1583.78 176.604C1586.03 176.604 1588 176.797 1589.69 177.184C1591.39 177.57 1592.81 178.115 1593.94 178.816C1595.07 179.518 1595.92 180.349 1596.48 181.309C1597.05 182.268 1597.34 183.314 1597.34 184.445C1597.34 185.591 1597.05 186.644 1596.48 187.604C1595.92 188.549 1595.07 189.372 1593.94 190.074C1592.81 190.776 1591.39 191.32 1589.69 191.707C1588 192.094 1586.03 192.287 1583.78 192.287ZM1585.03 172.736C1584.08 172.235 1583.11 171.619 1582.13 170.889C1581.14 170.158 1580.2 169.349 1579.31 168.461C1578.44 167.573 1577.64 166.628 1576.93 165.625C1576.22 164.622 1575.67 163.598 1575.25 162.553C1574.86 163.656 1574.33 164.758 1573.64 165.861C1572.95 166.95 1572.17 167.995 1571.3 168.998C1570.42 169.986 1569.48 170.903 1568.46 171.748C1567.46 172.593 1566.44 173.316 1565.41 173.918L1563.5 172.092C1564.87 171.404 1566.19 170.523 1567.45 169.449C1568.71 168.361 1569.82 167.158 1570.78 165.84C1571.76 164.508 1572.53 163.09 1573.1 161.586C1573.69 160.082 1573.98 158.549 1573.98 156.988V152.799H1576.43V156.795C1576.43 158.327 1576.72 159.81 1577.29 161.242C1577.88 162.674 1578.65 164.007 1579.61 165.238C1580.57 166.456 1581.67 167.544 1582.92 168.504C1584.17 169.449 1585.46 170.208 1586.79 170.781L1585.03 172.736ZM1604.74 161.178V159.051H1614.06V152.498H1616.58V159.051H1625.9V161.178H1604.74ZM1615.44 166.871C1614.49 166.871 1613.61 167.036 1612.78 167.365C1611.96 167.68 1611.25 168.139 1610.65 168.74C1610.05 169.342 1609.57 170.065 1609.23 170.91C1608.89 171.755 1608.71 172.693 1608.71 173.725C1608.71 174.785 1608.89 175.737 1609.23 176.582C1609.57 177.427 1610.05 178.15 1610.65 178.752C1611.26 179.339 1611.98 179.798 1612.8 180.127C1613.61 180.442 1614.49 180.6 1615.44 180.6C1616.38 180.6 1617.27 180.442 1618.08 180.127C1618.9 179.798 1619.6 179.339 1620.19 178.752C1620.79 178.15 1621.25 177.427 1621.58 176.582C1621.93 175.737 1622.1 174.785 1622.1 173.725C1622.1 172.693 1621.93 171.762 1621.58 170.932C1621.24 170.087 1620.77 169.363 1620.17 168.762C1619.56 168.16 1618.86 167.695 1618.04 167.365C1617.24 167.036 1616.37 166.871 1615.44 166.871ZM1615.44 182.684C1614.21 182.684 1613.04 182.476 1611.94 182.061C1610.83 181.645 1609.87 181.051 1609.04 180.277C1608.21 179.504 1607.55 178.566 1607.06 177.463C1606.59 176.36 1606.35 175.114 1606.35 173.725C1606.35 172.335 1606.6 171.089 1607.08 169.986C1607.57 168.869 1608.23 167.931 1609.06 167.172C1609.89 166.398 1610.85 165.811 1611.94 165.41C1613.04 164.995 1614.21 164.787 1615.44 164.787C1616.66 164.787 1617.81 164.995 1618.9 165.41C1620 165.811 1620.96 166.398 1621.78 167.172C1622.61 167.931 1623.26 168.869 1623.73 169.986C1624.22 171.089 1624.46 172.335 1624.46 173.725C1624.46 175.114 1624.23 176.367 1623.75 177.484C1623.28 178.587 1622.64 179.525 1621.82 180.299C1621 181.072 1620.04 181.667 1618.94 182.082C1617.85 182.483 1616.69 182.684 1615.44 182.684ZM1637.5 192.867V172.199H1631.85V191.557H1629.38V152.283H1631.85V170.051H1637.5V151.424H1640V192.867H1637.5ZM1651.57 164.68C1651.57 162.99 1651.94 161.507 1652.68 160.232C1653.44 158.958 1654.46 157.898 1655.74 157.053C1657.01 156.193 1658.49 155.549 1660.16 155.119C1661.84 154.689 1663.59 154.475 1665.43 154.475C1667.26 154.475 1669.01 154.689 1670.67 155.119C1672.34 155.549 1673.81 156.193 1675.07 157.053C1676.35 157.912 1677.36 158.979 1678.1 160.254C1678.86 161.529 1679.24 163.004 1679.24 164.68C1679.24 166.47 1678.81 168.038 1677.95 169.385C1677.11 170.731 1675.97 171.841 1674.56 172.715V183.994H1684.55V186.164H1646.3V183.994H1656.29V172.758C1654.85 171.884 1653.69 170.774 1652.84 169.428C1651.99 168.067 1651.57 166.484 1651.57 164.68ZM1654.02 164.68C1654.02 165.883 1654.28 166.993 1654.81 168.01C1655.34 169.027 1656.1 169.908 1657.09 170.652C1658.08 171.383 1659.27 171.956 1660.68 172.371C1662.08 172.772 1663.66 172.973 1665.43 172.973C1667.17 172.973 1668.75 172.765 1670.15 172.35C1671.56 171.934 1672.74 171.361 1673.72 170.631C1674.71 169.9 1675.47 169.027 1676 168.01C1676.53 166.993 1676.79 165.883 1676.79 164.68C1676.79 163.491 1676.53 162.402 1676 161.414C1675.47 160.411 1674.71 159.552 1673.72 158.836C1672.73 158.105 1671.53 157.54 1670.13 157.139C1668.73 156.738 1667.16 156.537 1665.43 156.537C1663.68 156.537 1662.1 156.738 1660.7 157.139C1659.29 157.525 1658.1 158.084 1657.11 158.814C1656.12 159.531 1655.36 160.39 1654.81 161.393C1654.28 162.381 1654.02 163.477 1654.02 164.68ZM1672.06 183.994V173.918C1670.03 174.663 1667.82 175.035 1665.43 175.035C1664.22 175.035 1663.06 174.949 1661.94 174.777C1660.83 174.591 1659.77 174.312 1658.79 173.939V183.994H1672.06ZM1690.19 189.451C1689.61 189.451 1689.13 189.243 1688.73 188.828C1688.34 188.398 1688.15 187.919 1688.15 187.389C1688.15 186.816 1688.34 186.336 1688.73 185.949C1689.11 185.562 1689.6 185.369 1690.19 185.369C1690.76 185.369 1691.24 185.562 1691.63 185.949C1692.03 186.336 1692.23 186.816 1692.23 187.389C1692.23 187.962 1692.03 188.449 1691.63 188.85C1691.24 189.251 1690.76 189.451 1690.19 189.451Z" fill="#3B1400"/>
<g clip-path="url(#clip0_2042_40498)">
<g clip-path="url(#clip1_2042_40498)">
<path d="M187.05 204.45C185.94 204.446 184.833 204.567 183.75 204.81V163.5H168.45V220.26H202.83C202.834 218.185 202.429 216.13 201.638 214.212C200.846 212.294 199.685 210.551 198.219 209.082C196.753 207.614 195.012 206.449 193.096 205.654C191.179 204.859 189.125 204.45 187.05 204.45Z" fill="#F3A9C9"/>
<path d="M142.83 161.58L128.73 200.4C127.789 199.797 126.783 199.304 125.73 198.93C121.791 197.5 117.446 197.692 113.649 199.464C109.852 201.236 106.914 204.443 105.48 208.38L123.48 214.89L135.18 219.18L137.85 220.14L157.26 166.83L142.83 161.58Z" fill="#F3A9C9"/>
<path d="M134.43 53.5197L90.5098 174C89.9764 175.41 89.8265 176.936 90.0756 178.423C90.3247 179.909 90.9638 181.303 91.9276 182.462C92.8915 183.621 94.1456 184.504 95.562 185.02C96.9783 185.536 98.5063 185.667 99.9898 185.4L226.38 163.11C227.85 162.854 229.228 162.214 230.372 161.256C231.517 160.298 232.389 159.055 232.9 157.653C233.411 156.25 233.544 154.737 233.284 153.267C233.024 151.797 232.381 150.422 231.42 149.28L148.92 50.9997C147.962 49.8559 146.721 48.9845 145.319 48.4733C143.918 47.962 142.407 47.829 140.938 48.0875C139.469 48.346 138.094 48.987 136.951 49.9459C135.809 50.9048 134.939 52.1478 134.43 53.5497" fill="#F3A9C9"/>
<path d="M118.41 114C118.078 112.096 118.318 110.136 119.099 108.367C119.88 106.599 121.168 105.102 122.8 104.065C124.432 103.029 126.334 102.499 128.267 102.543C130.199 102.586 132.076 103.202 133.659 104.312C135.242 105.422 136.46 106.976 137.161 108.778C137.861 110.58 138.011 112.549 137.593 114.436C137.175 116.323 136.206 118.045 134.811 119.382C133.415 120.719 131.654 121.613 129.75 121.95C128.483 122.175 127.185 122.147 125.929 121.868C124.673 121.59 123.484 121.067 122.431 120.328C121.377 119.59 120.48 118.651 119.79 117.565C119.1 116.479 118.631 115.268 118.41 114Z" fill="white"/>
<path d="M166.05 105.66C165.717 103.754 165.956 101.792 166.738 100.022C167.52 98.2526 168.809 96.7546 170.442 95.7177C172.075 94.6807 173.98 94.1515 175.914 94.197C177.848 94.2425 179.725 94.8607 181.308 95.9732C182.891 97.0858 184.108 98.6428 184.806 100.447C185.503 102.252 185.65 104.223 185.228 106.111C184.805 107.999 183.832 109.719 182.431 111.054C181.031 112.389 179.266 113.278 177.36 113.61C176.095 113.834 174.798 113.806 173.544 113.527C172.29 113.248 171.104 112.724 170.053 111.986C169.002 111.247 168.107 110.308 167.42 109.222C166.733 108.136 166.268 106.926 166.05 105.66Z" fill="white"/>
<path d="M122.43 34.2896C124.77 40.7396 134.43 46.9196 139.29 50.4896C139.581 50.702 139.921 50.8392 140.278 50.889C140.635 50.9387 140.999 50.8995 141.337 50.7749C141.675 50.6502 141.978 50.444 142.217 50.1744C142.457 49.9048 142.626 49.5803 142.71 49.2296C144.18 43.2296 147.66 32.6696 145.23 25.9796C144.684 24.4825 143.849 23.1076 142.772 21.9333C141.695 20.759 140.397 19.8083 138.953 19.1355C136.036 17.7768 132.698 17.6326 129.675 18.7346C126.651 19.8365 124.19 22.0945 122.831 25.0116C121.472 27.9287 121.328 31.2661 122.43 34.2896Z" fill="#231815"/>
<path d="M98.76 220.14C98.0634 220.086 97.3633 220.177 96.7035 220.407C96.0437 220.637 95.4384 221 94.9258 221.475C94.4132 221.949 94.0041 222.525 93.7244 223.165C93.4447 223.805 93.3003 224.496 93.3003 225.195C93.3003 225.894 93.4447 226.585 93.7244 227.225C94.0041 227.865 94.4132 228.441 94.9258 228.915C95.4384 229.39 96.0437 229.753 96.7035 229.983C97.3633 230.213 98.0634 230.304 98.76 230.25H206.46C207.157 230.304 207.857 230.213 208.517 229.983C209.176 229.753 209.782 229.39 210.294 228.915C210.807 228.441 211.216 227.865 211.496 227.225C211.775 226.585 211.92 225.894 211.92 225.195C211.92 224.496 211.775 223.805 211.496 223.165C211.216 222.525 210.807 221.949 210.294 221.475C209.782 221 209.176 220.637 208.517 220.407C207.857 220.177 207.157 220.086 206.46 220.14H98.76Z" fill="#FFE329"/>
<path d="M135.84 101.19C135.655 100.157 135.783 99.0918 136.207 98.1313C136.63 97.1708 137.33 96.3583 138.218 95.7976C139.105 95.237 140.14 94.9536 141.189 94.9836C142.238 95.0137 143.255 95.3558 144.109 95.9664C144.963 96.5769 145.615 97.4282 145.983 98.4114C146.351 99.3946 146.417 100.465 146.174 101.486C145.93 102.507 145.388 103.433 144.616 104.144C143.844 104.855 142.878 105.321 141.84 105.48C140.477 105.698 139.083 105.369 137.96 104.566C136.837 103.763 136.075 102.55 135.84 101.19Z" fill="#231815"/>
<path d="M153.81 98.0397C153.625 97.0064 153.753 95.9414 154.176 94.9809C154.6 94.0204 155.3 93.2079 156.188 92.6472C157.075 92.0866 158.109 91.8032 159.159 91.8332C160.208 91.8633 161.225 92.2054 162.079 92.816C162.932 93.4265 163.585 94.2778 163.953 95.261C164.321 96.2442 164.387 97.3147 164.144 98.3358C163.9 99.3569 163.358 100.282 162.586 100.994C161.814 101.705 160.847 102.17 159.81 102.33C158.448 102.539 157.058 102.208 155.937 101.406C154.815 100.605 154.052 99.3964 153.81 98.0397Z" fill="#231815"/>
<path d="M147.48 117.51C143.087 117.691 138.74 116.552 135 114.24C134.659 113.956 134.441 113.551 134.389 113.111C134.336 112.67 134.455 112.226 134.719 111.869C134.984 111.513 135.374 111.271 135.811 111.193C136.248 111.115 136.698 111.207 137.07 111.45C141.791 114.107 147.343 114.879 152.61 113.61C158.003 113.006 162.966 110.379 166.5 106.26C166.754 105.863 167.157 105.582 167.618 105.481C168.079 105.38 168.562 105.466 168.96 105.72C169.358 105.975 169.638 106.377 169.739 106.839C169.841 107.3 169.754 107.783 169.5 108.18C169.32 108.45 164.91 114.96 153.33 117C151.428 117.333 149.501 117.504 147.57 117.51" fill="#231815"/>
<path d="M155.76 105.9C155.61 105.04 155.208 104.244 154.605 103.612C154.002 102.981 153.226 102.543 152.374 102.353C151.522 102.164 150.632 102.231 149.819 102.547C149.005 102.864 148.304 103.414 147.803 104.129C147.302 104.844 147.025 105.692 147.007 106.564C146.988 107.437 147.229 108.296 147.699 109.031C148.169 109.767 148.846 110.347 149.646 110.697C150.445 111.048 151.331 111.153 152.19 111C153.339 110.795 154.36 110.143 155.029 109.187C155.698 108.231 155.961 107.049 155.76 105.9Z" fill="#EA5504"/>
</g>
</g>
<defs>
<clipPath id="clip0_2042_40498">
<rect width="150" height="220" fill="white" transform="translate(87 10)"/>
</clipPath>
<clipPath id="clip1_2042_40498">
<rect width="143.43" height="212.25" fill="white" transform="translate(90 18)"/>
</clipPath>
</defs>
</svg>
