<svg width="1411" height="681" viewBox="0 0 1411 681" fill="none" xmlns="http://www.w3.org/2000/svg">
<path d="M13.8999 667.614C19.9983 673.712 28.4331 677.514 37.6995 677.514H1373.49C1392.02 677.514 1407.15 662.347 1407.15 643.854V542.834H284.645L13.8999 667.614Z" fill="#ECF3CB"/>
<path d="M284.646 542.798V4H37.7001C19.1672 4 4.04004 19.1668 4.04004 37.66V644.213C4.04004 653.48 7.84165 661.875 13.94 667.973L284.646 542.798Z" fill="#D8E58F"/>
<path d="M378.181 542.796V4.79053" stroke="#727171" stroke-width="1.188" stroke-miterlimit="10" stroke-dasharray="1.98 1.98"/>
<path d="M471.717 542.798V4" stroke="#727171" stroke-width="1.188" stroke-miterlimit="10" stroke-dasharray="1.98 1.98"/>
<path d="M565.25 542.796V4.79053" stroke="#727171" stroke-width="1.188" stroke-miterlimit="10" stroke-dasharray="1.98 1.98"/>
<path d="M658.827 542.798V4" stroke="#727171" stroke-width="1.188" stroke-miterlimit="10" stroke-dasharray="1.98 1.98"/>
<path d="M752.36 542.796V4.79053" stroke="#9FA0A0" stroke-width="1.98" stroke-miterlimit="10"/>
<path d="M845.896 542.796V4.79053" stroke="#727171" stroke-width="1.188" stroke-miterlimit="10" stroke-dasharray="1.98 1.98"/>
<path d="M939.432 542.798V4" stroke="#727171" stroke-width="1.188" stroke-miterlimit="10" stroke-dasharray="1.98 1.98"/>
<path d="M1032.97 542.796V4.79053" stroke="#727171" stroke-width="1.188" stroke-miterlimit="10" stroke-dasharray="1.98 1.98"/>
<path d="M1126.54 542.798V4" stroke="#727171" stroke-width="1.188" stroke-miterlimit="10" stroke-dasharray="1.98 1.98"/>
<path d="M1313.61 542.798V4" stroke="#727171" stroke-width="1.188" stroke-miterlimit="10" stroke-dasharray="1.98 1.98"/>
<path d="M1220.08 542.796V4.79053" stroke="#9FA0A0" stroke-width="1.98" stroke-miterlimit="10"/>
<path d="M183.67 637.387V646.63H181.427V623.929H183.67V635.396H189.258V637.387H183.67ZM181.427 661.229V650.536H159.461V648.583H183.67V661.229H181.427ZM155.072 630.446V628.57H164.914V623.775H167.157V628.57H176.999V630.446H155.072ZM166.151 634.68C165.081 634.68 164.114 634.79 163.251 635.009C162.4 635.215 161.678 635.512 161.085 635.898C160.492 636.285 160.035 636.749 159.712 637.291C159.403 637.832 159.248 638.431 159.248 639.089C159.248 639.746 159.403 640.346 159.712 640.887C160.035 641.416 160.492 641.873 161.085 642.26C161.678 642.634 162.4 642.924 163.251 643.13C164.114 643.323 165.081 643.42 166.151 643.42C167.234 643.42 168.201 643.323 169.052 643.13C169.902 642.924 170.624 642.634 171.217 642.26C171.81 641.873 172.261 641.416 172.571 640.887C172.893 640.346 173.054 639.746 173.054 639.089C173.054 638.431 172.893 637.832 172.571 637.291C172.261 636.749 171.81 636.285 171.217 635.898C170.624 635.512 169.902 635.215 169.052 635.009C168.201 634.79 167.234 634.68 166.151 634.68ZM166.113 645.238C164.875 645.238 163.702 645.109 162.593 644.851C161.498 644.58 160.537 644.187 159.712 643.671C158.887 643.143 158.236 642.498 157.759 641.738C157.282 640.964 157.044 640.081 157.044 639.089C157.044 638.071 157.282 637.175 157.759 636.401C158.249 635.628 158.907 634.983 159.732 634.468C160.557 633.939 161.517 633.546 162.613 633.288C163.721 633.017 164.901 632.882 166.151 632.882C167.389 632.882 168.555 633.017 169.651 633.288C170.76 633.546 171.726 633.939 172.551 634.468C173.389 634.983 174.047 635.628 174.524 636.401C175.013 637.175 175.258 638.071 175.258 639.089C175.258 640.094 175.013 640.977 174.524 641.738C174.034 642.498 173.37 643.143 172.532 643.671C171.694 644.187 170.721 644.58 169.612 644.851C168.504 645.109 167.337 645.238 166.113 645.238ZM221.27 645.856V635.802H216.185V644.851H213.961V624.703H216.185V633.965H221.27V623.929H223.513V645.856H221.27ZM211.39 648.467C209.714 648.467 208.238 648.602 206.962 648.873C205.698 649.131 204.641 649.492 203.791 649.956C202.94 650.42 202.302 650.968 201.876 651.599C201.451 652.231 201.238 652.914 201.238 653.649C201.238 654.384 201.451 655.067 201.876 655.698C202.302 656.33 202.94 656.878 203.791 657.342C204.641 657.806 205.698 658.167 206.962 658.425C208.225 658.696 209.701 658.831 211.39 658.831C213.065 658.831 214.535 658.696 215.798 658.425C217.074 658.167 218.138 657.806 218.989 657.342C219.839 656.878 220.477 656.33 220.903 655.698C221.328 655.067 221.541 654.384 221.541 653.649C221.541 652.914 221.328 652.231 220.903 651.599C220.477 650.968 219.839 650.42 218.989 649.956C218.138 649.492 217.074 649.131 215.798 648.873C214.535 648.602 213.065 648.467 211.39 648.467ZM211.39 660.706C209.314 660.706 207.503 660.526 205.956 660.165C204.409 659.817 203.12 659.327 202.089 658.696C201.058 658.077 200.284 657.336 199.769 656.472C199.253 655.608 198.995 654.667 198.995 653.649C198.995 652.63 199.253 651.696 199.769 650.845C200.284 649.981 201.058 649.234 202.089 648.602C203.12 647.971 204.409 647.481 205.956 647.133C207.503 646.772 209.314 646.591 211.39 646.591C213.465 646.591 215.276 646.772 216.823 647.133C218.37 647.481 219.659 647.971 220.69 648.602C221.721 649.234 222.495 649.981 223.01 650.845C223.526 651.696 223.784 652.63 223.784 653.649C223.784 654.667 223.526 655.608 223.01 656.472C222.495 657.336 221.721 658.077 220.69 658.696C219.659 659.327 218.37 659.817 216.823 660.165C215.276 660.526 213.465 660.706 211.39 660.706ZM209.282 642.627C208.573 642.202 207.845 641.673 207.097 641.042C206.349 640.41 205.634 639.721 204.951 638.973C204.28 638.225 203.674 637.439 203.133 636.614C202.592 635.789 202.166 634.964 201.857 634.139C201.599 634.99 201.206 635.873 200.677 636.788C200.162 637.703 199.562 638.586 198.879 639.437C198.196 640.288 197.455 641.08 196.656 641.815C195.856 642.537 195.051 643.143 194.239 643.633L192.614 642.067C193.71 641.448 194.748 640.694 195.727 639.804C196.707 638.915 197.564 637.922 198.299 636.827C199.047 635.731 199.633 634.551 200.059 633.288C200.497 632.025 200.716 630.723 200.716 629.382V625.283H202.901V629.363C202.901 630.613 203.127 631.831 203.578 633.017C204.029 634.19 204.622 635.286 205.357 636.304C206.091 637.31 206.929 638.212 207.87 639.012C208.811 639.811 209.778 640.449 210.771 640.926L209.282 642.627ZM257.316 646.088V661.229H255.073V646.088H239.005V644.136H273.423V646.088H257.316ZM270.523 638.876C269.62 638.786 268.686 638.612 267.719 638.354C266.765 638.083 265.818 637.748 264.877 637.349C263.948 636.949 263.04 636.491 262.15 635.976C261.261 635.447 260.436 634.88 259.675 634.274C258.915 633.668 258.231 633.03 257.626 632.36C257.02 631.69 256.536 631 256.175 630.291C255.789 631 255.299 631.69 254.706 632.36C254.113 633.017 253.443 633.643 252.695 634.236C251.96 634.829 251.161 635.389 250.297 635.918C249.434 636.433 248.538 636.897 247.61 637.31C246.694 637.722 245.76 638.083 244.806 638.393C243.852 638.702 242.917 638.941 242.002 639.108L240.668 637.271C241.583 637.181 242.569 636.994 243.626 636.711C244.696 636.427 245.766 636.06 246.836 635.608C247.906 635.144 248.937 634.603 249.93 633.984C250.923 633.353 251.799 632.65 252.56 631.877C253.32 631.103 253.926 630.272 254.377 629.382C254.841 628.48 255.073 627.52 255.073 626.501V625.128H257.316V626.482C257.316 627.487 257.542 628.441 257.993 629.344C258.444 630.233 259.044 631.064 259.791 631.838C260.552 632.598 261.422 633.295 262.402 633.926C263.394 634.545 264.425 635.08 265.495 635.531C266.578 635.982 267.655 636.343 268.724 636.614C269.807 636.885 270.826 637.046 271.78 637.097L270.523 638.876Z" fill="black"/>
<path d="M24.6448 608.592V594.535H15.3249V592.582H49.7429V594.535H40.423V608.592H38.18V594.535H26.8878V608.592H24.6448ZM32.5339 573.807C30.9097 573.807 29.4853 573.968 28.2606 574.29C27.0489 574.6 26.0306 575.025 25.2056 575.566C24.3806 576.108 23.7618 576.746 23.3493 577.481C22.9368 578.203 22.7306 578.982 22.7306 579.82C22.7306 580.658 22.9368 581.438 23.3493 582.16C23.7618 582.882 24.3806 583.513 25.2056 584.055C26.0306 584.583 27.0554 585.002 28.28 585.312C29.5046 585.621 30.9226 585.776 32.5339 585.776C34.1452 585.776 35.5632 585.621 36.7878 585.312C38.0253 585.002 39.0565 584.583 39.8815 584.055C40.7194 583.513 41.3511 582.882 41.7765 582.16C42.2019 581.438 42.4146 580.658 42.4146 579.82C42.4146 578.995 42.2019 578.215 41.7765 577.481C41.364 576.746 40.7388 576.108 39.9009 575.566C39.0759 575.025 38.0446 574.6 36.8071 574.29C35.5825 573.968 34.1581 573.807 32.5339 573.807ZM32.5339 587.632C30.8581 587.632 29.2919 587.464 27.8353 587.129C26.3786 586.794 25.1089 586.298 24.0261 585.64C22.9433 584.983 22.086 584.171 21.4544 583.204C20.8356 582.224 20.5263 581.096 20.5263 579.82C20.5263 578.531 20.8421 577.397 21.4737 576.417C22.1054 575.437 22.9626 574.619 24.0454 573.962C25.1282 573.291 26.398 572.788 27.8546 572.453C29.3112 572.118 30.871 571.951 32.5339 571.951C34.2226 571.951 35.8017 572.125 37.2712 572.473C38.7407 572.808 40.0169 573.311 41.0997 573.981C42.1954 574.638 43.0526 575.457 43.6714 576.437C44.303 577.416 44.6188 578.544 44.6188 579.82C44.6188 581.109 44.303 582.244 43.6714 583.223C43.0397 584.19 42.1761 585.002 41.0804 585.66C39.9976 586.317 38.7214 586.813 37.2519 587.149C35.7823 587.471 34.2097 587.632 32.5339 587.632ZM71.7588 608.341C70.792 608.341 69.8187 608.296 68.839 608.205C67.8594 608.115 66.9119 607.967 65.9967 607.761C65.0943 607.567 64.2435 607.303 63.4443 606.968C62.658 606.646 61.9683 606.246 61.3754 605.769C60.7953 605.292 60.3312 604.731 59.9832 604.087C59.648 603.429 59.4805 602.675 59.4805 601.825C59.4805 600.974 59.648 600.226 59.9832 599.582C60.3183 598.924 60.7824 598.357 61.3754 597.88C61.9683 597.39 62.658 596.984 63.4443 596.662C64.2306 596.327 65.0814 596.062 65.9967 595.869C66.9119 595.663 67.8594 595.521 68.839 595.444C69.8187 595.354 70.792 595.308 71.7588 595.308C72.7256 595.308 73.7053 595.354 74.6978 595.444C75.6904 595.521 76.6443 595.663 77.5596 595.869C78.4748 596.062 79.3256 596.327 80.1119 596.662C80.9111 596.984 81.6008 597.39 82.1808 597.88C82.7738 598.357 83.2379 598.924 83.573 599.582C83.9211 600.226 84.0951 600.974 84.0951 601.825C84.0951 602.675 83.9211 603.429 83.573 604.087C83.2379 604.731 82.7738 605.292 82.1808 605.769C81.5879 606.259 80.8918 606.665 80.0926 606.987C79.2933 607.31 78.4361 607.567 77.5209 607.761C76.6056 607.967 75.6582 608.115 74.6785 608.205C73.6988 608.296 72.7256 608.341 71.7588 608.341ZM64.5078 592.466C63.2703 592.466 62.0972 592.337 60.9887 592.079C59.893 591.809 58.9326 591.415 58.1076 590.9C57.2826 590.371 56.6316 589.727 56.1547 588.966C55.6777 588.193 55.4392 587.31 55.4392 586.317C55.4392 585.299 55.6777 584.403 56.1547 583.629C56.6445 582.856 57.3019 582.212 58.1269 581.696C58.9519 581.167 59.9123 580.774 61.008 580.516C62.1166 580.246 63.2961 580.11 64.5465 580.11C65.784 580.11 66.9506 580.246 68.0463 580.516C69.1549 580.774 70.1217 581.167 70.9467 581.696C71.7846 582.212 72.442 582.856 72.9189 583.629C73.4088 584.403 73.6537 585.299 73.6537 586.317C73.6537 587.323 73.4088 588.206 72.9189 588.966C72.4291 589.727 71.7652 590.371 70.9273 590.9C70.0894 591.415 69.1162 591.809 68.0076 592.079C66.899 592.337 65.7324 592.466 64.5078 592.466ZM71.7588 597.145C71.024 597.145 70.2635 597.178 69.4771 597.242C68.6908 597.294 67.9238 597.39 67.1762 597.532C66.4414 597.674 65.7389 597.861 65.0685 598.093C64.4111 598.325 63.831 598.615 63.3283 598.963C62.8385 599.311 62.4453 599.723 62.1488 600.2C61.8652 600.664 61.7234 601.206 61.7234 601.825C61.7234 602.443 61.8652 602.991 62.1488 603.468C62.4453 603.932 62.8385 604.338 63.3283 604.686C63.831 605.034 64.4111 605.324 65.0685 605.556C65.726 605.788 66.4221 605.975 67.1568 606.117C67.9045 606.259 68.6715 606.356 69.4578 606.407C70.2441 606.472 71.0111 606.504 71.7588 606.504C72.5064 606.504 73.2734 606.472 74.0598 606.407C74.859 606.356 75.6324 606.259 76.3801 606.117C77.1277 605.975 77.8303 605.788 78.4877 605.556C79.158 605.324 79.7381 605.041 80.2279 604.706C80.7306 604.358 81.1238 603.945 81.4074 603.468C81.7039 602.991 81.8521 602.443 81.8521 601.825C81.8521 600.896 81.5363 600.129 80.9047 599.524C80.273 598.918 79.4609 598.441 78.4683 598.093C77.4887 597.732 76.4058 597.487 75.2199 597.358C74.034 597.216 72.8803 597.145 71.7588 597.145ZM64.5465 581.909C63.4765 581.909 62.5097 582.018 61.6461 582.237C60.7953 582.444 60.0734 582.74 59.4805 583.127C58.8875 583.513 58.4299 583.978 58.1076 584.519C57.7982 585.06 57.6435 585.66 57.6435 586.317C57.6435 586.975 57.7982 587.574 58.1076 588.115C58.4299 588.644 58.8875 589.102 59.4805 589.488C60.0734 589.862 60.7953 590.152 61.6461 590.358C62.5097 590.552 63.4765 590.648 64.5465 590.648C65.6293 590.648 66.5961 590.552 67.4469 590.358C68.2976 590.152 69.0195 589.862 69.6125 589.488C70.2055 589.102 70.6566 588.644 70.966 588.115C71.2883 587.574 71.4494 586.975 71.4494 586.317C71.4494 585.66 71.2883 585.06 70.966 584.519C70.6566 583.978 70.2055 583.513 69.6125 583.127C69.0195 582.74 68.2976 582.444 67.4469 582.237C66.5961 582.018 65.6293 581.909 64.5465 581.909ZM81.4848 594.825V588.831H75.3166V586.975H81.4848V582.566H75.3166V580.71H81.4848V571.332H83.7277V594.825H81.4848ZM53.6023 577.713V575.837H63.4443V571.196H65.6873V575.837H75.5293V577.713H53.6023Z" fill="black"/>
<path d="M4 452.983H1407.15" stroke="#9FA0A0" stroke-width="1.98" stroke-miterlimit="10"/>
<path d="M4 542.795H1407.15" stroke="#9FA0A0" stroke-width="1.98" stroke-miterlimit="10"/>
<path d="M284.646 4.03857V677.516" stroke="#9FA0A0" stroke-width="1.98" stroke-miterlimit="10"/>
<path d="M4 363.211H1407.15" stroke="#9FA0A0" stroke-width="1.98" stroke-miterlimit="10"/>
<path d="M4 273.398H1407.15" stroke="#9FA0A0" stroke-width="1.98" stroke-miterlimit="10"/>
<path d="M4 183.584H1407.15" stroke="#9FA0A0" stroke-width="1.98" stroke-miterlimit="10"/>
<path d="M4 93.8115H1407.15" stroke="#9FA0A0" stroke-width="1.98" stroke-miterlimit="10"/>
<path d="M114.69 68.4805V58.5031H92.6475V56.5502H104.094V51.2521H87.9875V49.2992H122.405V51.2521H106.337V56.5502H116.933V68.4805H114.69ZM106.144 44.4846V32.7283H118.519V34.6232H108.348V42.5896H118.732V44.4846H106.144ZM92.0674 44.4846V32.7283H103.785V34.6232H94.2717V42.5896H104.346V44.4846H92.0674ZM137.654 48.7965C137.035 48.8996 136.326 48.9963 135.527 49.0865C134.741 49.1639 133.883 49.2348 132.955 49.2992C132.04 49.3508 131.08 49.3959 130.074 49.4346C129.069 49.4604 128.044 49.4732 127 49.4732V33.0764H136.687V34.9713H129.243V47.5783C130.119 47.5783 130.964 47.5654 131.776 47.5396C132.601 47.501 133.368 47.4559 134.077 47.4043C134.786 47.3527 135.417 47.2947 135.972 47.2303C136.539 47.1529 137.009 47.0691 137.383 46.9789L137.654 48.7965ZM150.319 48.9125C149.313 49.093 147.876 49.2412 146.007 49.3572C144.138 49.4732 141.863 49.5312 139.181 49.5312V33.0764H148.733V34.9713H141.424V47.6363H144.131C144.621 47.6363 145.137 47.6234 145.678 47.5977C146.233 47.5719 146.78 47.5396 147.322 47.501C147.863 47.4494 148.372 47.3979 148.849 47.3463C149.339 47.2818 149.758 47.2109 150.106 47.1336L150.319 48.9125ZM155.017 42.8604V52.6057H152.774V31.1814H155.017V40.9074H160.606V42.8604H155.017ZM152.774 68.4805V56.5115H130.828V54.5586H155.017V68.4805H152.774ZM191.922 68.4805V31.1814H194.165V68.4805H191.922ZM174.79 35.5127C173.553 35.5127 172.483 35.8027 171.581 36.3828C170.678 36.95 169.937 37.7299 169.357 38.7225C168.777 39.7021 168.345 40.843 168.061 42.1449C167.791 43.4469 167.655 44.8197 167.655 46.2635C167.655 47.6943 167.791 49.0607 168.061 50.3627C168.345 51.6518 168.777 52.7926 169.357 53.7852C169.937 54.7648 170.678 55.5512 171.581 56.1441C172.483 56.7242 173.553 57.0143 174.79 57.0143C176.041 57.0143 177.111 56.7242 178 56.1441C178.903 55.5512 179.644 54.7584 180.224 53.7658C180.804 52.7732 181.229 51.6324 181.5 50.3434C181.784 49.0414 181.925 47.6814 181.925 46.2635C181.925 44.7553 181.79 43.3502 181.519 42.0482C181.249 40.7334 180.823 39.5926 180.243 38.6258C179.663 37.659 178.922 36.8984 178.019 36.3441C177.117 35.7898 176.041 35.5127 174.79 35.5127ZM174.79 58.9092C173.218 58.9092 171.845 58.5869 170.672 57.9424C169.512 57.2979 168.545 56.4148 167.771 55.2934C166.998 54.159 166.418 52.8248 166.031 51.2908C165.644 49.7439 165.451 48.0682 165.451 46.2635C165.451 44.4588 165.644 42.783 166.031 41.2361C166.418 39.6893 166.998 38.3551 167.771 37.2336C168.545 36.0992 169.512 35.2162 170.672 34.5846C171.845 33.94 173.218 33.6178 174.79 33.6178C176.337 33.6178 177.697 33.94 178.87 34.5846C180.043 35.2162 181.017 36.0992 181.79 37.2336C182.576 38.368 183.163 39.7086 183.55 41.2555C183.949 42.7895 184.149 44.4588 184.149 46.2635C184.149 48.0682 183.949 49.7439 183.55 51.2908C183.163 52.8248 182.576 54.159 181.79 55.2934C181.017 56.4277 180.043 57.3172 178.87 57.9617C177.697 58.5934 176.337 58.9092 174.79 58.9092Z" fill="black"/>
<path d="M284.645 543.193L13.8999 668.013" stroke="#9FA0A0" stroke-width="1.98" stroke-miterlimit="10"/>
<path d="M4 643.817C4 662.35 19.1668 677.477 37.66 677.477H1373.45C1391.98 677.477 1407.11 662.31 1407.11 643.817V37.66C1407.11 19.1272 1391.94 4 1373.45 4H37.6996C19.1668 4 4.0396 19.1668 4.0396 37.66V643.817H4Z" stroke="#D8E58F" stroke-width="6.732"/>
<rect x="690.5" y="555.5" width="123" height="67" rx="16.5" fill="white"/>
<rect x="690.5" y="555.5" width="123" height="67" rx="16.5" stroke="#FFB6D2" stroke-width="3"/>
<path d="M736.164 607.335C734.668 607.709 733.314 606.355 733.688 604.86L735.75 596.611L744.412 605.273L736.164 607.335Z" fill="#DFE3ED"/>
<path d="M745.856 603.83L766.067 583.618L757.405 574.956L737.194 595.168L745.856 603.83Z" fill="#DFE3ED"/>
<path d="M767.511 582.175L758.849 573.513L763.18 569.181C763.977 568.384 765.27 568.384 766.067 569.181L771.842 574.956C772.639 575.754 772.639 577.046 771.842 577.844L767.511 582.175Z" fill="#DFE3ED"/>
<rect x="1158.5" y="555.5" width="123" height="67" rx="16.5" fill="white"/>
<rect x="1158.5" y="555.5" width="123" height="67" rx="16.5" stroke="#FFB6D2" stroke-width="3"/>
<path d="M1204.16 607.335C1202.67 607.709 1201.31 606.355 1201.69 604.86L1203.75 596.611L1212.41 605.273L1204.16 607.335Z" fill="#DFE3ED"/>
<path d="M1213.86 603.83L1234.07 583.618L1225.41 574.956L1205.19 595.168L1213.86 603.83Z" fill="#DFE3ED"/>
<path d="M1235.51 582.175L1226.85 573.513L1231.18 569.181C1231.98 568.384 1233.27 568.384 1234.07 569.181L1239.84 574.956C1240.64 575.754 1240.64 577.046 1239.84 577.844L1235.51 582.175Z" fill="#DFE3ED"/>
<rect x="52.785" y="101.785" width="182.43" height="72.43" rx="16.215" fill="white"/>
<rect x="52.785" y="101.785" width="182.43" height="72.43" rx="16.215" stroke="#A1C8EB" stroke-width="2.43"/>
<path d="M126.025 159.567C124.295 159.999 122.728 158.432 123.16 156.702L125.546 147.157L135.569 157.181L126.025 159.567Z" fill="#DFE3ED"/>
<path d="M137.24 155.51L160.628 132.122L150.604 122.099L127.217 145.487L137.24 155.51Z" fill="#DFE3ED"/>
<path d="M162.298 130.452L152.275 120.429L157.286 115.417C158.209 114.494 159.705 114.494 160.628 115.417L167.31 122.099C168.232 123.022 168.232 124.518 167.31 125.44L162.298 130.452Z" fill="#DFE3ED"/>
<rect x="52.785" y="191.785" width="182.43" height="72.43" rx="16.215" fill="white"/>
<rect x="52.785" y="191.785" width="182.43" height="72.43" rx="16.215" stroke="#A1C8EB" stroke-width="2.43"/>
<path d="M126.025 249.567C124.295 249.999 122.728 248.432 123.16 246.702L125.546 237.157L135.569 247.181L126.025 249.567Z" fill="#DFE3ED"/>
<path d="M137.24 245.51L160.628 222.122L150.604 212.099L127.217 235.487L137.24 245.51Z" fill="#DFE3ED"/>
<path d="M162.298 220.452L152.275 210.429L157.286 205.417C158.209 204.494 159.705 204.494 160.628 205.417L167.31 212.099C168.232 213.022 168.232 214.518 167.31 215.44L162.298 220.452Z" fill="#DFE3ED"/>
<rect x="52.785" y="281.785" width="182.43" height="72.43" rx="16.215" fill="white"/>
<rect x="52.785" y="281.785" width="182.43" height="72.43" rx="16.215" stroke="#A1C8EB" stroke-width="2.43"/>
<path d="M126.025 339.567C124.295 339.999 122.728 338.432 123.16 336.702L125.546 327.157L135.569 337.181L126.025 339.567Z" fill="#DFE3ED"/>
<path d="M137.24 335.51L160.628 312.122L150.604 302.099L127.217 325.487L137.24 335.51Z" fill="#DFE3ED"/>
<path d="M162.298 310.452L152.275 300.429L157.286 295.417C158.209 294.494 159.705 294.494 160.628 295.417L167.31 302.099C168.232 303.022 168.232 304.518 167.31 305.44L162.298 310.452Z" fill="#DFE3ED"/>
<rect x="52.785" y="371.785" width="182.43" height="72.43" rx="16.215" fill="white"/>
<rect x="52.785" y="371.785" width="182.43" height="72.43" rx="16.215" stroke="#A1C8EB" stroke-width="2.43"/>
<path d="M126.025 429.567C124.295 429.999 122.728 428.432 123.16 426.702L125.546 417.157L135.569 427.181L126.025 429.567Z" fill="#DFE3ED"/>
<path d="M137.24 425.51L160.628 402.122L150.604 392.099L127.217 415.487L137.24 425.51Z" fill="#DFE3ED"/>
<path d="M162.298 400.452L152.275 390.429L157.286 385.417C158.209 384.494 159.705 384.494 160.628 385.417L167.31 392.099C168.232 393.022 168.232 394.518 167.31 395.44L162.298 400.452Z" fill="#DFE3ED"/>
<rect x="52.785" y="461.785" width="182.43" height="72.43" rx="16.215" fill="white"/>
<rect x="52.785" y="461.785" width="182.43" height="72.43" rx="16.215" stroke="#A1C8EB" stroke-width="2.43"/>
<path d="M126.025 519.567C124.295 519.999 122.728 518.432 123.16 516.702L125.546 507.157L135.569 517.181L126.025 519.567Z" fill="#DFE3ED"/>
<path d="M137.24 515.51L160.628 492.122L150.604 482.099L127.217 505.487L137.24 515.51Z" fill="#DFE3ED"/>
<path d="M162.298 490.452L152.275 480.429L157.286 475.417C158.209 474.494 159.705 474.494 160.628 475.417L167.31 482.099C168.232 483.022 168.232 484.518 167.31 485.44L162.298 490.452Z" fill="#DFE3ED"/>
<path d="M308.487 555.298C312.117 555.298 314.882 556.957 316.782 560.275C318.455 563.168 319.292 566.982 319.292 571.718C319.292 576.369 318.455 580.141 316.782 583.034C314.882 586.323 312.117 587.968 308.487 587.968C304.828 587.968 302.049 586.323 300.149 583.034C298.504 580.141 297.682 576.369 297.682 571.718C297.682 566.982 298.504 563.168 300.149 560.275C302.049 556.957 304.828 555.298 308.487 555.298ZM308.487 556.447C305.764 556.447 303.694 557.978 302.276 561.041C301.057 563.763 300.447 567.322 300.447 571.718C300.447 576.057 301.057 579.56 302.276 582.225C303.694 585.288 305.764 586.82 308.487 586.82C311.181 586.82 313.237 585.288 314.655 582.225C315.931 579.531 316.569 576.029 316.569 571.718C316.569 567.322 315.931 563.763 314.655 561.041C313.237 557.978 311.181 556.447 308.487 556.447Z" fill="black"/>
<path d="M1338.62 640.49H1346.18V635.023H1338.62V640.49ZM1336.62 631.578H1325.28V643.865H1336.62V631.578ZM1323.27 645.605V629.838H1338.62V633.318H1346.18V628.256H1348.22V649.139H1346.18V642.195H1338.62V645.605H1323.27ZM1337.42 650.65C1335.85 650.65 1334.5 650.779 1333.36 651.037C1332.23 651.283 1331.29 651.623 1330.55 652.057C1329.81 652.479 1329.26 652.977 1328.9 653.551C1328.55 654.113 1328.37 654.717 1328.37 655.361C1328.37 656.006 1328.55 656.615 1328.9 657.189C1329.26 657.752 1329.81 658.25 1330.55 658.684C1331.29 659.105 1332.23 659.439 1333.36 659.686C1334.5 659.943 1335.85 660.072 1337.42 660.072C1338.98 660.072 1340.33 659.943 1341.47 659.686C1342.62 659.439 1343.56 659.105 1344.3 658.684C1345.04 658.25 1345.58 657.752 1345.93 657.189C1346.29 656.615 1346.48 656.006 1346.48 655.361C1346.48 654.717 1346.29 654.113 1345.93 653.551C1345.58 652.977 1345.04 652.479 1344.3 652.057C1343.56 651.623 1342.62 651.283 1341.47 651.037C1340.33 650.779 1338.98 650.65 1337.42 650.65ZM1337.42 661.777C1335.57 661.777 1333.95 661.613 1332.55 661.285C1331.17 660.957 1330.02 660.506 1329.09 659.932C1328.17 659.357 1327.47 658.678 1327.02 657.893C1326.56 657.107 1326.33 656.264 1326.33 655.361C1326.33 654.459 1326.56 653.615 1327.02 652.83C1327.47 652.045 1328.17 651.365 1329.09 650.791C1330.02 650.217 1331.17 649.766 1332.55 649.438C1333.95 649.109 1335.57 648.945 1337.42 648.945C1339.28 648.945 1340.89 649.109 1342.28 649.438C1343.67 649.766 1344.82 650.217 1345.74 650.791C1346.66 651.365 1347.36 652.045 1347.81 652.83C1348.28 653.615 1348.52 654.459 1348.52 655.361C1348.52 656.264 1348.28 657.107 1347.81 657.893C1347.36 658.678 1346.66 659.357 1345.74 659.932C1344.82 660.506 1343.67 660.957 1342.28 661.285C1340.89 661.613 1339.28 661.777 1337.42 661.777Z" fill="#222222"/>
<path d="M1290.96 628.894C1288.99 630.472 1287.46 632.461 1286.36 634.861C1285.21 637.369 1284.64 640.093 1284.64 643.033C1284.64 645.995 1285.21 648.719 1286.36 651.206C1287.42 653.519 1288.95 655.519 1290.96 657.205V657.757C1288.11 656.178 1285.99 654.103 1284.61 651.53C1283.31 649.109 1282.66 646.276 1282.66 643.033C1282.66 639.834 1283.31 637.023 1284.61 634.601C1286.01 632.029 1288.13 629.932 1290.96 628.31V628.894ZM1382.67 628.894V628.31C1385.48 629.932 1387.59 632.029 1389 634.601C1390.32 637.023 1390.98 639.834 1390.98 643.033C1390.98 646.276 1390.32 649.109 1389 651.53C1387.61 654.103 1385.51 656.178 1382.67 657.757V657.205C1384.66 655.519 1386.19 653.519 1387.25 651.206C1388.41 648.719 1389 645.995 1389 643.033C1389 640.093 1388.41 637.369 1387.25 634.861C1386.14 632.461 1384.62 630.472 1382.67 628.894Z" fill="black"/>
<path opacity="0.7" d="M286.5 66.5V30.5H938.5V66.5H286.5Z" fill="#FF9595" stroke="#FF6565" stroke-width="3"/>
</svg>
