<svg width="770" height="99" viewBox="0 0 770 99" fill="none" xmlns="http://www.w3.org/2000/svg">
<path d="M21 28C15.4305 28 10.089 30.2652 6.15076 34.2972C2.21249 38.3292 0 43.7978 0 49.5C0 55.2022 2.21249 60.6708 6.15076 64.7028C10.089 68.7348 15.4305 71 21 71V28Z" fill="#D8E58F"/>
<path d="M46.0618 2.00246C44.7413 1.98259 43.4303 2.23334 42.2056 2.74C40.9809 3.24667 39.8673 3.99903 38.9301 4.95294C37.9929 5.90685 37.251 7.04309 36.7479 8.29495C36.2449 9.54682 35.9908 10.8891 36.0006 12.243V86.7197C35.9859 88.0768 36.2364 89.4231 36.7373 90.6793C37.2382 91.9355 37.9793 93.0762 38.917 94.034C39.8547 94.9919 40.97 95.7476 42.1971 96.2566C43.4241 96.7656 44.7382 97.0175 46.0618 96.9975H723.866C725.195 97.0276 726.517 96.7831 727.753 96.2787C728.988 95.7742 730.112 95.0201 731.058 94.0612C732.003 93.1023 732.751 91.9582 733.256 90.6969C733.762 89.4357 734.014 88.0832 733.999 86.7197V12.243C734.009 10.8827 733.753 9.53419 733.246 8.27732C732.738 7.02045 731.99 5.88079 731.045 4.92586C730.1 3.97093 728.977 3.22015 727.744 2.718C726.511 2.21584 725.192 1.97253 723.866 2.00246H46.0618Z" fill="white" stroke="#A1C8EB" stroke-width="3"/>
<path d="M363.023 75.445C360.948 75.9637 359.068 74.0841 359.587 72.009L362.449 60.5625L374.47 72.5833L363.023 75.445Z" fill="#DFE3ED"/>
<path d="M376.473 70.5799L404.522 42.5313L392.501 30.5105L364.452 58.5591L376.473 70.5799Z" fill="#DFE3ED"/>
<path d="M406.525 40.5278L394.504 28.507L400.515 22.4966C401.621 21.3901 403.415 21.3901 404.522 22.4966L412.536 30.5105C413.642 31.617 413.642 33.4109 412.536 34.5174L406.525 40.5278Z" fill="#DFE3ED"/>
<path d="M749 28C754.57 28 759.911 30.2652 763.849 34.2972C767.787 38.3292 770 43.7978 770 49.5C770 55.2022 767.787 60.6708 763.849 64.7028C759.911 68.7348 754.57 71 749 71V28Z" fill="#D8E58F"/>
</svg>
