<svg width="65" height="46" viewBox="0 0 65 46" fill="none" xmlns="http://www.w3.org/2000/svg">
<rect width="65" height="46" rx="12" fill="#C5D959"/>
<path d="M29.4941 29.5996C29.2363 28.9082 29.1074 28.1348 29.1074 27.2793C29.1074 25.4277 30.0273 23.7109 31.8672 22.1289C33.1211 21.0156 33.9121 20.1484 34.2402 19.5273C34.5684 18.9062 34.7324 18.2852 34.7324 17.6641C34.7324 16.7969 34.4336 16.0996 33.8359 15.5723C33.2383 15.0449 32.4648 14.7812 31.5156 14.7812C29.418 14.7812 27.5312 15.5723 25.8555 17.1543V12.3906C27.707 11.2656 29.7754 10.7031 32.0605 10.7031C34.3926 10.7031 36.2324 11.2539 37.5801 12.3555C38.9395 13.457 39.6191 14.998 39.6191 16.9785C39.6191 18.1387 39.3613 19.2109 38.8457 20.1953C38.3301 21.1797 37.3457 22.2812 35.8926 23.5C34.7441 24.4844 34.0117 25.2637 33.6953 25.8379C33.3789 26.4121 33.2207 27.0215 33.2207 27.666C33.2207 28.3574 33.3789 29.002 33.6953 29.5996H29.4941ZM28.8789 34.6973C28.8789 33.959 29.1602 33.3262 29.7227 32.7988C30.2969 32.2715 31.0059 32.0078 31.8496 32.0078C32.6699 32.0078 33.3555 32.2715 33.9062 32.7988C34.4688 33.3145 34.75 33.9473 34.75 34.6973C34.75 35.459 34.4746 36.0977 33.9238 36.6133C33.3848 37.1289 32.752 37.3867 32.0254 37.3867C31.0762 37.3867 30.3145 37.123 29.7402 36.5957C29.166 36.0684 28.8789 35.4355 28.8789 34.6973Z" fill="#4A5F12"/>
</svg>
