<svg width="76" height="81" viewBox="0 0 76 81" fill="none" xmlns="http://www.w3.org/2000/svg">
<rect y="3" width="76" height="78" rx="15" fill="#9A9A9A"/>
<rect width="76" height="76" rx="15" fill="#FDFDFD"/>
<path d="M18.9688 32.5205V25.8652H34.1768V19.4932H41.7666V25.8652H56.9746V32.5205H18.9688ZM37.9434 54.2139C33.5254 54.2139 29.9287 53.3171 27.1533 51.5234C24.3779 49.7298 22.9902 47.3226 22.9902 44.3018C22.9902 41.3376 24.3118 38.9492 26.9551 37.1367C29.5983 35.3053 33.2799 34.3896 38 34.3896C42.4557 34.3896 46.0524 35.3337 48.79 37.2217C51.5277 39.0908 52.8965 41.4508 52.8965 44.3018C52.8965 47.3604 51.5277 49.777 48.79 51.5518C46.0713 53.3265 42.4557 54.2139 37.9434 54.2139ZM37.9434 40.9883C33.0345 40.9883 30.5801 42.0928 30.5801 44.3018C30.5801 45.2269 31.2031 45.9915 32.4492 46.5957C33.6953 47.1999 35.5267 47.502 37.9434 47.502C42.8522 47.502 45.3066 46.4352 45.3066 44.3018C45.3066 42.0928 42.8522 40.9883 37.9434 40.9883Z" fill="#383838"/>
</svg>
