<svg width="76" height="81" viewBox="0 0 76 81" fill="none" xmlns="http://www.w3.org/2000/svg">
<rect y="3" width="76" height="78" rx="15" fill="#6A6A6A"/>
<rect width="76" height="76" rx="15" fill="#8E8E8E"/>
<path d="M11.6758 16.0859V13.7305H17.125V11.1875H20.0781V13.7305H25.5273V16.0859H11.6758ZM29.6992 21.418V27.9219H26.7812V11.5039H29.6992V18.9453H33.1562V21.418H29.6992ZM18.6367 25.6836C16.8867 25.6836 15.4766 25.2812 14.4062 24.4766C13.3438 23.6719 12.8125 22.6445 12.8125 21.3945C12.8125 20.1602 13.3398 19.1406 14.3945 18.3359C15.457 17.5234 16.8789 17.1172 18.6602 17.1172C20.4414 17.1172 21.8633 17.5195 22.9258 18.3242C23.9883 19.1289 24.5195 20.1523 24.5195 21.3945C24.5195 22.6367 23.9844 23.6641 22.9141 24.4766C21.8516 25.2812 20.4258 25.6836 18.6367 25.6836ZM18.6602 19.543C17.7383 19.543 17.0234 19.7109 16.5156 20.0469C16.0156 20.375 15.7656 20.8242 15.7656 21.3945C15.7656 21.9727 16.0117 22.4336 16.5039 22.7773C16.9961 23.1211 17.7148 23.293 18.6602 23.293C19.6211 23.293 20.3477 23.125 20.8398 22.7891C21.3398 22.4453 21.5898 21.9805 21.5898 21.3945C21.5898 20.8164 21.3359 20.3633 20.8281 20.0352C20.3203 19.707 19.5977 19.543 18.6602 19.543ZM15.1797 33.3945V26.7148H18.1328V30.9219H30.332V33.3945H15.1797Z" fill="#FFE600"/>
<path d="M55.7383 51.8984C54.5352 53.0938 53.043 53.6914 51.2617 53.6914C49.5352 53.6914 48.0938 53.1562 46.9375 52.0859C45.7812 51.0156 45.2031 49.6172 45.2031 47.8906C45.2031 46.1719 45.7773 44.7734 46.9258 43.6953C48.082 42.6172 49.5273 42.0781 51.2617 42.0781C53.2852 42.0781 54.8828 42.7656 56.0547 44.1406H60.8828V41.5039H63.7891V54.5586H60.8828V51.8984H55.7383ZM51.2617 44.5273C50.3008 44.5273 49.5352 44.832 48.9648 45.4414C48.3945 46.0508 48.1094 46.8672 48.1094 47.8906C48.1094 48.8828 48.3984 49.6914 48.9766 50.3164C49.5547 50.9336 50.3164 51.2422 51.2617 51.2422C52.1992 51.2422 52.9648 50.9336 53.5586 50.3164C54.1523 49.6992 54.4492 48.8906 54.4492 47.8906C54.4492 46.8594 54.1602 46.043 53.582 45.4414C53.0039 44.832 52.2305 44.5273 51.2617 44.5273ZM57.1328 49.5195H60.8828V46.543H57.2031C57.3047 46.957 57.3555 47.4062 57.3555 47.8906C57.3555 48.4844 57.2812 49.0273 57.1328 49.5195ZM56.7227 64.0156C54.3867 64.0156 52.5625 63.5781 51.25 62.7031C49.9453 61.8359 49.293 60.707 49.293 59.3164C49.293 57.9336 49.9492 56.8047 51.2617 55.9297C52.5742 55.0469 54.3945 54.6055 56.7227 54.6055C59.0586 54.6055 60.8867 55.0469 62.207 55.9297C63.5273 56.8125 64.1875 57.9414 64.1875 59.3164C64.1875 60.707 63.5273 61.8359 62.207 62.7031C60.8945 63.5781 59.0664 64.0156 56.7227 64.0156ZM56.7227 57.0312C55.2305 57.0312 54.1133 57.2422 53.3711 57.6641C52.6367 58.0859 52.2695 58.6367 52.2695 59.3164C52.2695 59.9961 52.6406 60.5469 53.3828 60.9688C54.1328 61.3828 55.2461 61.5898 56.7227 61.5898C58.207 61.5898 59.3242 61.3828 60.0742 60.9688C60.832 60.5547 61.2109 60.0039 61.2109 59.3164C61.2109 58.6445 60.8359 58.0977 60.0859 57.6758C59.3438 57.2461 58.2227 57.0312 56.7227 57.0312Z" fill="white"/>
<path d="M61 17L15 62" stroke="white" stroke-width="3" stroke-linecap="round"/>
</svg>
