<svg width="76" height="81" viewBox="0 0 76 81" fill="none" xmlns="http://www.w3.org/2000/svg">
<rect y="3" width="76" height="78" rx="15" fill="#9A9A9A"/>
<rect width="76" height="76" rx="15" fill="#FDFDFD"/>
<path d="M38.4531 20.541H29.2773L28.3145 36.5703C29.5605 35.2109 30.9577 34.2103 32.5059 33.5684C34.1296 32.9642 36.0365 32.6621 38.2266 32.6621C42.4557 32.6621 45.7409 34.0404 48.082 36.7969C50.1966 39.2513 51.2539 42.3477 51.2539 46.0859C51.2539 49.6354 50.1966 52.7129 48.082 55.3184C45.6654 58.377 42.3802 59.9062 38.2266 59.9062C34.224 59.9062 30.9954 58.9056 28.541 56.9043C26.2754 55.0918 25.1426 52.8639 25.1426 50.2207C25.1426 49.3522 25.388 48.6914 25.8789 48.2383C26.3698 47.8229 26.974 47.6152 27.6914 47.6152C28.4089 47.6152 29.013 47.8229 29.5039 48.2383C30.0326 48.6914 30.2969 49.3145 30.2969 50.1074L30.1836 51.6367C29.9948 53.7891 30.2025 55.2806 30.8066 56.1113C31.7884 57.5462 34.0352 58.2637 37.5469 58.2637C40.7565 58.2637 43.2676 56.9043 45.0801 54.1855C46.666 51.8822 47.459 49.1634 47.459 46.0293C47.459 42.7064 46.666 39.9688 45.0801 37.8164C43.3053 35.362 40.7943 34.1348 37.5469 34.1348C35.4323 34.1348 33.4499 34.7201 31.5996 35.8906C30.127 36.7969 28.8809 37.9674 27.8613 39.4023L26.6719 38.8926L27.9746 17.3125H49.4414L48.5352 20.541H38.4531Z" fill="#383838"/>
</svg>
